<?xml version="1.0" encoding="utf-8"?>
<!-- Generator: Adobe Illustrator 19.1.0, SVG Export Plug-In . SVG Version: 6.00 Build 0)  -->
<svg version="1.1" id="Layer_1" xmlns="http://www.w3.org/2000/svg" xmlns:xlink="http://www.w3.org/1999/xlink" x="0px" y="0px"
	 width="122.5px" height="120px" viewBox="0 0 122.5 120" enable-background="new 0 0 122.5 120" xml:space="preserve">
<circle fill="#FFFFFF" stroke="#4167B1" stroke-width="3" cx="61.2" cy="60.2" r="45.8"/>
<path fill="#D9F1FD" stroke="#4167B1" stroke-width="2" stroke-miterlimit="10" d="M78.2,54.9V42.3H26.4v32.2h7.5
	c0.8-2.7,3.3-4.6,6.2-4.6c2.9,0,5.4,2,6.2,4.6h25.6c0.8-2.7,3.3-4.6,6.2-4.6s5.4,2,6.2,4.6h11.2V54.9H78.2z M46.6,55.1h-3.3v3.3H37
	v-3.3h-3.3v-6.3H37v-3.3h6.3v3.3h3.3V55.1z"/>
<path fill="#4167B1" stroke="#4167B1" stroke-width="3" d="M84.6,76.3c0,3.6-2.9,6.5-6.5,6.5c-3.6,0-6.5-2.9-6.5-6.5
	c0-0.6,0.1-1.2,0.3-1.8c0.8-2.7,3.3-4.6,6.2-4.6s5.4,2,6.2,4.6C84.5,75.1,84.6,75.7,84.6,76.3z"/>
<polygon fill="#E62F25" points="46.3,49.1 46.3,55 43.2,55 43.2,58.1 37.3,58.1 37.3,55 34.2,55 34.2,49.1 37.3,49.1 37.3,46 
	43.2,46 43.2,49.1 "/>
<path fill="#4167B1" stroke="#4167B1" stroke-width="3" d="M46.6,76.3c0,3.6-2.9,6.5-6.5,6.5c-3.6,0-6.5-2.9-6.5-6.5
	c0-0.6,0.1-1.2,0.3-1.8c0.8-2.7,3.3-4.6,6.2-4.6c2.9,0,5.4,2,6.2,4.6C46.5,75.1,46.6,75.7,46.6,76.3z"/>
<g>
</g>
<g>
</g>
<g>
</g>
<g>
</g>
<g>
</g>
<g>
</g>
</svg>
