<?xml version="1.0" encoding="utf-8"?>
<!-- Generator: Adobe Illustrator 19.1.0, SVG Export Plug-In . SVG Version: 6.00 Build 0)  -->
<svg version="1.1" id="Layer_1" xmlns="http://www.w3.org/2000/svg" xmlns:xlink="http://www.w3.org/1999/xlink" x="0px" y="0px"
	 width="116.2px" height="117.5px" viewBox="0 0 116.2 117.5" enable-background="new 0 0 116.2 117.5" xml:space="preserve">
<ellipse fill="#FFFFFF" stroke="#4167B1" stroke-width="3" cx="58.6" cy="58.5" rx="46" ry="47.5"/>
<path fill="#F15623" stroke="#4167B1" stroke-width="2" d="M71.4,31.2v14.7H45.6V31.2c0-3.6,2.9-6.5,6.5-6.5H65
	C68.5,24.8,71.4,27.7,71.4,31.2z"/>
<path fill="#F15623" stroke="#4167B1" stroke-width="2" d="M45.6,71.7h25.8v14.7c0,3.6-2.9,6.5-6.5,6.5H52.1c-3.6,0-6.5-2.9-6.5-6.5
	V71.7z"/>
<path fill="#F15623" stroke="#4167B1" stroke-width="2" d="M92.6,52.7v12.1c0,3.8-3.1,6.8-6.8,6.8H31.3c-3.8,0-6.8-3.1-6.8-6.8V52.7
	c0-3.8,3.1-6.8,6.8-6.8h54.4C89.5,45.9,92.6,49,92.6,52.7z"/>
<path fill="none" stroke="#4167B1" stroke-width="2" d="M62.8,48.4h-8.5c-3,0-5.5,2.5-5.5,5.5V63c0,3,2.5,5.5,5.5,5.5h8.5
	c3,0,5.5-2.5,5.5-5.5v-9.1C68.3,50.9,65.8,48.4,62.8,48.4z"/>
<g>
</g>
<g>
</g>
<g>
</g>
<g>
</g>
<g>
</g>
<g>
</g>
</svg>
