<?xml version="1.0" encoding="utf-8"?>
<!-- Generator: Adobe Illustrator 19.1.0, SVG Export Plug-In . SVG Version: 6.00 Build 0)  -->
<svg version="1.1" id="Layer_1" xmlns="http://www.w3.org/2000/svg" xmlns:xlink="http://www.w3.org/1999/xlink" x="0px" y="0px"
	 width="270.5px" height="142.3px" viewBox="0 0 270.5 142.3" enable-background="new 0 0 270.5 142.3" xml:space="preserve">
<g>
	<rect x="115.2" y="14.7" fill="none" width="143.4" height="73.4"/>
	<path fill="#4167B1" d="M125.8,19.9l-1.3,1.3l1.4,1.3v3.9l-2.1,2h-7.7v-1.7h1.4V16.4h-1.4v-1.7h7.7l1.9,1.9V19.9z M119.3,16.4v4.1
		h3.8l1-1v-2.1l-1-1H119.3z M119.3,22v4.8h3.8l1-1.1v-2.8l-1-1H119.3z"/>
	<path fill="#4167B1" d="M136.4,26.8h1.6v1.7h-4.6v-1.7h1.2l-0.7-2.5h-4.2l-0.7,2.5h1.2v1.7h-4.2v-1.7h1.5l2.8-10.4h-1.6v-1.7h4.4
		L136.4,26.8z M130,23.2h3.6l-1.8-6.7L130,23.2z"/>
	<path fill="#4167B1" d="M147.2,16.6v1.9h-1.7v-1.2l-1-1h-3.2l-1,1v2.4l0.7,0.7h4.7l1.6,1.5v4.4l-2,2h-4.6l-2-2v-2.5h1.7v1.8
		l1.1,1.1h3.2l1-1.1v-2.9l-0.7-0.7h-4.7l-1.6-1.6v-3.9l1.9-1.9h4.7L147.2,16.6z"/>
	<path fill="#4167B1" d="M158.7,18.2h-1.4v-1.9h-5.1v4.2h3.5v-0.9h1.2v3.1h-1.2v-0.9h-3.5v4.9h5.1v-1.9h1.4v3.5H149v-1.7h1.4V16.4
		H149v-1.7h9.7V18.2z"/>
	<path fill="#4167B1" d="M170.1,19.9l-1.3,1.3l1.4,1.3v3.9l-2.1,2h-7.7v-1.7h1.4V16.4h-1.4v-1.7h7.7l1.9,1.9V19.9z M163.6,16.4v4.1
		h3.8l1-1v-2.1l-1-1H163.6z M163.6,22v4.8h3.8l1-1.1v-2.8l-1-1H163.6z"/>
	<path fill="#4167B1" d="M180.8,26.8h1.6v1.7h-4.6v-1.7h1.2l-0.7-2.5h-4.2l-0.7,2.5h1.2v1.7h-4.2v-1.7h1.5l2.8-10.4h-1.6v-1.7h4.4
		L180.8,26.8z M174.4,23.2h3.6l-1.8-6.7L174.4,23.2z"/>
	<path fill="#4167B1" d="M188.1,16.4h-1.5v10.4h5v-2.2h1.5v3.9h-9.6v-1.7h1.4V16.4h-1.4v-1.7h4.6V16.4z"/>
	<path fill="#4167B1" d="M199.1,16.4h-1.5v10.4h5v-2.2h1.5v3.9h-9.6v-1.7h1.4V16.4h-1.4v-1.7h4.6V16.4z"/>
	<path fill="#1D2554" d="M116.2,43.4v-9h1.3l2.9,7.9h0l2.9-7.9h1.3v9h-0.8v-8h0l-2.9,8H120l-2.9-8h0v8H116.2z"/>
	<path fill="#1D2554" d="M126.1,40.2c0-1.9,1-3.4,3-3.4c2,0,3,1.5,3,3.4c0,2-1.2,3.4-3,3.4C127.4,43.5,126.1,42.4,126.1,40.2z
		 M129.1,37.4c-1.6,0-2.2,1.3-2.2,2.7c0,1.6,0.8,2.7,2.2,2.7c1.6,0,2.2-1.3,2.2-2.7C131.2,38.6,130.6,37.4,129.1,37.4z"/>
	<path fill="#1D2554" d="M133.9,41.4c0.2,1.1,0.8,1.5,1.9,1.5c1.1,0,1.6-0.6,1.6-1.2c0-1.9-4.1-0.5-4.1-3.1c0-1.1,0.8-1.8,2.3-1.8
		c1.4,0,2.3,0.6,2.5,2h-0.8c-0.1-1-0.8-1.4-1.7-1.4c-0.9,0-1.5,0.4-1.5,1.1c0,1.8,4.1,0.7,4.1,3.1c0,1.2-1.1,1.9-2.6,1.9
		c-1.5,0-2.4-1-2.4-2.2H133.9z"/>
	<path fill="#1D2554" d="M141.9,43.4c-0.2,0-0.5,0.1-0.9,0.1c-0.7,0-1.1-0.3-1.1-1.3v-4.7H139v-0.6h0.9v-1.8h0.7v1.8h1.2v0.6h-1.2
		V42c0,0.6,0,0.9,0.6,0.9c0.2,0,0.4,0,0.6-0.1V43.4z"/>
	<path fill="#1D2554" d="M146.6,35.5v-1.1h0.8v1.1H146.6z M146.7,43.4v-6.4h0.7v6.4H146.7z"/>
	<path fill="#1D2554" d="M150.1,43.4h-0.7v-6.4h0.7v0.9c0.6-0.6,1.2-1.1,2.1-1.1c0.8,0,1.5,0.2,2,0.9c0.3,0.5,0.3,0.9,0.3,1.5v4.2
		h-0.7v-4.2c0-1.2-0.5-1.7-1.7-1.7c-0.9,0-1.6,0.6-1.8,1.3c-0.1,0.4-0.2,0.8-0.2,1.2V43.4z"/>
	<path fill="#1D2554" d="M157.2,36.9v7.3c0,1.1-0.1,1.7-1.3,1.7c-0.2,0-0.3,0-0.5,0v-0.7c0.9,0.1,1-0.2,1-0.9v-7.4H157.2z
		 M157.2,35.5h-0.8v-1.1h0.8V35.5z"/>
	<path fill="#1D2554" d="M163.4,36.9h0.7v6.4h-0.7v-0.9c-0.4,0.4-0.9,1.1-2.1,1.1c-1.7,0-2.3-1-2.3-2.4v-4.2h0.7v4.2
		c0,1.1,0.5,1.7,1.7,1.7c1.2,0,2-1,2-2.4V36.9z"/>
	<path fill="#1D2554" d="M166.7,43.4h-0.7v-6.4h0.7v1.2h0c0.4-1,1-1.4,2.1-1.4v0.8c-1.7,0-2.1,1.2-2.1,2.6V43.4z"/>
	<path fill="#1D2554" d="M170.1,35.5v-1.1h0.8v1.1H170.1z M170.2,43.4v-6.4h0.7v6.4H170.2z"/>
	<path fill="#1D2554" d="M173.3,40.3c0,1.4,0.7,2.5,2.2,2.5c1,0,1.7-0.5,2-1.5h0.8c-0.4,1.2-1.1,2.2-2.8,2.2c-2.1,0-3-1.5-3-3.4
		c0-1.9,1.1-3.4,3-3.4c1.8,0,2.8,1.3,2.8,3.6H173.3z M177.5,39.7c0-1.3-0.7-2.3-2-2.3c-1.3,0-2,1.1-2.2,2.3H177.5z"/>
	<path fill="#1D2554" d="M180.2,41.4c0.2,1.1,0.8,1.5,1.9,1.5c1.1,0,1.6-0.6,1.6-1.2c0-1.9-4.1-0.5-4.1-3.1c0-1.1,0.8-1.8,2.3-1.8
		c1.4,0,2.3,0.6,2.5,2h-0.8c-0.1-1-0.8-1.4-1.7-1.4c-0.9,0-1.5,0.4-1.5,1.1c0,1.8,4.1,0.7,4.1,3.1c0,1.2-1.1,1.9-2.6,1.9
		c-1.5,0-2.4-1-2.4-2.2H180.2z"/>
	<path fill="#1D2554" d="M189,40.2c0-1.9,1-3.4,3-3.4c2,0,3,1.5,3,3.4c0,2-1.2,3.4-3,3.4C190.3,43.5,189,42.4,189,40.2z M192,37.4
		c-1.6,0-2.2,1.3-2.2,2.7c0,1.6,0.8,2.7,2.2,2.7c1.6,0,2.2-1.3,2.2-2.7C194.1,38.6,193.5,37.4,192,37.4z"/>
	<path fill="#1D2554" d="M200.9,39c-0.3-1-0.9-1.5-1.9-1.5c-1.5,0-2.2,1.4-2.2,2.7c0,1.4,0.6,2.7,2.2,2.7c1.1,0,1.8-0.7,2-1.7h0.8
		c-0.3,1.4-1.2,2.4-2.8,2.4c-2.1,0-3-1.5-3-3.4c0-1.8,1-3.4,3-3.4c1.5,0,2.5,0.7,2.7,2.2H200.9z"/>
	<path fill="#1D2554" d="M207.8,39c-0.3-1-0.9-1.5-1.9-1.5c-1.5,0-2.2,1.4-2.2,2.7c0,1.4,0.6,2.7,2.2,2.7c1.1,0,1.8-0.7,2-1.7h0.8
		c-0.3,1.4-1.2,2.4-2.8,2.4c-2.1,0-3-1.5-3-3.4c0-1.8,1-3.4,3-3.4c1.5,0,2.5,0.7,2.7,2.2H207.8z"/>
	<path fill="#1D2554" d="M214.5,36.9h0.7v6.4h-0.7v-0.9c-0.4,0.4-0.9,1.1-2.1,1.1c-1.7,0-2.3-1-2.3-2.4v-4.2h0.7v4.2
		c0,1.1,0.5,1.7,1.7,1.7c1.2,0,2-1,2-2.4V36.9z"/>
	<path fill="#1D2554" d="M217.8,43.4h-0.7v-6.4h0.7v1.2h0c0.4-1,1-1.4,2.1-1.4v0.8c-1.7,0-2.1,1.2-2.1,2.6V43.4z"/>
	<path fill="#1D2554" d="M227.6,39.6c0.3,0,0.7-0.1,1-0.2c0.2-0.1,0.3-0.4,0.3-0.7c0-0.8-0.4-1.3-1.6-1.3c-1,0-1.7,0.3-1.9,1.5h-0.8
		c0.1-1.5,1.2-2.1,2.6-2.1c1.3,0,2.3,0.5,2.3,2v3.5c0,0.6,0.1,0.7,0.8,0.5v0.6c-0.1,0-0.4,0.1-0.6,0.1c-0.1,0-0.2,0-0.3,0
		c-0.5-0.1-0.6-0.5-0.6-1c-0.6,0.7-1.5,1.1-2.4,1.1c-1.1,0-2.2-0.6-2.2-1.9c0-1.1,0.7-1.7,2.3-1.9L227.6,39.6z M228.9,40
		c-0.6,0.3-1.3,0.3-1.9,0.4c-1.1,0.1-1.8,0.5-1.8,1.4c0,0.8,0.7,1.2,1.4,1.2c1.2,0,2.4-0.6,2.4-1.9V40z"/>
	<path fill="#1D2554" d="M232,41.4c0.2,1.1,0.8,1.5,1.9,1.5c1.1,0,1.6-0.6,1.6-1.2c0-1.9-4.1-0.5-4.1-3.1c0-1.1,0.8-1.8,2.3-1.8
		c1.4,0,2.3,0.6,2.5,2h-0.8c-0.1-1-0.8-1.4-1.7-1.4c-0.9,0-1.5,0.4-1.5,1.1c0,1.8,4.1,0.7,4.1,3.1c0,1.2-1.1,1.9-2.6,1.9
		c-1.5,0-2.4-1-2.4-2.2H232z"/>
	<path fill="#1D2554" d="M244.2,39.6c0.3,0,0.7-0.1,1-0.2c0.2-0.1,0.3-0.4,0.3-0.7c0-0.8-0.4-1.3-1.6-1.3c-1,0-1.7,0.3-1.9,1.5h-0.8
		c0.1-1.5,1.2-2.1,2.6-2.1c1.3,0,2.3,0.5,2.3,2v3.5c0,0.6,0.1,0.7,0.8,0.5v0.6c-0.1,0-0.4,0.1-0.6,0.1c-0.1,0-0.2,0-0.3,0
		c-0.5-0.1-0.6-0.5-0.6-1c-0.6,0.7-1.5,1.1-2.4,1.1c-1.1,0-2.2-0.6-2.2-1.9c0-1.1,0.7-1.7,2.3-1.9L244.2,39.6z M245.5,40
		c-0.6,0.3-1.3,0.3-1.9,0.4c-1.1,0.1-1.8,0.5-1.8,1.4c0,0.8,0.7,1.2,1.4,1.2c1.2,0,2.4-0.6,2.4-1.9V40z"/>
	<path fill="#1D2554" d="M116.9,58.3h-0.7v-6.4h0.7v1.2h0c0.4-1,1-1.4,2.1-1.4v0.8c-1.7,0-2.1,1.2-2.1,2.6V58.3z"/>
	<path fill="#1D2554" d="M120.5,55.3c0,1.4,0.7,2.5,2.2,2.5c1,0,1.7-0.5,2-1.5h0.8c-0.4,1.2-1.1,2.2-2.8,2.2c-2.1,0-3-1.5-3-3.4
		c0-1.9,1.1-3.4,3-3.4c1.8,0,2.8,1.3,2.8,3.6H120.5z M124.7,54.6c0-1.3-0.7-2.3-2-2.3c-1.3,0-2,1.1-2.2,2.3H124.7z"/>
	<path fill="#1D2554" d="M127.4,56.3c0.2,1.1,0.8,1.5,1.9,1.5c1.1,0,1.6-0.6,1.6-1.2c0-1.9-4.1-0.5-4.1-3.1c0-1.1,0.8-1.8,2.3-1.8
		c1.4,0,2.3,0.6,2.5,2h-0.8c-0.1-1-0.8-1.4-1.7-1.4c-0.9,0-1.5,0.4-1.5,1.1c0,1.8,4.1,0.7,4.1,3.1c0,1.2-1.1,1.9-2.6,1.9
		c-1.5,0-2.4-1-2.4-2.2H127.4z"/>
	<path fill="#1D2554" d="M137.6,51.9h0.7v6.4h-0.7v-0.9c-0.4,0.4-0.9,1.1-2.1,1.1c-1.7,0-2.3-1-2.3-2.4v-4.2h0.7v4.2
		c0,1.1,0.5,1.7,1.7,1.7c1.2,0,2-1,2-2.4V51.9z"/>
	<path fill="#1D2554" d="M140.2,58.3v-9h0.7v9H140.2z"/>
	<path fill="#1D2554" d="M145.1,58.3c-0.2,0-0.5,0.1-0.9,0.1c-0.7,0-1.1-0.3-1.1-1.3v-4.7h-0.9v-0.6h0.9v-1.8h0.7v1.8h1.2v0.6h-1.2
		v4.4c0,0.6,0,0.9,0.6,0.9c0.2,0,0.4,0,0.6-0.1V58.3z"/>
	<path fill="#1D2554" d="M149.4,55.1c0-1.9,1-3.4,3-3.4c2,0,3,1.5,3,3.4c0,2-1.2,3.4-3,3.4C150.7,58.5,149.4,57.3,149.4,55.1z
		 M152.3,52.4c-1.6,0-2.2,1.3-2.2,2.7c0,1.6,0.8,2.7,2.2,2.7c1.6,0,2.2-1.3,2.2-2.7C154.5,53.6,153.9,52.4,152.3,52.4z"/>
	<path fill="#1D2554" d="M156.1,52.5v-0.6h1v-1c0-1,0.4-1.7,1.4-1.7c0.2,0,0.4,0,0.6,0v0.7c-0.1,0-0.3-0.1-0.4-0.1
		c-0.8,0-0.8,0.6-0.8,1.2v0.8h1.2v0.6h-1.2v5.8H157v-5.8H156.1z"/>
	<path fill="#1D2554" d="M164.4,58.3h-0.7v-9h0.7v3.5c0.5-0.8,1.4-1.2,2.3-1.2c2,0,2.9,1.6,2.9,3.4c0,1.9-0.8,3.4-2.9,3.4
		c-0.8,0-1.8-0.5-2.2-1.3h0V58.3z M166.6,57.8c1.3,0,2.2-0.9,2.2-2.5c0.1-1.6-0.7-2.9-2.2-2.9c-1.4,0-2.2,1.2-2.2,2.7
		C164.4,56.6,165.2,57.8,166.6,57.8z"/>
	<path fill="#1D2554" d="M171.7,55.3c0,1.4,0.7,2.5,2.2,2.5c1,0,1.7-0.5,2-1.5h0.8c-0.4,1.2-1.1,2.2-2.8,2.2c-2.1,0-3-1.5-3-3.4
		c0-1.9,1.1-3.4,3-3.4c1.8,0,2.8,1.3,2.8,3.6H171.7z M175.9,54.6c0-1.3-0.7-2.3-2-2.3c-1.3,0-2,1.1-2.2,2.3H175.9z"/>
	<path fill="#1D2554" d="M178.2,50.5v-1.1h0.8v1.1H178.2z M178.2,58.3v-6.4h0.7v6.4H178.2z"/>
	<path fill="#1D2554" d="M181.6,58.3h-0.7v-6.4h0.7v0.9c0.6-0.6,1.2-1.1,2.1-1.1c0.8,0,1.5,0.2,2,0.9c0.3,0.5,0.3,0.9,0.3,1.5v4.2
		h-0.7v-4.2c0-1.2-0.5-1.7-1.7-1.7c-0.9,0-1.6,0.6-1.8,1.3c-0.1,0.4-0.2,0.8-0.2,1.2V58.3z"/>
	<path fill="#1D2554" d="M192.8,51.9h0.7v5.8c0,1.7-0.6,3.3-3,3.3c-1.9,0-2.7-1.1-2.7-1.9h0.8c0.2,1,1,1.2,1.9,1.2
		c2,0,2.3-1.5,2.3-3c-0.5,0.8-1.4,1.2-2.3,1.2c-2,0-2.9-1.6-2.9-3.4c0-1.9,0.8-3.4,2.9-3.4c0.8,0,1.8,0.5,2.2,1.3h0V51.9z
		 M190.6,52.4c-1.3,0-2.2,0.9-2.2,2.5c-0.1,1.6,0.7,2.9,2.2,2.9c1.4,0,2.2-1.2,2.2-2.7C192.8,53.6,192,52.4,190.6,52.4z"/>
	<path fill="#1D2554" d="M199.3,56.3c0.2,1.1,0.8,1.5,1.9,1.5c1.1,0,1.6-0.6,1.6-1.2c0-1.9-4.1-0.5-4.1-3.1c0-1.1,0.8-1.8,2.3-1.8
		c1.4,0,2.3,0.6,2.5,2h-0.8c-0.1-1-0.8-1.4-1.7-1.4c-0.9,0-1.5,0.4-1.5,1.1c0,1.8,4.1,0.7,4.1,3.1c0,1.2-1.1,1.9-2.6,1.9
		c-1.5,0-2.4-1-2.4-2.2H199.3z"/>
	<path fill="#1D2554" d="M207.3,58.3c-0.2,0-0.5,0.1-0.9,0.1c-0.7,0-1.1-0.3-1.1-1.3v-4.7h-0.9v-0.6h0.9v-1.8h0.7v1.8h1.2v0.6h-1.2
		v4.4c0,0.6,0,0.9,0.6,0.9c0.2,0,0.4,0,0.6-0.1V58.3z"/>
	<path fill="#1D2554" d="M209.3,58.3h-0.7v-6.4h0.7v1.2h0c0.4-1,1-1.4,2.1-1.4v0.8c-1.7,0-2.1,1.2-2.1,2.6V58.3z"/>
	<path fill="#1D2554" d="M217,51.9h0.7v6.4H217v-0.9c-0.4,0.4-0.9,1.1-2.1,1.1c-1.7,0-2.3-1-2.3-2.4v-4.2h0.7v4.2
		c0,1.1,0.5,1.7,1.7,1.7c1.2,0,2-1,2-2.4V51.9z"/>
	<path fill="#1D2554" d="M224.2,53.9c-0.3-1-0.9-1.5-1.9-1.5c-1.5,0-2.2,1.4-2.2,2.7c0,1.4,0.6,2.7,2.2,2.7c1.1,0,1.8-0.7,2-1.7h0.8
		c-0.3,1.4-1.2,2.4-2.8,2.4c-2.1,0-3-1.5-3-3.4c0-1.8,1-3.4,3-3.4c1.5,0,2.5,0.7,2.7,2.2H224.2z"/>
	<path fill="#1D2554" d="M226.5,58.3v-9h0.7v5.6l3.2-3.1h1l-2.4,2.3l2.7,4.1h-0.8l-2.4-3.6l-1.2,1.2v2.4H226.5z"/>
	<path fill="#1D2554" d="M237,58.3h-0.7v-9h0.7v3.5c0.5-0.8,1.4-1.2,2.3-1.2c2,0,2.9,1.6,2.9,3.4c0,1.9-0.8,3.4-2.9,3.4
		c-0.8,0-1.8-0.5-2.2-1.3h0V58.3z M239.2,57.8c1.3,0,2.2-0.9,2.2-2.5c0.1-1.6-0.7-2.9-2.2-2.9c-1.4,0-2.2,1.2-2.2,2.7
		C237,56.6,237.8,57.8,239.2,57.8z"/>
	<path fill="#1D2554" d="M243.7,60.1c0.2,0,0.4,0.1,0.6,0.1c0.8,0,1-1.2,1.3-1.8l-2.5-6.5h0.8l2.1,5.5l2.1-5.5h0.8l-2.4,6.4
		c-0.6,1.6-1,2.6-2,2.6c-0.3,0-0.5,0-0.7-0.1V60.1z"/>
	<path fill="#1D2554" d="M117,75.8h-0.7v-9h0.7v1.1h0c0.4-0.8,1.4-1.3,2.2-1.3c2.1,0,2.9,1.5,2.9,3.4c0,1.8-0.9,3.4-2.9,3.4
		c-0.9,0-1.8-0.4-2.3-1.2V75.8z M119.2,72.7c1.5,0,2.3-1.3,2.2-2.9c0-1.6-0.9-2.5-2.2-2.5c-1.4,0-2.2,1.2-2.2,2.7
		C117,71.5,117.8,72.7,119.2,72.7z"/>
	<path fill="#1D2554" d="M124.5,73.2h-0.7v-6.4h0.7V68h0c0.4-1,1-1.4,2.1-1.4v0.8c-1.7,0-2.1,1.2-2.1,2.6V73.2z"/>
	<path fill="#1D2554" d="M127.2,70c0-1.9,1-3.4,3-3.4c2,0,3,1.5,3,3.4c0,2-1.2,3.4-3,3.4C128.6,73.4,127.2,72.3,127.2,70z
		 M130.2,67.3c-1.6,0-2.2,1.3-2.2,2.7c0,1.6,0.8,2.7,2.2,2.7c1.6,0,2.2-1.3,2.2-2.7C132.4,68.5,131.8,67.3,130.2,67.3z"/>
	<path fill="#1D2554" d="M135.5,66.8v7.3c0,1.1-0.1,1.7-1.3,1.7c-0.2,0-0.3,0-0.5,0v-0.7c0.9,0.1,1-0.2,1-0.9v-7.4H135.5z
		 M135.6,65.4h-0.8v-1.1h0.8V65.4z"/>
	<path fill="#1D2554" d="M137.8,70.2c0,1.4,0.7,2.5,2.2,2.5c1,0,1.7-0.5,2-1.5h0.8c-0.4,1.2-1.1,2.2-2.8,2.2c-2.1,0-3-1.5-3-3.4
		c0-1.9,1.1-3.4,3-3.4c1.8,0,2.8,1.3,2.8,3.6H137.8z M142,69.6c0-1.3-0.7-2.3-2-2.3c-1.3,0-2,1.1-2.2,2.3H142z"/>
	<path fill="#1D2554" d="M148.8,68.8c-0.3-1-0.9-1.5-1.9-1.5c-1.5,0-2.2,1.4-2.2,2.7c0,1.4,0.6,2.7,2.2,2.7c1.1,0,1.8-0.7,2-1.7h0.8
		c-0.3,1.4-1.2,2.4-2.8,2.4c-2.1,0-3-1.5-3-3.4c0-1.8,1-3.4,3-3.4c1.5,0,2.5,0.7,2.7,2.2H148.8z"/>
	<path fill="#1D2554" d="M153.4,73.3c-0.2,0-0.5,0.1-0.9,0.1c-0.7,0-1.1-0.3-1.1-1.3v-4.7h-0.9v-0.6h0.9V65h0.7v1.8h1.2v0.6h-1.2
		v4.4c0,0.6,0,0.9,0.6,0.9c0.2,0,0.4,0,0.6-0.1V73.3z"/>
	<path fill="#1D2554" d="M154.7,65.4v-1.1h0.8v1.1H154.7z M154.7,73.2v-6.4h0.7v6.4H154.7z"/>
	<path fill="#1D2554" d="M157.5,73.2v-9h0.7v9H157.5z"/>
	<path fill="#1D2554" d="M160.6,70.2c0,1.4,0.7,2.5,2.2,2.5c1,0,1.7-0.5,2-1.5h0.8c-0.4,1.2-1.1,2.2-2.8,2.2c-2.1,0-3-1.5-3-3.4
		c0-1.9,1.1-3.4,3-3.4c1.8,0,2.8,1.3,2.8,3.6H160.6z M164.8,69.6c0-1.3-0.7-2.3-2-2.3c-1.3,0-2,1.1-2.2,2.3H164.8z"/>
	<path fill="#1D2554" d="M170.1,70c0-1.9,1-3.4,3-3.4c2,0,3,1.5,3,3.4c0,2-1.2,3.4-3,3.4C171.4,73.4,170.1,72.3,170.1,70z
		 M173.1,67.3c-1.6,0-2.2,1.3-2.2,2.7c0,1.6,0.8,2.7,2.2,2.7c1.6,0,2.2-1.3,2.2-2.7C175.3,68.5,174.7,67.3,173.1,67.3z"/>
	<path fill="#1D2554" d="M178.3,73.2h-0.7v-9h0.7v3.5c0.5-0.8,1.4-1.2,2.3-1.2c2,0,2.9,1.6,2.9,3.4c0,1.9-0.8,3.4-2.9,3.4
		c-0.8,0-1.8-0.5-2.2-1.3h0V73.2z M180.4,72.7c1.3,0,2.2-0.9,2.2-2.5c0.1-1.6-0.7-2.9-2.2-2.9c-1.4,0-2.2,1.2-2.2,2.7
		C178.3,71.5,179,72.7,180.4,72.7z"/>
	<path fill="#1D2554" d="M186,66.8v7.3c0,1.1-0.1,1.7-1.3,1.7c-0.2,0-0.3,0-0.5,0v-0.7c0.9,0.1,1-0.2,1-0.9v-7.4H186z M186,65.4
		h-0.8v-1.1h0.8V65.4z"/>
	<path fill="#1D2554" d="M188.3,70.2c0,1.4,0.7,2.5,2.2,2.5c1,0,1.7-0.5,2-1.5h0.8c-0.4,1.2-1.1,2.2-2.8,2.2c-2.1,0-3-1.5-3-3.4
		c0-1.9,1.1-3.4,3-3.4c1.8,0,2.8,1.3,2.8,3.6H188.3z M192.5,69.6c0-1.3-0.7-2.3-2-2.3c-1.3,0-2,1.1-2.2,2.3H192.5z"/>
	<path fill="#1D2554" d="M199.3,68.8c-0.3-1-0.9-1.5-1.9-1.5c-1.5,0-2.2,1.4-2.2,2.7c0,1.4,0.6,2.7,2.2,2.7c1.1,0,1.8-0.7,2-1.7h0.8
		c-0.3,1.4-1.2,2.4-2.8,2.4c-2.1,0-3-1.5-3-3.4c0-1.8,1-3.4,3-3.4c1.5,0,2.5,0.7,2.7,2.2H199.3z"/>
	<path fill="#1D2554" d="M203.9,73.3c-0.2,0-0.5,0.1-0.9,0.1c-0.7,0-1.1-0.3-1.1-1.3v-4.7H201v-0.6h0.9V65h0.7v1.8h1.2v0.6h-1.2v4.4
		c0,0.6,0,0.9,0.6,0.9c0.2,0,0.4,0,0.6-0.1V73.3z"/>
	<path fill="#1D2554" d="M205.5,71.2c0.2,1.1,0.8,1.5,1.9,1.5c1.1,0,1.6-0.6,1.6-1.2c0-1.9-4.1-0.5-4.1-3.1c0-1.1,0.8-1.8,2.3-1.8
		c1.4,0,2.3,0.6,2.5,2h-0.8c-0.1-1-0.8-1.4-1.7-1.4c-0.9,0-1.5,0.4-1.5,1.1c0,1.8,4.1,0.7,4.1,3.1c0,1.2-1.1,1.9-2.6,1.9
		c-1.5,0-2.4-1-2.4-2.2H205.5z"/>
	<path fill="#1D2554" d="M211.7,73.2v-1.1h0.9v1.1H211.7z"/>
</g>
<path fill="#4167B1" stroke="#4167B1" stroke-width="2" stroke-miterlimit="10" d="M94.4,49.1l15-15l-0.7-0.7L70.8,71.2l0.1,0.1
	L60.4,81.8c-8.5-8.2-21-9.6-31-4.4c-2.3,1.2-4.5,2.8-6.5,4.8c-3.2,3.2-5.5,7.1-6.7,11.2c-0.6,2-1,4.2-1.1,6.3c0,0.5,0,0.9,0,1.4
	c0,2.6,0.4,5.2,1.1,7.7v0c1.2,4.1,3.5,8.1,6.7,11.3c0.7,0.7,1.5,1.4,2.3,2c0.5,0.4,0.9,0.7,1.4,1c1.8,1.3,3.8,2.3,5.8,3
	c4.6,1.7,9.5,2.2,14.2,1.3c0.6-0.1,1.3-0.2,1.9-0.4c3-0.8,5.9-2.1,8.6-3.9c0.5-0.3,1-0.7,1.4-1c0.8-0.6,1.5-1.3,2.3-2
	c10.3-10.3,10.4-27,0.4-37.5l33.4-33.4L94.4,49.1z M60.1,119.3c-1,1-2.1,1.9-3.3,2.8c-0.5,0.4-1,0.7-1.6,1c-2,1.2-4.1,2.2-6.4,2.8
	c-0.5,0.1-1,0.3-1.5,0.4c-5.4,1.2-11.2,0.6-16.3-1.8c-0.9-0.4-1.7-0.9-2.6-1.4c-0.5-0.3-1.1-0.7-1.6-1c-1.1-0.8-2.2-1.7-3.3-2.8
	c-2.8-2.8-4.9-6.2-6.1-9.7c-0.9-2.6-1.4-5.3-1.4-8.1c0-0.7,0-1.4,0.1-2v0c0.1-2,0.5-4,1.1-5.9c1.2-3.9,3.3-7.6,6.4-10.6
	c2.4-2.4,5.2-4.2,8.1-5.5c9.4-4,20.6-2.1,28.3,5.5C70.1,92.9,70.1,109.2,60.1,119.3z"/>
<g>
</g>
<g>
</g>
<g>
</g>
<g>
</g>
<g>
</g>
<g>
</g>
</svg>
