<?xml version="1.0" encoding="utf-8"?>
<!-- Generator: Adobe Illustrator 19.1.0, SVG Export Plug-In . SVG Version: 6.00 Build 0)  -->
<svg version="1.1" id="Layer_1" xmlns="http://www.w3.org/2000/svg" xmlns:xlink="http://www.w3.org/1999/xlink" x="0px" y="0px"
	 width="273.1px" height="110.3px" viewBox="0 0 273.1 110.3" enable-background="new 0 0 273.1 110.3" xml:space="preserve">
<g>
	<path fill="#4167B1" stroke="#4167B1" stroke-width="2" stroke-miterlimit="10" d="M258.7,29.3c-2.1-3.3-4.9-6.2-8.2-8.3
		c-4.1-2.6-8.9-4.2-14.2-4.2c-14.3,0-26,11.5-26.3,25.8H82v1h128.1c0.3,14.3,12,25.8,26.3,25.8c14.5,0,26.3-11.8,26.3-26.3
		C262.7,38.1,261.3,33.3,258.7,29.3z M236.4,68.4c-13.9,0-25.3-11.3-25.3-25.3c0-13.9,11.3-25.3,25.3-25.3c5,0,9.7,1.5,13.6,4
		c3.3,2.1,6.1,5,8.1,8.3c2.3,3.8,3.6,8.2,3.6,13C261.7,57.1,250.3,68.4,236.4,68.4z"/>
</g>
<g>
	<rect x="10.4" y="13.4" fill="none" width="148.2" height="87.5"/>
	<path fill="#4167B1" d="M21,17h-1.4v-1.9h-5.1v4.5h4v-0.9h1.2v3.1h-1.2v-0.9h-4v4.6H16v1.7h-4.7v-1.7h1.4V15.1h-1.4v-1.7H21V17z"/>
	<path fill="#4167B1" d="M27.4,15.1H26v10.4h1.4v1.7h-4.6v-1.7h1.4V15.1h-1.4v-1.7h4.6V15.1z"/>
	<path fill="#4167B1" d="M41.4,15.1H40v12.1h-1.7l-5.8-11.4v9.7h1.2v1.7h-4.2v-1.7H31V15.1h-1.4v-1.7h3.7l5.2,10.5v-8.8h-1.2v-1.7
		h4.2V15.1z"/>
	<path fill="#4167B1" d="M51.7,17.8H50v-1.7l-1-1h-3.4l-1.3,1.3v7.8l1.3,1.3h2.8L50,24v-3h-2.6v-1.2h4.3v7.3h-1.6v-1.6l-1.6,1.6
		h-3.4l-2.4-2.4v-9.1l2.3-2.3h4.7l1.9,1.9V17.8z"/>
	<path fill="#4167B1" d="M63.1,16.9h-1.4v-1.9h-5.1v4.2H60v-0.9h1.2v3.1H60v-0.9h-3.5v4.9h5.1v-1.9h1.4v3.5h-9.7v-1.7h1.4V15.1h-1.4
		v-1.7h9.7V16.9z"/>
	<path fill="#4167B1" d="M74.7,15.3v3.9l-1.9,1.9h-1l2.2,4.4h1.3v1.7h-4.2v-1.7h1.2L70,21.1h-2v4.4h1.2v1.7h-4.3v-1.7h1.4V15.1h-1.4
		v-1.7h7.9L74.7,15.3z M68,15.1v4.7h4l1-1v-2.7l-1-1H68z"/>
	<path fill="#4167B1" d="M78.6,27l-1.6,2.8l-0.7-0.3l0.7-2.9v-1.1h1.6V27z"/>
	<path fill="#4167B1" d="M98.2,15.1h-1.5v10.4h1.5v1.7h-4.4v-1.7H95v-4.9h-5.2v4.9H91v1.7h-4.4v-1.7h1.4V15.1h-1.4v-1.7H91v1.7h-1.2
		v4.1H95v-4.1h-1.2v-1.7h4.4V15.1z"/>
	<path fill="#4167B1" d="M109.7,25.5h1.6v1.7h-4.6v-1.7h1.2l-0.7-2.5h-4.2l-0.7,2.5h1.2v1.7h-4.2v-1.7h1.5l2.8-10.4h-1.6v-1.7h4.4
		L109.7,25.5z M103.3,21.9h3.6l-1.8-6.7L103.3,21.9z"/>
	<path fill="#4167B1" d="M124.3,15.1h-1.5v12.1h-1.7l-5.8-11.4v9.7h1.2v1.7h-4.2v-1.7h1.4V15.1h-1.4v-1.7h3.7l5.2,10.5v-8.8h-1.2
		v-1.7h4.2V15.1z"/>
	<path fill="#4167B1" d="M135.7,24.4l-2.8,2.8h-7.4v-1.7h1.4V15.1h-1.4v-1.7h7.5l2.7,2.7V24.4z M128.7,15.1v10.4h3.7l1.7-1.7v-7.1
		l-1.6-1.6H128.7z"/>
	<path fill="#4167B1" d="M149.7,14.8v3.1l-2,2.1l2.3,2.9l1.3-2.1h1.4l-1.9,3.2l2.4,3.1h-1.6l-1.6-2l-1.2,2h-3.3
		c-0.6-0.6-1.2-1.2-1.8-1.8V22l2.3-2.2l-1.7-2.2v-2.9l1.4-1.4h2.7L149.7,14.8z M145.1,22.6v2.2v0l1,0.9h2l1-1.7l-2.4-3L145.1,22.6z
		 M146.2,14.9l-0.6,0.6v1.9l1.3,1.6l1.5-1.6v-1.9l-0.6-0.6H146.2z"/>
	<path fill="#4167B1" d="M29.2,36.8h-1.4l-2.8,12.1h-2.3L20,38.6l-2.7,10.4h-2.4l-2.8-12.1h-1.4v-1.7h4.5v1.7H14l2.3,10l2.6-10h-1.4
		v-1.7h5.3v1.7h-1.4l2.6,10l2.3-10h-1.1v-1.7h4V36.8z"/>
	<path fill="#4167B1" d="M40.2,37.1V41l-1.9,1.9h-1l2.2,4.4h1.3v1.7h-4.2v-1.7h1.2l-2.2-4.4h-2v4.4h1.2v1.7h-4.3v-1.7h1.4V36.9h-1.4
		v-1.7h7.9L40.2,37.1z M33.5,36.9v4.7h4l1-1v-2.7l-1-1H33.5z"/>
	<path fill="#4167B1" d="M47,36.8h-1.4v10.4H47v1.7h-4.6v-1.7h1.4V36.8h-1.4v-1.7H47V36.8z"/>
	<path fill="#4167B1" d="M57.7,37.1V39H56v-1.2l-1-1h-3.2l-1,1v2.4l0.7,0.7h4.7l1.6,1.5v4.4l-2,2h-4.6l-2-2v-2.5h1.7v1.8l1.1,1.1
		h3.2l1-1.1v-2.9l-0.7-0.7h-4.7L49.1,41v-3.9l1.9-1.9h4.7L57.7,37.1z"/>
	<path fill="#4167B1" d="M69.1,39.2h-1.5v-2.4H65v10.5h1.6v1.7h-5v-1.7h1.6V36.8h-2.7v2.4h-1.5v-4h10V39.2z"/>
	<path fill="#1D2554" d="M10.6,54.9h6.5v0.7h-2.8v8.2h-0.8v-8.2h-2.8V54.9z"/>
	<path fill="#1D2554" d="M18.2,63.9v-9H19v3.4c0.6-0.6,1.2-1.1,2.1-1.1c0.8,0,1.5,0.2,2,0.9c0.3,0.5,0.3,0.9,0.3,1.5v4.2h-0.7v-4.2
		c0-1.2-0.5-1.7-1.7-1.7c-0.9,0-1.6,0.6-1.8,1.3C19,59.6,19,59.9,19,60.4v3.5H18.2z"/>
	<path fill="#1D2554" d="M25.6,60.8c0,1.4,0.7,2.5,2.2,2.5c1,0,1.7-0.5,2-1.5h0.8c-0.4,1.2-1.1,2.2-2.8,2.2c-2.1,0-3-1.5-3-3.4
		c0-1.9,1.1-3.4,3-3.4c1.8,0,2.8,1.3,2.8,3.6H25.6z M29.8,60.2c0-1.3-0.7-2.3-2-2.3c-1.3,0-2,1.1-2.2,2.3H29.8z"/>
	<path fill="#1D2554" d="M36.1,63.9h-0.7v-6.4h0.7v1h0c0.4-0.7,1.2-1.1,2-1.1c1.2,0,1.6,0.6,1.9,1.2c0.4-0.8,1.2-1.2,2.1-1.2
		c1.8,0,2,1.3,2,2.5v4.1h-0.7v-4.5c0-0.9-0.3-1.5-1.4-1.5c-0.5,0-1.1,0.2-1.5,0.7c-0.3,0.4-0.4,1.2-0.4,1.7v3.5h-0.7v-4.5
		c0-0.9-0.3-1.5-1.4-1.5c-0.5,0-1.1,0.2-1.5,0.7c-0.3,0.4-0.4,1.2-0.4,1.7V63.9z"/>
	<path fill="#1D2554" d="M45.4,60.6c0-1.9,1-3.4,3-3.4c2,0,3,1.5,3,3.4c0,2-1.2,3.4-3,3.4C46.8,64,45.4,62.9,45.4,60.6z M48.4,57.9
		c-1.6,0-2.2,1.3-2.2,2.7c0,1.6,0.8,2.7,2.2,2.7c1.6,0,2.2-1.3,2.2-2.7C50.6,59.1,50,57.9,48.4,57.9z"/>
	<path fill="#1D2554" d="M53.2,61.8c0.2,1.1,0.8,1.5,1.9,1.5c1.1,0,1.6-0.6,1.6-1.2c0-1.9-4.1-0.5-4.1-3.1c0-1.1,0.8-1.8,2.3-1.8
		c1.4,0,2.3,0.6,2.5,2h-0.8c-0.1-1-0.8-1.4-1.7-1.4c-0.9,0-1.5,0.4-1.5,1.1c0,1.8,4.1,0.7,4.1,3.1c0,1.2-1.1,1.9-2.6,1.9
		s-2.4-1-2.4-2.2H53.2z"/>
	<path fill="#1D2554" d="M61.3,63.9c-0.2,0-0.5,0.1-0.9,0.1c-0.7,0-1.1-0.3-1.1-1.3V58h-0.9v-0.6h0.9v-1.8H60v1.8h1.2V58H60v4.4
		c0,0.6,0,0.9,0.6,0.9c0.2,0,0.4,0,0.6-0.1V63.9z"/>
	<path fill="#1D2554" d="M70.5,59.4c-0.3-1-0.9-1.5-1.9-1.5c-1.5,0-2.2,1.4-2.2,2.7c0,1.4,0.6,2.7,2.2,2.7c1.1,0,1.8-0.7,2-1.7h0.8
		c-0.3,1.4-1.2,2.4-2.8,2.4c-2.1,0-3-1.5-3-3.4c0-1.8,1-3.4,3-3.4c1.5,0,2.4,0.7,2.7,2.2H70.5z"/>
	<path fill="#1D2554" d="M72.4,60.6c0-1.9,1-3.4,3-3.4c2,0,3,1.5,3,3.4c0,2-1.2,3.4-3,3.4C73.7,64,72.4,62.9,72.4,60.6z M75.4,57.9
		c-1.6,0-2.2,1.3-2.2,2.7c0,1.6,0.8,2.7,2.2,2.7c1.6,0,2.2-1.3,2.2-2.7C77.6,59.1,77,57.9,75.4,57.9z"/>
	<path fill="#1D2554" d="M80.4,63.9h-0.7v-6.4h0.7v1h0c0.4-0.7,1.2-1.1,2-1.1c1.2,0,1.6,0.6,1.9,1.2c0.4-0.8,1.2-1.2,2.1-1.2
		c1.8,0,2,1.3,2,2.5v4.1h-0.7v-4.5c0-0.9-0.3-1.5-1.4-1.5c-0.5,0-1.1,0.2-1.5,0.7c-0.3,0.4-0.4,1.2-0.4,1.7v3.5h-0.7v-4.5
		c0-0.9-0.3-1.5-1.4-1.5c-0.5,0-1.1,0.2-1.5,0.7c-0.3,0.4-0.4,1.2-0.4,1.7V63.9z"/>
	<path fill="#1D2554" d="M90.7,63.9H90v-6.4h0.7v1h0c0.4-0.7,1.2-1.1,2-1.1c1.2,0,1.6,0.6,1.9,1.2c0.4-0.8,1.2-1.2,2.1-1.2
		c1.8,0,2,1.3,2,2.5v4.1H98v-4.5c0-0.9-0.3-1.5-1.4-1.5c-0.5,0-1.1,0.2-1.5,0.7c-0.3,0.4-0.4,1.2-0.4,1.7v3.5H94v-4.5
		c0-0.9-0.3-1.5-1.4-1.5c-0.5,0-1.1,0.2-1.5,0.7c-0.3,0.4-0.4,1.2-0.4,1.7V63.9z"/>
	<path fill="#1D2554" d="M100,60.6c0-1.9,1-3.4,3-3.4c2,0,3,1.5,3,3.4c0,2-1.2,3.4-3,3.4C101.4,64,100,62.9,100,60.6z M103,57.9
		c-1.6,0-2.2,1.3-2.2,2.7c0,1.6,0.8,2.7,2.2,2.7c1.6,0,2.2-1.3,2.2-2.7C105.2,59.1,104.6,57.9,103,57.9z"/>
	<path fill="#1D2554" d="M108.1,63.9h-0.7v-6.4h0.7v0.9c0.6-0.6,1.2-1.1,2.1-1.1c0.8,0,1.5,0.2,2,0.9c0.3,0.5,0.3,0.9,0.3,1.5v4.2
		h-0.7v-4.2c0-1.2-0.5-1.7-1.7-1.7c-0.9,0-1.6,0.6-1.8,1.3c-0.1,0.4-0.2,0.8-0.2,1.2V63.9z"/>
	<path fill="#1D2554" d="M114.4,63.9v-9h0.7v9H114.4z"/>
	<path fill="#1D2554" d="M117,65.6c0.2,0,0.4,0.1,0.6,0.1c0.8,0,1-1.2,1.3-1.8l-2.5-6.5h0.8l2.1,5.5l2.1-5.5h0.8l-2.4,6.4
		c-0.6,1.6-1,2.6-2,2.6c-0.3,0-0.5,0-0.7-0.1V65.6z"/>
	<path fill="#1D2554" d="M11.4,70.9v-1.1h0.8v1.1H11.4z M11.4,78.8v-6.4h0.7v6.4H11.4z"/>
	<path fill="#1D2554" d="M14.8,78.8h-0.7v-6.4h0.7v0.9c0.6-0.6,1.2-1.1,2.1-1.1c0.8,0,1.5,0.2,2,0.9c0.3,0.5,0.3,0.9,0.3,1.5v4.2
		h-0.7v-4.2c0-1.2-0.5-1.7-1.7-1.7c-0.9,0-1.6,0.6-1.8,1.3c-0.1,0.4-0.2,0.8-0.2,1.2V78.8z"/>
	<path fill="#1D2554" d="M21.9,72.3v7.3c0,1.1-0.1,1.7-1.3,1.7c-0.2,0-0.3,0-0.5,0v-0.7c0.9,0.1,1-0.2,1-0.9v-7.4H21.9z M22,70.9
		h-0.8v-1.1H22V70.9z"/>
	<path fill="#1D2554" d="M28.1,72.3h0.7v6.4h-0.7v-0.9C27.7,78.3,27.2,79,26,79c-1.7,0-2.3-1-2.3-2.4v-4.2h0.7v4.2
		c0,1.1,0.5,1.7,1.7,1.7c1.2,0,2-1,2-2.4V72.3z"/>
	<path fill="#1D2554" d="M31.4,78.8h-0.7v-6.4h0.7v1.2h0c0.4-1,1-1.4,2.1-1.4V73c-1.7,0-2.1,1.2-2.1,2.6V78.8z"/>
	<path fill="#1D2554" d="M35,75.7c0,1.4,0.7,2.5,2.2,2.5c1,0,1.7-0.5,2-1.5H40C39.6,78,38.8,79,37.2,79c-2.1,0-3-1.5-3-3.4
		c0-1.9,1.1-3.4,3-3.4c1.8,0,2.8,1.3,2.8,3.6H35z M39.2,75.1c0-1.3-0.7-2.3-2-2.3c-1.3,0-2,1.1-2.2,2.3H39.2z"/>
	<path fill="#1D2554" d="M46.5,69.8h0.7v9h-0.7v-1.1h0C46,78.5,45,79,44.2,79c-2.1,0-2.9-1.5-2.9-3.4c0-1.8,0.9-3.4,2.9-3.4
		c0.9,0,1.8,0.4,2.3,1.2V69.8z M44.3,72.8c-1.5,0-2.3,1.3-2.2,2.9c0,1.6,0.9,2.5,2.2,2.5c1.4,0,2.2-1.2,2.2-2.7
		C46.5,74.1,45.6,72.8,44.3,72.8z"/>
	<path fill="#1D2554" d="M55.5,75c0.3,0,0.7-0.1,1-0.2c0.2-0.1,0.3-0.4,0.3-0.7c0-0.8-0.4-1.3-1.6-1.3c-1,0-1.7,0.3-1.9,1.5h-0.8
		c0.1-1.5,1.2-2.1,2.6-2.1c1.3,0,2.3,0.5,2.3,2v3.5c0,0.6,0.1,0.7,0.8,0.5v0.6c-0.1,0-0.4,0.1-0.6,0.1c-0.1,0-0.2,0-0.3,0
		c-0.5-0.1-0.6-0.5-0.6-1c-0.6,0.7-1.5,1.1-2.4,1.1c-1.1,0-2.2-0.6-2.2-1.9c0-1.1,0.7-1.7,2.3-1.9L55.5,75z M56.8,75.4
		c-0.6,0.3-1.3,0.3-1.9,0.4c-1.1,0.1-1.8,0.5-1.8,1.4c0,0.8,0.7,1.2,1.4,1.2c1.2,0,2.4-0.6,2.4-1.9V75.4z"/>
	<path fill="#1D2554" d="M60.2,78.8h-0.7v-6.4h0.7v1.2h0c0.4-1,1-1.4,2.1-1.4V73c-1.7,0-2.1,1.2-2.1,2.6V78.8z"/>
	<path fill="#1D2554" d="M63.8,75.7c0,1.4,0.7,2.5,2.2,2.5c1,0,1.7-0.5,2-1.5h0.8C68.4,78,67.6,79,66,79c-2.1,0-3-1.5-3-3.4
		c0-1.9,1.1-3.4,3-3.4c1.8,0,2.8,1.3,2.8,3.6H63.8z M68,75.1c0-1.3-0.7-2.3-2-2.3c-1.3,0-2,1.1-2.2,2.3H68z"/>
	<path fill="#1D2554" d="M73.2,75c0.3,0,0.7-0.1,1-0.2c0.2-0.1,0.3-0.4,0.3-0.7c0-0.8-0.4-1.3-1.6-1.3c-1,0-1.7,0.3-1.9,1.5h-0.8
		c0.1-1.5,1.2-2.1,2.6-2.1c1.3,0,2.3,0.5,2.3,2v3.5c0,0.6,0.1,0.7,0.8,0.5v0.6c-0.1,0-0.4,0.1-0.6,0.1c-0.1,0-0.2,0-0.3,0
		c-0.5-0.1-0.6-0.5-0.6-1C73.9,78.6,73,79,72.1,79C71,79,70,78.3,70,77.1c0-1.1,0.7-1.7,2.3-1.9L73.2,75z M74.5,75.4
		c-0.6,0.3-1.3,0.3-1.9,0.4c-1.1,0.1-1.8,0.5-1.8,1.4c0,0.8,0.7,1.2,1.4,1.2c1.2,0,2.4-0.6,2.4-1.9V75.4z"/>
	<path fill="#1D2554" d="M77.6,76.8c0.2,1.1,0.8,1.5,1.9,1.5c1.1,0,1.6-0.6,1.6-1.2c0-1.9-4.1-0.5-4.1-3.1c0-1.1,0.8-1.8,2.3-1.8
		c1.4,0,2.3,0.6,2.5,2H81c-0.1-1-0.8-1.4-1.7-1.4c-0.9,0-1.5,0.4-1.5,1.1c0,1.8,4.1,0.7,4.1,3.1c0,1.2-1.1,1.9-2.6,1.9
		s-2.4-1-2.4-2.2H77.6z"/>
	<path fill="#1D2554" d="M89.8,75c0.3,0,0.7-0.1,1-0.2c0.2-0.1,0.3-0.4,0.3-0.7c0-0.8-0.4-1.3-1.6-1.3c-1,0-1.7,0.3-1.9,1.5h-0.8
		c0.1-1.5,1.2-2.1,2.6-2.1c1.3,0,2.3,0.5,2.3,2v3.5c0,0.6,0.1,0.7,0.8,0.5v0.6c-0.1,0-0.4,0.1-0.6,0.1c-0.1,0-0.2,0-0.3,0
		c-0.5-0.1-0.6-0.5-0.6-1c-0.6,0.7-1.5,1.1-2.4,1.1c-1.1,0-2.2-0.6-2.2-1.9c0-1.1,0.7-1.7,2.3-1.9L89.8,75z M91.1,75.4
		c-0.6,0.3-1.3,0.3-1.9,0.4c-1.1,0.1-1.8,0.5-1.8,1.4c0,0.8,0.7,1.2,1.4,1.2c1.2,0,2.4-0.6,2.4-1.9V75.4z"/>
	<path fill="#1D2554" d="M94.6,78.8h-0.7v-6.4h0.7v1.2h0c0.4-1,1-1.4,2.1-1.4V73c-1.7,0-2.1,1.2-2.1,2.6V78.8z"/>
	<path fill="#1D2554" d="M98.2,75.7c0,1.4,0.7,2.5,2.2,2.5c1,0,1.7-0.5,2-1.5h0.8c-0.4,1.2-1.1,2.2-2.8,2.2c-2.1,0-3-1.5-3-3.4
		c0-1.9,1.1-3.4,3-3.4c1.8,0,2.8,1.3,2.8,3.6H98.2z M102.4,75.1c0-1.3-0.7-2.3-2-2.3c-1.3,0-2,1.1-2.2,2.3H102.4z"/>
	<path fill="#1D2554" d="M110.3,78.8c-0.2,0-0.5,0.1-0.9,0.1c-0.7,0-1.1-0.3-1.1-1.3V73h-0.9v-0.6h0.9v-1.8h0.7v1.8h1.2V73h-1.2v4.4
		c0,0.6,0,0.9,0.6,0.9c0.2,0,0.4,0,0.6-0.1V78.8z"/>
	<path fill="#1D2554" d="M111.5,78.8v-9h0.7v3.4c0.6-0.6,1.2-1.1,2.1-1.1c0.8,0,1.5,0.2,2,0.9c0.3,0.5,0.3,0.9,0.3,1.5v4.2h-0.7
		v-4.2c0-1.2-0.5-1.7-1.7-1.7c-0.9,0-1.6,0.6-1.8,1.3c-0.1,0.4-0.2,0.8-0.2,1.2v3.5H111.5z"/>
	<path fill="#1D2554" d="M118.9,75.7c0,1.4,0.7,2.5,2.2,2.5c1,0,1.7-0.5,2-1.5h0.8c-0.4,1.2-1.1,2.2-2.8,2.2c-2.1,0-3-1.5-3-3.4
		c0-1.9,1.1-3.4,3-3.4c1.8,0,2.8,1.3,2.8,3.6H118.9z M123.1,75.1c0-1.3-0.7-2.3-2-2.3c-1.3,0-2,1.1-2.2,2.3H123.1z"/>
	<path fill="#1D2554" d="M10.7,87.9v-0.6h1v-1c0-1,0.4-1.7,1.4-1.7c0.2,0,0.4,0,0.6,0v0.7c-0.1,0-0.3-0.1-0.4-0.1
		c-0.8,0-0.8,0.6-0.8,1.2v0.8h1.2v0.6h-1.2v5.8h-0.7v-5.8H10.7z"/>
	<path fill="#1D2554" d="M14.8,85.9v-1.1h0.8v1.1H14.8z M14.9,93.7v-6.4h0.7v6.4H14.9z"/>
	<path fill="#1D2554" d="M18.3,93.7h-0.7v-6.4h0.7v0.9c0.6-0.6,1.2-1.1,2.1-1.1c0.8,0,1.5,0.2,2,0.9c0.3,0.5,0.3,0.9,0.3,1.5v4.2
		h-0.7v-4.2c0-1.2-0.5-1.7-1.7-1.7c-0.9,0-1.6,0.6-1.8,1.3c-0.1,0.4-0.2,0.8-0.2,1.2V93.7z"/>
	<path fill="#1D2554" d="M29.4,87.3h0.7v5.8c0,1.7-0.6,3.3-3,3.3c-1.9,0-2.7-1.1-2.7-1.9h0.8c0.2,1,1,1.2,1.9,1.2c2,0,2.3-1.5,2.3-3
		c-0.5,0.8-1.4,1.2-2.3,1.2c-2,0-2.9-1.6-2.9-3.4c0-1.9,0.8-3.4,2.9-3.4c0.8,0,1.8,0.5,2.2,1.3h0V87.3z M27.2,87.8
		c-1.3,0-2.2,0.9-2.2,2.5c-0.1,1.6,0.7,2.9,2.2,2.9c1.4,0,2.2-1.2,2.2-2.7C29.4,88.9,28.6,87.8,27.2,87.8z"/>
	<path fill="#1D2554" d="M32.5,90.7c0,1.4,0.7,2.5,2.2,2.5c1,0,1.7-0.5,2-1.5h0.8c-0.4,1.2-1.1,2.2-2.8,2.2c-2.1,0-3-1.5-3-3.4
		c0-1.9,1.1-3.4,3-3.4c1.8,0,2.8,1.3,2.8,3.6H32.5z M36.7,90c0-1.3-0.7-2.3-2-2.3c-1.3,0-2,1.1-2.2,2.3H36.7z"/>
	<path fill="#1D2554" d="M39.7,93.7H39v-6.4h0.7v1.2h0c0.4-1,1-1.4,2.1-1.4v0.8c-1.7,0-2.1,1.2-2.1,2.6V93.7z"/>
	<path fill="#1D2554" d="M43.5,91.7c0.2,1.1,0.8,1.5,1.9,1.5c1.1,0,1.6-0.6,1.6-1.2c0-1.9-4.1-0.5-4.1-3.1c0-1.1,0.8-1.8,2.3-1.8
		c1.4,0,2.3,0.6,2.5,2h-0.8c-0.1-1-0.8-1.4-1.7-1.4c-0.9,0-1.5,0.4-1.5,1.1c0,1.8,4.1,0.7,4.1,3.1c0,1.2-1.1,1.9-2.6,1.9
		s-2.4-1-2.4-2.2H43.5z"/>
	<path fill="#1D2554" d="M50.6,94.1c0,0.7-0.4,1.2-0.9,1.3v-0.5c0.2-0.1,0.4-0.3,0.4-0.8v-0.4h-0.4v-1.1h0.9V94.1z"/>
	<path fill="#1D2554" d="M56.2,93.7v-9H57v3.4c0.6-0.6,1.2-1.1,2.1-1.1c0.8,0,1.5,0.2,2,0.9c0.3,0.5,0.3,0.9,0.3,1.5v4.2h-0.7v-4.2
		c0-1.2-0.5-1.7-1.7-1.7c-0.9,0-1.6,0.6-1.8,1.3C57,89.4,57,89.8,57,90.2v3.5H56.2z"/>
	<path fill="#1D2554" d="M66.1,89.9c0.3,0,0.7-0.1,1-0.2c0.2-0.1,0.3-0.4,0.3-0.7c0-0.8-0.4-1.3-1.6-1.3c-1,0-1.7,0.3-1.9,1.5h-0.8
		c0.1-1.5,1.2-2.1,2.6-2.1c1.3,0,2.3,0.5,2.3,2v3.5c0,0.6,0.1,0.7,0.8,0.5v0.6c-0.1,0-0.4,0.1-0.6,0.1c-0.1,0-0.2,0-0.3,0
		c-0.5-0.1-0.6-0.5-0.6-1c-0.6,0.7-1.5,1.1-2.4,1.1c-1.1,0-2.2-0.6-2.2-1.9c0-1.1,0.7-1.7,2.3-1.9L66.1,89.9z M67.4,90.3
		c-0.6,0.3-1.3,0.3-1.9,0.4c-1.1,0.1-1.8,0.5-1.8,1.4c0,0.8,0.7,1.2,1.4,1.2c1.2,0,2.4-0.6,2.4-1.9V90.3z"/>
	<path fill="#1D2554" d="M70.8,93.7H70v-6.4h0.7v0.9c0.6-0.6,1.2-1.1,2.1-1.1c0.8,0,1.5,0.2,2,0.9c0.3,0.5,0.3,0.9,0.3,1.5v4.2h-0.7
		v-4.2c0-1.2-0.5-1.7-1.7-1.7c-0.9,0-1.6,0.6-1.8,1.3c-0.1,0.4-0.2,0.8-0.2,1.2V93.7z"/>
	<path fill="#1D2554" d="M81.9,84.7h0.7v9h-0.7v-1.1h0c-0.4,0.8-1.4,1.3-2.2,1.3c-2.1,0-2.9-1.5-2.9-3.4c0-1.8,0.9-3.4,2.9-3.4
		c0.9,0,1.8,0.4,2.3,1.2V84.7z M79.8,87.8c-1.5,0-2.3,1.3-2.2,2.9c0,1.6,0.9,2.5,2.2,2.5c1.4,0,2.2-1.2,2.2-2.7
		C81.9,89,81.1,87.8,79.8,87.8z"/>
	<path fill="#1D2554" d="M85,91.7c0.2,1.1,0.8,1.5,1.9,1.5c1.1,0,1.6-0.6,1.6-1.2c0-1.9-4.1-0.5-4.1-3.1c0-1.1,0.8-1.8,2.3-1.8
		c1.4,0,2.3,0.6,2.5,2h-0.8c-0.1-1-0.8-1.4-1.7-1.4c-0.9,0-1.5,0.4-1.5,1.1c0,1.8,4.1,0.7,4.1,3.1c0,1.2-1.1,1.9-2.6,1.9
		s-2.4-1-2.4-2.2H85z"/>
	<path fill="#1D2554" d="M97.2,89.9c0.3,0,0.7-0.1,1-0.2c0.2-0.1,0.3-0.4,0.3-0.7c0-0.8-0.4-1.3-1.6-1.3c-1,0-1.7,0.3-1.9,1.5h-0.8
		c0.1-1.5,1.2-2.1,2.6-2.1c1.3,0,2.3,0.5,2.3,2v3.5c0,0.6,0.1,0.7,0.8,0.5v0.6c-0.1,0-0.4,0.1-0.6,0.1c-0.1,0-0.2,0-0.3,0
		c-0.5-0.1-0.6-0.5-0.6-1c-0.6,0.7-1.5,1.1-2.4,1.1c-1.1,0-2.2-0.6-2.2-1.9c0-1.1,0.7-1.7,2.3-1.9L97.2,89.9z M98.5,90.3
		c-0.6,0.3-1.3,0.3-1.9,0.4c-1.1,0.1-1.8,0.5-1.8,1.4c0,0.8,0.7,1.2,1.4,1.2c1.2,0,2.4-0.6,2.4-1.9V90.3z"/>
	<path fill="#1D2554" d="M101.9,93.7h-0.7v-6.4h0.7v0.9c0.6-0.6,1.2-1.1,2.1-1.1c0.8,0,1.5,0.2,2,0.9c0.3,0.5,0.3,0.9,0.3,1.5v4.2
		h-0.7v-4.2c0-1.2-0.5-1.7-1.7-1.7c-0.9,0-1.6,0.6-1.8,1.3c-0.1,0.4-0.2,0.8-0.2,1.2V93.7z"/>
	<path fill="#1D2554" d="M113,84.7h0.7v9H113v-1.1h0c-0.4,0.8-1.4,1.3-2.2,1.3c-2.1,0-2.9-1.5-2.9-3.4c0-1.8,0.9-3.4,2.9-3.4
		c0.9,0,1.8,0.4,2.3,1.2V84.7z M110.9,87.8c-1.5,0-2.3,1.3-2.2,2.9c0,1.6,0.9,2.5,2.2,2.5c1.4,0,2.2-1.2,2.2-2.7
		C113,89,112.2,87.8,110.9,87.8z"/>
	<path fill="#1D2554" d="M124.6,92.7l1.7-5.4h0.8l-2.1,6.4h-0.8l-1.4-5.4h0l-1.4,5.4h-0.9l-2-6.4h0.7l1.7,5.5l1.5-5.5h0.8
		L124.6,92.7z"/>
	<path fill="#1D2554" d="M128.9,93.7h-0.7v-6.4h0.7v1.2h0c0.4-1,1-1.4,2.1-1.4v0.8c-1.7,0-2.1,1.2-2.1,2.6V93.7z"/>
	<path fill="#1D2554" d="M132.3,85.9v-1.1h0.8v1.1H132.3z M132.4,93.7v-6.4h0.7v6.4H132.4z"/>
	<path fill="#1D2554" d="M135.4,91.7c0.2,1.1,0.8,1.5,1.9,1.5c1.1,0,1.6-0.6,1.6-1.2c0-1.9-4.1-0.5-4.1-3.1c0-1.1,0.8-1.8,2.3-1.8
		c1.4,0,2.3,0.6,2.5,2h-0.8c-0.1-1-0.8-1.4-1.7-1.4c-0.9,0-1.5,0.4-1.5,1.1c0,1.8,4.1,0.7,4.1,3.1c0,1.2-1.1,1.9-2.6,1.9
		c-1.5,0-2.4-1-2.4-2.2H135.4z"/>
	<path fill="#1D2554" d="M143.5,93.7c-0.2,0-0.5,0.1-0.9,0.1c-0.7,0-1.1-0.3-1.1-1.3v-4.7h-0.9v-0.6h0.9v-1.8h0.7v1.8h1.2v0.6h-1.2
		v4.4c0,0.6,0,0.9,0.6,0.9c0.2,0,0.4,0,0.6-0.1V93.7z"/>
	<path fill="#1D2554" d="M145.1,91.7c0.2,1.1,0.8,1.5,1.9,1.5c1.1,0,1.6-0.6,1.6-1.2c0-1.9-4.1-0.5-4.1-3.1c0-1.1,0.8-1.8,2.3-1.8
		c1.4,0,2.3,0.6,2.5,2h-0.8c-0.1-1-0.8-1.4-1.7-1.4c-0.9,0-1.5,0.4-1.5,1.1c0,1.8,4.1,0.7,4.1,3.1c0,1.2-1.1,1.9-2.6,1.9
		c-1.5,0-2.4-1-2.4-2.2H145.1z"/>
	<path fill="#1D2554" d="M151.3,93.7v-1.1h0.9v1.1H151.3z"/>
</g>
<g>
</g>
<g>
</g>
<g>
</g>
<g>
</g>
<g>
</g>
<g>
</g>
</svg>
