<?xml version="1.0" encoding="utf-8"?>
<!-- Generator: Adobe Illustrator 19.1.0, SVG Export Plug-In . SVG Version: 6.00 Build 0)  -->
<svg version="1.1" id="Layer_1" xmlns="http://www.w3.org/2000/svg" xmlns:xlink="http://www.w3.org/1999/xlink" x="0px" y="0px"
	 width="291px" height="121.8px" viewBox="0 0 291 121.8" enable-background="new 0 0 291 121.8" xml:space="preserve">
<g>
	<rect x="11.6" y="8.1" fill="none" width="161.1" height="67.5"/>
	<path fill="#4167B1" d="M22.2,11.7h-1.4V9.8h-5.1v4.5h4v-0.9h1.2v3.1h-1.2v-0.9h-4v4.6h1.6v1.7h-4.7v-1.7h1.4V9.8h-1.4V8.1h9.7
		V11.7z"/>
	<path fill="#4167B1" d="M32.6,19.6l-2.2,2.2h-4.5l-2.2-2.2v-9.4l2.1-2.1h4.7l2.1,2.1V19.6z M26.4,9.8l-1.1,1.1V19l1.2,1.2h3.2
		l1.2-1.2v-8.1l-1.1-1.1H26.4z"/>
	<path fill="#4167B1" d="M43.4,19.6l-2.2,2.2h-4.5l-2.2-2.2v-9.4l2.1-2.1h4.7l2.1,2.1V19.6z M37.2,9.8l-1.1,1.1V19l1.2,1.2h3.2
		l1.2-1.2v-8.1l-1.1-1.1H37.2z"/>
	<path fill="#4167B1" d="M54.7,12.1h-1.5V9.7h-2.7v10.5h1.6v1.7h-5v-1.7h1.6V9.7h-2.7v2.4h-1.5v-4h10V12.1z"/>
	<path fill="#4167B1" d="M65.6,13.3l-1.3,1.3l1.4,1.3v3.9l-2.1,2H56v-1.7h1.4V9.8H56V8.1h7.7l1.9,1.9V13.3z M59.2,9.8v4.1H63l1-1
		v-2.1l-1-1H59.2z M59.2,15.4v4.8H63l1-1.1v-2.8l-1-1H59.2z"/>
	<path fill="#4167B1" d="M76.3,20.2h1.6v1.7h-4.6v-1.7h1.2l-0.7-2.5h-4.2L69,20.2h1.2v1.7h-4.2v-1.7h1.5l2.8-10.4h-1.6V8.1h4.4
		L76.3,20.2z M69.9,16.6h3.6l-1.8-6.7L69.9,16.6z"/>
	<path fill="#4167B1" d="M83.7,9.8h-1.5v10.4h5V18h1.5v3.9H79v-1.7h1.4V9.8H79V8.1h4.6V9.8z"/>
	<path fill="#4167B1" d="M94.6,9.8h-1.5v10.4h5V18h1.5v3.9h-9.6v-1.7h1.4V9.8h-1.4V8.1h4.6V9.8z"/>
	<path fill="#1D2554" d="M16.4,27.6c2.8,0,4.2,2.1,4.2,4.7c0,2.6-1.4,4.7-4.2,4.7s-4.2-2.1-4.2-4.7C12.2,29.7,13.7,27.6,16.4,27.6z
		 M19.8,32.3c0-2.5-1.3-4-3.3-4c-2.3,0-3.3,1.9-3.3,4c0,2.1,1,4,3.3,4C18.8,36.3,19.8,34.4,19.8,32.3z"/>
	<path fill="#1D2554" d="M21.5,30.3h0.8l2.1,5.5l2.1-5.5h0.8l-2.5,6.4h-0.8L21.5,30.3z"/>
	<path fill="#1D2554" d="M28.8,33.7c0,1.4,0.7,2.5,2.2,2.5c1,0,1.7-0.5,2-1.5h0.8C33.4,36,32.7,37,31,37c-2.1,0-3-1.5-3-3.4
		c0-1.9,1.1-3.4,3-3.4c1.8,0,2.8,1.3,2.8,3.6H28.8z M33.1,33.1c0-1.3-0.7-2.3-2-2.3c-1.3,0-2,1.1-2.2,2.3H33.1z"/>
	<path fill="#1D2554" d="M36.1,36.8h-0.7v-6.4h0.7v1.2h0c0.4-1,1-1.4,2.1-1.4V31c-1.7,0-2.1,1.2-2.1,2.6V36.8z"/>
	<path fill="#1D2554" d="M43.2,34.5c0.2,1.2,1,1.8,2.2,1.8c1.3,0,2.1-1,2.1-2.2c0-1.3-0.8-2.2-2.2-2.2c-0.8,0-1.4,0.3-1.9,0.9
		l-0.7-0.1l0.7-4.5h4.4v0.7h-3.7l-0.5,2.9c0.7-0.4,1.1-0.6,1.9-0.6c1.6,0,2.8,1.1,2.8,2.9c0,1.8-1.3,2.9-2.8,2.9
		c-1.7,0-2.9-0.6-3.1-2.5H43.2z"/>
	<path fill="#1D2554" d="M55.3,32.6c0,2.3-0.5,4.4-3,4.4c-2.4,0-3-2.1-3-4.5c0-2.2,0.4-4.5,3-4.5C55,28,55.3,30.5,55.3,32.6z
		 M52.4,28.7c-1.7,0-2.2,1.9-2.2,3.9c0,2.3,0.5,3.7,2.2,3.7c1.9,0,2.2-2.1,2.2-3.8C54.5,30.6,54.2,28.7,52.4,28.7z"/>
	<path fill="#1D2554" d="M62.3,32.6c0,2.3-0.5,4.4-3,4.4c-2.4,0-3-2.1-3-4.5c0-2.2,0.4-4.5,3-4.5C61.9,28,62.3,30.5,62.3,32.6z
		 M59.3,28.7c-1.7,0-2.2,1.9-2.2,3.9c0,2.3,0.5,3.7,2.2,3.7c1.9,0,2.2-2.1,2.2-3.8C61.5,30.6,61.1,28.7,59.3,28.7z"/>
	<path fill="#1D2554" d="M64.9,37.2c0,0.7-0.4,1.2-0.9,1.3V38c0.2-0.1,0.4-0.3,0.4-0.8v-0.4H64v-1.1h0.9V37.2z"/>
	<path fill="#1D2554" d="M72.6,32.6c0,2.3-0.5,4.4-3,4.4c-2.4,0-3-2.1-3-4.5c0-2.2,0.4-4.5,3-4.5C72.3,28,72.6,30.5,72.6,32.6z
		 M69.6,28.7c-1.7,0-2.2,1.9-2.2,3.9c0,2.3,0.5,3.7,2.2,3.7c1.9,0,2.2-2.1,2.2-3.8C71.8,30.6,71.5,28.7,69.6,28.7z"/>
	<path fill="#1D2554" d="M79.5,32.6c0,2.3-0.5,4.4-3,4.4c-2.4,0-3-2.1-3-4.5c0-2.2,0.4-4.5,3-4.5C79.2,28,79.5,30.5,79.5,32.6z
		 M76.6,28.7c-1.7,0-2.2,1.9-2.2,3.9c0,2.3,0.5,3.7,2.2,3.7c1.9,0,2.2-2.1,2.2-3.8C78.7,30.6,78.4,28.7,76.6,28.7z"/>
	<path fill="#1D2554" d="M86.5,32.6c0,2.3-0.5,4.4-3,4.4c-2.4,0-3-2.1-3-4.5c0-2.2,0.4-4.5,3-4.5C86.1,28,86.5,30.5,86.5,32.6z
		 M83.5,28.7c-1.7,0-2.2,1.9-2.2,3.9c0,2.3,0.5,3.7,2.2,3.7c1.9,0,2.2-2.1,2.2-3.8C85.7,30.6,85.3,28.7,83.5,28.7z"/>
	<path fill="#1D2554" d="M91.4,28.9v-1.1h0.8v1.1H91.4z M91.4,36.8v-6.4h0.7v6.4H91.4z"/>
	<path fill="#1D2554" d="M94.8,36.8h-0.7v-6.4h0.7v0.9c0.6-0.6,1.2-1.1,2.1-1.1c0.8,0,1.5,0.2,2,0.9c0.3,0.5,0.3,0.9,0.3,1.5v4.2
		h-0.7v-4.2c0-1.2-0.5-1.7-1.7-1.7c-0.9,0-1.6,0.6-1.8,1.3c-0.1,0.4-0.2,0.8-0.2,1.2V36.8z"/>
	<path fill="#1D2554" d="M101.9,30.3v7.3c0,1.1-0.1,1.7-1.3,1.7c-0.2,0-0.3,0-0.5,0v-0.7c0.9,0.1,1-0.2,1-0.9v-7.4H101.9z M102,28.9
		h-0.8v-1.1h0.8V28.9z"/>
	<path fill="#1D2554" d="M108.1,30.3h0.7v6.4h-0.7v-0.9c-0.4,0.4-0.9,1.1-2.1,1.1c-1.7,0-2.3-1-2.3-2.4v-4.2h0.7v4.2
		c0,1.1,0.5,1.7,1.7,1.7c1.2,0,2-1,2-2.4V30.3z"/>
	<path fill="#1D2554" d="M111.4,36.8h-0.7v-6.4h0.7v1.2h0c0.4-1,1-1.4,2.1-1.4V31c-1.7,0-2.1,1.2-2.1,2.6V36.8z"/>
	<path fill="#1D2554" d="M114.9,28.9v-1.1h0.8v1.1H114.9z M114.9,36.8v-6.4h0.7v6.4H114.9z"/>
	<path fill="#1D2554" d="M118,33.7c0,1.4,0.7,2.5,2.2,2.5c1,0,1.7-0.5,2-1.5h0.8c-0.4,1.2-1.1,2.2-2.8,2.2c-2.1,0-3-1.5-3-3.4
		c0-1.9,1.1-3.4,3-3.4c1.8,0,2.8,1.3,2.8,3.6H118z M122.2,33.1c0-1.3-0.7-2.3-2-2.3c-1.3,0-2,1.1-2.2,2.3H122.2z"/>
	<path fill="#1D2554" d="M124.9,34.8c0.2,1.1,0.8,1.5,1.9,1.5c1.1,0,1.6-0.6,1.6-1.2c0-1.9-4.1-0.5-4.1-3.1c0-1.1,0.8-1.8,2.3-1.8
		c1.4,0,2.3,0.6,2.5,2h-0.8c-0.1-1-0.8-1.4-1.7-1.4c-0.9,0-1.5,0.4-1.5,1.1c0,1.8,4.1,0.7,4.1,3.1c0,1.2-1.1,1.9-2.6,1.9
		c-1.5,0-2.4-1-2.4-2.2H124.9z"/>
	<path fill="#1D2554" d="M133.7,33.6c0-1.9,1-3.4,3-3.4c2,0,3,1.5,3,3.4c0,2-1.2,3.4-3,3.4C135.1,36.9,133.7,35.8,133.7,33.6z
		 M136.7,30.8c-1.6,0-2.2,1.3-2.2,2.7c0,1.6,0.8,2.7,2.2,2.7c1.6,0,2.2-1.3,2.2-2.7C138.9,32.1,138.3,30.8,136.7,30.8z"/>
	<path fill="#1D2554" d="M145.6,32.4c-0.3-1-0.9-1.5-1.9-1.5c-1.5,0-2.2,1.4-2.2,2.7c0,1.4,0.6,2.7,2.2,2.7c1.1,0,1.8-0.7,2-1.7h0.8
		c-0.3,1.4-1.2,2.4-2.8,2.4c-2.1,0-3-1.5-3-3.4c0-1.8,1-3.4,3-3.4c1.5,0,2.5,0.7,2.7,2.2H145.6z"/>
	<path fill="#1D2554" d="M152.5,32.4c-0.3-1-0.9-1.5-1.9-1.5c-1.5,0-2.2,1.4-2.2,2.7c0,1.4,0.6,2.7,2.2,2.7c1.1,0,1.8-0.7,2-1.7h0.8
		c-0.3,1.4-1.2,2.4-2.8,2.4c-2.1,0-3-1.5-3-3.4c0-1.8,1-3.4,3-3.4c1.5,0,2.4,0.7,2.7,2.2H152.5z"/>
	<path fill="#1D2554" d="M159.3,30.3h0.7v6.4h-0.7v-0.9c-0.4,0.4-0.9,1.1-2.1,1.1c-1.7,0-2.3-1-2.3-2.4v-4.2h0.7v4.2
		c0,1.1,0.5,1.7,1.7,1.7c1.2,0,2-1,2-2.4V30.3z"/>
	<path fill="#1D2554" d="M162.6,36.8h-0.7v-6.4h0.7v1.2h0c0.4-1,1-1.4,2.1-1.4V31c-1.7,0-2.1,1.2-2.1,2.6V36.8z"/>
	<path fill="#1D2554" d="M15.5,48c0.3,0,0.7-0.1,1-0.2c0.2-0.1,0.3-0.4,0.3-0.7c0-0.8-0.4-1.3-1.6-1.3c-1,0-1.7,0.3-1.9,1.5h-0.8
		c0.1-1.5,1.2-2.1,2.6-2.1c1.3,0,2.3,0.5,2.3,2v3.5c0,0.6,0.1,0.7,0.8,0.5v0.6c-0.1,0-0.4,0.1-0.6,0.1c-0.1,0-0.2,0-0.3,0
		c-0.5-0.1-0.6-0.5-0.6-1c-0.6,0.7-1.5,1.1-2.4,1.1c-1.1,0-2.2-0.6-2.2-1.9c0-1.1,0.7-1.7,2.3-1.9L15.5,48z M16.7,48.3
		c-0.6,0.3-1.3,0.3-1.9,0.4c-1.1,0.1-1.8,0.5-1.8,1.4c0,0.8,0.7,1.2,1.4,1.2c1.2,0,2.4-0.6,2.4-1.9V48.3z"/>
	<path fill="#1D2554" d="M20.2,51.7h-0.7v-6.4h0.7v0.9c0.6-0.6,1.2-1.1,2.1-1.1c0.8,0,1.5,0.2,2,0.9c0.3,0.5,0.3,0.9,0.3,1.5v4.2
		h-0.7v-4.2c0-1.2-0.5-1.7-1.7-1.7c-0.9,0-1.6,0.6-1.8,1.3c-0.1,0.4-0.2,0.8-0.2,1.2V51.7z"/>
	<path fill="#1D2554" d="M27.1,51.7h-0.7v-6.4h0.7v0.9c0.6-0.6,1.2-1.1,2.1-1.1c0.8,0,1.5,0.2,2,0.9c0.3,0.5,0.3,0.9,0.3,1.5v4.2
		h-0.7v-4.2c0-1.2-0.5-1.7-1.7-1.7c-0.9,0-1.6,0.6-1.8,1.3c-0.1,0.4-0.2,0.8-0.2,1.2V51.7z"/>
	<path fill="#1D2554" d="M37.6,45.3h0.7v6.4h-0.7v-0.9c-0.4,0.4-0.9,1.1-2.1,1.1c-1.7,0-2.3-1-2.3-2.4v-4.2H34v4.2
		c0,1.1,0.5,1.7,1.7,1.7c1.2,0,2-1,2-2.4V45.3z"/>
	<path fill="#1D2554" d="M43.1,48c0.3,0,0.7-0.1,1-0.2c0.2-0.1,0.3-0.4,0.3-0.7c0-0.8-0.4-1.3-1.6-1.3c-1,0-1.7,0.3-1.9,1.5h-0.8
		c0.1-1.5,1.2-2.1,2.6-2.1c1.3,0,2.3,0.5,2.3,2v3.5c0,0.6,0.1,0.7,0.8,0.5v0.6c-0.1,0-0.4,0.1-0.6,0.1c-0.1,0-0.2,0-0.3,0
		c-0.5-0.1-0.6-0.5-0.6-1c-0.6,0.7-1.5,1.1-2.4,1.1c-1.1,0-2.2-0.6-2.2-1.9c0-1.1,0.7-1.7,2.3-1.9L43.1,48z M44.4,48.3
		c-0.6,0.3-1.3,0.3-1.9,0.4c-1.1,0.1-1.8,0.5-1.8,1.4c0,0.8,0.7,1.2,1.4,1.2c1.2,0,2.4-0.6,2.4-1.9V48.3z"/>
	<path fill="#1D2554" d="M47.2,51.7v-9h0.7v9H47.2z"/>
	<path fill="#1D2554" d="M49.9,51.7v-9h0.7v9H49.9z"/>
	<path fill="#1D2554" d="M52.5,53.5c0.2,0,0.4,0.1,0.6,0.1c0.8,0,1-1.2,1.3-1.8l-2.5-6.5h0.8l2.1,5.5l2.1-5.5h0.8l-2.4,6.4
		c-0.6,1.6-1,2.6-2,2.6c-0.3,0-0.5,0-0.7-0.1V53.5z"/>
	<path fill="#1D2554" d="M64.5,51.7c-0.2,0-0.5,0.1-0.9,0.1c-0.7,0-1.1-0.3-1.1-1.3v-4.7h-0.9v-0.6h0.9v-1.8h0.7v1.8h1.2v0.6h-1.2
		v4.4c0,0.6,0,0.9,0.6,0.9c0.2,0,0.4,0,0.6-0.1V51.7z"/>
	<path fill="#1D2554" d="M65.3,48.5c0-1.9,1-3.4,3-3.4c2,0,3,1.5,3,3.4c0,2-1.2,3.4-3,3.4C66.6,51.9,65.3,50.7,65.3,48.5z
		 M68.3,45.8c-1.6,0-2.2,1.3-2.2,2.7c0,1.6,0.8,2.7,2.2,2.7c1.6,0,2.2-1.3,2.2-2.7C70.5,47,69.9,45.8,68.3,45.8z"/>
	<path fill="#1D2554" d="M75.4,51.7l3.5-9h1l3.4,9h-0.9l-1-2.8h-4.1l-1.1,2.8H75.4z M77.6,48.2h3.5l-1.8-4.7L77.6,48.2z"/>
	<path fill="#1D2554" d="M85,51.7h-0.7v-6.4H85v1h0c0.4-0.7,1.2-1.1,2-1.1c1.2,0,1.6,0.6,1.9,1.2c0.4-0.8,1.2-1.2,2.1-1.2
		c1.8,0,2,1.3,2,2.5v4.1h-0.7v-4.5c0-0.9-0.3-1.5-1.4-1.5c-0.5,0-1.1,0.2-1.5,0.7c-0.3,0.4-0.4,1.2-0.4,1.7v3.5h-0.7v-4.5
		c0-0.9-0.3-1.5-1.4-1.5c-0.5,0-1.1,0.2-1.5,0.7c-0.3,0.4-0.4,1.2-0.4,1.7V51.7z"/>
	<path fill="#1D2554" d="M95.2,48.7c0,1.4,0.7,2.5,2.2,2.5c1,0,1.7-0.5,2-1.5h0.8c-0.4,1.2-1.1,2.2-2.8,2.2c-2.1,0-3-1.5-3-3.4
		c0-1.9,1.1-3.4,3-3.4c1.8,0,2.8,1.3,2.8,3.6H95.2z M99.4,48c0-1.3-0.7-2.3-2-2.3c-1.3,0-2,1.1-2.2,2.3H99.4z"/>
	<path fill="#1D2554" d="M102.4,51.7h-0.7v-6.4h0.7v1.2h0c0.4-1,1-1.4,2.1-1.4v0.8c-1.7,0-2.1,1.2-2.1,2.6V51.7z"/>
	<path fill="#1D2554" d="M105.9,43.9v-1.1h0.8v1.1H105.9z M105.9,51.7v-6.4h0.7v6.4H105.9z"/>
	<path fill="#1D2554" d="M113.1,47.3c-0.3-1-0.9-1.5-1.9-1.5c-1.5,0-2.2,1.4-2.2,2.7c0,1.4,0.6,2.7,2.2,2.7c1.1,0,1.8-0.7,2-1.7h0.8
		c-0.3,1.4-1.2,2.4-2.8,2.4c-2.1,0-3-1.5-3-3.4c0-1.8,1-3.4,3-3.4c1.5,0,2.4,0.7,2.7,2.2H113.1z"/>
	<path fill="#1D2554" d="M118.4,48c0.3,0,0.7-0.1,1-0.2c0.2-0.1,0.3-0.4,0.3-0.7c0-0.8-0.4-1.3-1.6-1.3c-1,0-1.7,0.3-1.9,1.5h-0.8
		c0.1-1.5,1.2-2.1,2.6-2.1c1.3,0,2.3,0.5,2.3,2v3.5c0,0.6,0.1,0.7,0.8,0.5v0.6c-0.1,0-0.4,0.1-0.6,0.1c-0.1,0-0.2,0-0.3,0
		c-0.5-0.1-0.6-0.5-0.6-1c-0.6,0.7-1.5,1.1-2.4,1.1c-1.1,0-2.2-0.6-2.2-1.9c0-1.1,0.7-1.7,2.3-1.9L118.4,48z M119.7,48.3
		c-0.6,0.3-1.3,0.3-1.9,0.4c-1.1,0.1-1.8,0.5-1.8,1.4c0,0.8,0.7,1.2,1.4,1.2c1.2,0,2.4-0.6,2.4-1.9V48.3z"/>
	<path fill="#1D2554" d="M123.1,51.7h-0.7v-6.4h0.7v0.9c0.6-0.6,1.2-1.1,2.1-1.1c0.8,0,1.5,0.2,2,0.9c0.3,0.5,0.3,0.9,0.3,1.5v4.2
		h-0.7v-4.2c0-1.2-0.5-1.7-1.7-1.7c-0.9,0-1.6,0.6-1.8,1.3c-0.1,0.4-0.2,0.8-0.2,1.2V51.7z"/>
	<path fill="#1D2554" d="M132.7,53.5c0.2,0,0.4,0.1,0.6,0.1c0.8,0,1-1.2,1.3-1.8l-2.5-6.5h0.8l2.1,5.5l2.1-5.5h0.8l-2.4,6.4
		c-0.6,1.6-1,2.6-2,2.6c-0.3,0-0.5,0-0.7-0.1V53.5z"/>
	<path fill="#1D2554" d="M138.6,48.5c0-1.9,1-3.4,3-3.4c2,0,3,1.5,3,3.4c0,2-1.2,3.4-3,3.4C139.9,51.9,138.6,50.7,138.6,48.5z
		 M141.5,45.8c-1.6,0-2.2,1.3-2.2,2.7c0,1.6,0.8,2.7,2.2,2.7c1.6,0,2.2-1.3,2.2-2.7C143.7,47,143.1,45.8,141.5,45.8z"/>
	<path fill="#1D2554" d="M150.3,45.3h0.7v6.4h-0.7v-0.9c-0.4,0.4-0.9,1.1-2.1,1.1c-1.7,0-2.3-1-2.3-2.4v-4.2h0.7v4.2
		c0,1.1,0.5,1.7,1.7,1.7c1.2,0,2-1,2-2.4V45.3z"/>
	<path fill="#1D2554" d="M155.1,51.7c-0.2,0-0.5,0.1-0.9,0.1c-0.7,0-1.1-0.3-1.1-1.3v-4.7h-0.9v-0.6h0.9v-1.8h0.7v1.8h1.2v0.6h-1.2
		v4.4c0,0.6,0,0.9,0.6,0.9c0.2,0,0.4,0,0.6-0.1V51.7z"/>
	<path fill="#1D2554" d="M156.3,51.7v-9h0.7v3.4c0.6-0.6,1.2-1.1,2.1-1.1c0.8,0,1.5,0.2,2,0.9c0.3,0.5,0.3,0.9,0.3,1.5v4.2h-0.7
		v-4.2c0-1.2-0.5-1.7-1.7-1.7c-0.9,0-1.6,0.6-1.8,1.3c-0.1,0.4-0.2,0.8-0.2,1.2v3.5H156.3z"/>
	<path fill="#1D2554" d="M11.8,60.8v-0.6h1v-1c0-1,0.4-1.7,1.4-1.7c0.2,0,0.4,0,0.6,0v0.7c-0.1,0-0.3-0.1-0.4-0.1
		c-0.8,0-0.8,0.6-0.8,1.2v0.8h1.2v0.6h-1.2v5.8h-0.7v-5.8H11.8z"/>
	<path fill="#1D2554" d="M16.7,66.6H16v-6.4h0.7v1.2h0c0.4-1,1-1.4,2.1-1.4v0.8c-1.7,0-2.1,1.2-2.1,2.6V66.6z"/>
	<path fill="#1D2554" d="M19.4,63.4c0-1.9,1-3.4,3-3.4c2,0,3,1.5,3,3.4c0,2-1.2,3.4-3,3.4C20.8,66.8,19.4,65.7,19.4,63.4z
		 M22.4,60.7c-1.6,0-2.2,1.3-2.2,2.7c0,1.6,0.8,2.7,2.2,2.7c1.6,0,2.2-1.3,2.2-2.7C24.6,61.9,24,60.7,22.4,60.7z"/>
	<path fill="#1D2554" d="M27.4,66.6h-0.7v-6.4h0.7v1h0c0.4-0.7,1.2-1.1,2-1.1c1.2,0,1.6,0.6,1.9,1.2c0.4-0.8,1.2-1.2,2.1-1.2
		c1.8,0,2,1.3,2,2.5v4.1h-0.7v-4.5c0-0.9-0.3-1.5-1.4-1.5c-0.5,0-1.1,0.2-1.5,0.7c-0.3,0.4-0.4,1.2-0.4,1.7v3.5h-0.7v-4.5
		c0-0.9-0.3-1.5-1.4-1.5c-0.5,0-1.1,0.2-1.5,0.7c-0.3,0.4-0.4,1.2-0.4,1.7V66.6z"/>
	<path fill="#1D2554" d="M41.4,69.2h-0.7v-9h0.7v1.1h0c0.4-0.8,1.4-1.3,2.2-1.3c2.1,0,2.9,1.5,2.9,3.4c0,1.8-0.9,3.4-2.9,3.4
		c-0.9,0-1.8-0.4-2.3-1.2V69.2z M43.6,66.1c1.5,0,2.3-1.3,2.2-2.9c0-1.6-0.9-2.5-2.2-2.5c-1.4,0-2.2,1.2-2.2,2.7
		C41.4,64.9,42.3,66.1,43.6,66.1z"/>
	<path fill="#1D2554" d="M48.3,66.6v-9h0.7v9H48.3z"/>
	<path fill="#1D2554" d="M53.9,62.9c0.3,0,0.7-0.1,1-0.2c0.2-0.1,0.3-0.4,0.3-0.7c0-0.8-0.4-1.3-1.6-1.3c-1,0-1.7,0.3-1.9,1.5h-0.8
		c0.1-1.5,1.2-2.1,2.6-2.1c1.3,0,2.3,0.5,2.3,2v3.5c0,0.6,0.1,0.7,0.8,0.5v0.6c-0.1,0-0.4,0.1-0.6,0.1c-0.1,0-0.2,0-0.3,0
		c-0.5-0.1-0.6-0.5-0.6-1c-0.6,0.7-1.5,1.1-2.4,1.1c-1.1,0-2.2-0.6-2.2-1.9c0-1.1,0.7-1.7,2.3-1.9L53.9,62.9z M55.2,63.3
		c-0.6,0.3-1.3,0.3-1.9,0.4c-1.1,0.1-1.8,0.5-1.8,1.4c0,0.8,0.7,1.2,1.4,1.2c1.2,0,2.4-0.6,2.4-1.9V63.3z"/>
	<path fill="#1D2554" d="M57.8,68.4c0.2,0,0.4,0.1,0.6,0.1c0.8,0,1-1.2,1.3-1.8l-2.5-6.5H58l2.1,5.5l2.1-5.5H63l-2.4,6.4
		c-0.6,1.6-1,2.6-2,2.6c-0.3,0-0.5,0-0.7-0.1V68.4z"/>
	<path fill="#1D2554" d="M64.2,58.8v-1.1H65v1.1H64.2z M64.2,66.6v-6.4H65v6.4H64.2z"/>
	<path fill="#1D2554" d="M67.6,66.6h-0.7v-6.4h0.7v0.9c0.6-0.6,1.2-1.1,2.1-1.1c0.8,0,1.5,0.2,2,0.9c0.3,0.5,0.3,0.9,0.3,1.5v4.2
		h-0.7v-4.2c0-1.2-0.5-1.7-1.7-1.7c-0.9,0-1.6,0.6-1.8,1.3c-0.1,0.4-0.2,0.8-0.2,1.2V66.6z"/>
	<path fill="#1D2554" d="M78.7,60.2h0.7V66c0,1.7-0.6,3.3-3,3.3c-1.9,0-2.7-1.1-2.7-1.9h0.8c0.2,1,1,1.2,1.9,1.2c2,0,2.3-1.5,2.3-3
		c-0.5,0.8-1.4,1.2-2.3,1.2c-2,0-2.9-1.6-2.9-3.4c0-1.9,0.8-3.4,2.9-3.4c0.8,0,1.8,0.5,2.2,1.3h0V60.2z M76.6,60.7
		c-1.3,0-2.2,0.9-2.2,2.5c-0.1,1.6,0.7,2.9,2.2,2.9c1.4,0,2.2-1.2,2.2-2.7C78.7,61.9,78,60.7,76.6,60.7z"/>
	<path fill="#1D2554" d="M84.9,66.6v-9h5.8v0.7h-4.9v3.2h4.5v0.7h-4.5v4.3H84.9z"/>
	<path fill="#1D2554" d="M91.3,63.4c0-1.9,1-3.4,3-3.4c2,0,3,1.5,3,3.4c0,2-1.2,3.4-3,3.4C92.7,66.8,91.3,65.7,91.3,63.4z
		 M94.3,60.7c-1.6,0-2.2,1.3-2.2,2.7c0,1.6,0.8,2.7,2.2,2.7c1.6,0,2.2-1.3,2.2-2.7C96.5,61.9,95.9,60.7,94.3,60.7z"/>
	<path fill="#1D2554" d="M98.2,63.4c0-1.9,1-3.4,3-3.4c2,0,3,1.5,3,3.4c0,2-1.2,3.4-3,3.4C99.6,66.8,98.2,65.7,98.2,63.4z
		 M101.2,60.7c-1.6,0-2.2,1.3-2.2,2.7c0,1.6,0.8,2.7,2.2,2.7c1.6,0,2.2-1.3,2.2-2.7C103.4,61.9,102.8,60.7,101.2,60.7z"/>
	<path fill="#1D2554" d="M107.8,66.7c-0.2,0-0.5,0.1-0.9,0.1c-0.7,0-1.1-0.3-1.1-1.3v-4.7h-0.9v-0.6h0.9v-1.8h0.7v1.8h1.2v0.6h-1.2
		v4.4c0,0.6,0,0.9,0.6,0.9c0.2,0,0.4,0,0.6-0.1V66.7z"/>
	<path fill="#1D2554" d="M109.9,66.6h-0.7v-9h0.7v3.5c0.5-0.8,1.4-1.2,2.3-1.2c2,0,2.9,1.6,2.9,3.4c0,1.9-0.8,3.4-2.9,3.4
		c-0.8,0-1.8-0.5-2.2-1.3h0V66.6z M112,66.1c1.3,0,2.2-0.9,2.2-2.5c0.1-1.6-0.7-2.9-2.2-2.9c-1.4,0-2.2,1.2-2.2,2.7
		C109.9,64.9,110.6,66.1,112,66.1z"/>
	<path fill="#1D2554" d="M119.6,62.9c0.3,0,0.7-0.1,1-0.2c0.2-0.1,0.3-0.4,0.3-0.7c0-0.8-0.4-1.3-1.6-1.3c-1,0-1.7,0.3-1.9,1.5h-0.8
		c0.1-1.5,1.2-2.1,2.6-2.1c1.3,0,2.3,0.5,2.3,2v3.5c0,0.6,0.1,0.7,0.8,0.5v0.6c-0.1,0-0.4,0.1-0.6,0.1c-0.1,0-0.2,0-0.3,0
		c-0.5-0.1-0.6-0.5-0.6-1c-0.6,0.7-1.5,1.1-2.4,1.1c-1.1,0-2.2-0.6-2.2-1.9c0-1.1,0.7-1.7,2.3-1.9L119.6,62.9z M120.8,63.3
		c-0.6,0.3-1.3,0.3-1.9,0.4c-1.1,0.1-1.8,0.5-1.8,1.4c0,0.8,0.7,1.2,1.4,1.2c1.2,0,2.4-0.6,2.4-1.9V63.3z"/>
	<path fill="#1D2554" d="M123.7,66.6v-9h0.7v9H123.7z"/>
	<path fill="#1D2554" d="M126.4,66.6v-9h0.7v9H126.4z"/>
	<path fill="#1D2554" d="M129.4,66.6v-1.1h0.9v1.1H129.4z"/>
</g>
<path fill="#4167B1" stroke="#4167B1" stroke-width="2" stroke-miterlimit="10" d="M276.4,81.4c-1-5.2-3.4-10.1-7.4-14
	c-2.1-2.1-4.4-3.7-6.8-4.9c-0.1-0.1-0.2-0.1-0.2-0.1c0,0,0,0,0,0c-0.9-0.5-1.9-0.9-2.9-1.2c-9.3-3.3-20-1.3-27.5,5.9l-31.6-31.6l0,0
	L177.6,13h-62.2V14l62.2-0.1l0.6,0.6l-0.3,0.3l52.9,52.9c-2,2.1-3.6,4.4-4.8,6.9c0,0,0,0,0,0c0,0.1-0.1,0.2-0.1,0.3
	c-4.6,9.9-2.9,22.1,5.3,30.3c2,2,4.3,3.6,6.7,4.9c5.8,3,12.5,3.7,18.7,2.2c2.2-0.5,4.3-1.3,6.3-2.4c0.3-0.2,0.6-0.3,0.9-0.5
	c0.6-0.3,1.2-0.7,1.7-1.1c0.6-0.4,1.2-0.9,1.8-1.3c0,0,0,0,0,0c0.1-0.1,0.2-0.1,0.2-0.2c0.5-0.4,1-0.9,1.5-1.4
	C275.5,98.8,278,89.8,276.4,81.4z M268.3,104.5c-0.4,0.4-0.9,0.9-1.4,1.3c0,0,0,0-0.1,0c-0.6,0.5-1.3,1.1-2,1.5
	c-0.5,0.4-1.1,0.7-1.6,1c-0.3,0.2-0.7,0.4-1,0.6c-2.1,1.2-4.4,2-6.7,2.5h0c-6.2,1.3-12.8,0.4-18.4-2.9c-1.9-1.1-3.7-2.5-5.3-4.1
	c-8-8-9.6-20-4.9-29.6c0-0.1,0.1-0.2,0.1-0.3c0,0,0,0,0,0c1.2-2.4,2.8-4.5,4.7-6.5c7.4-7.4,18.1-9.3,27.2-5.9
	c0.7,0.3,1.4,0.6,2.1,0.9c0,0,0,0,0,0c0.1,0,0.2,0.1,0.2,0.1c2.5,1.2,4.8,2.8,6.8,4.9c3.5,3.5,5.8,7.7,6.8,12.2
	C277.2,88.7,274.9,97.9,268.3,104.5z"/>
<g>
</g>
<g>
</g>
<g>
</g>
<g>
</g>
<g>
</g>
<g>
</g>
</svg>
