<?xml version="1.0" encoding="utf-8"?>
<!-- Generator: Adobe Illustrator 19.1.0, SVG Export Plug-In . SVG Version: 6.00 Build 0)  -->
<svg version="1.1" id="Layer_1" xmlns="http://www.w3.org/2000/svg" xmlns:xlink="http://www.w3.org/1999/xlink" x="0px" y="0px"
	 width="113.8px" height="115px" viewBox="0 0 113.8 115" enable-background="new 0 0 113.8 115" xml:space="preserve">
<path fill="none" stroke="#4167B1" stroke-width="3" d="M81.6,33.2l-3.5,31c-1.8-0.1-3.9-0.5-6.4-1.1l-0.6-2l-0.4,1.8
	c-1.7-0.4-3.6-1-5.6-1.8C66.2,53.5,70.2,43.7,81.6,33.2z"/>
<path fill="#FFFFFF" stroke="#4167B1" stroke-width="3" d="M57.4,13.6c-25.3,0-45.8,20.5-45.8,45.8s20.5,45.8,45.8,45.8
	s45.8-20.5,45.8-45.8S82.7,13.6,57.4,13.6z M88.6,77.9c-4.2,2.7-8,3.6-11.1,3.5c-5.7-0.1-9.2-3.2-9.2-3.2
	c-25.9,20.3-26.2,0.7-34.7,0c-4.3-0.3-9.3-0.7-13.3-0.9c-1.5-3.8-2.4-7.9-2.4-12.2c0-20.2,18.8-36.7,41.9-36.7
	c8.5,0,16.4,2.2,22.9,6l-3.5,31.2c0.4,0,0.7,0,1.1,0.1l0.6-3.2l1.6,3.1c3.5-0.2,5.4-1.3,6.4-2.1c0.7-0.6,0.9-1,0.9-1l5.9,9.1
	C93.3,74.4,90.9,76.4,88.6,77.9z"/>
<path fill="none" stroke="#4167B1" stroke-width="3" d="M87.8,62.2l-0.4,14.2l-6-12.1C84.8,64,86.8,63,87.8,62.2z"/>
<path fill="none" stroke="#4167B1" stroke-width="3" d="M78.1,64.2l-1.4,12.4l-0.4,1.8l-4.6-15.2C74.2,63.8,76.3,64.1,78.1,64.2z"/>
<path fill="none" stroke="#4167B1" stroke-width="3" d="M76.8,76.6l-0.4,3.2c-5.7-0.1-9.2-3.2-9.2-3.2l3.5-13.8
	c0.4,0.1,0.7,0.2,1.1,0.3l4.6,15.2L76.8,76.6z"/>
<circle fill="#F15623" stroke="#4167B1" stroke-width="2" cx="42.6" cy="51.5" r="6.2"/>
<g>
</g>
<g>
</g>
<g>
</g>
<g>
</g>
<g>
</g>
<g>
</g>
</svg>
