<?xml version="1.0" encoding="utf-8"?>
<!-- Generator: Adobe Illustrator 19.1.0, SVG Export Plug-In . SVG Version: 6.00 Build 0)  -->
<svg version="1.1" id="Layer_1" xmlns="http://www.w3.org/2000/svg" xmlns:xlink="http://www.w3.org/1999/xlink" x="0px" y="0px"
	 width="379.5px" height="143.6px" viewBox="0 0 379.5 143.6" enable-background="new 0 0 379.5 143.6" xml:space="preserve">
<g>
	<path fill="#4167B1" stroke="#4167B1" stroke-width="2" stroke-miterlimit="10" d="M89.5,86.4L54.2,51.1c4.9-5.1,6.8-12,5.8-18.6
		c-0.2-1.1-0.4-2.1-0.7-3.2c-1-3.3-2.8-6.3-5.4-8.9c-2.8-2.8-6.2-4.7-9.7-5.6c-0.9-0.2-1.8-0.4-2.8-0.6c-4.1-0.6-8.4,0-12.2,1.8
		c-2.3,1.1-4.4,2.5-6.3,4.4c-1.2,1.2-2.2,2.4-3,3.8c-1.3,2.1-2.3,4.4-2.8,6.8c-0.8,3.6-0.7,7.5,0.3,11c1,3.4,2.8,6.7,5.5,9.4
		c2.6,2.6,5.8,4.5,9.1,5.5c3.1,1,6.4,1.2,9.6,0.7c4.3-0.6,8.5-2.6,11.9-5.8l35.9,35.9h100.1v-1.5L89.5,86.4z M53.1,50.7
		c-3.3,3.3-7.4,5.2-11.6,5.9c-2.9,0.4-5.9,0.3-8.8-0.5c-3.3-0.9-6.5-2.7-9.1-5.3c-2.5-2.5-4.3-5.6-5.3-8.8c-1-3.5-1.1-7.3-0.3-10.8
		c0.5-2.2,1.4-4.3,2.6-6.2c0.8-1.3,1.8-2.6,2.9-3.7c1.9-1.9,4-3.3,6.3-4.3c3.6-1.6,7.6-2.1,11.5-1.6c0.9,0.1,1.9,0.3,2.8,0.6
		c3.3,0.9,6.4,2.7,9,5.3s4.4,5.7,5.3,9c0.3,1.1,0.5,2.2,0.7,3.3C59.8,39.6,57.9,46,53.1,50.7z"/>
</g>
<g>
	<rect x="195.6" y="38.2" fill="none" width="171" height="99"/>
	<path fill="#4167B1" d="M208,39.9h-1.5v10.4h1.5V52h-4.4v-1.7h1.2v-4.9h-5.2v4.9h1.2V52h-4.4v-1.7h1.4V39.9h-1.4v-1.7h4.4v1.7h-1.2
		v4.1h5.2v-4.1h-1.2v-1.7h4.4V39.9z"/>
	<path fill="#4167B1" d="M214.8,39.9h-1.4v10.4h1.4V52h-4.6v-1.7h1.4V39.9h-1.4v-1.7h4.6V39.9z"/>
	<path fill="#4167B1" d="M227,40.4v4.3l-2.1,2.1h-4.8v3.5h1.6V52H217v-1.7h1.4V39.9H217v-1.7h7.9L227,40.4z M220.1,39.9v5.3h4.1
		l1.1-1.1V41l-1.1-1.1H220.1z"/>
	<path fill="#4167B1" d="M244.5,41.8H243v-1.9h-5.1v4.2h3.5v-0.9h1.2v3.1h-1.2v-0.9h-3.5v4.9h5.1v-1.9h1.4V52h-9.7v-1.7h1.4V39.9
		h-1.4v-1.7h9.7V41.8z"/>
	<path fill="#4167B1" d="M256.6,39.9h-1.3l-3.1,5.1l3.2,5.3h1.3V52H252v-1.7h1.4l-2.6-4.3l-2.4,4.3h1.3V52h-4.1v-1.7h1.2l3.3-5.5
		l-2.9-4.9h-1.4v-1.7h4.5v1.7h-1.2l2.3,3.9l2.2-3.9h-1.1v-1.7h4V39.9z"/>
	<path fill="#4167B1" d="M267.7,50.3h1.6V52h-4.6v-1.7h1.2l-0.7-2.5H261l-0.7,2.5h1.2V52h-4.2v-1.7h1.5l2.8-10.4h-1.6v-1.7h4.4
		L267.7,50.3z M261.3,46.8h3.6l-1.8-6.7L261.3,46.8z"/>
	<path fill="#4167B1" d="M283.2,39.9h-1.4v10.4h1.4V52h-4.6v-1.7h1.6v-9.7l-2.9,5.2h-0.9l-2.9-5.2v9.7h1.6V52h-4.6v-1.7h1.4V39.9
		h-1.4v-1.7h3.5l3,5.5l3-5.5h3.3V39.9z"/>
	<path fill="#4167B1" d="M289.9,39.9h-1.4v10.4h1.4V52h-4.6v-1.7h1.4V39.9h-1.4v-1.7h4.6V39.9z"/>
	<path fill="#4167B1" d="M303.9,39.9h-1.5V52h-1.7L295,40.6v9.7h1.2V52h-4.2v-1.7h1.4V39.9h-1.4v-1.7h3.7l5.2,10.5v-8.8h-1.2v-1.7
		h4.2V39.9z"/>
	<path fill="#4167B1" d="M314.6,50.3h1.6V52h-4.6v-1.7h1.2l-0.7-2.5h-4.2l-0.7,2.5h1.2V52h-4.2v-1.7h1.5l2.8-10.4H307v-1.7h4.4
		L314.6,50.3z M308.2,46.8h3.6l-1.8-6.7L308.2,46.8z"/>
	<path fill="#4167B1" d="M325.5,42.3H324v-2.4h-2.7v10.5h1.6V52h-5v-1.7h1.6V39.8h-2.7v2.4h-1.5v-4h10V42.3z"/>
	<path fill="#4167B1" d="M331.7,39.9h-1.4v10.4h1.4V52h-4.6v-1.7h1.4V39.9h-1.4v-1.7h4.6V39.9z"/>
	<path fill="#4167B1" d="M342.9,49.8l-2.2,2.2h-4.5l-2.2-2.2v-9.4l2.1-2.1h4.7l2.1,2.1V49.8z M336.7,39.9l-1.1,1.1v8.1l1.2,1.2h3.2
		l1.2-1.2V41l-1.1-1.1H336.7z"/>
	<path fill="#4167B1" d="M356.5,39.9H355V52h-1.7l-5.8-11.4v9.7h1.2V52h-4.2v-1.7h1.4V39.9h-1.4v-1.7h3.7l5.2,10.5v-8.8h-1.2v-1.7
		h4.2V39.9z"/>
	<path fill="#1D2554" d="M196.9,66.9v-9h0.8v9H196.9z"/>
	<path fill="#1D2554" d="M200.7,66.9H200v-6.4h0.7v0.9c0.6-0.6,1.2-1.1,2.1-1.1c0.8,0,1.5,0.2,2,0.9c0.3,0.5,0.3,0.9,0.3,1.5v4.2
		h-0.7v-4.2c0-1.2-0.5-1.7-1.7-1.7c-0.9,0-1.6,0.6-1.8,1.3c-0.1,0.4-0.2,0.8-0.2,1.2V66.9z"/>
	<path fill="#1D2554" d="M212.6,67c-0.2,0-0.5,0.1-0.9,0.1c-0.7,0-1.1-0.3-1.1-1.3v-4.7h-0.9v-0.6h0.9v-1.8h0.7v1.8h1.2v0.6h-1.2
		v4.4c0,0.6,0,0.9,0.6,0.9c0.2,0,0.4,0,0.6-0.1V67z"/>
	<path fill="#1D2554" d="M213.8,66.9v-9h0.7v3.4c0.6-0.6,1.2-1.1,2.1-1.1c0.8,0,1.5,0.2,2,0.9c0.3,0.5,0.3,0.9,0.3,1.5v4.2h-0.7
		v-4.2c0-1.2-0.5-1.7-1.7-1.7c-0.9,0-1.6,0.6-1.8,1.3c-0.1,0.4-0.2,0.8-0.2,1.2v3.5H213.8z"/>
	<path fill="#1D2554" d="M221.2,63.9c0,1.4,0.7,2.5,2.2,2.5c1,0,1.7-0.5,2-1.5h0.8c-0.4,1.2-1.1,2.2-2.8,2.2c-2.1,0-3-1.5-3-3.4
		c0-1.9,1.1-3.4,3-3.4c1.8,0,2.8,1.3,2.8,3.6H221.2z M225.4,63.3c0-1.3-0.7-2.3-2-2.3c-1.3,0-2,1.1-2.2,2.3H225.4z"/>
	<path fill="#1D2554" d="M235.6,62.5c-0.3-1-0.9-1.5-1.9-1.5c-1.5,0-2.2,1.4-2.2,2.7c0,1.4,0.6,2.7,2.2,2.7c1.1,0,1.8-0.7,2-1.7h0.8
		c-0.3,1.4-1.2,2.4-2.8,2.4c-2.1,0-3-1.5-3-3.4c0-1.8,1-3.4,3-3.4c1.5,0,2.5,0.7,2.7,2.2H235.6z"/>
	<path fill="#1D2554" d="M238,66.9v-9h0.7v3.4c0.6-0.6,1.2-1.1,2.1-1.1c0.8,0,1.5,0.2,2,0.9c0.3,0.5,0.3,0.9,0.3,1.5v4.2h-0.7v-4.2
		c0-1.2-0.5-1.7-1.7-1.7c-0.9,0-1.6,0.6-1.8,1.3c-0.1,0.4-0.2,0.8-0.2,1.2v3.5H238z"/>
	<path fill="#1D2554" d="M245,59.1V58h0.8v1.1H245z M245,66.9v-6.4h0.7v6.4H245z"/>
	<path fill="#1D2554" d="M247.8,66.9v-9h0.7v9H247.8z"/>
	<path fill="#1D2554" d="M255.4,58h0.7v9h-0.7v-1.1h0c-0.4,0.8-1.4,1.3-2.2,1.3c-2.1,0-2.9-1.5-2.9-3.4c0-1.8,0.9-3.4,2.9-3.4
		c0.9,0,1.8,0.4,2.3,1.2V58z M253.2,61c-1.5,0-2.3,1.3-2.2,2.9c0,1.6,0.9,2.5,2.2,2.5c1.4,0,2.2-1.2,2.2-2.7
		C255.4,62.2,254.6,61,253.2,61z"/>
	<path fill="#1D2554" d="M259.3,67.3c0,0.7-0.4,1.2-0.9,1.3v-0.5c0.2-0.1,0.4-0.3,0.4-0.8v-0.4h-0.4v-1.1h0.9V67.3z"/>
	<path fill="#1D2554" d="M264.9,66.9v-9h0.7v3.4c0.6-0.6,1.2-1.1,2.1-1.1c0.8,0,1.5,0.2,2,0.9c0.3,0.5,0.3,0.9,0.3,1.5v4.2h-0.7
		v-4.2c0-1.2-0.5-1.7-1.7-1.7c-0.9,0-1.6,0.6-1.8,1.3c-0.1,0.4-0.2,0.8-0.2,1.2v3.5H264.9z"/>
	<path fill="#1D2554" d="M271.9,59.1V58h0.8v1.1H271.9z M272,66.9v-6.4h0.7v6.4H272z"/>
	<path fill="#1D2554" d="M275.5,69.5h-0.7v-9h0.7v1.1h0c0.4-0.8,1.4-1.3,2.2-1.3c2.1,0,2.9,1.5,2.9,3.4c0,1.8-0.9,3.4-2.9,3.4
		c-0.9,0-1.8-0.4-2.3-1.2V69.5z M277.6,66.4c1.5,0,2.3-1.3,2.2-2.9c0-1.6-0.9-2.5-2.2-2.5c-1.4,0-2.2,1.2-2.2,2.7
		C275.5,65.2,276.3,66.4,277.6,66.4z"/>
	<path fill="#1D2554" d="M286.5,69.5h-0.7v-9h0.7v1.1h0c0.4-0.8,1.4-1.3,2.2-1.3c2.1,0,2.9,1.5,2.9,3.4c0,1.8-0.9,3.4-2.9,3.4
		c-0.9,0-1.8-0.4-2.3-1.2V69.5z M288.7,66.4c1.5,0,2.3-1.3,2.2-2.9c0-1.6-0.9-2.5-2.2-2.5c-1.4,0-2.2,1.2-2.2,2.7
		C286.5,65.2,287.3,66.4,288.7,66.4z"/>
	<path fill="#1D2554" d="M296.2,63.2c0.3,0,0.7-0.1,1-0.2c0.2-0.1,0.3-0.4,0.3-0.7c0-0.8-0.4-1.3-1.6-1.3c-1,0-1.7,0.3-1.9,1.5h-0.8
		c0.1-1.5,1.2-2.1,2.6-2.1c1.3,0,2.3,0.5,2.3,2v3.5c0,0.6,0.1,0.7,0.8,0.5v0.6c-0.1,0-0.4,0.1-0.6,0.1c-0.1,0-0.2,0-0.3,0
		c-0.5-0.1-0.6-0.5-0.6-1c-0.6,0.7-1.5,1.1-2.4,1.1c-1.1,0-2.2-0.6-2.2-1.9c0-1.1,0.7-1.7,2.3-1.9L296.2,63.2z M297.5,63.6
		c-0.6,0.3-1.3,0.3-1.9,0.4c-1.1,0.1-1.8,0.5-1.8,1.4c0,0.8,0.7,1.2,1.4,1.2c1.2,0,2.4-0.6,2.4-1.9V63.6z"/>
	<path fill="#1D2554" d="M302.5,67c-0.2,0-0.5,0.1-0.9,0.1c-0.7,0-1.1-0.3-1.1-1.3v-4.7h-0.9v-0.6h0.9v-1.8h0.7v1.8h1.2v0.6h-1.2
		v4.4c0,0.6,0,0.9,0.6,0.9c0.2,0,0.4,0,0.6-0.1V67z"/>
	<path fill="#1D2554" d="M303.6,66.9v-9h0.7v3.4c0.6-0.6,1.2-1.1,2.1-1.1c0.8,0,1.5,0.2,2,0.9c0.3,0.5,0.3,0.9,0.3,1.5v4.2H308v-4.2
		c0-1.2-0.5-1.7-1.7-1.7c-0.9,0-1.6,0.6-1.8,1.3c-0.1,0.4-0.2,0.8-0.2,1.2v3.5H303.6z"/>
	<path fill="#1D2554" d="M310.1,63.7c0-1.9,1-3.4,3-3.4c2,0,3,1.5,3,3.4c0,2-1.2,3.4-3,3.4C311.5,67.1,310.1,66,310.1,63.7z
		 M313.1,61c-1.6,0-2.2,1.3-2.2,2.7c0,1.6,0.8,2.7,2.2,2.7c1.6,0,2.2-1.3,2.2-2.7C315.3,62.2,314.7,61,313.1,61z"/>
	<path fill="#1D2554" d="M317.6,66.9v-9h0.7v9H317.6z"/>
	<path fill="#1D2554" d="M319.8,63.7c0-1.9,1-3.4,3-3.4c2,0,3,1.5,3,3.4c0,2-1.2,3.4-3,3.4C321.2,67.1,319.8,66,319.8,63.7z
		 M322.8,61c-1.6,0-2.2,1.3-2.2,2.7c0,1.6,0.8,2.7,2.2,2.7c1.6,0,2.2-1.3,2.2-2.7C325,62.2,324.4,61,322.8,61z"/>
	<path fill="#1D2554" d="M332.1,60.5h0.7v5.8c0,1.7-0.6,3.3-3,3.3c-1.9,0-2.7-1.1-2.7-1.9h0.8c0.2,1,1,1.2,1.9,1.2
		c2,0,2.3-1.5,2.3-3c-0.5,0.8-1.4,1.2-2.3,1.2c-2,0-2.9-1.6-2.9-3.4c0-1.9,0.8-3.4,2.9-3.4c0.8,0,1.8,0.5,2.2,1.3h0V60.5z M329.9,61
		c-1.3,0-2.2,0.9-2.2,2.5c-0.1,1.6,0.7,2.9,2.2,2.9c1.4,0,2.2-1.2,2.2-2.7C332.1,62.2,331.4,61,329.9,61z"/>
	<path fill="#1D2554" d="M334.7,68.7c0.2,0,0.4,0.1,0.6,0.1c0.8,0,1-1.2,1.3-1.8l-2.5-6.5h0.8L337,66l2.1-5.5h0.8l-2.4,6.4
		c-0.6,1.6-1,2.6-2,2.6c-0.3,0-0.5,0-0.7-0.1V68.7z"/>
	<path fill="#1D2554" d="M349,62.5c-0.3-1-0.9-1.5-1.9-1.5c-1.5,0-2.2,1.4-2.2,2.7c0,1.4,0.6,2.7,2.2,2.7c1.1,0,1.8-0.7,2-1.7h0.8
		c-0.3,1.4-1.2,2.4-2.8,2.4c-2.1,0-3-1.5-3-3.4c0-1.8,1-3.4,3-3.4c1.5,0,2.5,0.7,2.7,2.2H349z"/>
	<path fill="#1D2554" d="M354.3,63.2c0.3,0,0.7-0.1,1-0.2c0.2-0.1,0.3-0.4,0.3-0.7c0-0.8-0.4-1.3-1.6-1.3c-1,0-1.7,0.3-1.9,1.5h-0.8
		c0.1-1.5,1.2-2.1,2.6-2.1c1.3,0,2.3,0.5,2.3,2v3.5c0,0.6,0.1,0.7,0.8,0.5v0.6c-0.1,0-0.4,0.1-0.6,0.1c-0.1,0-0.2,0-0.3,0
		c-0.5-0.1-0.6-0.5-0.6-1c-0.6,0.7-1.5,1.1-2.4,1.1c-1.1,0-2.2-0.6-2.2-1.9c0-1.1,0.7-1.7,2.3-1.9L354.3,63.2z M355.6,63.6
		c-0.6,0.3-1.3,0.3-1.9,0.4c-1.1,0.1-1.8,0.5-1.8,1.4c0,0.8,0.7,1.2,1.4,1.2c1.2,0,2.4-0.6,2.4-1.9V63.6z"/>
	<path fill="#1D2554" d="M359,66.9h-0.7v-6.4h0.7v0.9c0.6-0.6,1.2-1.1,2.1-1.1c0.8,0,1.5,0.2,2,0.9c0.3,0.5,0.3,0.9,0.3,1.5v4.2
		h-0.7v-4.2c0-1.2-0.5-1.7-1.7-1.7c-0.9,0-1.6,0.6-1.8,1.3c-0.1,0.4-0.2,0.8-0.2,1.2V66.9z"/>
	<path fill="#1D2554" d="M197.3,84.4h-0.7v-9h0.7v1.1h0c0.4-0.8,1.4-1.3,2.2-1.3c2.1,0,2.9,1.5,2.9,3.4c0,1.8-0.9,3.4-2.9,3.4
		c-0.9,0-1.8-0.4-2.3-1.2V84.4z M199.5,81.4c1.5,0,2.3-1.3,2.2-2.9c0-1.6-0.9-2.5-2.2-2.5c-1.4,0-2.2,1.2-2.2,2.7
		C197.3,80.1,198.2,81.4,199.5,81.4z"/>
	<path fill="#1D2554" d="M204.9,81.9h-0.7v-6.4h0.7v1.2h0c0.4-1,1-1.4,2.1-1.4v0.8c-1.7,0-2.1,1.2-2.1,2.6V81.9z"/>
	<path fill="#1D2554" d="M208.5,78.8c0,1.4,0.7,2.5,2.2,2.5c1,0,1.7-0.5,2-1.5h0.8c-0.4,1.2-1.1,2.2-2.8,2.2c-2.1,0-3-1.5-3-3.4
		c0-1.9,1.1-3.4,3-3.4c1.8,0,2.8,1.3,2.8,3.6H208.5z M212.7,78.2c0-1.3-0.7-2.3-2-2.3c-1.3,0-2,1.1-2.2,2.3H212.7z"/>
	<path fill="#1D2554" d="M215.4,79.8c0.2,1.1,0.8,1.5,1.9,1.5c1.1,0,1.6-0.6,1.6-1.2c0-1.9-4.1-0.5-4.1-3.1c0-1.1,0.8-1.8,2.3-1.8
		c1.4,0,2.3,0.6,2.5,2h-0.8c-0.1-1-0.8-1.4-1.7-1.4c-0.9,0-1.5,0.4-1.5,1.1c0,1.8,4.1,0.7,4.1,3.1c0,1.2-1.1,1.9-2.6,1.9
		c-1.5,0-2.4-1-2.4-2.2H215.4z"/>
	<path fill="#1D2554" d="M221.6,78.8c0,1.4,0.7,2.5,2.2,2.5c1,0,1.7-0.5,2-1.5h0.8c-0.4,1.2-1.1,2.2-2.8,2.2c-2.1,0-3-1.5-3-3.4
		c0-1.9,1.1-3.4,3-3.4c1.8,0,2.8,1.3,2.8,3.6H221.6z M225.8,78.2c0-1.3-0.7-2.3-2-2.3c-1.3,0-2,1.1-2.2,2.3H225.8z"/>
	<path fill="#1D2554" d="M228.8,81.9h-0.7v-6.4h0.7v0.9c0.6-0.6,1.2-1.1,2.1-1.1c0.8,0,1.5,0.2,2,0.9c0.3,0.5,0.3,0.9,0.3,1.5v4.2
		h-0.7v-4.2c0-1.2-0.5-1.7-1.7-1.7c-0.9,0-1.6,0.6-1.8,1.3c-0.1,0.4-0.2,0.8-0.2,1.2V81.9z"/>
	<path fill="#1D2554" d="M237.2,81.9c-0.2,0-0.5,0.1-0.9,0.1c-0.7,0-1.1-0.3-1.1-1.3V76h-0.9v-0.6h0.9v-1.8h0.7v1.8h1.2V76H236v4.4
		c0,0.6,0,0.9,0.6,0.9c0.2,0,0.4,0,0.6-0.1V81.9z"/>
	<path fill="#1D2554" d="M244.9,78.1c0.3,0,0.7-0.1,1-0.2c0.2-0.1,0.3-0.4,0.3-0.7c0-0.8-0.4-1.3-1.6-1.3c-1,0-1.7,0.3-1.9,1.5h-0.8
		c0.1-1.5,1.2-2.1,2.6-2.1c1.3,0,2.3,0.5,2.3,2v3.5c0,0.6,0.1,0.7,0.8,0.5v0.6c-0.1,0-0.4,0.1-0.6,0.1c-0.1,0-0.2,0-0.3,0
		c-0.5-0.1-0.6-0.5-0.6-1c-0.6,0.7-1.5,1.1-2.4,1.1c-1.1,0-2.2-0.6-2.2-1.9c0-1.1,0.7-1.7,2.3-1.9L244.9,78.1z M246.1,78.5
		c-0.6,0.3-1.3,0.3-1.9,0.4c-1.1,0.1-1.8,0.5-1.8,1.4c0,0.8,0.7,1.2,1.4,1.2c1.2,0,2.4-0.6,2.4-1.9V78.5z"/>
	<path fill="#1D2554" d="M249.3,79.8c0.2,1.1,0.8,1.5,1.9,1.5c1.1,0,1.6-0.6,1.6-1.2c0-1.9-4.1-0.5-4.1-3.1c0-1.1,0.8-1.8,2.3-1.8
		c1.4,0,2.3,0.6,2.5,2h-0.8c-0.1-1-0.8-1.4-1.7-1.4c-0.9,0-1.5,0.4-1.5,1.1c0,1.8,4.1,0.7,4.1,3.1c0,1.2-1.1,1.9-2.6,1.9
		c-1.5,0-2.4-1-2.4-2.2H249.3z"/>
	<path fill="#1D2554" d="M258.4,81.9v-9h0.7v5.6l3.2-3.1h1l-2.4,2.3l2.7,4.1h-0.8l-2.4-3.6l-1.2,1.2v2.4H258.4z"/>
	<path fill="#1D2554" d="M265.5,81.9h-0.7v-6.4h0.7v0.9c0.6-0.6,1.2-1.1,2.1-1.1c0.8,0,1.5,0.2,2,0.9c0.3,0.5,0.3,0.9,0.3,1.5v4.2
		h-0.7v-4.2c0-1.2-0.5-1.7-1.7-1.7c-0.9,0-1.6,0.6-1.8,1.3c-0.1,0.4-0.2,0.8-0.2,1.2V81.9z"/>
	<path fill="#1D2554" d="M272.1,78.8c0,1.4,0.7,2.5,2.2,2.5c1,0,1.7-0.5,2-1.5h0.8c-0.4,1.2-1.1,2.2-2.8,2.2c-2.1,0-3-1.5-3-3.4
		c0-1.9,1.1-3.4,3-3.4c1.8,0,2.8,1.3,2.8,3.6H272.1z M276.3,78.2c0-1.3-0.7-2.3-2-2.3c-1.3,0-2,1.1-2.2,2.3H276.3z"/>
	<path fill="#1D2554" d="M279,78.8c0,1.4,0.7,2.5,2.2,2.5c1,0,1.7-0.5,2-1.5h0.8c-0.4,1.2-1.1,2.2-2.8,2.2c-2.1,0-3-1.5-3-3.4
		c0-1.9,1.1-3.4,3-3.4c1.8,0,2.8,1.3,2.8,3.6H279z M283.2,78.2c0-1.3-0.7-2.3-2-2.3c-1.3,0-2,1.1-2.2,2.3H283.2z"/>
	<path fill="#1D2554" d="M289.7,84.4H289v-9h0.7v1.1h0c0.4-0.8,1.4-1.3,2.2-1.3c2.1,0,2.9,1.5,2.9,3.4c0,1.8-0.9,3.4-2.9,3.4
		c-0.9,0-1.8-0.4-2.3-1.2V84.4z M291.9,81.4c1.5,0,2.3-1.3,2.2-2.9c0-1.6-0.9-2.5-2.2-2.5c-1.4,0-2.2,1.2-2.2,2.7
		C289.7,80.1,290.6,81.4,291.9,81.4z"/>
	<path fill="#1D2554" d="M299.5,78.1c0.3,0,0.7-0.1,1-0.2c0.2-0.1,0.3-0.4,0.3-0.7c0-0.8-0.4-1.3-1.6-1.3c-1,0-1.7,0.3-1.9,1.5h-0.8
		c0.1-1.5,1.2-2.1,2.6-2.1c1.3,0,2.3,0.5,2.3,2v3.5c0,0.6,0.1,0.7,0.8,0.5v0.6c-0.1,0-0.4,0.1-0.6,0.1c-0.1,0-0.2,0-0.3,0
		c-0.5-0.1-0.6-0.5-0.6-1c-0.6,0.7-1.5,1.1-2.4,1.1c-1.1,0-2.2-0.6-2.2-1.9c0-1.1,0.7-1.7,2.3-1.9L299.5,78.1z M300.7,78.5
		c-0.6,0.3-1.3,0.3-1.9,0.4c-1.1,0.1-1.8,0.5-1.8,1.4c0,0.8,0.7,1.2,1.4,1.2c1.2,0,2.4-0.6,2.4-1.9V78.5z"/>
	<path fill="#1D2554" d="M303.5,74v-1.1h0.8V74H303.5z M303.5,81.9v-6.4h0.7v6.4H303.5z"/>
	<path fill="#1D2554" d="M306.9,81.9h-0.7v-6.4h0.7v0.9c0.6-0.6,1.2-1.1,2.1-1.1c0.8,0,1.5,0.2,2,0.9c0.3,0.5,0.3,0.9,0.3,1.5v4.2
		h-0.7v-4.2c0-1.2-0.5-1.7-1.7-1.7c-0.9,0-1.6,0.6-1.8,1.3c-0.1,0.4-0.2,0.8-0.2,1.2V81.9z"/>
	<path fill="#1D2554" d="M317,79.8c0.2,1.1,0.8,1.5,1.9,1.5c1.1,0,1.6-0.6,1.6-1.2c0-1.9-4.1-0.5-4.1-3.1c0-1.1,0.8-1.8,2.3-1.8
		c1.4,0,2.3,0.6,2.5,2h-0.8c-0.1-1-0.8-1.4-1.7-1.4c-0.9,0-1.5,0.4-1.5,1.1c0,1.8,4.1,0.7,4.1,3.1c0,1.2-1.1,1.9-2.6,1.9
		c-1.5,0-2.4-1-2.4-2.2H317z"/>
	<path fill="#1D2554" d="M322.4,78.6c0-1.9,1-3.4,3-3.4c2,0,3,1.5,3,3.4c0,2-1.2,3.4-3,3.4C323.7,82,322.4,80.9,322.4,78.6z
		 M325.3,75.9c-1.6,0-2.2,1.3-2.2,2.7c0,1.6,0.8,2.7,2.2,2.7c1.6,0,2.2-1.3,2.2-2.7C327.5,77.1,326.9,75.9,325.3,75.9z"/>
	<path fill="#1D2554" d="M336.1,78.1c0.3,0,0.7-0.1,1-0.2c0.2-0.1,0.3-0.4,0.3-0.7c0-0.8-0.4-1.3-1.6-1.3c-1,0-1.7,0.3-1.9,1.5h-0.8
		c0.1-1.5,1.2-2.1,2.6-2.1c1.3,0,2.3,0.5,2.3,2v3.5c0,0.6,0.1,0.7,0.8,0.5v0.6c-0.1,0-0.4,0.1-0.6,0.1c-0.1,0-0.2,0-0.3,0
		c-0.5-0.1-0.6-0.5-0.6-1c-0.6,0.7-1.5,1.1-2.4,1.1c-1.1,0-2.2-0.6-2.2-1.9c0-1.1,0.7-1.7,2.3-1.9L336.1,78.1z M337.4,78.5
		c-0.6,0.3-1.3,0.3-1.9,0.4c-1.1,0.1-1.8,0.5-1.8,1.4c0,0.8,0.7,1.2,1.4,1.2c1.2,0,2.4-0.6,2.4-1.9V78.5z"/>
	<path fill="#1D2554" d="M201.1,92.4c-0.3-1-0.9-1.5-1.9-1.5c-1.5,0-2.2,1.4-2.2,2.7c0,1.4,0.6,2.7,2.2,2.7c1.1,0,1.8-0.7,2-1.7h0.8
		c-0.3,1.4-1.2,2.4-2.8,2.4c-2.1,0-3-1.5-3-3.4c0-1.8,1-3.4,3-3.4c1.5,0,2.5,0.7,2.7,2.2H201.1z"/>
	<path fill="#1D2554" d="M206.4,93c0.3,0,0.7-0.1,1-0.2c0.2-0.1,0.3-0.4,0.3-0.7c0-0.8-0.4-1.3-1.6-1.3c-1,0-1.7,0.3-1.9,1.5h-0.8
		c0.1-1.5,1.2-2.1,2.6-2.1c1.3,0,2.3,0.5,2.3,2v3.5c0,0.6,0.1,0.7,0.8,0.5v0.6c-0.1,0-0.4,0.1-0.6,0.1c-0.1,0-0.2,0-0.3,0
		c-0.5-0.1-0.6-0.5-0.6-1c-0.6,0.7-1.5,1.1-2.4,1.1c-1.1,0-2.2-0.6-2.2-1.9c0-1.1,0.7-1.7,2.3-1.9L206.4,93z M207.6,93.4
		c-0.6,0.3-1.3,0.3-1.9,0.4c-1.1,0.1-1.8,0.5-1.8,1.4c0,0.8,0.7,1.2,1.4,1.2c1.2,0,2.4-0.6,2.4-1.9V93.4z"/>
	<path fill="#1D2554" d="M211.1,96.8h-0.7v-6.4h0.7v1.2h0c0.4-1,1-1.4,2.1-1.4V91c-1.7,0-2.1,1.2-2.1,2.6V96.8z"/>
	<path fill="#1D2554" d="M214.7,93.7c0,1.4,0.7,2.5,2.2,2.5c1,0,1.7-0.5,2-1.5h0.8c-0.4,1.2-1.1,2.2-2.8,2.2c-2.1,0-3-1.5-3-3.4
		c0-1.9,1.1-3.4,3-3.4c1.8,0,2.8,1.3,2.8,3.6H214.7z M218.9,93.1c0-1.3-0.7-2.3-2-2.3c-1.3,0-2,1.1-2.2,2.3H218.9z"/>
	<path fill="#1D2554" d="M220.5,91v-0.6h1v-1c0-1,0.4-1.7,1.4-1.7c0.2,0,0.4,0,0.6,0v0.7c-0.1,0-0.3-0.1-0.4-0.1
		c-0.8,0-0.8,0.6-0.8,1.2v0.8h1.2V91h-1.2v5.8h-0.7V91H220.5z"/>
	<path fill="#1D2554" d="M229,90.3h0.7v6.4H229v-0.9c-0.4,0.4-0.9,1.1-2.1,1.1c-1.7,0-2.3-1-2.3-2.4v-4.2h0.7v4.2
		c0,1.1,0.5,1.7,1.7,1.7c1.2,0,2-1,2-2.4V90.3z"/>
	<path fill="#1D2554" d="M231.7,96.8v-9h0.7v9H231.7z"/>
	<path fill="#1D2554" d="M238.2,93.7c0,1.4,0.7,2.5,2.2,2.5c1,0,1.7-0.5,2-1.5h0.8c-0.4,1.2-1.1,2.2-2.8,2.2c-2.1,0-3-1.5-3-3.4
		c0-1.9,1.1-3.4,3-3.4c1.8,0,2.8,1.3,2.8,3.6H238.2z M242.4,93.1c0-1.3-0.7-2.3-2-2.3c-1.3,0-2,1.1-2.2,2.3H242.4z"/>
	<path fill="#1D2554" d="M246.9,94l-2,2.8H244l2.5-3.3l-2.3-3.1h0.9l1.8,2.6l1.8-2.6h0.9l-2.3,3.1l2.4,3.3h-0.9L246.9,94z"/>
	<path fill="#1D2554" d="M253.9,93c0.3,0,0.7-0.1,1-0.2c0.2-0.1,0.3-0.4,0.3-0.7c0-0.8-0.4-1.3-1.6-1.3c-1,0-1.7,0.3-1.9,1.5h-0.8
		c0.1-1.5,1.2-2.1,2.6-2.1c1.3,0,2.3,0.5,2.3,2v3.5c0,0.6,0.1,0.7,0.8,0.5v0.6c-0.1,0-0.4,0.1-0.6,0.1c-0.1,0-0.2,0-0.3,0
		c-0.5-0.1-0.6-0.5-0.6-1c-0.6,0.7-1.5,1.1-2.4,1.1c-1.1,0-2.2-0.6-2.2-1.9c0-1.1,0.7-1.7,2.3-1.9L253.9,93z M255.1,93.4
		c-0.6,0.3-1.3,0.3-1.9,0.4c-1.1,0.1-1.8,0.5-1.8,1.4c0,0.8,0.7,1.2,1.4,1.2c1.2,0,2.4-0.6,2.4-1.9V93.4z"/>
	<path fill="#1D2554" d="M258.5,96.8h-0.7v-6.4h0.7v1h0c0.4-0.7,1.2-1.1,2-1.1c1.2,0,1.6,0.6,1.9,1.2c0.4-0.8,1.2-1.2,2.1-1.2
		c1.8,0,2,1.3,2,2.5v4.1h-0.7v-4.5c0-0.9-0.3-1.5-1.4-1.5c-0.5,0-1.1,0.2-1.5,0.7c-0.3,0.4-0.4,1.2-0.4,1.7v3.5h-0.7v-4.5
		c0-0.9-0.3-1.5-1.4-1.5c-0.5,0-1.1,0.2-1.5,0.7c-0.3,0.4-0.4,1.2-0.4,1.7V96.8z"/>
	<path fill="#1D2554" d="M271.7,88.9v-1.1h0.8v1.1H271.7z M271.7,96.8v-6.4h0.7v6.4H271.7z"/>
	<path fill="#1D2554" d="M274.8,94.8c0.2,1.1,0.8,1.5,1.9,1.5c1.1,0,1.6-0.6,1.6-1.2c0-1.9-4.1-0.5-4.1-3.1c0-1.1,0.8-1.8,2.3-1.8
		c1.4,0,2.3,0.6,2.5,2h-0.8c-0.1-1-0.8-1.4-1.7-1.4c-0.9,0-1.5,0.4-1.5,1.1c0,1.8,4.1,0.7,4.1,3.1c0,1.2-1.1,1.9-2.6,1.9
		c-1.5,0-2.4-1-2.4-2.2H274.8z"/>
	<path fill="#1D2554" d="M284.1,88.9v-1.1h0.8v1.1H284.1z M284.2,96.8v-6.4h0.7v6.4H284.2z"/>
	<path fill="#1D2554" d="M287.5,96.8h-0.7v-6.4h0.7v1h0c0.4-0.7,1.2-1.1,2-1.1c1.2,0,1.6,0.6,1.9,1.2c0.4-0.8,1.2-1.2,2.1-1.2
		c1.8,0,2,1.3,2,2.5v4.1h-0.7v-4.5c0-0.9-0.3-1.5-1.4-1.5c-0.5,0-1.1,0.2-1.5,0.7c-0.3,0.4-0.4,1.2-0.4,1.7v3.5h-0.7v-4.5
		c0-0.9-0.3-1.5-1.4-1.5c-0.5,0-1.1,0.2-1.5,0.7c-0.3,0.4-0.4,1.2-0.4,1.7V96.8z"/>
	<path fill="#1D2554" d="M298,99.3h-0.7v-9h0.7v1.1h0c0.4-0.8,1.4-1.3,2.2-1.3c2.1,0,2.9,1.5,2.9,3.4c0,1.8-0.9,3.4-2.9,3.4
		c-0.9,0-1.8-0.4-2.3-1.2V99.3z M300.2,96.3c1.5,0,2.3-1.3,2.2-2.9c0-1.6-0.9-2.5-2.2-2.5c-1.4,0-2.2,1.2-2.2,2.7
		C298,95,298.8,96.3,300.2,96.3z"/>
	<path fill="#1D2554" d="M304.4,93.6c0-1.9,1-3.4,3-3.4c2,0,3,1.5,3,3.4c0,2-1.2,3.4-3,3.4C305.7,96.9,304.4,95.8,304.4,93.6z
		 M307.3,90.8c-1.6,0-2.2,1.3-2.2,2.7c0,1.6,0.8,2.7,2.2,2.7c1.6,0,2.2-1.3,2.2-2.7C309.5,92,308.9,90.8,307.3,90.8z"/>
	<path fill="#1D2554" d="M312.5,96.8h-0.7v-6.4h0.7v1.2h0c0.4-1,1-1.4,2.1-1.4V91c-1.7,0-2.1,1.2-2.1,2.6V96.8z"/>
	<path fill="#1D2554" d="M318.3,96.8c-0.2,0-0.5,0.1-0.9,0.1c-0.7,0-1.1-0.3-1.1-1.3V91h-0.9v-0.6h0.9v-1.8h0.7v1.8h1.2V91h-1.2v4.4
		c0,0.6,0,0.9,0.6,0.9c0.2,0,0.4,0,0.6-0.1V96.8z"/>
	<path fill="#1D2554" d="M322.5,93c0.3,0,0.7-0.1,1-0.2c0.2-0.1,0.3-0.4,0.3-0.7c0-0.8-0.4-1.3-1.6-1.3c-1,0-1.7,0.3-1.9,1.5h-0.8
		c0.1-1.5,1.2-2.1,2.6-2.1c1.3,0,2.3,0.5,2.3,2v3.5c0,0.6,0.1,0.7,0.8,0.5v0.6c-0.1,0-0.4,0.1-0.6,0.1c-0.1,0-0.2,0-0.3,0
		c-0.5-0.1-0.6-0.5-0.6-1c-0.6,0.7-1.5,1.1-2.4,1.1c-1.1,0-2.2-0.6-2.2-1.9c0-1.1,0.7-1.7,2.3-1.9L322.5,93z M323.7,93.4
		c-0.6,0.3-1.3,0.3-1.9,0.4c-1.1,0.1-1.8,0.5-1.8,1.4c0,0.8,0.7,1.2,1.4,1.2c1.2,0,2.4-0.6,2.4-1.9V93.4z"/>
	<path fill="#1D2554" d="M327.2,96.8h-0.7v-6.4h0.7v0.9c0.6-0.6,1.2-1.1,2.1-1.1c0.8,0,1.5,0.2,2,0.9c0.3,0.5,0.3,0.9,0.3,1.5v4.2
		h-0.7v-4.2c0-1.2-0.5-1.7-1.7-1.7c-0.9,0-1.6,0.6-1.8,1.3c-0.1,0.4-0.2,0.8-0.2,1.2V96.8z"/>
	<path fill="#1D2554" d="M335.6,96.8c-0.2,0-0.5,0.1-0.9,0.1c-0.7,0-1.1-0.3-1.1-1.3V91h-0.9v-0.6h0.9v-1.8h0.7v1.8h1.2V91h-1.2v4.4
		c0,0.6,0,0.9,0.6,0.9c0.2,0,0.4,0,0.6-0.1V96.8z"/>
	<path fill="#1D2554" d="M340.3,88.9v-1.1h0.8v1.1H340.3z M340.4,96.8v-6.4h0.7v6.4H340.4z"/>
	<path fill="#1D2554" d="M343.8,96.8H343v-6.4h0.7v0.9c0.6-0.6,1.2-1.1,2.1-1.1c0.8,0,1.5,0.2,2,0.9c0.3,0.5,0.3,0.9,0.3,1.5v4.2
		h-0.7v-4.2c0-1.2-0.5-1.7-1.7-1.7c-0.9,0-1.6,0.6-1.8,1.3c-0.1,0.4-0.2,0.8-0.2,1.2V96.8z"/>
	<path fill="#1D2554" d="M198.8,111.7c-0.2,0-0.5,0.1-0.9,0.1c-0.7,0-1.1-0.3-1.1-1.3v-4.7h-0.9v-0.6h0.9v-1.8h0.7v1.8h1.2v0.6h-1.2
		v4.4c0,0.6,0,0.9,0.6,0.9c0.2,0,0.4,0,0.6-0.1V111.7z"/>
	<path fill="#1D2554" d="M200,111.7v-9h0.7v3.4c0.6-0.6,1.2-1.1,2.1-1.1c0.8,0,1.5,0.2,2,0.9c0.3,0.5,0.3,0.9,0.3,1.5v4.2h-0.7v-4.2
		c0-1.2-0.5-1.7-1.7-1.7c-0.9,0-1.6,0.6-1.8,1.3c-0.1,0.4-0.2,0.8-0.2,1.2v3.5H200z"/>
	<path fill="#1D2554" d="M207.3,108.7c0,1.4,0.7,2.5,2.2,2.5c1,0,1.7-0.5,2-1.5h0.8c-0.4,1.2-1.1,2.2-2.8,2.2c-2.1,0-3-1.5-3-3.4
		c0-1.9,1.1-3.4,3-3.4c1.8,0,2.8,1.3,2.8,3.6H207.3z M211.5,108c0-1.3-0.7-2.3-2-2.3c-1.3,0-2,1.1-2.2,2.3H211.5z"/>
	<path fill="#1D2554" d="M221.8,107.3c-0.3-1-0.9-1.5-1.9-1.5c-1.5,0-2.2,1.4-2.2,2.7c0,1.4,0.6,2.7,2.2,2.7c1.1,0,1.8-0.7,2-1.7
		h0.8c-0.3,1.4-1.2,2.4-2.8,2.4c-2.1,0-3-1.5-3-3.4c0-1.8,1-3.4,3-3.4c1.5,0,2.5,0.7,2.7,2.2H221.8z"/>
	<path fill="#1D2554" d="M224.2,111.7v-9h0.7v3.4c0.6-0.6,1.2-1.1,2.1-1.1c0.8,0,1.5,0.2,2,0.9c0.3,0.5,0.3,0.9,0.3,1.5v4.2h-0.7
		v-4.2c0-1.2-0.5-1.7-1.7-1.7c-0.9,0-1.6,0.6-1.8,1.3c-0.1,0.4-0.2,0.8-0.2,1.2v3.5H224.2z"/>
	<path fill="#1D2554" d="M231.2,103.9v-1.1h0.8v1.1H231.2z M231.2,111.7v-6.4h0.7v6.4H231.2z"/>
	<path fill="#1D2554" d="M234,111.7v-9h0.7v9H234z"/>
	<path fill="#1D2554" d="M241.6,102.8h0.7v9h-0.7v-1.1h0c-0.4,0.8-1.4,1.3-2.2,1.3c-2.1,0-2.9-1.5-2.9-3.4c0-1.8,0.9-3.4,2.9-3.4
		c0.9,0,1.8,0.4,2.3,1.2V102.8z M239.4,105.8c-1.5,0-2.3,1.3-2.2,2.9c0,1.6,0.9,2.5,2.2,2.5c1.4,0,2.2-1.2,2.2-2.7
		C241.6,107,240.8,105.8,239.4,105.8z"/>
	<path fill="#1D2554" d="M248.5,114.2h-0.7v-9h0.7v1.1h0c0.4-0.8,1.4-1.3,2.2-1.3c2.1,0,2.9,1.5,2.9,3.4c0,1.8-0.9,3.4-2.9,3.4
		c-0.9,0-1.8-0.4-2.3-1.2V114.2z M250.7,111.2c1.5,0,2.3-1.3,2.2-2.9c0-1.6-0.9-2.5-2.2-2.5c-1.4,0-2.2,1.2-2.2,2.7
		C248.5,110,249.3,111.2,250.7,111.2z"/>
	<path fill="#1D2554" d="M256,111.7h-0.7v-6.4h0.7v1.2h0c0.4-1,1-1.4,2.1-1.4v0.8c-1.7,0-2.1,1.2-2.1,2.6V111.7z"/>
	<path fill="#1D2554" d="M259.6,108.7c0,1.4,0.7,2.5,2.2,2.5c1,0,1.7-0.5,2-1.5h0.8c-0.4,1.2-1.1,2.2-2.8,2.2c-2.1,0-3-1.5-3-3.4
		c0-1.9,1.1-3.4,3-3.4c1.8,0,2.8,1.3,2.8,3.6H259.6z M263.8,108c0-1.3-0.7-2.3-2-2.3c-1.3,0-2,1.1-2.2,2.3H263.8z"/>
	<path fill="#1D2554" d="M266.5,109.7c0.2,1.1,0.8,1.5,1.9,1.5c1.1,0,1.6-0.6,1.6-1.2c0-1.9-4.1-0.5-4.1-3.1c0-1.1,0.8-1.8,2.3-1.8
		c1.4,0,2.3,0.6,2.5,2h-0.8c-0.1-1-0.8-1.4-1.7-1.4c-0.9,0-1.5,0.4-1.5,1.1c0,1.8,4.1,0.7,4.1,3.1c0,1.2-1.1,1.9-2.6,1.9
		c-1.5,0-2.4-1-2.4-2.2H266.5z"/>
	<path fill="#1D2554" d="M272.8,108.7c0,1.4,0.7,2.5,2.2,2.5c1,0,1.7-0.5,2-1.5h0.8c-0.4,1.2-1.1,2.2-2.8,2.2c-2.1,0-3-1.5-3-3.4
		c0-1.9,1.1-3.4,3-3.4c1.8,0,2.8,1.3,2.8,3.6H272.8z M277,108c0-1.3-0.7-2.3-2-2.3c-1.3,0-2,1.1-2.2,2.3H277z"/>
	<path fill="#1D2554" d="M280,111.7h-0.7v-6.4h0.7v0.9c0.6-0.6,1.2-1.1,2.1-1.1c0.8,0,1.5,0.2,2,0.9c0.3,0.5,0.3,0.9,0.3,1.5v4.2
		h-0.7v-4.2c0-1.2-0.5-1.7-1.7-1.7c-0.9,0-1.6,0.6-1.8,1.3c-0.1,0.4-0.2,0.8-0.2,1.2V111.7z"/>
	<path fill="#1D2554" d="M288.4,111.7c-0.2,0-0.5,0.1-0.9,0.1c-0.7,0-1.1-0.3-1.1-1.3v-4.7h-0.9v-0.6h0.9v-1.8h0.7v1.8h1.2v0.6h-1.2
		v4.4c0,0.6,0,0.9,0.6,0.9c0.2,0,0.4,0,0.6-0.1V111.7z"/>
	<path fill="#1D2554" d="M289.7,103.9v-1.1h0.8v1.1H289.7z M289.7,111.7v-6.4h0.7v6.4H289.7z"/>
	<path fill="#1D2554" d="M293.1,111.7h-0.7v-6.4h0.7v0.9c0.6-0.6,1.2-1.1,2.1-1.1c0.8,0,1.5,0.2,2,0.9c0.3,0.5,0.3,0.9,0.3,1.5v4.2
		h-0.7v-4.2c0-1.2-0.5-1.7-1.7-1.7c-0.9,0-1.6,0.6-1.8,1.3c-0.1,0.4-0.2,0.8-0.2,1.2V111.7z"/>
	<path fill="#1D2554" d="M304.2,105.3h0.7v5.8c0,1.7-0.6,3.3-3,3.3c-1.9,0-2.7-1.1-2.7-1.9h0.8c0.2,1,1,1.2,1.9,1.2
		c2,0,2.3-1.5,2.3-3c-0.5,0.8-1.4,1.2-2.3,1.2c-2,0-2.9-1.6-2.9-3.4c0-1.9,0.8-3.4,2.9-3.4c0.8,0,1.8,0.5,2.2,1.3h0V105.3z
		 M302.1,105.8c-1.3,0-2.2,0.9-2.2,2.5c-0.1,1.6,0.7,2.9,2.2,2.9c1.4,0,2.2-1.2,2.2-2.7C304.2,107,303.5,105.8,302.1,105.8z"/>
	<path fill="#1D2554" d="M315.8,110.7l1.7-5.4h0.8l-2.1,6.4h-0.8l-1.4-5.4h0l-1.4,5.4h-0.9l-2-6.4h0.7l1.7,5.5l1.5-5.5h0.8
		L315.8,110.7z"/>
	<path fill="#1D2554" d="M319.4,103.9v-1.1h0.8v1.1H319.4z M319.4,111.7v-6.4h0.7v6.4H319.4z"/>
	<path fill="#1D2554" d="M324.3,111.7c-0.2,0-0.5,0.1-0.9,0.1c-0.7,0-1.1-0.3-1.1-1.3v-4.7h-0.9v-0.6h0.9v-1.8h0.7v1.8h1.2v0.6h-1.2
		v4.4c0,0.6,0,0.9,0.6,0.9c0.2,0,0.4,0,0.6-0.1V111.7z"/>
	<path fill="#1D2554" d="M325.5,111.7v-9h0.7v3.4c0.6-0.6,1.2-1.1,2.1-1.1c0.8,0,1.5,0.2,2,0.9c0.3,0.5,0.3,0.9,0.3,1.5v4.2h-0.7
		v-4.2c0-1.2-0.5-1.7-1.7-1.7c-0.9,0-1.6,0.6-1.8,1.3c-0.1,0.4-0.2,0.8-0.2,1.2v3.5H325.5z"/>
	<path fill="#1D2554" d="M338.9,107.9c0.3,0,0.7-0.1,1-0.2c0.2-0.1,0.3-0.4,0.3-0.7c0-0.8-0.4-1.3-1.6-1.3c-1,0-1.7,0.3-1.9,1.5
		h-0.8c0.1-1.5,1.2-2.1,2.6-2.1c1.3,0,2.3,0.5,2.3,2v3.5c0,0.6,0.1,0.7,0.8,0.5v0.6c-0.1,0-0.4,0.1-0.6,0.1c-0.1,0-0.2,0-0.3,0
		c-0.5-0.1-0.6-0.5-0.6-1c-0.6,0.7-1.5,1.1-2.4,1.1c-1.1,0-2.2-0.6-2.2-1.9c0-1.1,0.7-1.7,2.3-1.9L338.9,107.9z M340.1,108.3
		c-0.6,0.3-1.3,0.3-1.9,0.4c-1.1,0.1-1.8,0.5-1.8,1.4c0,0.8,0.7,1.2,1.4,1.2c1.2,0,2.4-0.6,2.4-1.9V108.3z"/>
	<path fill="#1D2554" d="M343.6,111.7h-0.7v-6.4h0.7v0.9c0.6-0.6,1.2-1.1,2.1-1.1c0.8,0,1.5,0.2,2,0.9c0.3,0.5,0.3,0.9,0.3,1.5v4.2
		h-0.7v-4.2c0-1.2-0.5-1.7-1.7-1.7c-0.9,0-1.6,0.6-1.8,1.3c-0.1,0.4-0.2,0.8-0.2,1.2V111.7z"/>
	<path fill="#1D2554" d="M196.6,118.8v-1.1h0.8v1.1H196.6z M196.6,126.6v-6.4h0.7v6.4H196.6z"/>
	<path fill="#1D2554" d="M200,126.6h-0.7v-6.4h0.7v0.9c0.6-0.6,1.2-1.1,2.1-1.1c0.8,0,1.5,0.2,2,0.9c0.3,0.5,0.3,0.9,0.3,1.5v4.2
		h-0.7v-4.2c0-1.2-0.5-1.7-1.7-1.7c-0.9,0-1.6,0.6-1.8,1.3c-0.1,0.4-0.2,0.8-0.2,1.2V126.6z"/>
	<path fill="#1D2554" d="M206.6,124.6c0.2,1.1,0.8,1.5,1.9,1.5c1.1,0,1.6-0.6,1.6-1.2c0-1.9-4.1-0.5-4.1-3.1c0-1.1,0.8-1.8,2.3-1.8
		c1.4,0,2.3,0.6,2.5,2H210c-0.1-1-0.8-1.4-1.7-1.4c-0.9,0-1.5,0.4-1.5,1.1c0,1.8,4.1,0.7,4.1,3.1c0,1.2-1.1,1.9-2.6,1.9
		c-1.5,0-2.4-1-2.4-2.2H206.6z"/>
	<path fill="#1D2554" d="M212.5,118.8v-1.1h0.8v1.1H212.5z M212.5,126.6v-6.4h0.7v6.4H212.5z"/>
	<path fill="#1D2554" d="M220.1,117.7h0.7v9h-0.7v-1.1h0c-0.4,0.8-1.4,1.3-2.2,1.3c-2.1,0-2.9-1.5-2.9-3.4c0-1.8,0.9-3.4,2.9-3.4
		c0.9,0,1.8,0.4,2.3,1.2V117.7z M218,120.7c-1.5,0-2.3,1.3-2.2,2.9c0,1.6,0.9,2.5,2.2,2.5c1.4,0,2.2-1.2,2.2-2.7
		C220.1,121.9,219.3,120.7,218,120.7z"/>
	<path fill="#1D2554" d="M222.8,118.8v-1.1h0.8v1.1H222.8z M222.9,126.6v-6.4h0.7v6.4H222.9z"/>
	<path fill="#1D2554" d="M225.1,123.4c0-1.9,1-3.4,3-3.4c2,0,3,1.5,3,3.4c0,2-1.2,3.4-3,3.4C226.4,126.8,225.1,125.7,225.1,123.4z
		 M228.1,120.7c-1.6,0-2.2,1.3-2.2,2.7c0,1.6,0.8,2.7,2.2,2.7c1.6,0,2.2-1.3,2.2-2.7C230.3,121.9,229.7,120.7,228.1,120.7z"/>
	<path fill="#1D2554" d="M236.8,120.2h0.7v6.4h-0.7v-0.9c-0.4,0.4-0.9,1.1-2.1,1.1c-1.7,0-2.3-1-2.3-2.4v-4.2h0.7v4.2
		c0,1.1,0.5,1.7,1.7,1.7c1.2,0,2-1,2-2.4V120.2z"/>
	<path fill="#1D2554" d="M239.8,124.6c0.2,1.1,0.8,1.5,1.9,1.5c1.1,0,1.6-0.6,1.6-1.2c0-1.9-4.1-0.5-4.1-3.1c0-1.1,0.8-1.8,2.3-1.8
		c1.4,0,2.3,0.6,2.5,2h-0.8c-0.1-1-0.8-1.4-1.7-1.4c-0.9,0-1.5,0.4-1.5,1.1c0,1.8,4.1,0.7,4.1,3.1c0,1.2-1.1,1.9-2.6,1.9
		c-1.5,0-2.4-1-2.4-2.2H239.8z"/>
	<path fill="#1D2554" d="M248.6,123.4c0-1.9,1-3.4,3-3.4c2,0,3,1.5,3,3.4c0,2-1.2,3.4-3,3.4C249.9,126.8,248.6,125.7,248.6,123.4z
		 M251.6,120.7c-1.6,0-2.2,1.3-2.2,2.7c0,1.6,0.8,2.7,2.2,2.7c1.6,0,2.2-1.3,2.2-2.7C253.8,121.9,253.2,120.7,251.6,120.7z"/>
	<path fill="#1D2554" d="M256.7,126.6h-0.7v-6.4h0.7v0.9c0.6-0.6,1.2-1.1,2.1-1.1c0.8,0,1.5,0.2,2,0.9c0.3,0.5,0.3,0.9,0.3,1.5v4.2
		h-0.7v-4.2c0-1.2-0.5-1.7-1.7-1.7c-0.9,0-1.6,0.6-1.8,1.3c-0.1,0.4-0.2,0.8-0.2,1.2V126.6z"/>
	<path fill="#1D2554" d="M263.3,124.6c0.2,1.1,0.8,1.5,1.9,1.5c1.1,0,1.6-0.6,1.6-1.2c0-1.9-4.1-0.5-4.1-3.1c0-1.1,0.8-1.8,2.3-1.8
		c1.4,0,2.3,0.6,2.5,2h-0.8c-0.1-1-0.8-1.4-1.7-1.4c-0.9,0-1.5,0.4-1.5,1.1c0,1.8,4.1,0.7,4.1,3.1c0,1.2-1.1,1.9-2.6,1.9
		c-1.5,0-2.4-1-2.4-2.2H263.3z"/>
	<path fill="#1D2554" d="M269.5,123.6c0,1.4,0.7,2.5,2.2,2.5c1,0,1.7-0.5,2-1.5h0.8c-0.4,1.2-1.1,2.2-2.8,2.2c-2.1,0-3-1.5-3-3.4
		c0-1.9,1.1-3.4,3-3.4c1.8,0,2.8,1.3,2.8,3.6H269.5z M273.7,123c0-1.3-0.7-2.3-2-2.3c-1.3,0-2,1.1-2.2,2.3H273.7z"/>
	<path fill="#1D2554" d="M278.3,126.7c-0.2,0-0.5,0.1-0.9,0.1c-0.7,0-1.1-0.3-1.1-1.3v-4.7h-0.9v-0.6h0.9v-1.8h0.7v1.8h1.2v0.6H277
		v4.4c0,0.6,0,0.9,0.6,0.9c0.2,0,0.4,0,0.6-0.1V126.7z"/>
	<path fill="#1D2554" d="M282.5,123.4c0-1.9,1-3.4,3-3.4c2,0,3,1.5,3,3.4c0,2-1.2,3.4-3,3.4C283.8,126.8,282.5,125.7,282.5,123.4z
		 M285.5,120.7c-1.6,0-2.2,1.3-2.2,2.7c0,1.6,0.8,2.7,2.2,2.7c1.6,0,2.2-1.3,2.2-2.7C287.6,121.9,287,120.7,285.5,120.7z"/>
	<path fill="#1D2554" d="M289.2,120.8v-0.6h1v-1c0-1,0.4-1.7,1.4-1.7c0.2,0,0.4,0,0.6,0v0.7c-0.1,0-0.3-0.1-0.4-0.1
		c-0.8,0-0.8,0.6-0.8,1.2v0.8h1.2v0.6h-1.2v5.8h-0.7v-5.8H289.2z"/>
	<path fill="#1D2554" d="M296.7,126.6v-9h0.7v5.6l3.2-3.1h1l-2.4,2.3l2.7,4.1h-0.8l-2.4-3.6l-1.2,1.2v2.4H296.7z"/>
	<path fill="#1D2554" d="M303.7,126.6h-0.7v-6.4h0.7v0.9c0.6-0.6,1.2-1.1,2.1-1.1c0.8,0,1.5,0.2,2,0.9c0.3,0.5,0.3,0.9,0.3,1.5v4.2
		h-0.7v-4.2c0-1.2-0.5-1.7-1.7-1.7c-0.9,0-1.6,0.6-1.8,1.3c-0.1,0.4-0.2,0.8-0.2,1.2V126.6z"/>
	<path fill="#1D2554" d="M310.3,123.6c0,1.4,0.7,2.5,2.2,2.5c1,0,1.7-0.5,2-1.5h0.8c-0.4,1.2-1.1,2.2-2.8,2.2c-2.1,0-3-1.5-3-3.4
		c0-1.9,1.1-3.4,3-3.4c1.8,0,2.8,1.3,2.8,3.6H310.3z M314.5,123c0-1.3-0.7-2.3-2-2.3c-1.3,0-2,1.1-2.2,2.3H314.5z"/>
	<path fill="#1D2554" d="M317.2,123.6c0,1.4,0.7,2.5,2.2,2.5c1,0,1.7-0.5,2-1.5h0.8c-0.4,1.2-1.1,2.2-2.8,2.2c-2.1,0-3-1.5-3-3.4
		c0-1.9,1.1-3.4,3-3.4c1.8,0,2.8,1.3,2.8,3.6H317.2z M321.4,123c0-1.3-0.7-2.3-2-2.3c-1.3,0-2,1.1-2.2,2.3H321.4z"/>
	<path fill="#1D2554" d="M328,129.2h-0.7v-9h0.7v1.1h0c0.4-0.8,1.4-1.3,2.2-1.3c2.1,0,2.9,1.5,2.9,3.4c0,1.8-0.9,3.4-2.9,3.4
		c-0.9,0-1.8-0.4-2.3-1.2V129.2z M330.2,126.1c1.5,0,2.3-1.3,2.2-2.9c0-1.6-0.9-2.5-2.2-2.5c-1.4,0-2.2,1.2-2.2,2.7
		C328,124.9,328.8,126.1,330.2,126.1z"/>
	<path fill="#1D2554" d="M337.7,122.9c0.3,0,0.7-0.1,1-0.2c0.2-0.1,0.3-0.4,0.3-0.7c0-0.8-0.4-1.3-1.6-1.3c-1,0-1.7,0.3-1.9,1.5
		h-0.8c0.1-1.5,1.2-2.1,2.6-2.1c1.3,0,2.3,0.5,2.3,2v3.5c0,0.6,0.1,0.7,0.8,0.5v0.6c-0.1,0-0.4,0.1-0.6,0.1c-0.1,0-0.2,0-0.3,0
		c-0.5-0.1-0.6-0.5-0.6-1c-0.6,0.7-1.5,1.1-2.4,1.1c-1.1,0-2.2-0.6-2.2-1.9c0-1.1,0.7-1.7,2.3-1.9L337.7,122.9z M339,123.2
		c-0.6,0.3-1.3,0.3-1.9,0.4c-1.1,0.1-1.8,0.5-1.8,1.4c0,0.8,0.7,1.2,1.4,1.2c1.2,0,2.4-0.6,2.4-1.9V123.2z"/>
	<path fill="#1D2554" d="M341.7,118.8v-1.1h0.8v1.1H341.7z M341.8,126.6v-6.4h0.7v6.4H341.8z"/>
	<path fill="#1D2554" d="M345.2,126.6h-0.7v-6.4h0.7v0.9c0.6-0.6,1.2-1.1,2.1-1.1c0.8,0,1.5,0.2,2,0.9c0.3,0.5,0.3,0.9,0.3,1.5v4.2
		h-0.7v-4.2c0-1.2-0.5-1.7-1.7-1.7c-0.9,0-1.6,0.6-1.8,1.3c-0.1,0.4-0.2,0.8-0.2,1.2V126.6z"/>
	<path fill="#1D2554" d="M351.7,126.6v-1.1h0.9v1.1H351.7z"/>
</g>
<g>
</g>
<g>
</g>
<g>
</g>
<g>
</g>
<g>
</g>
<g>
</g>
</svg>
