<?xml version="1.0" encoding="utf-8"?>
<!-- Generator: Adobe Illustrator 19.1.0, SVG Export Plug-In . SVG Version: 6.00 Build 0)  -->
<svg version="1.1" id="Layer_1" xmlns="http://www.w3.org/2000/svg" xmlns:xlink="http://www.w3.org/1999/xlink" x="0px" y="0px"
	 width="132.5px" height="106.2px" viewBox="0 0 132.5 106.2" enable-background="new 0 0 132.5 106.2" xml:space="preserve">
<g>
	<g>
		<path fill="#A7A9AC" d="M85.7,48.6c0,5.7,0.5,10.9,1.4,15.5l-1.3-0.3l-1.5-0.3v0L81.6,63c-0.7-4.5-1.2-9.3-1.2-14.3
			c0-0.8,0-1.5,0-2.3c0.2-6.1,0.9-11.7,2.1-16.8l2.8-0.6l2.9-0.6c-1.4,5.1-2.4,11.2-2.5,18C85.7,47.1,85.7,47.9,85.7,48.6z"/>
	</g>
	<g>
		<path fill="#A7A9AC" d="M68.8,77.2v17.7L34.8,80.9V66.3c0-0.3,0.1-0.6,0.1-0.9l5.1,1.8v10.2l23.5,9.7V76.3c0-0.3,0.1-0.6,0.1-0.9
			L68.8,77.2z"/>
	</g>
	<g>
		<path fill="#A7A9AC" d="M22.3,61l1.3,0.4c-1.4,2.1-3.2,3.5-5.5,3.5c-5.7,0-8.6-8.2-8.6-16.2c0-8.1,3-16.2,8.6-16.2
			c2.3,0,4.2,1.4,5.6,3.5l-1.2,0.4c-0.8-0.9-1.7-1.4-2.6-1.4c-0.3,0-0.6,0.1-0.9,0.1c-2.3,0.7-4.1,4.4-4.8,9.2
			c-0.1,0.7-0.2,1.4-0.2,2.2c-0.1,0.7-0.1,1.4-0.1,2.1c0,0,0,0,0,0c0,6.8,2.2,12.5,5.1,13.5c0,0,0,0,0,0c0.3,0.1,0.6,0.1,0.9,0.1
			C20.6,62.3,21.5,61.8,22.3,61z"/>
		<path fill="#96080B" d="M89.8,84.5l-21.1-7.3l-5.1-1.8l-23.6-8.2L35,65.4l-11.5-4L22.3,61c-0.8,0.8-1.6,1.3-2.5,1.3
			c-0.3,0-0.6-0.1-0.9-0.1c0,0,0,0,0,0c-2.9-1-5.1-6.6-5.1-13.5l0.9,0.2l5.1,1.1l1.6,0.3l2.6,0.5l1.7,0.4l0.9,0.2L81.6,63
			C83.1,72,86,79.6,89.8,84.5z"/>
		<path fill="#96080B" d="M100.6,66.9v18.7c-5.2,0-10.9-8.4-13.5-21.6L100.6,66.9z"/>
	</g>
	<g>
		<g>
			<path fill="#E62F25" d="M100.6,25.7v41.3l-13.5-2.8l-1.3-0.3l-1.5-0.3L81.6,63L26.5,51.4l-0.9-0.2l-1.7-0.4l-2.6-0.5l-1.6-0.3
				l-5.1-1.1l-0.9-0.2c0,0,0,0,0,0c0-0.7,0-1.4,0.1-2.1c0.1-0.7,0.1-1.5,0.2-2.2l0.9-0.2l4.8-1l1-0.2l2.5-0.5L25,42l0.9-0.2
				l56.7-12.2l2.8-0.6l2.9-0.6L100.6,25.7z"/>
		</g>
		<g>
			<path fill="#FBC8B4" d="M89.8,12.7c-3.1,4.1-5.6,9.9-7.2,16.8L25.9,41.8L25,42l-1.7,0.4l-2.5,0.5l-1,0.2l-4.8,1L14,44.3
				c0.7-4.8,2.6-8.4,4.8-9.2c0.3-0.1,0.6-0.1,0.9-0.1c0.9,0,1.8,0.5,2.6,1.4L89.8,12.7z"/>
			<path fill="#FBC8B4" d="M100.6,11.6v14.1l-12.3,2.7C91.2,17.9,96,11.6,100.6,11.6z"/>
		</g>
	</g>
	<g>
		<path fill="#231F20" d="M115.5,48.6c0,6.2-0.6,11.9-1.7,16.9c-2.7,12.4-8.2,20.2-13.2,20.2c-5.2,0-10.9-8.4-13.5-21.6l-1.3-0.3
			l-1.5-0.3v0c-0.8-4.6-1.3-9.6-1.3-14.9c0-7.2,0.8-13.9,2.3-19.7l2.9-0.6c2.9-10.4,7.8-16.7,12.3-16.7c4.9,0,10.2,7.4,13,19.3
			C114.8,36.1,115.5,42.1,115.5,48.6z"/>
		<path fill="#A7A9AC" d="M100.6,85.7v5.2c-4,0-7.7-2.3-10.7-6.4C86,79.6,83.1,72,81.6,63l2.7,0.6v0l1.5,0.3l1.3,0.3
			C89.7,77.3,95.4,85.7,100.6,85.7z"/>
		<path fill="#A7A9AC" d="M120.7,48.6c0,6-0.6,11.7-1.6,16.9c-3,15.1-10.1,25.4-18.5,25.4v-5.2c5,0,10.5-7.8,13.2-20.2
			c1.1-4.9,1.7-10.6,1.7-16.9c0-6.6-0.7-12.6-1.9-17.7c-2.8-11.9-8.1-19.3-13-19.3c-4.5,0-9.4,6.4-12.3,16.7L85.4,29l-2.8,0.6
			c1.6-6.9,4.1-12.7,7.2-16.8c3.1-4.1,6.8-6.4,10.8-6.4c8.3,0,15.2,9.9,18.3,24.6C120.1,36.3,120.7,42.3,120.7,48.6z"/>
		<path fill="#A7A9AC" d="M85.7,46.4c0.2-6.8,1.1-12.9,2.5-18L85.4,29l-2.8,0.6c-1.2,5.1-1.9,10.8-2.1,16.8c0,0.7,0,1.5,0,2.3
			c0,5,0.4,9.9,1.2,14.3l2.7,0.6v0l1.5,0.3l1.3,0.3c-0.9-4.6-1.4-9.8-1.4-15.5C85.7,47.9,85.7,47.1,85.7,46.4z"/>
	</g>
	<g>
		<path fill="none" stroke="#A7A9AC" stroke-width="3" d="M100.6,9"/>
	</g>
</g>
<g>
</g>
<g>
</g>
<g>
</g>
<g>
</g>
<g>
</g>
<g>
</g>
</svg>
