<?xml version="1.0" encoding="utf-8"?>
<!-- Generator: Adobe Illustrator 19.1.0, SVG Export Plug-In . SVG Version: 6.00 Build 0)  -->
<svg version="1.1" id="Layer_1" xmlns="http://www.w3.org/2000/svg" xmlns:xlink="http://www.w3.org/1999/xlink" x="0px" y="0px"
	 width="75.1px" height="77.1px" viewBox="0 0 75.1 77.1" style="enable-background:new 0 0 75.1 77.1;" xml:space="preserve">
<style type="text/css">
	.st0{fill:#E62F25;}
</style>
<polygon class="st0" points="37.6,0 41.9,19.8 54.3,3.8 49.6,23.5 67.7,14.5 54.9,30.2 75.1,30 56.8,38.5 75.1,47.1 54.9,46.9 
	67.7,62.6 49.6,53.6 54.3,73.3 41.9,57.3 37.6,77.1 33.3,57.3 20.8,73.3 25.6,53.6 7.4,62.6 20.2,46.9 0,47.1 18.3,38.5 0,30 
	20.2,30.2 7.4,14.5 25.6,23.5 20.8,3.8 33.3,19.8 "/>
<g>
</g>
<g>
</g>
<g>
</g>
<g>
</g>
<g>
</g>
<g>
</g>
</svg>
