<?xml version="1.0" encoding="utf-8"?>
<!-- Generator: Adobe Illustrator 19.1.0, SVG Export Plug-In . SVG Version: 6.00 Build 0)  -->
<svg version="1.1" id="Layer_1" xmlns="http://www.w3.org/2000/svg" xmlns:xlink="http://www.w3.org/1999/xlink" x="0px" y="0px"
	 width="283.3px" height="128.2px" viewBox="0 0 283.3 128.2" enable-background="new 0 0 283.3 128.2" xml:space="preserve">
<g>
	<path fill="#4167B1" stroke="#4167B1" stroke-width="2" stroke-miterlimit="10" d="M171.5,30.5l61.2,0c0.3,9.8,8.4,17.7,18.2,17.7
		c0.4,0,0.7,0,1.1,0c7.8-0.5,14.3-5.8,16.4-13.1c0.5-1.6,0.7-3.4,0.7-5.2c0-0.6,0-1.1-0.1-1.7c-0.8-8.4-7.2-15.1-15.4-16.4
		c-0.9-0.1-1.9-0.2-2.8-0.2c-9.9,0-18,7.9-18.2,17.7h-61.2V30.5z M252.2,47.1c-0.4,0-0.8,0-1.2,0c-9.5,0-17.2-7.7-17.2-17.2
		c0-9.5,7.7-17.2,17.2-17.2c0.9,0,1.9,0.1,2.7,0.2c7.6,1.2,13.5,7.4,14.4,15.1c0.1,0.6,0.1,1.2,0.1,1.9c0,1.7-0.2,3.3-0.7,4.8
		C265.6,41.5,259.5,46.6,252.2,47.1z"/>
</g>
<g>
	<rect x="13.9" y="22" fill="none" width="189.8" height="89.7"/>
	<path fill="#4167B1" d="M25.7,23.7h-1.6l-2.9,3.3l3.2,7.1h1.3v1.7h-4.4v-1.7h1.3l-2.7-5.8L18,30.5v3.7h1.3v1.7h-4.5v-1.7h1.4V23.7
		h-1.4V22h4.5v1.7H18v5l4.4-5h-1.1V22h4.4V23.7z"/>
	<path fill="#4167B1" d="M39,23.8h-1.5v12.1h-1.7l-5.8-11.4v9.7h1.2v1.7h-4.2v-1.7h1.4V23.8h-1.4V22h3.7l5.2,10.5v-8.8h-1.2V22H39
		V23.8z"/>
	<path fill="#4167B1" d="M50,25.6h-1.4v-1.9h-5.1V28h3.5V27h1.2v3.1h-1.2v-0.9h-3.5v4.9h5.1v-1.9H50v3.5h-9.7v-1.7h1.4V23.8h-1.4V22
		H50V25.6z"/>
	<path fill="#4167B1" d="M61.5,25.6H60v-1.9h-5.1V28h3.5V27h1.2v3.1h-1.2v-0.9h-3.5v4.9H60v-1.9h1.4v3.5h-9.7v-1.7h1.4V23.8h-1.4V22
		h9.7V25.6z"/>
	<path fill="#4167B1" d="M74.5,23.7h-1.4v10.4h1.4v1.7h-4.6v-1.7h1.4V23.7h-1.4V22h4.6V23.7z"/>
	<path fill="#4167B1" d="M88.5,23.8h-1.5v12.1h-1.7l-5.8-11.4v9.7h1.2v1.7h-4.2v-1.7h1.4V23.8h-1.4V22h3.7l5.2,10.5v-8.8h-1.2V22
		h4.2V23.8z"/>
	<path fill="#4167B1" d="M99.3,23.7h-1.4v9.7l-2.4,2.4h-3.6l-2-2v-3.1h1.7v2.4l1.1,1.1h2.3l1.3-1.3v-9.1h-2V22h5.1V23.7z"/>
	<path fill="#4167B1" d="M111.3,23.7h-1.5v10l-2.1,2.1h-4.4l-2.1-2.1v-10h-1.4V22h4.4v1.7h-1.2v9.2l1.2,1.2h2.9l1.2-1.2v-9.2h-1.3
		V22h4.4V23.7z"/>
	<path fill="#4167B1" d="M122.4,24v3.9l-1.9,1.9h-1l2.2,4.4h1.3v1.7h-4.2v-1.7h1.2l-2.2-4.4h-2v4.4h1.2v1.7h-4.3v-1.7h1.4V23.8h-1.4
		V22h7.9L122.4,24z M115.7,23.8v4.7h4l1-1v-2.7l-1-1H115.7z"/>
	<path fill="#4167B1" d="M129.2,23.7h-1.4v10.4h1.4v1.7h-4.6v-1.7h1.4V23.7h-1.4V22h4.6V23.7z"/>
	<path fill="#4167B1" d="M141.1,25.6h-1.4v-1.9h-5.1V28h3.5V27h1.2v3.1H138v-0.9h-3.5v4.9h5.1v-1.9h1.4v3.5h-9.7v-1.7h1.4V23.8h-1.4
		V22h9.7V25.6z"/>
	<path fill="#4167B1" d="M151.4,24v1.9h-1.7v-1.2l-1-1h-3.2l-1,1v2.4l0.7,0.7h4.7l1.6,1.5v4.4l-2,2h-4.6l-2-2v-2.5h1.7v1.8l1.1,1.1
		h3.2l1-1.1v-2.9l-0.7-0.7h-4.7l-1.6-1.6V24l2-1.9h4.7L151.4,24z"/>
	<path fill="#1D2554" d="M15,50.8v-9h0.8v4.6l4.6-4.6h1l-3.5,3.6l4.2,5.4h-1l-3.7-4.9l-1.4,1.4v3.5H15z"/>
	<path fill="#1D2554" d="M23.9,50.8h-0.7v-6.4h0.7v0.9c0.6-0.6,1.2-1.1,2.1-1.1c0.8,0,1.5,0.2,2,0.9c0.3,0.5,0.3,0.9,0.3,1.5v4.2
		h-0.7v-4.2c0-1.2-0.5-1.7-1.7-1.7c-0.9,0-1.6,0.6-1.8,1.3c-0.1,0.4-0.2,0.8-0.2,1.2V50.8z"/>
	<path fill="#1D2554" d="M30.5,47.7c0,1.4,0.7,2.5,2.2,2.5c1,0,1.7-0.5,2-1.5h0.8c-0.4,1.2-1.1,2.2-2.8,2.2c-2.1,0-3-1.5-3-3.4
		c0-1.9,1.1-3.4,3-3.4c1.8,0,2.8,1.3,2.8,3.6H30.5z M34.7,47.1c0-1.3-0.7-2.3-2-2.3c-1.3,0-2,1.1-2.2,2.3H34.7z"/>
	<path fill="#1D2554" d="M37.4,47.7c0,1.4,0.7,2.5,2.2,2.5c1,0,1.7-0.5,2-1.5h0.8c-0.4,1.2-1.1,2.2-2.8,2.2c-2.1,0-3-1.5-3-3.4
		c0-1.9,1.1-3.4,3-3.4c1.8,0,2.8,1.3,2.8,3.6H37.4z M41.6,47.1c0-1.3-0.7-2.3-2-2.3c-1.3,0-2,1.1-2.2,2.3H41.6z"/>
	<path fill="#1D2554" d="M48.2,53.3h-0.7v-9h0.7v1.1h0c0.4-0.8,1.4-1.3,2.2-1.3c2.1,0,2.9,1.5,2.9,3.4c0,1.8-0.9,3.4-2.9,3.4
		c-0.9,0-1.8-0.4-2.3-1.2V53.3z M50.3,50.3c1.5,0,2.3-1.3,2.2-2.9c0-1.6-0.9-2.5-2.2-2.5c-1.4,0-2.2,1.2-2.2,2.7
		C48.2,49,49,50.3,50.3,50.3z"/>
	<path fill="#1D2554" d="M55.7,50.8H55v-6.4h0.7v1.2h0c0.4-1,1-1.4,2.1-1.4v0.8c-1.7,0-2.1,1.2-2.1,2.6V50.8z"/>
	<path fill="#1D2554" d="M58.4,47.5c0-1.9,1-3.4,3-3.4c2,0,3,1.5,3,3.4c0,2-1.2,3.4-3,3.4C59.8,50.9,58.4,49.8,58.4,47.5z
		 M61.4,44.8c-1.6,0-2.2,1.3-2.2,2.7c0,1.6,0.8,2.7,2.2,2.7c1.6,0,2.2-1.3,2.2-2.7C63.6,46,63,44.8,61.4,44.8z"/>
	<path fill="#1D2554" d="M66.6,50.8h-0.7v-9h0.7v3.5c0.5-0.8,1.4-1.2,2.3-1.2c2,0,2.9,1.6,2.9,3.4c0,1.9-0.8,3.4-2.9,3.4
		c-0.8,0-1.8-0.5-2.2-1.3h0V50.8z M68.8,50.3c1.3,0,2.2-0.9,2.2-2.5c0.1-1.6-0.7-2.9-2.2-2.9c-1.4,0-2.2,1.2-2.2,2.7
		C66.6,49.1,67.4,50.3,68.8,50.3z"/>
	<path fill="#1D2554" d="M73.5,50.8v-9h0.7v9H73.5z"/>
	<path fill="#1D2554" d="M76.6,47.7c0,1.4,0.7,2.5,2.2,2.5c1,0,1.7-0.5,2-1.5h0.8c-0.4,1.2-1.1,2.2-2.8,2.2c-2.1,0-3-1.5-3-3.4
		c0-1.9,1.1-3.4,3-3.4c1.8,0,2.8,1.3,2.8,3.6H76.6z M80.8,47.1c0-1.3-0.7-2.3-2-2.3c-1.3,0-2,1.1-2.2,2.3H80.8z"/>
	<path fill="#1D2554" d="M83.7,50.8h-0.7v-6.4h0.7v1h0c0.4-0.7,1.2-1.1,2-1.1c1.2,0,1.6,0.6,1.9,1.2c0.4-0.8,1.2-1.2,2.1-1.2
		c1.8,0,2,1.3,2,2.5v4.1h-0.7v-4.5c0-0.9-0.3-1.5-1.4-1.5c-0.5,0-1.1,0.2-1.5,0.7c-0.3,0.4-0.4,1.2-0.4,1.7v3.5h-0.7v-4.5
		c0-0.9-0.3-1.5-1.4-1.5c-0.5,0-1.1,0.2-1.5,0.7c-0.3,0.4-0.4,1.2-0.4,1.7V50.8z"/>
	<path fill="#1D2554" d="M93.8,48.7c0.2,1.1,0.8,1.5,1.9,1.5c1.1,0,1.6-0.6,1.6-1.2c0-1.9-4.1-0.5-4.1-3.1c0-1.1,0.8-1.8,2.3-1.8
		c1.4,0,2.3,0.6,2.5,2h-0.8c-0.1-1-0.8-1.4-1.7-1.4c-0.9,0-1.5,0.4-1.5,1.1c0,1.8,4.1,0.7,4.1,3.1c0,1.2-1.1,1.9-2.6,1.9
		s-2.4-1-2.4-2.2H93.8z"/>
	<path fill="#1D2554" d="M106,47c0.3,0,0.7-0.1,1-0.2c0.2-0.1,0.3-0.4,0.3-0.7c0-0.8-0.4-1.3-1.6-1.3c-1,0-1.7,0.3-1.9,1.5H103
		c0.1-1.5,1.2-2.1,2.6-2.1c1.3,0,2.3,0.5,2.3,2v3.5c0,0.6,0.1,0.7,0.8,0.5v0.6c-0.1,0-0.4,0.1-0.6,0.1c-0.1,0-0.2,0-0.3,0
		c-0.5-0.1-0.6-0.5-0.6-1c-0.6,0.7-1.5,1.1-2.4,1.1c-1.1,0-2.2-0.6-2.2-1.9c0-1.1,0.7-1.7,2.3-1.9L106,47z M107.3,47.4
		c-0.6,0.3-1.3,0.3-1.9,0.4c-1.1,0.1-1.8,0.5-1.8,1.4c0,0.8,0.7,1.2,1.4,1.2c1.2,0,2.4-0.6,2.4-1.9V47.4z"/>
	<path fill="#1D2554" d="M110.8,50.8H110v-6.4h0.7v1.2h0c0.4-1,1-1.4,2.1-1.4v0.8c-1.7,0-2.1,1.2-2.1,2.6V50.8z"/>
	<path fill="#1D2554" d="M114.4,47.7c0,1.4,0.7,2.5,2.2,2.5c1,0,1.7-0.5,2-1.5h0.8c-0.4,1.2-1.1,2.2-2.8,2.2c-2.1,0-3-1.5-3-3.4
		c0-1.9,1.1-3.4,3-3.4c1.8,0,2.8,1.3,2.8,3.6H114.4z M118.6,47.1c0-1.3-0.7-2.3-2-2.3c-1.3,0-2,1.1-2.2,2.3H118.6z"/>
	<path fill="#1D2554" d="M127.2,47c0.3,0,0.7-0.1,1-0.2c0.2-0.1,0.3-0.4,0.3-0.7c0-0.8-0.4-1.3-1.6-1.3c-1,0-1.7,0.3-1.9,1.5h-0.8
		c0.1-1.5,1.2-2.1,2.6-2.1c1.3,0,2.3,0.5,2.3,2v3.5c0,0.6,0.1,0.7,0.8,0.5v0.6c-0.1,0-0.4,0.1-0.6,0.1c-0.1,0-0.2,0-0.3,0
		c-0.5-0.1-0.6-0.5-0.6-1c-0.6,0.7-1.5,1.1-2.4,1.1c-1.1,0-2.2-0.6-2.2-1.9c0-1.1,0.7-1.7,2.3-1.9L127.2,47z M128.5,47.4
		c-0.6,0.3-1.3,0.3-1.9,0.4c-1.1,0.1-1.8,0.5-1.8,1.4c0,0.8,0.7,1.2,1.4,1.2c1.2,0,2.4-0.6,2.4-1.9V47.4z"/>
	<path fill="#1D2554" d="M131.3,50.8v-9h0.7v9H131.3z"/>
	<path fill="#1D2554" d="M134.4,48.7c0.2,1.1,0.8,1.5,1.9,1.5c1.1,0,1.6-0.6,1.6-1.2c0-1.9-4.1-0.5-4.1-3.1c0-1.1,0.8-1.8,2.3-1.8
		c1.4,0,2.3,0.6,2.5,2h-0.8c-0.1-1-0.8-1.4-1.7-1.4c-0.9,0-1.5,0.4-1.5,1.1c0,1.8,4.1,0.7,4.1,3.1c0,1.2-1.1,1.9-2.6,1.9
		s-2.4-1-2.4-2.2H134.4z"/>
	<path fill="#1D2554" d="M139.7,47.5c0-1.9,1-3.4,3-3.4c2,0,3,1.5,3,3.4c0,2-1.2,3.4-3,3.4C141.1,50.9,139.7,49.8,139.7,47.5z
		 M142.7,44.8c-1.6,0-2.2,1.3-2.2,2.7c0,1.6,0.8,2.7,2.2,2.7c1.6,0,2.2-1.3,2.2-2.7C144.9,46,144.3,44.8,142.7,44.8z"/>
	<path fill="#1D2554" d="M150.1,47.5c0-1.9,1-3.4,3-3.4c2,0,3,1.5,3,3.4c0,2-1.2,3.4-3,3.4C151.5,50.9,150.1,49.8,150.1,47.5z
		 M153.1,44.8c-1.6,0-2.2,1.3-2.2,2.7c0,1.6,0.8,2.7,2.2,2.7c1.6,0,2.2-1.3,2.2-2.7C155.3,46,154.7,44.8,153.1,44.8z"/>
	<path fill="#1D2554" d="M158.2,50.8h-0.7v-6.4h0.7v0.9c0.6-0.6,1.2-1.1,2.1-1.1c0.8,0,1.5,0.2,2,0.9c0.3,0.5,0.3,0.9,0.3,1.5v4.2
		h-0.7v-4.2c0-1.2-0.5-1.7-1.7-1.7c-0.9,0-1.6,0.6-1.8,1.3c-0.1,0.4-0.2,0.8-0.2,1.2V50.8z"/>
	<path fill="#1D2554" d="M164.8,47.7c0,1.4,0.7,2.5,2.2,2.5c1,0,1.7-0.5,2-1.5h0.8c-0.4,1.2-1.1,2.2-2.8,2.2c-2.1,0-3-1.5-3-3.4
		c0-1.9,1.1-3.4,3-3.4c1.8,0,2.8,1.3,2.8,3.6H164.8z M169,47.1c0-1.3-0.7-2.3-2-2.3c-1.3,0-2,1.1-2.2,2.3H169z"/>
	<path fill="#1D2554" d="M174.3,47.5c0-1.9,1-3.4,3-3.4c2,0,3,1.5,3,3.4c0,2-1.2,3.4-3,3.4C175.7,50.9,174.3,49.8,174.3,47.5z
		 M177.3,44.8c-1.6,0-2.2,1.3-2.2,2.7c0,1.6,0.8,2.7,2.2,2.7c1.6,0,2.2-1.3,2.2-2.7C179.5,46,178.9,44.8,177.3,44.8z"/>
	<path fill="#1D2554" d="M181,44.9v-0.6h1v-1c0-1,0.4-1.7,1.4-1.7c0.2,0,0.4,0,0.6,0v0.7c-0.1,0-0.3-0.1-0.4-0.1
		c-0.8,0-0.8,0.6-0.8,1.2v0.8h1.2v0.6h-1.2v5.8H182v-5.8H181z"/>
	<path fill="#1D2554" d="M17.1,65.7c-0.2,0-0.5,0.1-0.9,0.1c-0.7,0-1.1-0.3-1.1-1.3v-4.7h-0.9v-0.6h0.9v-1.8h0.7v1.8h1.2v0.6h-1.2
		v4.4c0,0.6,0,0.9,0.6,0.9c0.2,0,0.4,0,0.6-0.1V65.7z"/>
	<path fill="#1D2554" d="M18.3,65.7v-9H19v3.4c0.6-0.6,1.2-1.1,2.1-1.1c0.8,0,1.5,0.2,2,0.9c0.3,0.5,0.3,0.9,0.3,1.5v4.2h-0.7v-4.2
		c0-1.2-0.5-1.7-1.7-1.7c-0.9,0-1.6,0.6-1.8,1.3c-0.1,0.4-0.2,0.8-0.2,1.2v3.5H18.3z"/>
	<path fill="#1D2554" d="M25.7,62.6c0,1.4,0.7,2.5,2.2,2.5c1,0,1.7-0.5,2-1.5h0.8c-0.4,1.2-1.1,2.2-2.8,2.2c-2.1,0-3-1.5-3-3.4
		c0-1.9,1.1-3.4,3-3.4c1.8,0,2.8,1.3,2.8,3.6H25.7z M29.9,62c0-1.3-0.7-2.3-2-2.3c-1.3,0-2,1.1-2.2,2.3H29.9z"/>
	<path fill="#1D2554" d="M36.2,65.7h-0.7v-6.4h0.7v1h0c0.4-0.7,1.2-1.1,2-1.1c1.2,0,1.6,0.6,1.9,1.2c0.4-0.8,1.2-1.2,2.1-1.2
		c1.8,0,2,1.3,2,2.5v4.1h-0.7v-4.5c0-0.9-0.3-1.5-1.4-1.5c-0.5,0-1.1,0.2-1.5,0.7c-0.3,0.4-0.4,1.2-0.4,1.7v3.5h-0.7v-4.5
		c0-0.9-0.3-1.5-1.4-1.5c-0.5,0-1.1,0.2-1.5,0.7c-0.3,0.4-0.4,1.2-0.4,1.7V65.7z"/>
	<path fill="#1D2554" d="M45.5,62.5c0-1.9,1-3.4,3-3.4c2,0,3,1.5,3,3.4c0,2-1.2,3.4-3,3.4C46.9,65.8,45.5,64.7,45.5,62.5z
		 M48.5,59.7c-1.6,0-2.2,1.3-2.2,2.7c0,1.6,0.8,2.7,2.2,2.7c1.6,0,2.2-1.3,2.2-2.7C50.7,60.9,50.1,59.7,48.5,59.7z"/>
	<path fill="#1D2554" d="M53.3,63.7c0.2,1.1,0.8,1.5,1.9,1.5c1.1,0,1.6-0.6,1.6-1.2c0-1.9-4.1-0.5-4.1-3.1c0-1.1,0.8-1.8,2.3-1.8
		c1.4,0,2.3,0.6,2.5,2h-0.8c-0.1-1-0.8-1.4-1.7-1.4c-0.9,0-1.5,0.4-1.5,1.1c0,1.8,4.1,0.7,4.1,3.1c0,1.2-1.1,1.9-2.6,1.9
		s-2.4-1-2.4-2.2H53.3z"/>
	<path fill="#1D2554" d="M61.3,65.7c-0.2,0-0.5,0.1-0.9,0.1c-0.7,0-1.1-0.3-1.1-1.3v-4.7h-0.9v-0.6h0.9v-1.8h0.7v1.8h1.2v0.6h-1.2
		v4.4c0,0.6,0,0.9,0.6,0.9c0.2,0,0.4,0,0.6-0.1V65.7z"/>
	<path fill="#1D2554" d="M70.6,61.3c-0.3-1-0.9-1.5-1.9-1.5c-1.5,0-2.2,1.4-2.2,2.7c0,1.4,0.6,2.7,2.2,2.7c1.1,0,1.8-0.7,2-1.7h0.8
		c-0.3,1.4-1.2,2.4-2.8,2.4c-2.1,0-3-1.5-3-3.4c0-1.8,1-3.4,3-3.4c1.5,0,2.4,0.7,2.7,2.2H70.6z"/>
	<path fill="#1D2554" d="M72.5,62.5c0-1.9,1-3.4,3-3.4c2,0,3,1.5,3,3.4c0,2-1.2,3.4-3,3.4C73.8,65.8,72.5,64.7,72.5,62.5z
		 M75.5,59.7c-1.6,0-2.2,1.3-2.2,2.7c0,1.6,0.8,2.7,2.2,2.7c1.6,0,2.2-1.3,2.2-2.7C77.6,60.9,77,59.7,75.5,59.7z"/>
	<path fill="#1D2554" d="M80.5,65.7h-0.7v-6.4h0.7v1h0c0.4-0.7,1.2-1.1,2-1.1c1.2,0,1.6,0.6,1.9,1.2c0.4-0.8,1.2-1.2,2.1-1.2
		c1.8,0,2,1.3,2,2.5v4.1h-0.7v-4.5c0-0.9-0.3-1.5-1.4-1.5c-0.5,0-1.1,0.2-1.5,0.7c-0.3,0.4-0.4,1.2-0.4,1.7v3.5h-0.7v-4.5
		c0-0.9-0.3-1.5-1.4-1.5c-0.5,0-1.1,0.2-1.5,0.7c-0.3,0.4-0.4,1.2-0.4,1.7V65.7z"/>
	<path fill="#1D2554" d="M90.8,65.7h-0.7v-6.4h0.7v1h0c0.4-0.7,1.2-1.1,2-1.1c1.2,0,1.6,0.6,1.9,1.2c0.4-0.8,1.2-1.2,2.1-1.2
		c1.8,0,2,1.3,2,2.5v4.1h-0.7v-4.5c0-0.9-0.3-1.5-1.4-1.5c-0.5,0-1.1,0.2-1.5,0.7c-0.3,0.4-0.4,1.2-0.4,1.7v3.5h-0.7v-4.5
		c0-0.9-0.3-1.5-1.4-1.5c-0.5,0-1.1,0.2-1.5,0.7c-0.3,0.4-0.4,1.2-0.4,1.7V65.7z"/>
	<path fill="#1D2554" d="M100.1,62.5c0-1.9,1-3.4,3-3.4c2,0,3,1.5,3,3.4c0,2-1.2,3.4-3,3.4C101.5,65.8,100.1,64.7,100.1,62.5z
		 M103.1,59.7c-1.6,0-2.2,1.3-2.2,2.7c0,1.6,0.8,2.7,2.2,2.7c1.6,0,2.2-1.3,2.2-2.7C105.3,60.9,104.7,59.7,103.1,59.7z"/>
	<path fill="#1D2554" d="M108.2,65.7h-0.7v-6.4h0.7v0.9c0.6-0.6,1.2-1.1,2.1-1.1c0.8,0,1.5,0.2,2,0.9c0.3,0.5,0.3,0.9,0.3,1.5v4.2
		h-0.7v-4.2c0-1.2-0.5-1.7-1.7-1.7c-0.9,0-1.6,0.6-1.8,1.3c-0.1,0.4-0.2,0.8-0.2,1.2V65.7z"/>
	<path fill="#1D2554" d="M117.9,57.8v-1.1h0.8v1.1H117.9z M117.9,65.7v-6.4h0.7v6.4H117.9z"/>
	<path fill="#1D2554" d="M121.3,65.7h-0.7v-6.4h0.7v0.9c0.6-0.6,1.2-1.1,2.1-1.1c0.8,0,1.5,0.2,2,0.9c0.3,0.5,0.3,0.9,0.3,1.5v4.2
		H125v-4.2c0-1.2-0.5-1.7-1.7-1.7c-0.9,0-1.6,0.6-1.8,1.3c-0.1,0.4-0.2,0.8-0.2,1.2V65.7z"/>
	<path fill="#1D2554" d="M128.4,59.2v7.3c0,1.1-0.1,1.7-1.3,1.7c-0.2,0-0.3,0-0.5,0v-0.7c0.9,0.1,1-0.2,1-0.9v-7.4H128.4z
		 M128.5,57.8h-0.8v-1.1h0.8V57.8z"/>
	<path fill="#1D2554" d="M134.6,59.2h0.7v6.4h-0.7v-0.9c-0.4,0.4-0.9,1.1-2.1,1.1c-1.7,0-2.3-1-2.3-2.4v-4.2h0.7v4.2
		c0,1.1,0.5,1.7,1.7,1.7c1.2,0,2-1,2-2.4V59.2z"/>
	<path fill="#1D2554" d="M138,65.7h-0.7v-6.4h0.7v1.2h0c0.4-1,1-1.4,2.1-1.4v0.8c-1.7,0-2.1,1.2-2.1,2.6V65.7z"/>
	<path fill="#1D2554" d="M141.4,57.8v-1.1h0.8v1.1H141.4z M141.4,65.7v-6.4h0.7v6.4H141.4z"/>
	<path fill="#1D2554" d="M144.5,62.6c0,1.4,0.7,2.5,2.2,2.5c1,0,1.7-0.5,2-1.5h0.8c-0.4,1.2-1.1,2.2-2.8,2.2c-2.1,0-3-1.5-3-3.4
		c0-1.9,1.1-3.4,3-3.4c1.8,0,2.8,1.3,2.8,3.6H144.5z M148.7,62c0-1.3-0.7-2.3-2-2.3c-1.3,0-2,1.1-2.2,2.3H148.7z"/>
	<path fill="#1D2554" d="M151.4,63.7c0.2,1.1,0.8,1.5,1.9,1.5c1.1,0,1.6-0.6,1.6-1.2c0-1.9-4.1-0.5-4.1-3.1c0-1.1,0.8-1.8,2.3-1.8
		c1.4,0,2.3,0.6,2.5,2h-0.8c-0.1-1-0.8-1.4-1.7-1.4c-0.9,0-1.5,0.4-1.5,1.1c0,1.8,4.1,0.7,4.1,3.1c0,1.2-1.1,1.9-2.6,1.9
		c-1.5,0-2.4-1-2.4-2.2H151.4z"/>
	<path fill="#1D2554" d="M157.3,57.8v-1.1h0.8v1.1H157.3z M157.3,65.7v-6.4h0.7v6.4H157.3z"/>
	<path fill="#1D2554" d="M160.7,65.7H160v-6.4h0.7v0.9c0.6-0.6,1.2-1.1,2.1-1.1c0.8,0,1.5,0.2,2,0.9c0.3,0.5,0.3,0.9,0.3,1.5v4.2
		h-0.7v-4.2c0-1.2-0.5-1.7-1.7-1.7c-0.9,0-1.6,0.6-1.8,1.3c-0.1,0.4-0.2,0.8-0.2,1.2V65.7z"/>
	<path fill="#1D2554" d="M172.6,65.7c-0.2,0-0.5,0.1-0.9,0.1c-0.7,0-1.1-0.3-1.1-1.3v-4.7h-0.9v-0.6h0.9v-1.8h0.7v1.8h1.2v0.6h-1.2
		v4.4c0,0.6,0,0.9,0.6,0.9c0.2,0,0.4,0,0.6-0.1V65.7z"/>
	<path fill="#1D2554" d="M173.8,65.7v-9h0.7v3.4c0.6-0.6,1.2-1.1,2.1-1.1c0.8,0,1.5,0.2,2,0.9c0.3,0.5,0.3,0.9,0.3,1.5v4.2h-0.7
		v-4.2c0-1.2-0.5-1.7-1.7-1.7c-0.9,0-1.6,0.6-1.8,1.3c-0.1,0.4-0.2,0.8-0.2,1.2v3.5H173.8z"/>
	<path fill="#1D2554" d="M181.2,62.6c0,1.4,0.7,2.5,2.2,2.5c1,0,1.7-0.5,2-1.5h0.8c-0.4,1.2-1.1,2.2-2.8,2.2c-2.1,0-3-1.5-3-3.4
		c0-1.9,1.1-3.4,3-3.4c1.8,0,2.8,1.3,2.8,3.6H181.2z M185.4,62c0-1.3-0.7-2.3-2-2.3c-1.3,0-2,1.1-2.2,2.3H185.4z"/>
	<path fill="#1D2554" d="M14.8,82.4c0.2,0,0.4,0.1,0.6,0.1c0.8,0,1-1.2,1.3-1.8l-2.5-6.5H15l2.1,5.5l2.1-5.5h0.8l-2.4,6.4
		c-0.6,1.6-1,2.6-2,2.6c-0.3,0-0.5,0-0.7-0.1V82.4z"/>
	<path fill="#1D2554" d="M20.6,77.4c0-1.9,1-3.4,3-3.4c2,0,3,1.5,3,3.4c0,2-1.2,3.4-3,3.4C22,80.7,20.6,79.6,20.6,77.4z M23.6,74.7
		c-1.6,0-2.2,1.3-2.2,2.7c0,1.6,0.8,2.7,2.2,2.7c1.6,0,2.2-1.3,2.2-2.7C25.8,75.9,25.2,74.7,23.6,74.7z"/>
	<path fill="#1D2554" d="M32.3,74.2h0.7v6.4h-0.7v-0.9c-0.4,0.4-0.9,1.1-2.1,1.1c-1.7,0-2.3-1-2.3-2.4v-4.2h0.7v4.2
		c0,1.1,0.5,1.7,1.7,1.7c1.2,0,2-1,2-2.4V74.2z"/>
	<path fill="#1D2554" d="M35.6,80.6h-0.7v-6.4h0.7v0.9c0.6-0.6,1.2-1.1,2.1-1.1c0.8,0,1.5,0.2,2,0.9c0.3,0.5,0.3,0.9,0.3,1.5v4.2
		h-0.7v-4.2c0-1.2-0.5-1.7-1.7-1.7c-0.9,0-1.6,0.6-1.8,1.3c-0.1,0.4-0.2,0.8-0.2,1.2V80.6z"/>
	<path fill="#1D2554" d="M46.8,74.2h0.7V80c0,1.7-0.6,3.3-3,3.3c-1.9,0-2.7-1.1-2.7-1.9h0.8c0.2,1,1,1.2,1.9,1.2c2,0,2.3-1.5,2.3-3
		c-0.5,0.8-1.4,1.2-2.3,1.2c-2,0-2.9-1.6-2.9-3.4c0-1.9,0.8-3.4,2.9-3.4c0.8,0,1.8,0.5,2.2,1.3h0V74.2z M44.6,74.7
		c-1.3,0-2.2,0.9-2.2,2.5c-0.1,1.6,0.7,2.9,2.2,2.9c1.4,0,2.2-1.2,2.2-2.7C46.8,75.8,46,74.7,44.6,74.7z"/>
	<path fill="#1D2554" d="M55.8,76.8c0.3,0,0.7-0.1,1-0.2c0.2-0.1,0.3-0.4,0.3-0.7c0-0.8-0.4-1.3-1.6-1.3c-1,0-1.7,0.3-1.9,1.5h-0.8
		c0.1-1.5,1.2-2.1,2.6-2.1c1.3,0,2.3,0.5,2.3,2v3.5c0,0.6,0.1,0.7,0.8,0.5v0.6c-0.1,0-0.4,0.1-0.6,0.1c-0.1,0-0.2,0-0.3,0
		c-0.5-0.1-0.6-0.5-0.6-1c-0.6,0.7-1.5,1.1-2.4,1.1c-1.1,0-2.2-0.6-2.2-1.9c0-1.1,0.7-1.7,2.3-1.9L55.8,76.8z M57.1,77.2
		c-0.6,0.3-1.3,0.3-1.9,0.4c-1.1,0.1-1.8,0.5-1.8,1.4c0,0.8,0.7,1.2,1.4,1.2c1.2,0,2.4-0.6,2.4-1.9V77.2z"/>
	<path fill="#1D2554" d="M62,80.6c-0.2,0-0.5,0.1-0.9,0.1c-0.7,0-1.1-0.3-1.1-1.3v-4.7h-0.9v-0.6H60v-1.8h0.7v1.8H62v0.6h-1.2v4.4
		c0,0.6,0,0.9,0.6,0.9c0.2,0,0.4,0,0.6-0.1V80.6z"/>
	<path fill="#1D2554" d="M63.2,80.6v-9H64v3.4c0.6-0.6,1.2-1.1,2.1-1.1c0.8,0,1.5,0.2,2,0.9c0.3,0.5,0.3,0.9,0.3,1.5v4.2h-0.7v-4.2
		c0-1.2-0.5-1.7-1.7-1.7c-0.9,0-1.6,0.6-1.8,1.3C64,76.3,64,76.7,64,77.1v3.5H63.2z"/>
	<path fill="#1D2554" d="M70.3,80.6v-9H71v9H70.3z"/>
	<path fill="#1D2554" d="M73.4,77.6c0,1.4,0.7,2.5,2.2,2.5c1,0,1.7-0.5,2-1.5h0.8c-0.4,1.2-1.1,2.2-2.8,2.2c-2.1,0-3-1.5-3-3.4
		c0-1.9,1.1-3.4,3-3.4c1.8,0,2.8,1.3,2.8,3.6H73.4z M77.6,76.9c0-1.3-0.7-2.3-2-2.3c-1.3,0-2,1.1-2.2,2.3H77.6z"/>
	<path fill="#1D2554" d="M82.1,80.6c-0.2,0-0.5,0.1-0.9,0.1c-0.7,0-1.1-0.3-1.1-1.3v-4.7h-0.9v-0.6h0.9v-1.8h0.7v1.8H82v0.6h-1.2
		v4.4c0,0.6,0,0.9,0.6,0.9c0.2,0,0.4,0,0.6-0.1V80.6z"/>
	<path fill="#1D2554" d="M83.7,77.6c0,1.4,0.7,2.5,2.2,2.5c1,0,1.7-0.5,2-1.5h0.8c-0.4,1.2-1.1,2.2-2.8,2.2c-2.1,0-3-1.5-3-3.4
		c0-1.9,1.1-3.4,3-3.4c1.8,0,2.8,1.3,2.8,3.6H83.7z M87.9,76.9c0-1.3-0.7-2.3-2-2.3c-1.3,0-2,1.1-2.2,2.3H87.9z"/>
	<path fill="#1D2554" d="M93.7,72.8v-1.1h0.8v1.1H93.7z M93.8,80.6v-6.4h0.7v6.4H93.8z"/>
	<path fill="#1D2554" d="M97.2,80.6h-0.7v-6.4h0.7v0.9c0.6-0.6,1.2-1.1,2.1-1.1c0.8,0,1.5,0.2,2,0.9c0.3,0.5,0.3,0.9,0.3,1.5v4.2
		h-0.7v-4.2c0-1.2-0.5-1.7-1.7-1.7c-0.9,0-1.6,0.6-1.8,1.3c-0.1,0.4-0.2,0.8-0.2,1.2V80.6z"/>
	<path fill="#1D2554" d="M107.9,76.2c-0.3-1-0.9-1.5-1.9-1.5c-1.5,0-2.2,1.4-2.2,2.7c0,1.4,0.6,2.7,2.2,2.7c1.1,0,1.8-0.7,2-1.7h0.8
		c-0.3,1.4-1.2,2.4-2.8,2.4c-2.1,0-3-1.5-3-3.4c0-1.8,1-3.4,3-3.4c1.5,0,2.4,0.7,2.7,2.2H107.9z"/>
	<path fill="#1D2554" d="M110.3,80.6v-9h0.7v9H110.3z"/>
	<path fill="#1D2554" d="M117.4,74.2h0.7v6.4h-0.7v-0.9c-0.4,0.4-0.9,1.1-2.1,1.1c-1.7,0-2.3-1-2.3-2.4v-4.2h0.7v4.2
		c0,1.1,0.5,1.7,1.7,1.7c1.2,0,2-1,2-2.4V74.2z"/>
	<path fill="#1D2554" d="M124.9,71.6h0.7v9h-0.7v-1.1h0c-0.4,0.8-1.4,1.3-2.2,1.3c-2.1,0-2.9-1.5-2.9-3.4c0-1.8,0.9-3.4,2.9-3.4
		c0.9,0,1.8,0.4,2.3,1.2V71.6z M122.7,74.7c-1.5,0-2.3,1.3-2.2,2.9c0,1.6,0.9,2.5,2.2,2.5c1.4,0,2.2-1.2,2.2-2.7
		C124.9,75.9,124.1,74.7,122.7,74.7z"/>
	<path fill="#1D2554" d="M127.6,72.8v-1.1h0.8v1.1H127.6z M127.6,80.6v-6.4h0.7v6.4H127.6z"/>
	<path fill="#1D2554" d="M131,80.6h-0.7v-6.4h0.7v0.9c0.6-0.6,1.2-1.1,2.1-1.1c0.8,0,1.5,0.2,2,0.9c0.3,0.5,0.3,0.9,0.3,1.5v4.2
		h-0.7v-4.2c0-1.2-0.5-1.7-1.7-1.7c-0.9,0-1.6,0.6-1.8,1.3c-0.1,0.4-0.2,0.8-0.2,1.2V80.6z"/>
	<path fill="#1D2554" d="M142.2,74.2h0.7V80c0,1.7-0.6,3.3-3,3.3c-1.9,0-2.7-1.1-2.7-1.9h0.8c0.2,1,1,1.2,1.9,1.2c2,0,2.3-1.5,2.3-3
		c-0.5,0.8-1.4,1.2-2.3,1.2c-2,0-2.9-1.6-2.9-3.4c0-1.9,0.8-3.4,2.9-3.4c0.8,0,1.8,0.5,2.2,1.3h0V74.2z M140,74.7
		c-1.3,0-2.2,0.9-2.2,2.5c-0.1,1.6,0.7,2.9,2.2,2.9c1.4,0,2.2-1.2,2.2-2.7C142.2,75.8,141.4,74.7,140,74.7z"/>
	<path fill="#1D2554" d="M151.2,76.8c0.3,0,0.7-0.1,1-0.2c0.2-0.1,0.3-0.4,0.3-0.7c0-0.8-0.4-1.3-1.6-1.3c-1,0-1.7,0.3-1.9,1.5h-0.8
		c0.1-1.5,1.2-2.1,2.6-2.1c1.3,0,2.3,0.5,2.3,2v3.5c0,0.6,0.1,0.7,0.8,0.5v0.6c-0.1,0-0.4,0.1-0.6,0.1c-0.1,0-0.2,0-0.3,0
		c-0.5-0.1-0.6-0.5-0.6-1c-0.6,0.7-1.5,1.1-2.4,1.1c-1.1,0-2.2-0.6-2.2-1.9c0-1.1,0.7-1.7,2.2-1.9L151.2,76.8z M152.5,77.2
		c-0.6,0.3-1.3,0.3-1.9,0.4c-1.1,0.1-1.8,0.5-1.8,1.4c0,0.8,0.7,1.2,1.4,1.2c1.2,0,2.4-0.6,2.4-1.9V77.2z"/>
	<path fill="#1D2554" d="M155.9,80.6h-0.7v-6.4h0.7v0.9c0.6-0.6,1.2-1.1,2.1-1.1c0.8,0,1.5,0.2,2,0.9c0.3,0.5,0.3,0.9,0.3,1.5v4.2
		h-0.7v-4.2c0-1.2-0.5-1.7-1.7-1.7c-0.9,0-1.6,0.6-1.8,1.3c-0.1,0.4-0.2,0.8-0.2,1.2V80.6z"/>
	<path fill="#1D2554" d="M164.3,80.6c-0.2,0-0.5,0.1-0.9,0.1c-0.7,0-1.1-0.3-1.1-1.3v-4.7h-0.9v-0.6h0.9v-1.8h0.7v1.8h1.2v0.6h-1.2
		v4.4c0,0.6,0,0.9,0.6,0.9c0.2,0,0.4,0,0.6-0.1V80.6z"/>
	<path fill="#1D2554" d="M166,77.6c0,1.4,0.7,2.5,2.2,2.5c1,0,1.7-0.5,2-1.5h0.8c-0.4,1.2-1.1,2.2-2.8,2.2c-2.1,0-3-1.5-3-3.4
		c0-1.9,1.1-3.4,3-3.4c1.8,0,2.8,1.3,2.8,3.6H166z M170.2,76.9c0-1.3-0.7-2.3-2-2.3c-1.3,0-2,1.1-2.2,2.3H170.2z"/>
	<path fill="#1D2554" d="M173.2,80.6h-0.7v-6.4h0.7v1.2h0c0.4-1,1-1.4,2.1-1.4v0.8c-1.7,0-2.1,1.2-2.1,2.6V80.6z"/>
	<path fill="#1D2554" d="M176.7,72.8v-1.1h0.8v1.1H176.7z M176.7,80.6v-6.4h0.7v6.4H176.7z"/>
	<path fill="#1D2554" d="M178.9,77.4c0-1.9,1-3.4,3-3.4c2,0,3,1.5,3,3.4c0,2-1.2,3.4-3,3.4C180.3,80.7,178.9,79.6,178.9,77.4z
		 M181.9,74.7c-1.6,0-2.2,1.3-2.2,2.7c0,1.6,0.8,2.7,2.2,2.7c1.6,0,2.2-1.3,2.2-2.7C184.1,75.9,183.5,74.7,181.9,74.7z"/>
	<path fill="#1D2554" d="M187,80.6h-0.7v-6.4h0.7v1.2h0c0.4-1,1-1.4,2.1-1.4v0.8c-1.7,0-2.1,1.2-2.1,2.6V80.6z"/>
	<path fill="#1D2554" d="M19.4,91.1c-0.3-1-0.9-1.5-1.9-1.5c-1.5,0-2.2,1.4-2.2,2.7c0,1.4,0.6,2.7,2.2,2.7c1.1,0,1.8-0.7,2-1.7h0.8
		c-0.3,1.4-1.2,2.4-2.8,2.4c-2.1,0-3-1.5-3-3.4c0-1.8,1-3.4,3-3.4c1.5,0,2.4,0.7,2.7,2.2H19.4z"/>
	<path fill="#1D2554" d="M22.5,95.5h-0.7v-6.4h0.7v1.2h0c0.4-1,1-1.4,2.1-1.4v0.8c-1.7,0-2.1,1.2-2.1,2.6V95.5z"/>
	<path fill="#1D2554" d="M30.3,89.1H31v6.4h-0.7v-0.9c-0.4,0.4-0.9,1.1-2.1,1.1c-1.7,0-2.3-1-2.3-2.4v-4.2h0.7v4.2
		c0,1.1,0.5,1.7,1.7,1.7c1.2,0,2-1,2-2.4V89.1z"/>
	<path fill="#1D2554" d="M37.4,91.1c-0.3-1-0.9-1.5-1.9-1.5c-1.5,0-2.2,1.4-2.2,2.7c0,1.4,0.6,2.7,2.2,2.7c1.1,0,1.8-0.7,2-1.7h0.8
		c-0.3,1.4-1.2,2.4-2.8,2.4c-2.1,0-3-1.5-3-3.4c0-1.8,1-3.4,3-3.4c1.5,0,2.4,0.7,2.7,2.2H37.4z"/>
	<path fill="#1D2554" d="M39.8,87.7v-1.1h0.8v1.1H39.8z M39.8,95.5v-6.4h0.7v6.4H39.8z"/>
	<path fill="#1D2554" d="M45.4,91.8c0.3,0,0.7-0.1,1-0.2c0.2-0.1,0.3-0.4,0.3-0.7c0-0.8-0.4-1.3-1.6-1.3c-1,0-1.7,0.3-1.9,1.5h-0.8
		c0.1-1.5,1.2-2.1,2.6-2.1c1.3,0,2.3,0.5,2.3,2v3.5c0,0.6,0.1,0.7,0.8,0.5v0.6c-0.1,0-0.4,0.1-0.6,0.1c-0.1,0-0.2,0-0.3,0
		c-0.5-0.1-0.6-0.5-0.6-1c-0.6,0.7-1.5,1.1-2.4,1.1c-1.1,0-2.2-0.6-2.2-1.9c0-1.1,0.7-1.7,2.3-1.9L45.4,91.8z M46.7,92.1
		c-0.6,0.3-1.3,0.3-1.9,0.4C43.6,92.6,43,93,43,93.9c0,0.8,0.7,1.2,1.4,1.2c1.2,0,2.4-0.6,2.4-1.9V92.1z"/>
	<path fill="#1D2554" d="M51.7,95.5c-0.2,0-0.5,0.1-0.9,0.1c-0.7,0-1.1-0.3-1.1-1.3v-4.7h-0.9v-0.6h0.9v-1.8h0.7v1.8h1.2v0.6h-1.2
		v4.4c0,0.6,0,0.9,0.6,0.9c0.2,0,0.4,0,0.6-0.1V95.5z"/>
	<path fill="#1D2554" d="M53.3,92.5c0,1.4,0.7,2.5,2.2,2.5c1,0,1.7-0.5,2-1.5h0.8c-0.4,1.2-1.1,2.2-2.8,2.2c-2.1,0-3-1.5-3-3.4
		c0-1.9,1.1-3.4,3-3.4c1.8,0,2.8,1.3,2.8,3.6H53.3z M57.5,91.9c0-1.3-0.7-2.3-2-2.3c-1.3,0-2,1.1-2.2,2.3H57.5z"/>
	<path fill="#1D2554" d="M63.3,95.5v-9h0.7v9H63.3z"/>
	<path fill="#1D2554" d="M66.1,87.7v-1.1h0.8v1.1H66.1z M66.1,95.5v-6.4h0.7v6.4H66.1z"/>
	<path fill="#1D2554" d="M73.7,89.1h0.7v5.8c0,1.7-0.6,3.3-3,3.3c-1.9,0-2.7-1.1-2.7-1.9h0.8c0.2,1,1,1.2,1.9,1.2c2,0,2.3-1.5,2.3-3
		c-0.5,0.8-1.4,1.2-2.3,1.2c-2,0-2.9-1.6-2.9-3.4c0-1.9,0.8-3.4,2.9-3.4c0.8,0,1.8,0.5,2.2,1.3h0V89.1z M71.5,89.6
		c-1.3,0-2.2,0.9-2.2,2.5C69.3,93.7,70,95,71.5,95c1.4,0,2.2-1.2,2.2-2.7C73.7,90.8,73,89.6,71.5,89.6z"/>
	<path fill="#1D2554" d="M79.3,91.8c0.3,0,0.7-0.1,1-0.2c0.2-0.1,0.3-0.4,0.3-0.7c0-0.8-0.4-1.3-1.6-1.3c-1,0-1.7,0.3-1.9,1.5h-0.8
		c0.1-1.5,1.2-2.1,2.6-2.1c1.3,0,2.3,0.5,2.3,2v3.5c0,0.6,0.1,0.7,0.8,0.5v0.6c-0.1,0-0.4,0.1-0.6,0.1c-0.1,0-0.2,0-0.3,0
		c-0.5-0.1-0.6-0.5-0.6-1c-0.6,0.7-1.5,1.1-2.4,1.1c-1.1,0-2.2-0.6-2.2-1.9c0-1.1,0.7-1.7,2.3-1.9L79.3,91.8z M80.6,92.1
		c-0.6,0.3-1.3,0.3-1.9,0.4c-1.1,0.1-1.8,0.5-1.8,1.4c0,0.8,0.7,1.2,1.4,1.2c1.2,0,2.4-0.6,2.4-1.9V92.1z"/>
	<path fill="#1D2554" d="M83.9,95.5h-0.7v-6.4h0.7v1h0c0.4-0.7,1.2-1.1,2-1.1c1.2,0,1.6,0.6,1.9,1.2c0.4-0.8,1.2-1.2,2.1-1.2
		c1.8,0,2,1.3,2,2.5v4.1h-0.7v-4.5c0-0.9-0.3-1.5-1.4-1.5c-0.5,0-1.1,0.2-1.5,0.7c-0.3,0.4-0.4,1.2-0.4,1.7v3.5h-0.7v-4.5
		c0-0.9-0.3-1.5-1.4-1.5c-0.5,0-1.1,0.2-1.5,0.7c-0.3,0.4-0.4,1.2-0.4,1.7V95.5z"/>
	<path fill="#1D2554" d="M94.1,92.5c0,1.4,0.7,2.5,2.2,2.5c1,0,1.7-0.5,2-1.5H99c-0.4,1.2-1.1,2.2-2.8,2.2c-2.1,0-3-1.5-3-3.4
		c0-1.9,1.1-3.4,3-3.4c1.8,0,2.8,1.3,2.8,3.6H94.1z M98.3,91.9c0-1.3-0.7-2.3-2-2.3c-1.3,0-2,1.1-2.2,2.3H98.3z"/>
	<path fill="#1D2554" d="M101.3,95.5h-0.7v-6.4h0.7V90c0.6-0.6,1.2-1.1,2.1-1.1c0.8,0,1.5,0.2,2,0.9c0.3,0.5,0.3,0.9,0.3,1.5v4.2
		h-0.7v-4.2c0-1.2-0.5-1.7-1.7-1.7c-0.9,0-1.6,0.6-1.8,1.3c-0.1,0.4-0.2,0.8-0.2,1.2V95.5z"/>
	<path fill="#1D2554" d="M109.7,95.5c-0.2,0-0.5,0.1-0.9,0.1c-0.7,0-1.1-0.3-1.1-1.3v-4.7h-0.9v-0.6h0.9v-1.8h0.7v1.8h1.2v0.6h-1.2
		v4.4c0,0.6,0,0.9,0.6,0.9c0.2,0,0.4,0,0.6-0.1V95.5z"/>
	<path fill="#1D2554" d="M119.3,86.6h0.7v9h-0.7v-1.1h0c-0.4,0.8-1.4,1.3-2.2,1.3c-2.1,0-2.9-1.5-2.9-3.4c0-1.8,0.9-3.4,2.9-3.4
		c0.9,0,1.8,0.4,2.3,1.2V86.6z M117.2,89.6c-1.5,0-2.3,1.3-2.2,2.9c0,1.6,0.9,2.5,2.2,2.5c1.4,0,2.2-1.2,2.2-2.7
		C119.3,90.8,118.5,89.6,117.2,89.6z"/>
	<path fill="#1D2554" d="M124.9,91.8c0.3,0,0.7-0.1,1-0.2c0.2-0.1,0.3-0.4,0.3-0.7c0-0.8-0.4-1.3-1.6-1.3c-1,0-1.7,0.3-1.9,1.5h-0.8
		c0.1-1.5,1.2-2.1,2.6-2.1c1.3,0,2.3,0.5,2.3,2v3.5c0,0.6,0.1,0.7,0.8,0.5v0.6c-0.1,0-0.4,0.1-0.6,0.1c-0.1,0-0.2,0-0.3,0
		c-0.5-0.1-0.6-0.5-0.6-1c-0.6,0.7-1.5,1.1-2.4,1.1c-1.1,0-2.2-0.6-2.2-1.9c0-1.1,0.7-1.7,2.3-1.9L124.9,91.8z M126.2,92.1
		c-0.6,0.3-1.3,0.3-1.9,0.4c-1.1,0.1-1.8,0.5-1.8,1.4c0,0.8,0.7,1.2,1.4,1.2c1.2,0,2.4-0.6,2.4-1.9V92.1z"/>
	<path fill="#1D2554" d="M129.5,95.5h-0.7v-6.4h0.7v1h0c0.4-0.7,1.2-1.1,2-1.1c1.2,0,1.6,0.6,1.9,1.2c0.4-0.8,1.2-1.2,2.1-1.2
		c1.8,0,2,1.3,2,2.5v4.1h-0.7v-4.5c0-0.9-0.3-1.5-1.4-1.5c-0.5,0-1.1,0.2-1.5,0.7c-0.3,0.4-0.4,1.2-0.4,1.7v3.5h-0.7v-4.5
		c0-0.9-0.3-1.5-1.4-1.5c-0.5,0-1.1,0.2-1.5,0.7c-0.3,0.4-0.4,1.2-0.4,1.7V95.5z"/>
	<path fill="#1D2554" d="M142.2,91.8c0.3,0,0.7-0.1,1-0.2s0.3-0.4,0.3-0.7c0-0.8-0.4-1.3-1.6-1.3c-1,0-1.7,0.3-1.9,1.5h-0.8
		c0.1-1.5,1.2-2.1,2.6-2.1c1.3,0,2.3,0.5,2.3,2v3.5c0,0.6,0.1,0.7,0.8,0.5v0.6c-0.1,0-0.4,0.1-0.6,0.1c-0.1,0-0.2,0-0.3,0
		c-0.5-0.1-0.6-0.5-0.6-1c-0.6,0.7-1.5,1.1-2.4,1.1c-1.1,0-2.2-0.6-2.2-1.9c0-1.1,0.7-1.7,2.3-1.9L142.2,91.8z M143.5,92.1
		c-0.6,0.3-1.3,0.3-1.9,0.4c-1.1,0.1-1.8,0.5-1.8,1.4c0,0.8,0.7,1.2,1.4,1.2c1.2,0,2.4-0.6,2.4-1.9V92.1z"/>
	<path fill="#1D2554" d="M151.1,89.1h0.7v5.8c0,1.7-0.6,3.3-3,3.3c-1.9,0-2.7-1.1-2.7-1.9h0.8c0.2,1,1,1.2,1.9,1.2
		c2,0,2.3-1.5,2.3-3c-0.5,0.8-1.4,1.2-2.3,1.2c-2,0-2.9-1.6-2.9-3.4c0-1.9,0.8-3.4,2.9-3.4c0.8,0,1.8,0.5,2.2,1.3h0V89.1z M149,89.6
		c-1.3,0-2.2,0.9-2.2,2.5c-0.1,1.6,0.7,2.9,2.2,2.9c1.4,0,2.2-1.2,2.2-2.7C151.1,90.8,150.4,89.6,149,89.6z"/>
	<path fill="#1D2554" d="M154.2,92.5c0,1.4,0.7,2.5,2.2,2.5c1,0,1.7-0.5,2-1.5h0.8c-0.4,1.2-1.1,2.2-2.8,2.2c-2.1,0-3-1.5-3-3.4
		c0-1.9,1.1-3.4,3-3.4c1.8,0,2.8,1.3,2.8,3.6H154.2z M158.4,91.9c0-1.3-0.7-2.3-2-2.3c-1.3,0-2,1.1-2.2,2.3H158.4z"/>
</g>
<g>
</g>
<g>
</g>
<g>
</g>
<g>
</g>
<g>
</g>
<g>
</g>
</svg>
