<?xml version="1.0" encoding="utf-8"?>
<!-- Generator: Adobe Illustrator 19.1.0, SVG Export Plug-In . SVG Version: 6.00 Build 0)  -->
<svg version="1.1" id="Layer_1" xmlns="http://www.w3.org/2000/svg" xmlns:xlink="http://www.w3.org/1999/xlink" x="0px" y="0px"
	 width="405px" height="123px" viewBox="0 0 405 123" enable-background="new 0 0 405 123" xml:space="preserve">
<g>
	<path fill="#FFFFFF" stroke="#2CBCEE" stroke-width="2.0023" stroke-miterlimit="10" d="M199.7,22.9h-4.7v33.7h4.7v5.5h-15.1v-5.5
		h5.1V25.3l-9.3,16.9h-2.9l-9.3-16.9v31.3h5.1v5.5h-15.1v-5.5h4.7V22.9h-4.7v-5.5h11.3l9.6,17.7l9.6-17.7h10.8V22.9z"/>
	<path fill="#FFFFFF" stroke="#2CBCEE" stroke-width="2.0023" stroke-miterlimit="10" d="M221.6,22.9h-4.7v33.7h4.7v5.5h-14.9v-5.5
		h4.7V22.9h-4.7v-5.5h14.9V22.9z"/>
	<path fill="#FFFFFF" stroke="#2CBCEE" stroke-width="2.0023" stroke-miterlimit="10" d="M243.7,22.9h-4.8v33.7H255v-7.1h4.7v12.6
		h-31.1v-5.5h4.7V22.9h-4.7v-5.5h15.1V22.9z"/>
	<path fill="#FFFFFF" stroke="#2CBCEE" stroke-width="2.0023" stroke-miterlimit="10" d="M279,22.9h-4.8v33.7h16.2v-7.1h4.7v12.6
		H264v-5.5h4.7V22.9H264v-5.5H279V22.9z"/>
	<path fill="#FFFFFF" stroke="#2CBCEE" stroke-width="2.0023" stroke-miterlimit="10" d="M315.5,22.9h-4.7v33.7h4.7v5.5h-14.9v-5.5
		h4.7V22.9h-4.7v-5.5h14.9V22.9z"/>
	<path fill="#FFFFFF" stroke="#2CBCEE" stroke-width="2.0023" stroke-miterlimit="10" d="M351.6,54.9l-7.2,7.2h-14.7l-7.2-7.2V24.3
		l6.9-6.9h15.4l6.9,6.9V54.9z M331.6,22.9l-3.6,3.6v26.2l3.9,3.9h10.4l3.9-3.9V26.6l-3.6-3.6H331.6z"/>
	<path fill="#FFFFFF" stroke="#2CBCEE" stroke-width="2.0023" stroke-miterlimit="10" d="M395.7,23H391v39.1h-5.4l-18.7-36.9v31.5h4
		v5.5h-13.5v-5.5h4.7V23h-4.7v-5.6h11.9l16.8,34.1V23h-4v-5.6h13.6V23z"/>
</g>
<g>
	<path fill="#FFFFFF" stroke="#CC2036" stroke-width="3" stroke-miterlimit="10" d="M69.8,26.3v22.6L61,57.8l9.6,9.6v27.9
		l-14.4,14.4H23.4L9,95.2V77.9h11.9v12.3l7.5,7.5h22.7l7.3-7.5V70.8l-6.9-6.9H26.9V53.3h24.3l6.9-6.9V31.6l-6.9-7.1H28.4l-6.9,7.1
		v8.2H9.6V26.3l13.7-13.7h33L69.8,26.3z"/>
	<path fill="#FFFFFF" stroke="#CC2036" stroke-width="3" stroke-miterlimit="10" d="M146.3,93.9l-15.7,15.7h-32L83,93.9V27.6l15-15
		h33.4l15,15V93.9z M102.8,24.5l-7.9,7.9v56.8l8.5,8.5H126l8.5-8.5V32.4l-7.9-7.9H102.8z"/>
</g>
<g>
	<rect x="156.3" y="76.1" fill="none" width="242.9" height="39.4"/>
	<path fill="#1D2554" d="M163.7,78.7c-0.3-1.5-1.3-2.1-2.8-2.1c-2.2,0-3.1,1.9-3.1,4c0,2,0.7,4,3.2,4c1.5,0,2.5-1,2.8-2.5h0.9
		c-0.4,1.7-1.5,3.2-3.9,3.2c-2.8,0-3.9-2.2-3.9-4.7c0-3.4,1.8-4.7,4.2-4.7c1.8,0,3.2,1,3.5,2.8H163.7z"/>
	<path fill="#1D2554" d="M166.2,85.1v-9h0.7v3.4c0.6-0.6,1.2-1.1,2.1-1.1c0.8,0,1.5,0.2,2,0.9c0.3,0.5,0.3,0.9,0.3,1.5v4.2h-0.7
		v-4.2c0-1.2-0.5-1.7-1.7-1.7c-0.9,0-1.6,0.6-1.8,1.3c-0.1,0.4-0.2,0.8-0.2,1.2v3.5H166.2z"/>
	<path fill="#1D2554" d="M173.2,77.2v-1.1h0.8v1.1H173.2z M173.2,85.1v-6.4h0.7v6.4H173.2z"/>
	<path fill="#1D2554" d="M176,85.1v-9h0.7v9H176z"/>
	<path fill="#1D2554" d="M183.6,76.1h0.7v9h-0.7v-1.1h0c-0.4,0.8-1.4,1.3-2.2,1.3c-2.1,0-2.9-1.5-2.9-3.4c0-1.8,0.9-3.4,2.9-3.4
		c0.9,0,1.8,0.4,2.3,1.2V76.1z M181.4,79.1c-1.5,0-2.3,1.3-2.2,2.9c0,1.6,0.9,2.5,2.2,2.5c1.4,0,2.2-1.2,2.2-2.7
		C183.6,80.4,182.8,79.1,181.4,79.1z"/>
	<path fill="#1D2554" d="M187,85.1h-0.7v-6.4h0.7v1.2h0c0.4-1,1-1.4,2.1-1.4v0.8c-1.7,0-2.1,1.2-2.1,2.6V85.1z"/>
	<path fill="#1D2554" d="M190.6,82c0,1.4,0.7,2.5,2.2,2.5c1,0,1.7-0.5,2-1.5h0.8c-0.4,1.2-1.1,2.2-2.8,2.2c-2.1,0-3-1.5-3-3.4
		c0-1.9,1.1-3.4,3-3.4c1.8,0,2.8,1.3,2.8,3.6H190.6z M194.8,81.4c0-1.3-0.7-2.3-2-2.3c-1.3,0-2,1.1-2.2,2.3H194.8z"/>
	<path fill="#1D2554" d="M197.8,85.1H197v-6.4h0.7v0.9c0.6-0.6,1.2-1.1,2.1-1.1c0.8,0,1.5,0.2,2,0.9c0.3,0.5,0.3,0.9,0.3,1.5v4.2
		h-0.7v-4.2c0-1.2-0.5-1.7-1.7-1.7c-0.9,0-1.6,0.6-1.8,1.3c-0.1,0.4-0.2,0.8-0.2,1.2V85.1z"/>
	<path fill="#1D2554" d="M210.4,81.3c0.3,0,0.7-0.1,1-0.2s0.3-0.4,0.3-0.7c0-0.8-0.4-1.3-1.6-1.3c-1,0-1.7,0.3-1.9,1.5h-0.8
		c0.1-1.5,1.2-2.1,2.6-2.1c1.3,0,2.3,0.5,2.3,2V84c0,0.6,0.1,0.7,0.8,0.5v0.6c-0.1,0-0.4,0.1-0.6,0.1c-0.1,0-0.2,0-0.3,0
		c-0.5-0.1-0.6-0.5-0.6-1c-0.6,0.7-1.5,1.1-2.4,1.1c-1.1,0-2.2-0.6-2.2-1.9c0-1.1,0.7-1.7,2.3-1.9L210.4,81.3z M211.6,81.7
		c-0.6,0.3-1.3,0.3-1.9,0.4c-1.1,0.1-1.8,0.5-1.8,1.4c0,0.8,0.7,1.2,1.4,1.2c1.2,0,2.4-0.6,2.4-1.9V81.7z"/>
	<path fill="#1D2554" d="M215.1,85.1h-0.7v-6.4h0.7v0.9c0.6-0.6,1.2-1.1,2.1-1.1c0.8,0,1.5,0.2,2,0.9c0.3,0.5,0.3,0.9,0.3,1.5v4.2
		h-0.7v-4.2c0-1.2-0.5-1.7-1.7-1.7c-0.9,0-1.6,0.6-1.8,1.3c-0.1,0.4-0.2,0.8-0.2,1.2V85.1z"/>
	<path fill="#1D2554" d="M226.2,76.1h0.7v9h-0.7v-1.1h0c-0.4,0.8-1.4,1.3-2.2,1.3c-2.1,0-2.9-1.5-2.9-3.4c0-1.8,0.9-3.4,2.9-3.4
		c0.9,0,1.8,0.4,2.3,1.2V76.1z M224,79.1c-1.5,0-2.3,1.3-2.2,2.9c0,1.6,0.9,2.5,2.2,2.5c1.4,0,2.2-1.2,2.2-2.7
		C226.2,80.4,225.4,79.1,224,79.1z"/>
	<path fill="#1D2554" d="M231.6,85.1l3.5-9h1l3.4,9h-0.9l-1-2.8h-4.1l-1.1,2.8H231.6z M233.8,81.5h3.5l-1.8-4.7L233.8,81.5z"/>
	<path fill="#1D2554" d="M245.6,76.1h0.7v9h-0.7v-1.1h0c-0.4,0.8-1.4,1.3-2.2,1.3c-2.1,0-2.9-1.5-2.9-3.4c0-1.8,0.9-3.4,2.9-3.4
		c0.9,0,1.8,0.4,2.3,1.2V76.1z M243.4,79.1c-1.5,0-2.3,1.3-2.2,2.9c0,1.6,0.9,2.5,2.2,2.5c1.4,0,2.2-1.2,2.2-2.7
		C245.6,80.4,244.7,79.1,243.4,79.1z"/>
	<path fill="#1D2554" d="M247.8,81.9c0-1.9,1-3.4,3-3.4c2,0,3,1.5,3,3.4c0,2-1.2,3.4-3,3.4C249.1,85.2,247.8,84.1,247.8,81.9z
		 M250.8,79.1c-1.6,0-2.2,1.3-2.2,2.7c0,1.6,0.8,2.7,2.2,2.7c1.6,0,2.2-1.3,2.2-2.7C252.9,80.3,252.3,79.1,250.8,79.1z"/>
	<path fill="#1D2554" d="M255.2,85.1v-9h0.7v9H255.2z"/>
	<path fill="#1D2554" d="M258.3,82c0,1.4,0.7,2.5,2.2,2.5c1,0,1.7-0.5,2-1.5h0.8c-0.4,1.2-1.1,2.2-2.8,2.2c-2.1,0-3-1.5-3-3.4
		c0-1.9,1.1-3.4,3-3.4c1.8,0,2.8,1.3,2.8,3.6H258.3z M262.5,81.4c0-1.3-0.7-2.3-2-2.3c-1.3,0-2,1.1-2.2,2.3H262.5z"/>
	<path fill="#1D2554" d="M265.2,83.1c0.2,1.1,0.8,1.5,1.9,1.5c1.1,0,1.6-0.6,1.6-1.2c0-1.9-4.1-0.5-4.1-3.1c0-1.1,0.8-1.8,2.3-1.8
		c1.4,0,2.3,0.6,2.5,2h-0.8c-0.1-1-0.8-1.4-1.7-1.4c-0.9,0-1.5,0.4-1.5,1.1c0,1.8,4.1,0.7,4.1,3.1c0,1.2-1.1,1.9-2.6,1.9
		c-1.5,0-2.4-1-2.4-2.2H265.2z"/>
	<path fill="#1D2554" d="M275.6,80.7c-0.3-1-0.9-1.5-1.9-1.5c-1.5,0-2.2,1.4-2.2,2.7c0,1.4,0.6,2.7,2.2,2.7c1.1,0,1.8-0.7,2-1.7h0.8
		c-0.3,1.4-1.2,2.4-2.8,2.4c-2.1,0-3-1.5-3-3.4c0-1.8,1-3.4,3-3.4c1.5,0,2.4,0.7,2.7,2.2H275.6z"/>
	<path fill="#1D2554" d="M278.4,82c0,1.4,0.7,2.5,2.2,2.5c1,0,1.7-0.5,2-1.5h0.8c-0.4,1.2-1.1,2.2-2.8,2.2c-2.1,0-3-1.5-3-3.4
		c0-1.9,1.1-3.4,3-3.4c1.8,0,2.8,1.3,2.8,3.6H278.4z M282.6,81.4c0-1.3-0.7-2.3-2-2.3c-1.3,0-2,1.1-2.2,2.3H282.6z"/>
	<path fill="#1D2554" d="M285.6,85.1h-0.7v-6.4h0.7v0.9c0.6-0.6,1.2-1.1,2.1-1.1c0.8,0,1.5,0.2,2,0.9c0.3,0.5,0.3,0.9,0.3,1.5v4.2
		h-0.7v-4.2c0-1.2-0.5-1.7-1.7-1.7c-0.9,0-1.6,0.6-1.8,1.3c-0.1,0.4-0.2,0.8-0.2,1.2V85.1z"/>
	<path fill="#1D2554" d="M294,85.1c-0.2,0-0.5,0.1-0.9,0.1c-0.7,0-1.1-0.3-1.1-1.3v-4.7h-0.9v-0.6h0.9v-1.8h0.7v1.8h1.2v0.6h-1.2
		v4.4c0,0.6,0,0.9,0.6,0.9c0.2,0,0.4,0,0.6-0.1V85.1z"/>
	<path fill="#1D2554" d="M295.6,83.1c0.2,1.1,0.8,1.5,1.9,1.5c1.1,0,1.6-0.6,1.6-1.2c0-1.9-4.1-0.5-4.1-3.1c0-1.1,0.8-1.8,2.3-1.8
		c1.4,0,2.3,0.6,2.5,2H299c-0.1-1-0.8-1.4-1.7-1.4c-0.9,0-1.5,0.4-1.5,1.1c0,1.8,4.1,0.7,4.1,3.1c0,1.2-1.1,1.9-2.6,1.9
		c-1.5,0-2.4-1-2.5-2.2H295.6z"/>
	<path fill="#1D2554" d="M304.9,77.2v-1.1h0.8v1.1H304.9z M305,85.1v-6.4h0.7v6.4H305z"/>
	<path fill="#1D2554" d="M308.4,85.1h-0.7v-6.4h0.7v0.9c0.6-0.6,1.2-1.1,2.1-1.1c0.8,0,1.5,0.2,2,0.9c0.3,0.5,0.3,0.9,0.3,1.5v4.2
		H312v-4.2c0-1.2-0.5-1.7-1.7-1.7c-0.9,0-1.6,0.6-1.8,1.3c-0.1,0.4-0.2,0.8-0.2,1.2V85.1z"/>
	<path fill="#1D2554" d="M320.3,85.1c-0.2,0-0.5,0.1-0.9,0.1c-0.7,0-1.1-0.3-1.1-1.3v-4.7h-0.9v-0.6h0.9v-1.8h0.7v1.8h1.2v0.6H319
		v4.4c0,0.6,0,0.9,0.6,0.9c0.2,0,0.4,0,0.6-0.1V85.1z"/>
	<path fill="#1D2554" d="M321.5,85.1v-9h0.7v3.4c0.6-0.6,1.2-1.1,2.1-1.1c0.8,0,1.5,0.2,2,0.9c0.3,0.5,0.3,0.9,0.3,1.5v4.2h-0.7
		v-4.2c0-1.2-0.5-1.7-1.7-1.7c-0.9,0-1.6,0.6-1.8,1.3c-0.1,0.4-0.2,0.8-0.2,1.2v3.5H321.5z"/>
	<path fill="#1D2554" d="M328.8,82c0,1.4,0.7,2.5,2.2,2.5c1,0,1.7-0.5,2-1.5h0.8c-0.4,1.2-1.1,2.2-2.8,2.2c-2.1,0-3-1.5-3-3.4
		c0-1.9,1.1-3.4,3-3.4c1.8,0,2.8,1.3,2.8,3.6H328.8z M333,81.4c0-1.3-0.7-2.3-2-2.3c-1.3,0-2,1.1-2.2,2.3H333z"/>
	<path fill="#1D2554" d="M338.9,76.1h0.8v5.3c0,2.2,0.8,3.1,2.6,3.1c1.9,0,2.6-1,2.6-3.1v-5.3h0.8v5.6c0,2.3-1.2,3.6-3.5,3.6
		c-2.3,0-3.5-1.3-3.5-3.6V76.1z"/>
	<path fill="#1D2554" d="M348.5,85.1h-0.7v-6.4h0.7v0.9c0.6-0.6,1.2-1.1,2.1-1.1c0.8,0,1.5,0.2,2,0.9c0.3,0.5,0.3,0.9,0.3,1.5v4.2
		h-0.7v-4.2c0-1.2-0.5-1.7-1.7-1.7c-0.9,0-1.6,0.6-1.8,1.3c-0.1,0.4-0.2,0.8-0.2,1.2V85.1z"/>
	<path fill="#1D2554" d="M354.7,77.2v-1.1h0.8v1.1H354.7z M354.8,85.1v-6.4h0.7v6.4H354.8z"/>
	<path fill="#1D2554" d="M359.7,85.1c-0.2,0-0.5,0.1-0.9,0.1c-0.7,0-1.1-0.3-1.1-1.3v-4.7h-0.9v-0.6h0.9v-1.8h0.7v1.8h1.2v0.6h-1.2
		v4.4c0,0.6,0,0.9,0.6,0.9c0.2,0,0.4,0,0.6-0.1V85.1z"/>
	<path fill="#1D2554" d="M361.3,82c0,1.4,0.7,2.5,2.2,2.5c1,0,1.7-0.5,2-1.5h0.8c-0.4,1.2-1.1,2.2-2.8,2.2c-2.1,0-3-1.5-3-3.4
		c0-1.9,1.1-3.4,3-3.4c1.8,0,2.8,1.3,2.8,3.6H361.3z M365.5,81.4c0-1.3-0.7-2.3-2-2.3c-1.3,0-2,1.1-2.2,2.3H365.5z"/>
	<path fill="#1D2554" d="M372.8,76.1h0.7v9h-0.7v-1.1h0c-0.4,0.8-1.4,1.3-2.2,1.3c-2.1,0-2.9-1.5-2.9-3.4c0-1.8,0.9-3.4,2.9-3.4
		c0.9,0,1.8,0.4,2.3,1.2V76.1z M370.6,79.1c-1.5,0-2.3,1.3-2.2,2.9c0,1.6,0.9,2.5,2.2,2.5c1.4,0,2.2-1.2,2.2-2.7
		C372.8,80.4,371.9,79.1,370.6,79.1z"/>
	<path fill="#1D2554" d="M157.7,97.3c0.1,1.6,1.2,2.2,2.6,2.2c1.6,0,2.3-0.9,2.3-1.9c0-2.8-5.5-0.9-5.5-4.5c0-1.2,1-2.4,3-2.4
		c2,0,3,1.2,3,2.7h-0.8c0-1.4-1.1-2-2.2-2c-1.7,0-2.3,1.1-2.2,2c0.4,2.3,5.5,0.6,5.5,4.1c0,1.6-1.2,2.6-3.3,2.6
		c-1.9,0-3.2-1-3.2-2.9H157.7z"/>
	<path fill="#1D2554" d="M167.1,100c-0.2,0-0.5,0.1-0.9,0.1c-0.7,0-1.1-0.3-1.1-1.3v-4.7h-0.9v-0.6h0.9v-1.8h0.7v1.8h1.2v0.6h-1.2
		v4.4c0,0.6,0,0.9,0.6,0.9c0.2,0,0.4,0,0.6-0.1V100z"/>
	<path fill="#1D2554" d="M171.2,96.2c0.3,0,0.7-0.1,1-0.2c0.2-0.1,0.3-0.4,0.3-0.7c0-0.8-0.4-1.3-1.6-1.3c-1,0-1.7,0.3-1.9,1.5h-0.8
		c0.1-1.5,1.2-2.1,2.6-2.1c1.3,0,2.3,0.5,2.3,2v3.5c0,0.6,0.1,0.7,0.8,0.5v0.6c-0.1,0-0.4,0.1-0.6,0.1c-0.1,0-0.2,0-0.3,0
		c-0.5-0.1-0.6-0.5-0.6-1c-0.6,0.7-1.5,1.1-2.4,1.1c-1.1,0-2.2-0.6-2.2-1.9c0-1.1,0.7-1.7,2.3-1.9L171.2,96.2z M172.5,96.6
		c-0.6,0.3-1.3,0.3-1.9,0.4c-1.1,0.1-1.8,0.5-1.8,1.4c0,0.8,0.7,1.2,1.4,1.2c1.2,0,2.4-0.6,2.4-1.9V96.6z"/>
	<path fill="#1D2554" d="M177.4,100c-0.2,0-0.5,0.1-0.9,0.1c-0.7,0-1.1-0.3-1.1-1.3v-4.7h-0.9v-0.6h0.9v-1.8h0.7v1.8h1.2v0.6h-1.2
		v4.4c0,0.6,0,0.9,0.6,0.9c0.2,0,0.4,0,0.6-0.1V100z"/>
	<path fill="#1D2554" d="M179.1,97c0,1.4,0.7,2.5,2.2,2.5c1,0,1.7-0.5,2-1.5h0.8c-0.4,1.2-1.1,2.2-2.8,2.2c-2.1,0-3-1.5-3-3.4
		c0-1.9,1.1-3.4,3-3.4c1.8,0,2.8,1.3,2.8,3.6H179.1z M183.3,96.3c0-1.3-0.7-2.3-2-2.3c-1.3,0-2,1.1-2.2,2.3H183.3z"/>
	<path fill="#1D2554" d="M186,98c0.2,1.1,0.8,1.5,1.9,1.5c1.1,0,1.6-0.6,1.6-1.2c0-1.9-4.1-0.5-4.1-3.1c0-1.1,0.8-1.8,2.3-1.8
		c1.4,0,2.3,0.6,2.5,2h-0.8c-0.1-1-0.8-1.4-1.7-1.4c-0.9,0-1.5,0.4-1.5,1.1c0,1.8,4.1,0.7,4.1,3.1c0,1.2-1.1,1.9-2.6,1.9
		s-2.4-1-2.4-2.2H186z"/>
	<path fill="#1D2554" d="M195.3,100v-9h3.3c2.3,0,2.9,1.2,2.9,2.5c0,2-1.8,2.5-3.4,2.5h-1.9v4H195.3z M198.1,95.3
		c1.6,0,2.6-0.3,2.6-1.8c0-1.1-0.7-1.7-2.3-1.7h-2.2v3.6H198.1z"/>
	<path fill="#1D2554" d="M205.8,96.2c0.3,0,0.7-0.1,1-0.2c0.2-0.1,0.3-0.4,0.3-0.7c0-0.8-0.4-1.3-1.6-1.3c-1,0-1.7,0.3-1.9,1.5h-0.8
		c0.1-1.5,1.2-2.1,2.6-2.1c1.3,0,2.3,0.5,2.3,2v3.5c0,0.6,0.1,0.7,0.8,0.5v0.6c-0.1,0-0.4,0.1-0.6,0.1c-0.1,0-0.2,0-0.3,0
		c-0.5-0.1-0.6-0.5-0.6-1c-0.6,0.7-1.5,1.1-2.4,1.1c-1.1,0-2.2-0.6-2.2-1.9c0-1.1,0.7-1.7,2.3-1.9L205.8,96.2z M207,96.6
		c-0.6,0.3-1.3,0.3-1.9,0.4c-1.1,0.1-1.8,0.5-1.8,1.4c0,0.8,0.7,1.2,1.4,1.2c1.2,0,2.4-0.6,2.4-1.9V96.6z"/>
	<path fill="#1D2554" d="M210.5,100h-0.7v-6.4h0.7v1.2h0c0.4-1,1-1.4,2.1-1.4v0.8c-1.7,0-2.1,1.2-2.1,2.6V100z"/>
	<path fill="#1D2554" d="M216.4,100c-0.2,0-0.5,0.1-0.9,0.1c-0.7,0-1.1-0.3-1.1-1.3v-4.7h-0.9v-0.6h0.9v-1.8h0.7v1.8h1.2v0.6h-1.2
		v4.4c0,0.6,0,0.9,0.6,0.9c0.2,0,0.4,0,0.6-0.1V100z"/>
	<path fill="#1D2554" d="M217.6,92.2V91h0.8v1.1H217.6z M217.7,100v-6.4h0.7v6.4H217.7z"/>
	<path fill="#1D2554" d="M224.9,95.6c-0.3-1-0.9-1.5-1.9-1.5c-1.5,0-2.2,1.4-2.2,2.7c0,1.4,0.6,2.7,2.2,2.7c1.1,0,1.8-0.7,2-1.7h0.8
		c-0.3,1.4-1.2,2.4-2.8,2.4c-2.1,0-3-1.5-3-3.4c0-1.8,1-3.4,3-3.4c1.5,0,2.5,0.7,2.7,2.2H224.9z"/>
	<path fill="#1D2554" d="M227.3,92.2V91h0.8v1.1H227.3z M227.3,100v-6.4h0.7v6.4H227.3z"/>
	<path fill="#1D2554" d="M230.8,102.5h-0.7v-9h0.7v1.1h0c0.4-0.8,1.4-1.3,2.2-1.3c2.1,0,2.9,1.5,2.9,3.4c0,1.8-0.9,3.4-2.9,3.4
		c-0.9,0-1.8-0.4-2.3-1.2V102.5z M233,99.5c1.5,0,2.3-1.3,2.2-2.9c0-1.6-0.9-2.5-2.2-2.5c-1.4,0-2.2,1.2-2.2,2.7
		C230.8,98.3,231.6,99.5,233,99.5z"/>
	<path fill="#1D2554" d="M240.5,96.2c0.3,0,0.7-0.1,1-0.2c0.2-0.1,0.3-0.4,0.3-0.7c0-0.8-0.4-1.3-1.6-1.3c-1,0-1.7,0.3-1.9,1.5h-0.8
		c0.1-1.5,1.2-2.1,2.6-2.1c1.3,0,2.3,0.5,2.3,2v3.5c0,0.6,0.1,0.7,0.8,0.5v0.6c-0.1,0-0.4,0.1-0.6,0.1c-0.1,0-0.2,0-0.3,0
		c-0.5-0.1-0.6-0.5-0.6-1c-0.6,0.7-1.5,1.1-2.4,1.1c-1.1,0-2.2-0.6-2.2-1.9c0-1.1,0.7-1.7,2.3-1.9L240.5,96.2z M241.8,96.6
		c-0.6,0.3-1.3,0.3-1.9,0.4c-1.1,0.1-1.8,0.5-1.8,1.4c0,0.8,0.7,1.2,1.4,1.2c1.2,0,2.4-0.6,2.4-1.9V96.6z"/>
	<path fill="#1D2554" d="M246.8,100c-0.2,0-0.5,0.1-0.9,0.1c-0.7,0-1.1-0.3-1.1-1.3v-4.7h-0.9v-0.6h0.9v-1.8h0.7v1.8h1.2v0.6h-1.2
		v4.4c0,0.6,0,0.9,0.6,0.9c0.2,0,0.4,0,0.6-0.1V100z"/>
	<path fill="#1D2554" d="M248.4,97c0,1.4,0.7,2.5,2.2,2.5c1,0,1.7-0.5,2-1.5h0.8c-0.4,1.2-1.1,2.2-2.8,2.2c-2.1,0-3-1.5-3-3.4
		c0-1.9,1.1-3.4,3-3.4c1.8,0,2.8,1.3,2.8,3.6H248.4z M252.6,96.3c0-1.3-0.7-2.3-2-2.3c-1.3,0-2,1.1-2.2,2.3H252.6z"/>
	<path fill="#1D2554" d="M258.4,92.2V91h0.8v1.1H258.4z M258.4,100v-6.4h0.7v6.4H258.4z"/>
	<path fill="#1D2554" d="M261.8,100h-0.7v-6.4h0.7v0.9c0.6-0.6,1.2-1.1,2.1-1.1c0.8,0,1.5,0.2,2,0.9c0.3,0.5,0.3,0.9,0.3,1.5v4.2
		h-0.7v-4.2c0-1.2-0.5-1.7-1.7-1.7c-0.9,0-1.6,0.6-1.8,1.3c-0.1,0.4-0.2,0.8-0.2,1.2V100z"/>
	<path fill="#1D2554" d="M274.3,95.4L277,91h1l-3.2,5v3.9h-0.8v-3.8l-3.2-5.1h1L274.3,95.4z"/>
	<path fill="#1D2554" d="M277.5,96.8c0-1.9,1-3.4,3-3.4c2,0,3,1.5,3,3.4c0,2-1.2,3.4-3,3.4C278.8,100.2,277.5,99,277.5,96.8z
		 M280.5,94.1c-1.6,0-2.2,1.3-2.2,2.7c0,1.6,0.8,2.7,2.2,2.7c1.6,0,2.2-1.3,2.2-2.7C282.7,95.3,282.1,94.1,280.5,94.1z"/>
	<path fill="#1D2554" d="M289.2,93.6h0.7v6.4h-0.7v-0.9c-0.4,0.4-0.9,1.1-2.1,1.1c-1.7,0-2.3-1-2.3-2.4v-4.2h0.7v4.2
		c0,1.1,0.5,1.7,1.7,1.7c1.2,0,2-1,2-2.4V93.6z"/>
	<path fill="#1D2554" d="M294,100c-0.2,0-0.5,0.1-0.9,0.1c-0.7,0-1.1-0.3-1.1-1.3v-4.7h-0.9v-0.6h0.9v-1.8h0.7v1.8h1.2v0.6h-1.2v4.4
		c0,0.6,0,0.9,0.6,0.9c0.2,0,0.4,0,0.6-0.1V100z"/>
	<path fill="#1D2554" d="M295.2,100v-9h0.7v3.4c0.6-0.6,1.2-1.1,2.1-1.1c0.8,0,1.5,0.2,2,0.9c0.3,0.5,0.3,0.9,0.3,1.5v4.2h-0.7v-4.2
		c0-1.2-0.5-1.7-1.7-1.7c-0.9,0-1.6,0.6-1.8,1.3c-0.1,0.4-0.2,0.8-0.2,1.2v3.5H295.2z"/>
	<path fill="#1D2554" d="M306,97.3c0.1,1.6,1.2,2.2,2.6,2.2c1.6,0,2.3-0.9,2.3-1.9c0-2.8-5.5-0.9-5.5-4.5c0-1.2,1-2.4,3-2.4
		c2,0,3,1.2,3,2.7h-0.8c0-1.4-1.1-2-2.2-2c-1.7,0-2.3,1.1-2.2,2c0.4,2.3,5.5,0.6,5.5,4.1c0,1.6-1.2,2.6-3.3,2.6
		c-1.9,0-3.2-1-3.2-2.9H306z"/>
	<path fill="#1D2554" d="M314,102.5h-0.7v-9h0.7v1.1h0c0.4-0.8,1.4-1.3,2.2-1.3c2.1,0,2.9,1.5,2.9,3.4c0,1.8-0.9,3.4-2.9,3.4
		c-0.9,0-1.8-0.4-2.3-1.2V102.5z M316.2,99.5c1.5,0,2.3-1.3,2.2-2.9c0-1.6-0.9-2.5-2.2-2.5c-1.4,0-2.2,1.2-2.2,2.7
		C314,98.3,314.8,99.5,316.2,99.5z"/>
	<path fill="#1D2554" d="M320.3,96.8c0-1.9,1-3.4,3-3.4c2,0,3,1.5,3,3.4c0,2-1.2,3.4-3,3.4C321.7,100.2,320.3,99,320.3,96.8z
		 M323.3,94.1c-1.6,0-2.2,1.3-2.2,2.7c0,1.6,0.8,2.7,2.2,2.7c1.6,0,2.2-1.3,2.2-2.7C325.5,95.3,324.9,94.1,323.3,94.1z"/>
	<path fill="#1D2554" d="M328.5,100h-0.7v-6.4h0.7v1.2h0c0.4-1,1-1.4,2.1-1.4v0.8c-1.7,0-2.1,1.2-2.1,2.6V100z"/>
	<path fill="#1D2554" d="M334.3,100c-0.2,0-0.5,0.1-0.9,0.1c-0.7,0-1.1-0.3-1.1-1.3v-4.7h-0.9v-0.6h0.9v-1.8h0.7v1.8h1.2v0.6h-1.2
		v4.4c0,0.6,0,0.9,0.6,0.9c0.2,0,0.4,0,0.6-0.1V100z"/>
	<path fill="#1D2554" d="M335.9,98c0.2,1.1,0.8,1.5,1.9,1.5c1.1,0,1.6-0.6,1.6-1.2c0-1.9-4.1-0.5-4.1-3.1c0-1.1,0.8-1.8,2.3-1.8
		c1.4,0,2.3,0.6,2.5,2h-0.8c-0.1-1-0.8-1.4-1.7-1.4c-0.9,0-1.5,0.4-1.5,1.1c0,1.8,4.1,0.7,4.1,3.1c0,1.2-1.1,1.9-2.6,1.9
		c-1.5,0-2.4-1-2.4-2.2H335.9z"/>
	<path fill="#1D2554" d="M344.5,100l3.5-9h1l3.4,9h-0.9l-1-2.8h-4.1l-1.1,2.8H344.5z M346.7,96.5h3.5l-1.8-4.7L346.7,96.5z"/>
	<path fill="#1D2554" d="M358,95.6c-0.3-1-0.9-1.5-1.9-1.5c-1.5,0-2.2,1.4-2.2,2.7c0,1.4,0.6,2.7,2.2,2.7c1.1,0,1.8-0.7,2-1.7h0.8
		c-0.3,1.4-1.2,2.4-2.8,2.4c-2.1,0-3-1.5-3-3.4c0-1.8,1-3.4,3-3.4c1.5,0,2.5,0.7,2.7,2.2H358z"/>
	<path fill="#1D2554" d="M362.7,100c-0.2,0-0.5,0.1-0.9,0.1c-0.7,0-1.1-0.3-1.1-1.3v-4.7h-0.9v-0.6h0.9v-1.8h0.7v1.8h1.2v0.6h-1.2
		v4.4c0,0.6,0,0.9,0.6,0.9c0.2,0,0.4,0,0.6-0.1V100z"/>
	<path fill="#1D2554" d="M363.9,92.2V91h0.8v1.1H363.9z M364,100v-6.4h0.7v6.4H364z"/>
	<path fill="#1D2554" d="M365.9,93.6h0.8l2.1,5.5l2.1-5.5h0.8l-2.5,6.4h-0.8L365.9,93.6z"/>
	<path fill="#1D2554" d="M372.9,92.2V91h0.8v1.1H372.9z M372.9,100v-6.4h0.7v6.4H372.9z"/>
	<path fill="#1D2554" d="M377.9,100c-0.2,0-0.5,0.1-0.9,0.1c-0.7,0-1.1-0.3-1.1-1.3v-4.7h-0.9v-0.6h0.9v-1.8h0.7v1.8h1.2v0.6h-1.2
		v4.4c0,0.6,0,0.9,0.6,0.9c0.2,0,0.4,0,0.6-0.1V100z"/>
	<path fill="#1D2554" d="M379.1,92.2V91h0.8v1.1H379.1z M379.2,100v-6.4h0.7v6.4H379.2z"/>
	<path fill="#1D2554" d="M382.3,97c0,1.4,0.7,2.5,2.2,2.5c1,0,1.7-0.5,2-1.5h0.8c-0.4,1.2-1.1,2.2-2.8,2.2c-2.1,0-3-1.5-3-3.4
		c0-1.9,1.1-3.4,3-3.4c1.8,0,2.8,1.3,2.8,3.6H382.3z M386.5,96.3c0-1.3-0.7-2.3-2-2.3c-1.3,0-2,1.1-2.2,2.3H386.5z"/>
	<path fill="#1D2554" d="M389.2,98c0.2,1.1,0.8,1.5,1.9,1.5c1.1,0,1.6-0.6,1.6-1.2c0-1.9-4.1-0.5-4.1-3.1c0-1.1,0.8-1.8,2.3-1.8
		c1.4,0,2.3,0.6,2.5,2h-0.8c-0.1-1-0.8-1.4-1.7-1.4c-0.9,0-1.5,0.4-1.5,1.1c0,1.8,4.1,0.7,4.1,3.1c0,1.2-1.1,1.9-2.6,1.9
		c-1.5,0-2.4-1-2.4-2.2H389.2z"/>
	<path fill="#1D2554" d="M395.3,100v-1.1h0.9v1.1H395.3z"/>
</g>
<g>
</g>
<g>
</g>
<g>
</g>
<g>
</g>
<g>
</g>
<g>
</g>
</svg>
