<?xml version="1.0" encoding="utf-8"?>
<!-- Generator: Adobe Illustrator 19.1.0, SVG Export Plug-In . SVG Version: 6.00 Build 0)  -->
<svg version="1.1" id="Layer_1" xmlns="http://www.w3.org/2000/svg" xmlns:xlink="http://www.w3.org/1999/xlink" x="0px" y="0px"
	 width="284.3px" height="130px" viewBox="0 0 284.3 130" enable-background="new 0 0 284.3 130" xml:space="preserve">
<g>
	<g>
		<path fill="#1D2554" d="M44.3,82.2c-0.3-1.5-1.3-2.1-2.8-2.1c-2.2,0-3.1,1.9-3.1,4c0,2,0.7,4,3.2,4c1.5,0,2.5-1,2.8-2.5h0.9
			c-0.4,1.7-1.5,3.2-3.9,3.2c-2.8,0-3.9-2.2-3.9-4.7c0-3.4,1.8-4.7,4.2-4.7c1.8,0,3.2,1,3.5,2.8H44.3z"/>
		<path fill="#1D2554" d="M46.8,88.5v-9h0.7V83c0.6-0.6,1.2-1.1,2.1-1.1c0.8,0,1.5,0.2,2,0.9c0.3,0.5,0.3,0.9,0.3,1.5v4.2h-0.7v-4.2
			c0-1.2-0.5-1.7-1.7-1.7c-0.9,0-1.6,0.6-1.8,1.3c-0.1,0.4-0.2,0.8-0.2,1.2v3.5H46.8z"/>
		<path fill="#1D2554" d="M53.8,80.7v-1.1h0.8v1.1H53.8z M53.8,88.5v-6.4h0.7v6.4H53.8z"/>
		<path fill="#1D2554" d="M56.6,88.5v-9h0.7v9H56.6z"/>
		<path fill="#1D2554" d="M64.2,79.6h0.7v9h-0.7v-1.1h0c-0.4,0.8-1.4,1.3-2.2,1.3c-2.1,0-2.9-1.5-2.9-3.4c0-1.8,0.9-3.4,2.9-3.4
			c0.9,0,1.8,0.4,2.3,1.2V79.6z M62,82.6c-1.5,0-2.3,1.3-2.2,2.9c0,1.6,0.9,2.5,2.2,2.5c1.4,0,2.2-1.2,2.2-2.7
			C64.2,83.8,63.4,82.6,62,82.6z"/>
		<path fill="#1D2554" d="M67.6,88.5h-0.7v-6.4h0.7v1.2h0c0.4-1,1-1.4,2.1-1.4v0.8c-1.7,0-2.1,1.2-2.1,2.6V88.5z"/>
		<path fill="#1D2554" d="M71.2,85.5c0,1.4,0.7,2.5,2.2,2.5c1,0,1.7-0.5,2-1.5h0.8c-0.4,1.2-1.1,2.2-2.8,2.2c-2.1,0-3-1.5-3-3.4
			c0-1.9,1.1-3.4,3-3.4c1.8,0,2.8,1.3,2.8,3.6H71.2z M75.4,84.9c0-1.3-0.7-2.3-2-2.3c-1.3,0-2,1.1-2.2,2.3H75.4z"/>
		<path fill="#1D2554" d="M78.4,88.5h-0.7v-6.4h0.7V83c0.6-0.6,1.2-1.1,2.1-1.1c0.8,0,1.5,0.2,2,0.9c0.3,0.5,0.3,0.9,0.3,1.5v4.2H82
			v-4.2c0-1.2-0.5-1.7-1.7-1.7c-0.9,0-1.6,0.6-1.8,1.3c-0.1,0.4-0.2,0.8-0.2,1.2V88.5z"/>
		<path fill="#1D2554" d="M91,84.8c0.3,0,0.7-0.1,1-0.2c0.2-0.1,0.3-0.4,0.3-0.7c0-0.8-0.4-1.3-1.6-1.3c-1,0-1.7,0.3-1.9,1.5H88
			c0.1-1.5,1.2-2.1,2.6-2.1c1.3,0,2.3,0.5,2.3,2v3.5c0,0.6,0.1,0.7,0.8,0.5v0.6c-0.1,0-0.4,0.1-0.6,0.1c-0.1,0-0.2,0-0.3,0
			c-0.5-0.1-0.6-0.5-0.6-1c-0.6,0.7-1.5,1.1-2.4,1.1c-1.1,0-2.2-0.6-2.2-1.9c0-1.1,0.7-1.7,2.3-1.9L91,84.8z M92.2,85.1
			c-0.6,0.3-1.3,0.3-1.9,0.4c-1.1,0.1-1.8,0.5-1.8,1.4c0,0.8,0.7,1.2,1.4,1.2c1.2,0,2.4-0.6,2.4-1.9V85.1z"/>
		<path fill="#1D2554" d="M95.7,88.5h-0.7v-6.4h0.7V83c0.6-0.6,1.2-1.1,2.1-1.1c0.8,0,1.5,0.2,2,0.9c0.3,0.5,0.3,0.9,0.3,1.5v4.2
			h-0.7v-4.2c0-1.2-0.5-1.7-1.7-1.7c-0.9,0-1.6,0.6-1.8,1.3c-0.1,0.4-0.2,0.8-0.2,1.2V88.5z"/>
		<path fill="#1D2554" d="M106.8,79.6h0.7v9h-0.7v-1.1h0c-0.4,0.8-1.4,1.3-2.2,1.3c-2.1,0-2.9-1.5-2.9-3.4c0-1.8,0.9-3.4,2.9-3.4
			c0.9,0,1.8,0.4,2.3,1.2V79.6z M104.6,82.6c-1.5,0-2.3,1.3-2.2,2.9c0,1.6,0.9,2.5,2.2,2.5c1.4,0,2.2-1.2,2.2-2.7
			C106.8,83.8,106,82.6,104.6,82.6z"/>
		<path fill="#1D2554" d="M115.9,84.8c0.3,0,0.7-0.1,1-0.2c0.2-0.1,0.3-0.4,0.3-0.7c0-0.8-0.4-1.3-1.6-1.3c-1,0-1.7,0.3-1.9,1.5
			h-0.8c0.1-1.5,1.2-2.1,2.6-2.1c1.3,0,2.3,0.5,2.3,2v3.5c0,0.6,0.1,0.7,0.8,0.5v0.6c-0.1,0-0.4,0.1-0.6,0.1c-0.1,0-0.2,0-0.3,0
			c-0.5-0.1-0.6-0.5-0.6-1c-0.6,0.7-1.5,1.1-2.4,1.1c-1.1,0-2.2-0.6-2.2-1.9c0-1.1,0.7-1.7,2.3-1.9L115.9,84.8z M117.1,85.1
			c-0.6,0.3-1.3,0.3-1.9,0.4c-1.1,0.1-1.8,0.5-1.8,1.4c0,0.8,0.7,1.2,1.4,1.2c1.2,0,2.4-0.6,2.4-1.9V85.1z"/>
		<path fill="#1D2554" d="M124.8,79.6h0.7v9h-0.7v-1.1h0c-0.4,0.8-1.4,1.3-2.2,1.3c-2.1,0-2.9-1.5-2.9-3.4c0-1.8,0.9-3.4,2.9-3.4
			c0.9,0,1.8,0.4,2.3,1.2V79.6z M122.6,82.6c-1.5,0-2.3,1.3-2.2,2.9c0,1.6,0.9,2.5,2.2,2.5c1.4,0,2.2-1.2,2.2-2.7
			C124.8,83.8,124,82.6,122.6,82.6z"/>
		<path fill="#1D2554" d="M127,85.3c0-1.9,1-3.4,3-3.4c2,0,3,1.5,3,3.4c0,2-1.2,3.4-3,3.4C128.3,88.7,127,87.6,127,85.3z M130,82.6
			c-1.6,0-2.2,1.3-2.2,2.7c0,1.6,0.8,2.7,2.2,2.7c1.6,0,2.2-1.3,2.2-2.7C132.2,83.8,131.6,82.6,130,82.6z"/>
		<path fill="#1D2554" d="M134.4,88.5v-9h0.7v9H134.4z"/>
		<path fill="#1D2554" d="M137.6,85.5c0,1.4,0.7,2.5,2.2,2.5c1,0,1.7-0.5,2-1.5h0.8c-0.4,1.2-1.1,2.2-2.8,2.2c-2.1,0-3-1.5-3-3.4
			c0-1.9,1.1-3.4,3-3.4c1.8,0,2.8,1.3,2.8,3.6H137.6z M141.8,84.9c0-1.3-0.7-2.3-2-2.3c-1.3,0-2,1.1-2.2,2.3H141.8z"/>
		<path fill="#1D2554" d="M144.4,86.5c0.2,1.1,0.8,1.5,1.9,1.5c1.1,0,1.6-0.6,1.6-1.2c0-1.9-4.1-0.5-4.1-3.1c0-1.1,0.8-1.8,2.3-1.8
			c1.4,0,2.3,0.6,2.5,2h-0.8c-0.1-1-0.8-1.4-1.7-1.4c-0.9,0-1.5,0.4-1.5,1.1c0,1.8,4.1,0.7,4.1,3.1c0,1.2-1.1,1.9-2.6,1.9
			c-1.5,0-2.4-1-2.4-2.2H144.4z"/>
		<path fill="#1D2554" d="M154.8,84.1c-0.3-1-0.9-1.5-1.9-1.5c-1.5,0-2.2,1.4-2.2,2.7c0,1.4,0.6,2.7,2.2,2.7c1.1,0,1.8-0.7,2-1.7
			h0.8c-0.3,1.4-1.2,2.4-2.8,2.4c-2.1,0-3-1.5-3-3.4c0-1.8,1-3.4,3-3.4c1.5,0,2.5,0.7,2.7,2.2H154.8z"/>
		<path fill="#1D2554" d="M157.6,85.5c0,1.4,0.7,2.5,2.2,2.5c1,0,1.7-0.5,2-1.5h0.8c-0.4,1.2-1.1,2.2-2.8,2.2c-2.1,0-3-1.5-3-3.4
			c0-1.9,1.1-3.4,3-3.4c1.8,0,2.8,1.3,2.8,3.6H157.6z M161.8,84.9c0-1.3-0.7-2.3-2-2.3c-1.3,0-2,1.1-2.2,2.3H161.8z"/>
		<path fill="#1D2554" d="M164.8,88.5h-0.7v-6.4h0.7V83c0.6-0.6,1.2-1.1,2.1-1.1c0.8,0,1.5,0.2,2,0.9c0.3,0.5,0.3,0.9,0.3,1.5v4.2
			h-0.7v-4.2c0-1.2-0.5-1.7-1.7-1.7c-0.9,0-1.6,0.6-1.8,1.3c-0.1,0.4-0.2,0.8-0.2,1.2V88.5z"/>
		<path fill="#1D2554" d="M173.2,88.6c-0.2,0-0.5,0.1-0.9,0.1c-0.7,0-1.1-0.3-1.1-1.3v-4.7h-0.9v-0.6h0.9v-1.8h0.7v1.8h1.2v0.6H172
			v4.4c0,0.6,0,0.9,0.6,0.9c0.2,0,0.4,0,0.6-0.1V88.6z"/>
		<path fill="#1D2554" d="M174.9,86.5c0.2,1.1,0.8,1.5,1.9,1.5c1.1,0,1.6-0.6,1.6-1.2c0-1.9-4.1-0.5-4.1-3.1c0-1.1,0.8-1.8,2.3-1.8
			c1.4,0,2.3,0.6,2.5,2h-0.8c-0.1-1-0.8-1.4-1.7-1.4c-0.9,0-1.5,0.4-1.5,1.1c0,1.8,4.1,0.7,4.1,3.1c0,1.2-1.1,1.9-2.6,1.9
			c-1.5,0-2.4-1-2.4-2.2H174.9z"/>
		<path fill="#1D2554" d="M187.1,84.8c0.3,0,0.7-0.1,1-0.2c0.2-0.1,0.3-0.4,0.3-0.7c0-0.8-0.4-1.3-1.6-1.3c-1,0-1.7,0.3-1.9,1.5
			h-0.8c0.1-1.5,1.2-2.1,2.6-2.1c1.3,0,2.3,0.5,2.3,2v3.5c0,0.6,0.1,0.7,0.8,0.5v0.6c-0.1,0-0.4,0.1-0.6,0.1c-0.1,0-0.2,0-0.3,0
			c-0.5-0.1-0.6-0.5-0.6-1c-0.6,0.7-1.5,1.1-2.4,1.1c-1.1,0-2.2-0.6-2.2-1.9c0-1.1,0.7-1.7,2.3-1.9L187.1,84.8z M188.3,85.1
			c-0.6,0.3-1.3,0.3-1.9,0.4c-1.1,0.1-1.8,0.5-1.8,1.4c0,0.8,0.7,1.2,1.4,1.2c1.2,0,2.4-0.6,2.4-1.9V85.1z"/>
		<path fill="#1D2554" d="M196,82.1h0.7v5.8c0,1.7-0.6,3.3-3,3.3c-1.9,0-2.7-1.1-2.7-1.9h0.8c0.2,1,1,1.2,1.9,1.2c2,0,2.3-1.5,2.3-3
			c-0.5,0.8-1.4,1.2-2.3,1.2c-2,0-2.9-1.6-2.9-3.4c0-1.9,0.8-3.4,2.9-3.4c0.8,0,1.8,0.5,2.2,1.3h0V82.1z M193.8,82.6
			c-1.3,0-2.2,0.9-2.2,2.5c-0.1,1.6,0.7,2.9,2.2,2.9c1.4,0,2.2-1.2,2.2-2.7C196,83.8,195.2,82.6,193.8,82.6z"/>
		<path fill="#1D2554" d="M199.1,85.5c0,1.4,0.7,2.5,2.2,2.5c1,0,1.7-0.5,2-1.5h0.8c-0.4,1.2-1.1,2.2-2.8,2.2c-2.1,0-3-1.5-3-3.4
			c0-1.9,1.1-3.4,3-3.4c1.8,0,2.8,1.3,2.8,3.6H199.1z M203.3,84.9c0-1.3-0.7-2.3-2-2.3c-1.3,0-2,1.1-2.2,2.3H203.3z"/>
		<path fill="#1D2554" d="M206,86.5c0.2,1.1,0.8,1.5,1.9,1.5c1.1,0,1.6-0.6,1.6-1.2c0-1.9-4.1-0.5-4.1-3.1c0-1.1,0.8-1.8,2.3-1.8
			c1.4,0,2.3,0.6,2.5,2h-0.8c-0.1-1-0.8-1.4-1.7-1.4c-0.9,0-1.5,0.4-1.5,1.1c0,1.8,4.1,0.7,4.1,3.1c0,1.2-1.1,1.9-2.6,1.9
			c-1.5,0-2.4-1-2.4-2.2H206z"/>
		<path fill="#1D2554" d="M218.1,82h-2.3v-0.5c1.3-0.1,2.2-0.2,2.4-1.7h0.6v8.8h-0.8V82z"/>
		<path fill="#1D2554" d="M225.7,86.4h-4v-0.7l4.1-5.8h0.7v5.8h1.2v0.7h-1.2v2.2h-0.8V86.4z M222.5,85.7h3.2V81L222.5,85.7z"/>
		<path fill="#1D2554" d="M235.5,84.8c0.3,0,0.7-0.1,1-0.2c0.2-0.1,0.3-0.4,0.3-0.7c0-0.8-0.4-1.3-1.6-1.3c-1,0-1.7,0.3-1.9,1.5
			h-0.8c0.1-1.5,1.2-2.1,2.6-2.1c1.3,0,2.3,0.5,2.3,2v3.5c0,0.6,0.1,0.7,0.8,0.5v0.6c-0.1,0-0.4,0.1-0.6,0.1c-0.1,0-0.2,0-0.3,0
			c-0.5-0.1-0.6-0.5-0.6-1c-0.6,0.7-1.5,1.1-2.4,1.1c-1.1,0-2.2-0.6-2.2-1.9c0-1.1,0.7-1.7,2.3-1.9L235.5,84.8z M236.7,85.1
			c-0.6,0.3-1.3,0.3-1.9,0.4c-1.1,0.1-1.8,0.5-1.8,1.4c0,0.8,0.7,1.2,1.4,1.2c1.2,0,2.4-0.6,2.4-1.9V85.1z"/>
		<path fill="#1D2554" d="M240.2,88.5h-0.7v-6.4h0.7V83c0.6-0.6,1.2-1.1,2.1-1.1c0.8,0,1.5,0.2,2,0.9c0.3,0.5,0.3,0.9,0.3,1.5v4.2
			h-0.7v-4.2c0-1.2-0.5-1.7-1.7-1.7c-0.9,0-1.6,0.6-1.8,1.3c-0.1,0.4-0.2,0.8-0.2,1.2V88.5z"/>
		<path fill="#1D2554" d="M251.3,79.6h0.7v9h-0.7v-1.1h0c-0.4,0.8-1.4,1.3-2.2,1.3c-2.1,0-2.9-1.5-2.9-3.4c0-1.8,0.9-3.4,2.9-3.4
			c0.9,0,1.8,0.4,2.3,1.2V79.6z M249.1,82.6c-1.5,0-2.3,1.3-2.2,2.9c0,1.6,0.9,2.5,2.2,2.5c1.4,0,2.2-1.2,2.2-2.7
			C251.3,83.8,250.5,82.6,249.1,82.6z"/>
		<path fill="#1D2554" d="M42.2,97h0.7v6.4h-0.7v-0.9c-0.4,0.4-0.9,1.1-2.1,1.1c-1.7,0-2.3-1-2.3-2.4V97h0.7v4.2
			c0,1.1,0.5,1.7,1.7,1.7c1.2,0,2-1,2-2.4V97z"/>
		<path fill="#1D2554" d="M45.5,103.5h-0.7V97h0.7v0.9c0.6-0.6,1.2-1.1,2.1-1.1c0.8,0,1.5,0.2,2,0.9c0.3,0.5,0.3,0.9,0.3,1.5v4.2
			h-0.7v-4.2c0-1.2-0.5-1.7-1.7-1.7c-0.9,0-1.6,0.6-1.8,1.3c-0.1,0.4-0.2,0.8-0.2,1.2V103.5z"/>
		<path fill="#1D2554" d="M56.6,94.5h0.7v9h-0.7v-1.1h0c-0.4,0.8-1.4,1.3-2.2,1.3c-2.1,0-2.9-1.5-2.9-3.4c0-1.8,0.9-3.4,2.9-3.4
			c0.9,0,1.8,0.4,2.3,1.2V94.5z M54.4,97.5c-1.5,0-2.3,1.3-2.2,2.9c0,1.6,0.9,2.5,2.2,2.5c1.4,0,2.2-1.2,2.2-2.7
			C56.6,98.7,55.8,97.5,54.4,97.5z"/>
		<path fill="#1D2554" d="M59.7,100.4c0,1.4,0.7,2.5,2.2,2.5c1,0,1.7-0.5,2-1.5h0.8c-0.4,1.2-1.1,2.2-2.8,2.2c-2.1,0-3-1.5-3-3.4
			c0-1.9,1.1-3.4,3-3.4c1.8,0,2.8,1.3,2.8,3.6H59.7z M63.9,99.8c0-1.3-0.7-2.3-2-2.3c-1.3,0-2,1.1-2.2,2.3H63.9z"/>
		<path fill="#1D2554" d="M66.9,103.5h-0.7V97h0.7v1.2h0c0.4-1,1-1.4,2.1-1.4v0.8c-1.7,0-2.1,1.2-2.1,2.6V103.5z"/>
		<path fill="#1D2554" d="M76.7,99.7c0.3,0,0.7-0.1,1-0.2c0.2-0.1,0.3-0.4,0.3-0.7c0-0.8-0.4-1.3-1.6-1.3c-1,0-1.7,0.3-1.9,1.5h-0.8
			c0.1-1.5,1.2-2.1,2.6-2.1c1.3,0,2.3,0.5,2.3,2v3.5c0,0.6,0.1,0.7,0.8,0.5v0.6c-0.1,0-0.4,0.1-0.6,0.1c-0.1,0-0.2,0-0.3,0
			c-0.5-0.1-0.6-0.5-0.6-1c-0.6,0.7-1.5,1.1-2.4,1.1c-1.1,0-2.2-0.6-2.2-1.9c0-1.1,0.7-1.7,2.3-1.9L76.7,99.7z M78,100.1
			c-0.6,0.3-1.3,0.3-1.9,0.4c-1.1,0.1-1.8,0.5-1.8,1.4c0,0.8,0.7,1.2,1.4,1.2c1.2,0,2.4-0.6,2.4-1.9V100.1z"/>
		<path fill="#1D2554" d="M81.4,103.5h-0.7V97h0.7v1.2h0c0.4-1,1-1.4,2.1-1.4v0.8c-1.7,0-2.1,1.2-2.1,2.6V103.5z"/>
		<path fill="#1D2554" d="M85,100.4c0,1.4,0.7,2.5,2.2,2.5c1,0,1.7-0.5,2-1.5H90c-0.4,1.2-1.1,2.2-2.8,2.2c-2.1,0-3-1.5-3-3.4
			c0-1.9,1.1-3.4,3-3.4c1.8,0,2.8,1.3,2.8,3.6H85z M89.2,99.8c0-1.3-0.7-2.3-2-2.3c-1.3,0-2,1.1-2.2,2.3H89.2z"/>
		<path fill="#1D2554" d="M97.2,103.5c-0.2,0-0.5,0.1-0.9,0.1c-0.7,0-1.1-0.3-1.1-1.3v-4.7h-0.9V97h0.9v-1.8H96V97h1.2v0.6H96v4.4
			c0,0.6,0,0.9,0.6,0.9c0.2,0,0.4,0,0.6-0.1V103.5z"/>
		<path fill="#1D2554" d="M99.2,103.5h-0.7V97h0.7v1.2h0c0.4-1,1-1.4,2.1-1.4v0.8c-1.7,0-2.1,1.2-2.1,2.6V103.5z"/>
		<path fill="#1D2554" d="M102.8,100.4c0,1.4,0.7,2.5,2.2,2.5c1,0,1.7-0.5,2-1.5h0.8c-0.4,1.2-1.1,2.2-2.8,2.2c-2.1,0-3-1.5-3-3.4
			c0-1.9,1.1-3.4,3-3.4c1.8,0,2.8,1.3,2.8,3.6H102.8z M107,99.8c0-1.3-0.7-2.3-2-2.3c-1.3,0-2,1.1-2.2,2.3H107z"/>
		<path fill="#1D2554" d="M112.2,99.7c0.3,0,0.7-0.1,1-0.2c0.2-0.1,0.3-0.4,0.3-0.7c0-0.8-0.4-1.3-1.6-1.3c-1,0-1.7,0.3-1.9,1.5
			h-0.8c0.1-1.5,1.2-2.1,2.6-2.1c1.3,0,2.3,0.5,2.3,2v3.5c0,0.6,0.1,0.7,0.8,0.5v0.6c-0.1,0-0.4,0.1-0.6,0.1c-0.1,0-0.2,0-0.3,0
			c-0.5-0.1-0.6-0.5-0.6-1c-0.6,0.7-1.5,1.1-2.4,1.1c-1.1,0-2.2-0.6-2.2-1.9c0-1.1,0.7-1.7,2.3-1.9L112.2,99.7z M113.5,100.1
			c-0.6,0.3-1.3,0.3-1.9,0.4c-1.1,0.1-1.8,0.5-1.8,1.4c0,0.8,0.7,1.2,1.4,1.2c1.2,0,2.4-0.6,2.4-1.9V100.1z"/>
		<path fill="#1D2554" d="M118.4,103.5c-0.2,0-0.5,0.1-0.9,0.1c-0.7,0-1.1-0.3-1.1-1.3v-4.7h-0.9V97h0.9v-1.8h0.7V97h1.2v0.6h-1.2
			v4.4c0,0.6,0,0.9,0.6,0.9c0.2,0,0.4,0,0.6-0.1V103.5z"/>
		<path fill="#1D2554" d="M120.1,100.4c0,1.4,0.7,2.5,2.2,2.5c1,0,1.7-0.5,2-1.5h0.8c-0.4,1.2-1.1,2.2-2.8,2.2c-2.1,0-3-1.5-3-3.4
			c0-1.9,1.1-3.4,3-3.4c1.8,0,2.8,1.3,2.8,3.6H120.1z M124.3,99.8c0-1.3-0.7-2.3-2-2.3c-1.3,0-2,1.1-2.2,2.3H124.3z"/>
		<path fill="#1D2554" d="M131.5,94.5h0.7v9h-0.7v-1.1h0c-0.4,0.8-1.4,1.3-2.2,1.3c-2.1,0-2.9-1.5-2.9-3.4c0-1.8,0.9-3.4,2.9-3.4
			c0.9,0,1.8,0.4,2.3,1.2V94.5z M129.3,97.5c-1.5,0-2.3,1.3-2.2,2.9c0,1.6,0.9,2.5,2.2,2.5c1.4,0,2.2-1.2,2.2-2.7
			C131.5,98.7,130.7,97.5,129.3,97.5z"/>
		<path fill="#1D2554" d="M137.7,95.6v-1.1h0.8v1.1H137.7z M137.7,103.5V97h0.7v6.4H137.7z"/>
		<path fill="#1D2554" d="M141.1,103.5h-0.7V97h0.7v0.9c0.6-0.6,1.2-1.1,2.1-1.1c0.8,0,1.5,0.2,2,0.9c0.3,0.5,0.3,0.9,0.3,1.5v4.2
			h-0.7v-4.2c0-1.2-0.5-1.7-1.7-1.7c-0.9,0-1.6,0.6-1.8,1.3c-0.1,0.4-0.2,0.8-0.2,1.2V103.5z"/>
		<path fill="#1D2554" d="M150.7,103.5v-9h0.7v3.4c0.6-0.6,1.2-1.1,2.1-1.1c0.8,0,1.5,0.2,2,0.9c0.3,0.5,0.3,0.9,0.3,1.5v4.2h-0.7
			v-4.2c0-1.2-0.5-1.7-1.7-1.7c-0.9,0-1.6,0.6-1.8,1.3c-0.1,0.4-0.2,0.8-0.2,1.2v3.5H150.7z"/>
		<path fill="#1D2554" d="M157.2,100.2c0-1.9,1-3.4,3-3.4c2,0,3,1.5,3,3.4c0,2-1.2,3.4-3,3.4C158.5,103.6,157.2,102.5,157.2,100.2z
			 M160.2,97.5c-1.6,0-2.2,1.3-2.2,2.7c0,1.6,0.8,2.7,2.2,2.7c1.6,0,2.2-1.3,2.2-2.7C162.4,98.7,161.8,97.5,160.2,97.5z"/>
		<path fill="#1D2554" d="M165,101.4c0.2,1.1,0.8,1.5,1.9,1.5c1.1,0,1.6-0.6,1.6-1.2c0-1.9-4.1-0.5-4.1-3.1c0-1.1,0.8-1.8,2.3-1.8
			c1.4,0,2.3,0.6,2.5,2h-0.8c-0.1-1-0.8-1.4-1.7-1.4c-0.9,0-1.5,0.4-1.5,1.1c0,1.8,4.1,0.7,4.1,3.1c0,1.2-1.1,1.9-2.6,1.9
			c-1.5,0-2.4-1-2.4-2.2H165z"/>
		<path fill="#1D2554" d="M171.6,106h-0.7v-9h0.7v1.1h0c0.4-0.8,1.4-1.3,2.2-1.3c2.1,0,2.9,1.5,2.9,3.4c0,1.8-0.9,3.4-2.9,3.4
			c-0.9,0-1.8-0.4-2.3-1.2V106z M173.8,103c1.5,0,2.3-1.3,2.2-2.9c0-1.6-0.9-2.5-2.2-2.5c-1.4,0-2.2,1.2-2.2,2.7
			C171.6,101.7,172.4,103,173.8,103z"/>
		<path fill="#1D2554" d="M178.4,95.6v-1.1h0.8v1.1H178.4z M178.5,103.5V97h0.7v6.4H178.5z"/>
		<path fill="#1D2554" d="M183.4,103.5c-0.2,0-0.5,0.1-0.9,0.1c-0.7,0-1.1-0.3-1.1-1.3v-4.7h-0.9V97h0.9v-1.8h0.7V97h1.2v0.6h-1.2
			v4.4c0,0.6,0,0.9,0.6,0.9c0.2,0,0.4,0,0.6-0.1V103.5z"/>
		<path fill="#1D2554" d="M187.5,99.7c0.3,0,0.7-0.1,1-0.2c0.2-0.1,0.3-0.4,0.3-0.7c0-0.8-0.4-1.3-1.6-1.3c-1,0-1.7,0.3-1.9,1.5
			h-0.8c0.1-1.5,1.2-2.1,2.6-2.1c1.3,0,2.3,0.5,2.3,2v3.5c0,0.6,0.1,0.7,0.8,0.5v0.6c-0.1,0-0.4,0.1-0.6,0.1c-0.1,0-0.2,0-0.3,0
			c-0.5-0.1-0.6-0.5-0.6-1c-0.6,0.7-1.5,1.1-2.4,1.1c-1.1,0-2.2-0.6-2.2-1.9c0-1.1,0.7-1.7,2.3-1.9L187.5,99.7z M188.8,100.1
			c-0.6,0.3-1.3,0.3-1.9,0.4c-1.1,0.1-1.8,0.5-1.8,1.4c0,0.8,0.7,1.2,1.4,1.2c1.2,0,2.4-0.6,2.4-1.9V100.1z"/>
		<path fill="#1D2554" d="M191.6,103.5v-9h0.7v9H191.6z"/>
		<path fill="#1D2554" d="M198.2,100.4c0,1.4,0.7,2.5,2.2,2.5c1,0,1.7-0.5,2-1.5h0.8c-0.4,1.2-1.1,2.2-2.8,2.2c-2.1,0-3-1.5-3-3.4
			c0-1.9,1.1-3.4,3-3.4c1.8,0,2.8,1.3,2.8,3.6H198.2z M202.4,99.8c0-1.3-0.7-2.3-2-2.3c-1.3,0-2,1.1-2.2,2.3H202.4z"/>
		<path fill="#1D2554" d="M205.3,103.5h-0.7V97h0.7v1h0c0.4-0.7,1.2-1.1,2-1.1c1.2,0,1.6,0.6,1.9,1.2c0.4-0.8,1.2-1.2,2.1-1.2
			c1.8,0,2,1.3,2,2.5v4.1h-0.7V99c0-0.9-0.3-1.5-1.4-1.5c-0.5,0-1.1,0.2-1.5,0.7c-0.3,0.4-0.4,1.2-0.4,1.7v3.5h-0.7V99
			c0-0.9-0.3-1.5-1.4-1.5c-0.5,0-1.1,0.2-1.5,0.7c-0.3,0.4-0.4,1.2-0.4,1.7V103.5z"/>
		<path fill="#1D2554" d="M215.4,100.4c0,1.4,0.7,2.5,2.2,2.5c1,0,1.7-0.5,2-1.5h0.8c-0.4,1.2-1.1,2.2-2.8,2.2c-2.1,0-3-1.5-3-3.4
			c0-1.9,1.1-3.4,3-3.4c1.8,0,2.8,1.3,2.8,3.6H215.4z M219.6,99.8c0-1.3-0.7-2.3-2-2.3c-1.3,0-2,1.1-2.2,2.3H219.6z"/>
		<path fill="#1D2554" d="M222.7,103.5h-0.7V97h0.7v1.2h0c0.4-1,1-1.4,2.1-1.4v0.8c-1.7,0-2.1,1.2-2.1,2.6V103.5z"/>
		<path fill="#1D2554" d="M231,97h0.7v5.8c0,1.7-0.6,3.3-3,3.3c-1.9,0-2.7-1.1-2.7-1.9h0.8c0.2,1,1,1.2,1.9,1.2c2,0,2.3-1.5,2.3-3
			c-0.5,0.8-1.4,1.2-2.3,1.2c-2,0-2.9-1.6-2.9-3.4c0-1.9,0.8-3.4,2.9-3.4c0.8,0,1.8,0.5,2.2,1.3h0V97z M228.8,97.5
			c-1.3,0-2.2,0.9-2.2,2.5c-0.1,1.6,0.7,2.9,2.2,2.9c1.4,0,2.2-1.2,2.2-2.7C231,98.7,230.2,97.5,228.8,97.5z"/>
		<path fill="#1D2554" d="M234.1,100.4c0,1.4,0.7,2.5,2.2,2.5c1,0,1.7-0.5,2-1.5h0.8c-0.4,1.2-1.1,2.2-2.8,2.2c-2.1,0-3-1.5-3-3.4
			c0-1.9,1.1-3.4,3-3.4c1.8,0,2.8,1.3,2.8,3.6H234.1z M238.3,99.8c0-1.3-0.7-2.3-2-2.3c-1.3,0-2,1.1-2.2,2.3H238.3z"/>
		<path fill="#1D2554" d="M241.3,103.5h-0.7V97h0.7v0.9c0.6-0.6,1.2-1.1,2.1-1.1c0.8,0,1.5,0.2,2,0.9c0.3,0.5,0.3,0.9,0.3,1.5v4.2
			h-0.7v-4.2c0-1.2-0.5-1.7-1.7-1.7c-0.9,0-1.6,0.6-1.8,1.3c-0.1,0.4-0.2,0.8-0.2,1.2V103.5z"/>
		<path fill="#1D2554" d="M252,99c-0.3-1-0.9-1.5-1.9-1.5c-1.5,0-2.2,1.4-2.2,2.7c0,1.4,0.6,2.7,2.2,2.7c1.1,0,1.8-0.7,2-1.7h0.8
			c-0.3,1.4-1.2,2.4-2.8,2.4c-2.1,0-3-1.5-3-3.4c0-1.8,1-3.4,3-3.4c1.5,0,2.5,0.7,2.7,2.2H252z"/>
		<path fill="#1D2554" d="M254.3,105.2c0.2,0,0.4,0.1,0.6,0.1c0.8,0,1-1.2,1.3-1.8l-2.5-6.5h0.8l2.1,5.5l2.1-5.5h0.8l-2.4,6.4
			c-0.6,1.6-1,2.6-2,2.6c-0.3,0-0.5,0-0.7-0.1V105.2z"/>
		<path fill="#1D2554" d="M38.6,118.4h-0.7v-6.4h0.7v1.2h0c0.4-1,1-1.4,2.1-1.4v0.8c-1.7,0-2.1,1.2-2.1,2.6V118.4z"/>
		<path fill="#1D2554" d="M41.3,115.2c0-1.9,1-3.4,3-3.4c2,0,3,1.5,3,3.4c0,2-1.2,3.4-3,3.4C42.6,118.5,41.3,117.4,41.3,115.2z
			 M44.3,112.4c-1.6,0-2.2,1.3-2.2,2.7c0,1.6,0.8,2.7,2.2,2.7c1.6,0,2.2-1.3,2.2-2.7C46.5,113.6,45.9,112.4,44.3,112.4z"/>
		<path fill="#1D2554" d="M48.2,115.2c0-1.9,1-3.4,3-3.4c2,0,3,1.5,3,3.4c0,2-1.2,3.4-3,3.4C49.6,118.5,48.2,117.4,48.2,115.2z
			 M51.2,112.4c-1.6,0-2.2,1.3-2.2,2.7c0,1.6,0.8,2.7,2.2,2.7c1.6,0,2.2-1.3,2.2-2.7C53.4,113.6,52.8,112.4,51.2,112.4z"/>
		<path fill="#1D2554" d="M56.2,118.4h-0.7v-6.4h0.7v1h0c0.4-0.7,1.2-1.1,2-1.1c1.2,0,1.6,0.6,1.9,1.2c0.4-0.8,1.2-1.2,2.1-1.2
			c1.8,0,2,1.3,2,2.5v4.1h-0.7v-4.5c0-0.9-0.3-1.5-1.4-1.5c-0.5,0-1.1,0.2-1.5,0.7c-0.3,0.4-0.4,1.2-0.4,1.7v3.5h-0.7v-4.5
			c0-0.9-0.3-1.5-1.4-1.5c-0.5,0-1.1,0.2-1.5,0.7c-0.3,0.4-0.4,1.2-0.4,1.7V118.4z"/>
		<path fill="#1D2554" d="M66.3,116.4c0.2,1.1,0.8,1.5,1.9,1.5c1.1,0,1.6-0.6,1.6-1.2c0-1.9-4.1-0.5-4.1-3.1c0-1.1,0.8-1.8,2.3-1.8
			c1.4,0,2.3,0.6,2.5,2h-0.8c-0.1-1-0.8-1.4-1.7-1.4c-0.9,0-1.5,0.4-1.5,1.1c0,1.8,4.1,0.7,4.1,3.1c0,1.2-1.1,1.9-2.6,1.9
			c-1.5,0-2.4-1-2.4-2.2H66.3z"/>
		<path fill="#1D2554" d="M74.9,112.6v-0.6h1v-1c0-1,0.4-1.7,1.4-1.7c0.2,0,0.4,0,0.6,0v0.7c-0.1,0-0.3-0.1-0.4-0.1
			c-0.8,0-0.8,0.6-0.8,1.2v0.8h1.2v0.6h-1.2v5.8h-0.7v-5.8H74.9z"/>
		<path fill="#1D2554" d="M78.6,115.2c0-1.9,1-3.4,3-3.4c2,0,3,1.5,3,3.4c0,2-1.2,3.4-3,3.4C80,118.5,78.6,117.4,78.6,115.2z
			 M81.6,112.4c-1.6,0-2.2,1.3-2.2,2.7c0,1.6,0.8,2.7,2.2,2.7c1.6,0,2.2-1.3,2.2-2.7C83.8,113.6,83.2,112.4,81.6,112.4z"/>
		<path fill="#1D2554" d="M86.7,118.4H86v-6.4h0.7v1.2h0c0.4-1,1-1.4,2.1-1.4v0.8c-1.7,0-2.1,1.2-2.1,2.6V118.4z"/>
		<path fill="#1D2554" d="M94,116.4c0.2,1.1,0.8,1.5,1.9,1.5c1.1,0,1.6-0.6,1.6-1.2c0-1.9-4.1-0.5-4.1-3.1c0-1.1,0.8-1.8,2.3-1.8
			c1.4,0,2.3,0.6,2.5,2h-0.8c-0.1-1-0.8-1.4-1.7-1.4c-0.9,0-1.5,0.4-1.5,1.1c0,1.8,4.1,0.7,4.1,3.1c0,1.2-1.1,1.9-2.6,1.9
			c-1.5,0-2.4-1-2.4-2.2H94z"/>
		<path fill="#1D2554" d="M100.6,120.9h-0.7v-9h0.7v1.1h0c0.4-0.8,1.4-1.3,2.2-1.3c2.1,0,2.9,1.5,2.9,3.4c0,1.8-0.9,3.4-2.9,3.4
			c-0.9,0-1.8-0.4-2.3-1.2V120.9z M102.8,117.9c1.5,0,2.3-1.3,2.2-2.9c0-1.6-0.9-2.5-2.2-2.5c-1.4,0-2.2,1.2-2.2,2.7
			C100.6,116.6,101.4,117.9,102.8,117.9z"/>
		<path fill="#1D2554" d="M106.9,115.2c0-1.9,1-3.4,3-3.4c2,0,3,1.5,3,3.4c0,2-1.2,3.4-3,3.4C108.3,118.5,106.9,117.4,106.9,115.2z
			 M109.9,112.4c-1.6,0-2.2,1.3-2.2,2.7c0,1.6,0.8,2.7,2.2,2.7c1.6,0,2.2-1.3,2.2-2.7C112.1,113.6,111.5,112.4,109.9,112.4z"/>
		<path fill="#1D2554" d="M115.1,118.4h-0.7v-6.4h0.7v1.2h0c0.4-1,1-1.4,2.1-1.4v0.8c-1.7,0-2.1,1.2-2.1,2.6V118.4z"/>
		<path fill="#1D2554" d="M120.9,118.4c-0.2,0-0.5,0.1-0.9,0.1c-0.7,0-1.1-0.3-1.1-1.3v-4.7H118v-0.6h0.9v-1.8h0.7v1.8h1.2v0.6h-1.2
			v4.4c0,0.6,0,0.9,0.6,0.9c0.2,0,0.4,0,0.6-0.1V118.4z"/>
		<path fill="#1D2554" d="M122.5,116.4c0.2,1.1,0.8,1.5,1.9,1.5c1.1,0,1.6-0.6,1.6-1.2c0-1.9-4.1-0.5-4.1-3.1c0-1.1,0.8-1.8,2.3-1.8
			c1.4,0,2.3,0.6,2.5,2h-0.8c-0.1-1-0.8-1.4-1.7-1.4c-0.9,0-1.5,0.4-1.5,1.1c0,1.8,4.1,0.7,4.1,3.1c0,1.2-1.1,1.9-2.6,1.9
			c-1.5,0-2.4-1-2.4-2.2H122.5z"/>
		<path fill="#1D2554" d="M129.1,118.4h-0.7v-6.4h0.7v1.2h0c0.4-1,1-1.4,2.1-1.4v0.8c-1.7,0-2.1,1.2-2.1,2.6V118.4z"/>
		<path fill="#1D2554" d="M132.7,115.3c0,1.4,0.7,2.5,2.2,2.5c1,0,1.7-0.5,2-1.5h0.8c-0.4,1.2-1.1,2.2-2.8,2.2c-2.1,0-3-1.5-3-3.4
			c0-1.9,1.1-3.4,3-3.4c1.8,0,2.8,1.3,2.8,3.6H132.7z M136.9,114.7c0-1.3-0.7-2.3-2-2.3c-1.3,0-2,1.1-2.2,2.3H136.9z"/>
		<path fill="#1D2554" d="M139.3,118.4v-9h0.7v9H139.3z"/>
		<path fill="#1D2554" d="M144.9,114.6c0.3,0,0.7-0.1,1-0.2c0.2-0.1,0.3-0.4,0.3-0.7c0-0.8-0.4-1.3-1.6-1.3c-1,0-1.7,0.3-1.9,1.5
			h-0.8c0.1-1.5,1.2-2.1,2.6-2.1c1.3,0,2.3,0.5,2.3,2v3.5c0,0.6,0.1,0.7,0.8,0.5v0.6c-0.1,0-0.4,0.1-0.6,0.1c-0.1,0-0.2,0-0.3,0
			c-0.5-0.1-0.6-0.5-0.6-1c-0.6,0.7-1.5,1.1-2.4,1.1c-1.1,0-2.2-0.6-2.2-1.9c0-1.1,0.7-1.7,2.3-1.9L144.9,114.6z M146.1,115
			c-0.6,0.3-1.3,0.3-1.9,0.4c-1.1,0.1-1.8,0.5-1.8,1.4c0,0.8,0.7,1.2,1.4,1.2c1.2,0,2.4-0.6,2.4-1.9V115z"/>
		<path fill="#1D2554" d="M151.1,118.4c-0.2,0-0.5,0.1-0.9,0.1c-0.7,0-1.1-0.3-1.1-1.3v-4.7h-0.9v-0.6h0.9v-1.8h0.7v1.8h1.2v0.6
			h-1.2v4.4c0,0.6,0,0.9,0.6,0.9c0.2,0,0.4,0,0.6-0.1V118.4z"/>
		<path fill="#1D2554" d="M152.7,115.3c0,1.4,0.7,2.5,2.2,2.5c1,0,1.7-0.5,2-1.5h0.8c-0.4,1.2-1.1,2.2-2.8,2.2c-2.1,0-3-1.5-3-3.4
			c0-1.9,1.1-3.4,3-3.4c1.8,0,2.8,1.3,2.8,3.6H152.7z M157,114.7c0-1.3-0.7-2.3-2-2.3c-1.3,0-2,1.1-2.2,2.3H157z"/>
		<path fill="#1D2554" d="M164.2,109.4h0.7v9h-0.7v-1.1h0c-0.4,0.8-1.4,1.3-2.2,1.3c-2.1,0-2.9-1.5-2.9-3.4c0-1.8,0.9-3.4,2.9-3.4
			c0.9,0,1.8,0.4,2.3,1.2V109.4z M162,112.4c-1.5,0-2.3,1.3-2.2,2.9c0,1.6,0.9,2.5,2.2,2.5c1.4,0,2.2-1.2,2.2-2.7
			C164.2,113.7,163.4,112.4,162,112.4z"/>
		<path fill="#1D2554" d="M170.3,110.5v-1.1h0.8v1.1H170.3z M170.4,118.4v-6.4h0.7v6.4H170.4z"/>
		<path fill="#1D2554" d="M173.8,118.4H173v-6.4h0.7v0.9c0.6-0.6,1.2-1.1,2.1-1.1c0.8,0,1.5,0.2,2,0.9c0.3,0.5,0.3,0.9,0.3,1.5v4.2
			h-0.7v-4.2c0-1.2-0.5-1.7-1.7-1.7c-0.9,0-1.6,0.6-1.8,1.3c-0.1,0.4-0.2,0.8-0.2,1.2V118.4z"/>
		<path fill="#1D2554" d="M180.9,111.9v7.3c0,1.1-0.1,1.7-1.3,1.7c-0.2,0-0.3,0-0.5,0v-0.7c0.9,0.1,1-0.2,1-0.9v-7.4H180.9z
			 M180.9,110.5h-0.8v-1.1h0.8V110.5z"/>
		<path fill="#1D2554" d="M187.1,111.9h0.7v6.4h-0.7v-0.9c-0.4,0.4-0.9,1.1-2.1,1.1c-1.7,0-2.3-1-2.3-2.4v-4.2h0.7v4.2
			c0,1.1,0.5,1.7,1.7,1.7c1.2,0,2-1,2-2.4V111.9z"/>
		<path fill="#1D2554" d="M190.4,118.4h-0.7v-6.4h0.7v1.2h0c0.4-1,1-1.4,2.1-1.4v0.8c-1.7,0-2.1,1.2-2.1,2.6V118.4z"/>
		<path fill="#1D2554" d="M193.8,110.5v-1.1h0.8v1.1H193.8z M193.9,118.4v-6.4h0.7v6.4H193.9z"/>
		<path fill="#1D2554" d="M197,115.3c0,1.4,0.7,2.5,2.2,2.5c1,0,1.7-0.5,2-1.5h0.8c-0.4,1.2-1.1,2.2-2.8,2.2c-2.1,0-3-1.5-3-3.4
			c0-1.9,1.1-3.4,3-3.4c1.8,0,2.8,1.3,2.8,3.6H197z M201.2,114.7c0-1.3-0.7-2.3-2-2.3c-1.3,0-2,1.1-2.2,2.3H201.2z"/>
		<path fill="#1D2554" d="M203.9,116.4c0.2,1.1,0.8,1.5,1.9,1.5c1.1,0,1.6-0.6,1.6-1.2c0-1.9-4.1-0.5-4.1-3.1c0-1.1,0.8-1.8,2.3-1.8
			c1.4,0,2.3,0.6,2.5,2h-0.8c-0.1-1-0.8-1.4-1.7-1.4c-0.9,0-1.5,0.4-1.5,1.1c0,1.8,4.1,0.7,4.1,3.1c0,1.2-1.1,1.9-2.6,1.9
			c-1.5,0-2.4-1-2.4-2.2H203.9z"/>
		<path fill="#1D2554" d="M213.6,115.3c0,1.4,0.7,2.5,2.2,2.5c1,0,1.7-0.5,2-1.5h0.8c-0.4,1.2-1.1,2.2-2.8,2.2c-2.1,0-3-1.5-3-3.4
			c0-1.9,1.1-3.4,3-3.4c1.8,0,2.8,1.3,2.8,3.6H213.6z M217.8,114.7c0-1.3-0.7-2.3-2-2.3c-1.3,0-2,1.1-2.2,2.3H217.8z"/>
		<path fill="#1D2554" d="M223,114.6c0.3,0,0.7-0.1,1-0.2c0.2-0.1,0.3-0.4,0.3-0.7c0-0.8-0.4-1.3-1.6-1.3c-1,0-1.7,0.3-1.9,1.5H220
			c0.1-1.5,1.2-2.1,2.6-2.1c1.3,0,2.3,0.5,2.3,2v3.5c0,0.6,0.1,0.7,0.8,0.5v0.6c-0.1,0-0.4,0.1-0.6,0.1c-0.1,0-0.2,0-0.3,0
			c-0.5-0.1-0.6-0.5-0.6-1c-0.6,0.7-1.5,1.1-2.4,1.1c-1.1,0-2.2-0.6-2.2-1.9c0-1.1,0.7-1.7,2.3-1.9L223,114.6z M224.2,115
			c-0.6,0.3-1.3,0.3-1.9,0.4c-1.1,0.1-1.8,0.5-1.8,1.4c0,0.8,0.7,1.2,1.4,1.2c1.2,0,2.4-0.6,2.4-1.9V115z"/>
		<path fill="#1D2554" d="M231.5,114c-0.3-1-0.9-1.5-1.9-1.5c-1.5,0-2.2,1.4-2.2,2.7c0,1.4,0.6,2.7,2.2,2.7c1.1,0,1.8-0.7,2-1.7h0.8
			c-0.3,1.4-1.2,2.4-2.8,2.4c-2.1,0-3-1.5-3-3.4c0-1.8,1-3.4,3-3.4c1.5,0,2.5,0.7,2.7,2.2H231.5z"/>
		<path fill="#1D2554" d="M233.8,118.4v-9h0.7v3.4c0.6-0.6,1.2-1.1,2.1-1.1c0.8,0,1.5,0.2,2,0.9c0.3,0.5,0.3,0.9,0.3,1.5v4.2h-0.7
			v-4.2c0-1.2-0.5-1.7-1.7-1.7c-0.9,0-1.6,0.6-1.8,1.3c-0.1,0.4-0.2,0.8-0.2,1.2v3.5H233.8z"/>
		<path fill="#1D2554" d="M244.2,120.1c0.2,0,0.4,0.1,0.6,0.1c0.8,0,1-1.2,1.3-1.8l-2.5-6.5h0.8l2.1,5.5l2.1-5.5h0.8l-2.4,6.4
			c-0.6,1.6-1,2.6-2,2.6c-0.3,0-0.5,0-0.7-0.1V120.1z"/>
		<path fill="#1D2554" d="M250.9,115.3c0,1.4,0.7,2.5,2.2,2.5c1,0,1.7-0.5,2-1.5h0.8c-0.4,1.2-1.1,2.2-2.8,2.2c-2.1,0-3-1.5-3-3.4
			c0-1.9,1.1-3.4,3-3.4c1.8,0,2.8,1.3,2.8,3.6H250.9z M255.1,114.7c0-1.3-0.7-2.3-2-2.3c-1.3,0-2,1.1-2.2,2.3H255.1z"/>
		<path fill="#1D2554" d="M260.3,114.6c0.3,0,0.7-0.1,1-0.2c0.2-0.1,0.3-0.4,0.3-0.7c0-0.8-0.4-1.3-1.6-1.3c-1,0-1.7,0.3-1.9,1.5
			h-0.8c0.1-1.5,1.2-2.1,2.6-2.1c1.3,0,2.3,0.5,2.3,2v3.5c0,0.6,0.1,0.7,0.8,0.5v0.6c-0.1,0-0.4,0.1-0.6,0.1c-0.1,0-0.2,0-0.3,0
			c-0.5-0.1-0.6-0.5-0.6-1c-0.6,0.7-1.5,1.1-2.4,1.1c-1.1,0-2.2-0.6-2.2-1.9c0-1.1,0.7-1.7,2.3-1.9L260.3,114.6z M261.6,115
			c-0.6,0.3-1.3,0.3-1.9,0.4c-1.1,0.1-1.8,0.5-1.8,1.4c0,0.8,0.7,1.2,1.4,1.2c1.2,0,2.4-0.6,2.4-1.9V115z"/>
		<path fill="#1D2554" d="M265.1,118.4h-0.7v-6.4h0.7v1.2h0c0.4-1,1-1.4,2.1-1.4v0.8c-1.7,0-2.1,1.2-2.1,2.6V118.4z"/>
		<path fill="#1D2554" d="M267.6,118.4v-1.1h0.9v1.1H267.6z"/>
	</g>
</g>
<g>
	<path fill="#CC2036" stroke="#CC2036" stroke-width="1.0407" stroke-miterlimit="10" d="M11.6,107v1.5h11.1V107h1.8v4.9h-1.8v-1.7
		H12.3l5.6,3.1v0.9l-5.6,3.1h10.3v-1.7h1.8v4.9h-1.8V119H11.6v1.5H9.8v-3.7l5.8-3.2l-5.8-3.2V107H11.6z"/>
	<path fill="#CC2036" stroke="#CC2036" stroke-width="1.0407" stroke-miterlimit="10" d="M22.1,95.5l2.4,2.4v4.8l-2.4,2.4H12
		l-2.3-2.3v-5.1l2.3-2.3H22.1z M11.6,102.1l1.2,1.2h8.6l1.3-1.3v-3.4l-1.3-1.3h-8.6l-1.2,1.2V102.1z"/>
	<path fill="#CC2036" stroke="#CC2036" stroke-width="1.0407" stroke-miterlimit="10" d="M11.8,83.2H16l2,2v1.1l4.7-2.3v-1.3h1.8
		v4.5h-1.8v-1.3L18,88.1v2.1h4.7V89h1.8v4.6h-1.8v-1.5h-11v1.5H9.8v-8.4L11.8,83.2z M11.6,90.3h5V86l-1-1h-2.9l-1,1V90.3z"/>
	<path fill="#CC2036" stroke="#CC2036" stroke-width="1.0407" stroke-miterlimit="10" d="M13.6,70.9v1.5h-2v5.4h4.5v-3.7h-1v-1.3
		h3.3v1.3h-1v3.7h5.2v-5.5h-2v-1.5h3.8v10.3h-1.8v-1.5h-11v1.5H9.8V70.9H13.6z"/>
	<path fill="#CC2036" stroke="#CC2036" stroke-width="1.0407" stroke-miterlimit="10" d="M14.1,52.1v1.6h-2.6v2.9h11.2v-1.7h1.8v5.3
		h-1.8v-1.7H11.5v2.9h2.6v1.6H9.8V52.1H14.1z"/>
	<path fill="#CC2036" stroke="#CC2036" stroke-width="1.0407" stroke-miterlimit="10" d="M11.6,38.5V40h11.1v-1.6h1.8v4.7h-1.8v-1.3
		h-5.2v5.6h5.2v-1.3h1.8v4.7h-1.8v-1.5H11.6v1.5H9.8v-4.7h1.8v1.3H16v-5.6h-4.4v1.3H9.8v-4.7H11.6z"/>
	<path fill="#CC2036" stroke="#CC2036" stroke-width="1.0407" stroke-miterlimit="10" d="M22.6,26.2v-1.7h1.8v4.9h-1.8v-1.3L20,28.8
		v4.4l2.7,0.7v-1.3h1.8v4.5h-1.8v-1.6l-11.1-3v1.7H9.8v-4.7L22.6,26.2z M18.8,33v-3.9l-7.1,1.9L18.8,33z"/>
	<path fill="#CC2036" stroke="#CC2036" stroke-width="1.0407" stroke-miterlimit="10" d="M11.6,10.7v1.6h12.8V14l-12.1,6.1h10.3
		v-1.3h1.8v4.4h-1.8v-1.5h-11v1.5H9.8v-3.9L21,13.8h-9.4v1.3H9.8v-4.5H11.6z"/>
</g>
<g>
	<path fill="#FFFFFF" stroke="#2CBCEE" stroke-width="2" stroke-miterlimit="10" d="M66.3,21.8L49.4,63.6h-7l17-41.2v-5.1H40.6V26
		h-5.5V11.4h31.3V21.8z"/>
	<path fill="#FFFFFF" stroke="#2CBCEE" stroke-width="2" stroke-miterlimit="10" d="M102.2,21.8L85.3,63.6h-7l17-41.2v-5.1H76.5V26
		H71V11.4h31.3V21.8z"/>
	<path fill="#FFFFFF" stroke="#2CBCEE" stroke-width="2" stroke-miterlimit="10" d="M140.4,24.6H134v-6.8h-19v14h20.2l6,5.8v18.3
		l-7.8,7.8h-17.6l-7.8-7.8v-9.9h6.4v7.2l4,4h12.2l4-4V40.6l-2.7-2.8h-23.4V11.4h31.8V24.6z"/>
	<path fill="#FFFFFF" stroke="#2CBCEE" stroke-width="2" stroke-miterlimit="10" d="M155.5,63.2l-6.2,10.6l-2.6-1.1l2.7-10.8v-4.3
		h6.1V63.2z"/>
	<path fill="#FFFFFF" stroke="#2CBCEE" stroke-width="2" stroke-miterlimit="10" d="M193.6,55.2l-8.4,8.4H168l-8.4-8.4V19.4l8.1-8.1
		h18l8.1,8.1V55.2z M170.2,17.8l-4.3,4.3v30.6l4.6,4.6h12.2l4.6-4.6V22.1l-4.3-4.3H170.2z"/>
	<path fill="#FFFFFF" stroke="#2CBCEE" stroke-width="2" stroke-miterlimit="10" d="M234.5,55.2l-8.4,8.4h-17.2l-8.4-8.4V19.4
		l8.1-8.1h18l8.1,8.1V55.2z M211,17.8l-4.3,4.3v30.6l4.6,4.6h12.2l4.6-4.6V22.1l-4.3-4.3H211z"/>
	<path fill="#FFFFFF" stroke="#2CBCEE" stroke-width="2" stroke-miterlimit="10" d="M275.3,55.2l-8.4,8.4h-17.2l-8.4-8.4V19.4
		l8.1-8.1h18l8.1,8.1V55.2z M251.8,17.8l-4.3,4.3v30.6l4.6,4.6h12.2l4.6-4.6V22.1l-4.3-4.3H251.8z"/>
</g>
<g>
</g>
<g>
</g>
<g>
</g>
<g>
</g>
<g>
</g>
<g>
</g>
</svg>
