<?xml version="1.0" encoding="utf-8"?>
<!-- Generator: Adobe Illustrator 19.1.0, SVG Export Plug-In . SVG Version: 6.00 Build 0)  -->
<svg version="1.1" id="Layer_1" xmlns="http://www.w3.org/2000/svg" xmlns:xlink="http://www.w3.org/1999/xlink" x="0px" y="0px"
	 width="370.5px" height="88.5px" viewBox="0 0 370.5 88.5" enable-background="new 0 0 370.5 88.5" xml:space="preserve">
<g>
	<path fill="#4167B1" stroke="#4167B1" stroke-width="3" stroke-miterlimit="10" d="M99.6,45.2L99.6,45.2l-38.3,0v-0.1c0,0,0,0,0,0
		c-0.1-5.1-1.9-9.8-4.7-13.6c-4.3-5.8-11.2-9.6-18.9-9.6c-8.3,0-15.7,4.4-19.9,11c-2.2,3.4-3.5,7.4-3.7,11.7c0,0.4,0,0.7,0,1.1
		c0,13.1,10.6,23.8,23.6,23.8c2.3,0,4.6-0.3,6.7-1v0c3.5-1,6.6-2.9,9.3-5.3v0c0.3-0.2,0.6-0.5,0.8-0.8v0c0.6-0.6,1.1-1.2,1.6-1.8
		c3.2-4,5.1-9,5.2-14.4h72.9v-1H99.6z M55.1,60.3c-0.3,0.3-0.5,0.6-0.8,0.9c-0.2,0.3-0.5,0.5-0.8,0.8c-2.5,2.5-5.6,4.4-9.1,5.5
		c-2.1,0.7-4.4,1-6.8,1c-12.4,0-22.5-10.2-22.5-22.8c0-0.2,0-0.4,0-0.5c0.1-4.5,1.5-8.7,3.8-12.2c4.1-6.1,10.9-10.1,18.7-10.1
		c7.1,0,13.5,3.4,17.6,8.6c2.7,3.4,4.5,7.6,4.8,12.2c0.1,0.7,0.1,1.3,0.1,2C60.3,51.2,58.3,56.3,55.1,60.3z"/>
</g>
<g>
	<rect x="139.1" y="16.1" fill="none" width="213.5" height="91.2"/>
	<path fill="#4167B1" d="M151.8,17.8h-1.5v12.1h-1.7l-5.8-11.4v9.7h1.2v1.7H140v-1.7h1.4V17.8H140v-1.7h3.7l5.2,10.5v-8.8h-1.2v-1.7
		h4.2V17.8z"/>
	<path fill="#4167B1" d="M162.8,19.6h-1.4v-1.9h-5.1V22h3.5V21h1.2v3.1h-1.2v-0.9h-3.5v4.9h5.1v-1.9h1.4v3.5h-9.7v-1.7h1.4V17.8
		h-1.4v-1.7h9.7V19.6z"/>
	<path fill="#4167B1" d="M175.5,17.7H174v10l-2.1,2.1h-4.4l-2.1-2.1v-10H164v-1.7h4.4v1.7h-1.2v9.2l1.2,1.2h2.9l1.2-1.2v-9.2h-1.3
		v-1.7h4.4V17.7z"/>
	<path fill="#4167B1" d="M186.6,18v3.9l-1.9,1.9h-1l2.2,4.4h1.3v1.7h-4.2v-1.7h1.2l-2.2-4.4h-2v4.4h1.2v1.7h-4.3v-1.7h1.4V17.8h-1.4
		v-1.7h7.9L186.6,18z M179.9,17.8v4.7h4l1-1v-2.7l-1-1H179.9z"/>
	<path fill="#4167B1" d="M197.5,27.6l-2.2,2.2h-4.5l-2.2-2.2v-9.4l2.1-2.1h4.7l2.1,2.1V27.6z M191.3,17.7l-1.1,1.1v8.1l1.2,1.2h3.2
		l1.2-1.2v-8.1l-1.1-1.1H191.3z"/>
	<path fill="#4167B1" d="M203.9,17.7h-1.5v10.4h5V26h1.5v3.9h-9.6v-1.7h1.4V17.7h-1.4v-1.7h4.6V17.7z"/>
	<path fill="#4167B1" d="M219.1,27.6l-2.2,2.2h-4.5l-2.2-2.2v-9.4l2.1-2.1h4.7l2.1,2.1V27.6z M213,17.7l-1.1,1.1v8.1l1.2,1.2h3.2
		l1.2-1.2v-8.1l-1.1-1.1H213z"/>
	<path fill="#4167B1" d="M229.9,20.4h-1.7v-1.7l-1-1h-3.4l-1.3,1.3v7.8l1.3,1.3h2.8l1.5-1.5v-3h-2.6v-1.2h4.3v7.3h-1.6v-1.6
		l-1.6,1.6h-3.4l-2.4-2.4v-9.1l2.3-2.3h4.7l1.9,1.9V20.4z"/>
	<path fill="#4167B1" d="M236.6,17.7h-1.4v10.4h1.4v1.7H232v-1.7h1.4V17.7H232v-1.7h4.6V17.7z"/>
	<path fill="#4167B1" d="M247.6,20.7h-1.7v-1.9l-1-1h-3.2l-1.3,1.3v7.8l1.3,1.3h3.1l1-1v-2.2h1.7v2.9l-2.1,2h-4.4l-2.4-2.4v-9.1
		l2.3-2.3h4.6l2,1.9V20.7z"/>
	<path fill="#4167B1" d="M258.7,28.1h1.6v1.7h-4.6v-1.7h1.2l-0.7-2.5h-4.2l-0.7,2.5h1.2v1.7h-4.2v-1.7h1.5l2.8-10.4h-1.6v-1.7h4.4
		L258.7,28.1z M252.3,24.6h3.6l-1.8-6.7L252.3,24.6z"/>
	<path fill="#4167B1" d="M266.1,17.7h-1.5v10.4h5V26h1.5v3.9h-9.6v-1.7h1.4V17.7h-1.4v-1.7h4.6V17.7z"/>
	<path fill="#4167B1" d="M288.8,27.1l-2.8,2.8h-7.4v-1.7h1.4V17.7h-1.4v-1.7h7.5l2.7,2.7V27.1z M281.8,17.7v10.4h3.7l1.7-1.7v-7.1
		l-1.6-1.6H281.8z"/>
	<path fill="#4167B1" d="M299.4,28.1h1.6v1.7h-4.6v-1.7h1.2l-0.7-2.5h-4.2l-0.7,2.5h1.2v1.7H289v-1.7h1.5l2.8-10.4h-1.6v-1.7h4.4
		L299.4,28.1z M293,24.6h3.6l-1.8-6.7L293,24.6z"/>
	<path fill="#4167B1" d="M314.9,17.7h-1.4v10.4h1.4v1.7h-4.6v-1.7h1.6v-9.7l-2.9,5.2h-0.9l-2.9-5.2v9.7h1.6v1.7h-4.6v-1.7h1.4V17.7
		h-1.4v-1.7h3.5l3,5.5l3-5.5h3.3V17.7z"/>
	<path fill="#4167B1" d="M326.5,28.1h1.6v1.7h-4.6v-1.7h1.2l-0.7-2.5h-4.2l-0.7,2.5h1.2v1.7h-4.2v-1.7h1.5l2.8-10.4h-1.6v-1.7h4.4
		L326.5,28.1z M320.1,24.6h3.6l-1.8-6.7L320.1,24.6z"/>
	<path fill="#4167B1" d="M337.7,20.4H336v-1.7l-1-1h-3.4l-1.3,1.3v7.8l1.3,1.3h2.8l1.5-1.5v-3h-2.6v-1.2h4.3v7.3H336v-1.6l-1.6,1.6
		h-3.4l-2.4-2.4v-9.1l2.3-2.3h4.7l1.9,1.9V20.4z"/>
	<path fill="#4167B1" d="M349.1,19.6h-1.4v-1.9h-5.1V22h3.5V21h1.2v3.1H346v-0.9h-3.5v4.9h5.1v-1.9h1.4v3.5h-9.7v-1.7h1.4V17.8h-1.4
		v-1.7h9.7V19.6z"/>
	<path fill="#1D2554" d="M140.4,42.1c0.1,1.6,1.2,2.2,2.6,2.2c1.6,0,2.3-0.9,2.3-1.9c0-2.8-5.5-0.9-5.5-4.5c0-1.2,1-2.4,3-2.4
		c2,0,3,1.2,3,2.7h-0.8c0-1.4-1.1-2-2.2-2c-1.7,0-2.3,1.1-2.2,2c0.4,2.3,5.5,0.6,5.5,4.1c0,1.6-1.2,2.6-3.3,2.6
		c-1.9,0-3.2-1-3.2-2.9H140.4z"/>
	<path fill="#1D2554" d="M148.4,47.3h-0.7v-9h0.7v1.1h0c0.4-0.8,1.4-1.3,2.2-1.3c2.1,0,2.9,1.5,2.9,3.4c0,1.8-0.9,3.4-2.9,3.4
		c-0.9,0-1.8-0.4-2.3-1.2V47.3z M150.6,44.3c1.5,0,2.3-1.3,2.2-2.9c0-1.6-0.9-2.5-2.2-2.5c-1.4,0-2.2,1.2-2.2,2.7
		C148.4,43,149.2,44.3,150.6,44.3z"/>
	<path fill="#1D2554" d="M154.7,41.5c0-1.9,1-3.4,3-3.4c2,0,3,1.5,3,3.4c0,2-1.2,3.4-3,3.4C156.1,44.9,154.7,43.8,154.7,41.5z
		 M157.7,38.8c-1.6,0-2.2,1.3-2.2,2.7c0,1.6,0.8,2.7,2.2,2.7c1.6,0,2.2-1.3,2.2-2.7C159.9,40,159.3,38.8,157.7,38.8z"/>
	<path fill="#1D2554" d="M162.9,44.8h-0.7v-6.4h0.7v1.2h0c0.4-1,1-1.4,2.1-1.4V39c-1.7,0-2.1,1.2-2.1,2.6V44.8z"/>
	<path fill="#1D2554" d="M168.7,44.8c-0.2,0-0.5,0.1-0.9,0.1c-0.7,0-1.1-0.3-1.1-1.3v-4.7h-0.9v-0.6h0.9v-1.8h0.7v1.8h1.2v0.6h-1.2
		v4.4c0,0.6,0,0.9,0.6,0.9c0.2,0,0.4,0,0.6-0.1V44.8z"/>
	<path fill="#1D2554" d="M170.3,42.7c0.2,1.1,0.8,1.5,1.9,1.5c1.1,0,1.6-0.6,1.6-1.2c0-1.9-4.1-0.5-4.1-3.1c0-1.1,0.8-1.8,2.3-1.8
		c1.4,0,2.3,0.6,2.5,2h-0.8c-0.1-1-0.8-1.4-1.7-1.4c-0.9,0-1.5,0.4-1.5,1.1c0,1.8,4.1,0.7,4.1,3.1c0,1.2-1.1,1.9-2.6,1.9
		c-1.5,0-2.4-1-2.4-2.2H170.3z"/>
	<path fill="#1D2554" d="M184.1,40.3c-0.3-1-0.9-1.5-1.9-1.5c-1.5,0-2.2,1.4-2.2,2.7c0,1.4,0.6,2.7,2.2,2.7c1.1,0,1.8-0.7,2-1.7h0.8
		c-0.3,1.4-1.2,2.4-2.8,2.4c-2.1,0-3-1.5-3-3.4c0-1.8,1-3.4,3-3.4c1.5,0,2.5,0.7,2.7,2.2H184.1z"/>
	<path fill="#1D2554" d="M186.1,41.5c0-1.9,1-3.4,3-3.4c2,0,3,1.5,3,3.4c0,2-1.2,3.4-3,3.4C187.4,44.9,186.1,43.8,186.1,41.5z
		 M189.1,38.8c-1.6,0-2.2,1.3-2.2,2.7c0,1.6,0.8,2.7,2.2,2.7c1.6,0,2.2-1.3,2.2-2.7C191.2,40,190.6,38.8,189.1,38.8z"/>
	<path fill="#1D2554" d="M194.2,44.8h-0.7v-6.4h0.7v0.9c0.6-0.6,1.2-1.1,2.1-1.1c0.8,0,1.5,0.2,2,0.9c0.3,0.5,0.3,0.9,0.3,1.5v4.2
		h-0.7v-4.2c0-1.2-0.5-1.7-1.7-1.7c-0.9,0-1.6,0.6-1.8,1.3c-0.1,0.4-0.2,0.8-0.2,1.2V44.8z"/>
	<path fill="#1D2554" d="M202.6,44.8c-0.2,0-0.5,0.1-0.9,0.1c-0.7,0-1.1-0.3-1.1-1.3v-4.7h-0.9v-0.6h0.9v-1.8h0.7v1.8h1.2v0.6h-1.2
		v4.4c0,0.6,0,0.9,0.6,0.9c0.2,0,0.4,0,0.6-0.1V44.8z"/>
	<path fill="#1D2554" d="M204.6,44.8h-0.7v-6.4h0.7v1.2h0c0.4-1,1-1.4,2.1-1.4V39c-1.7,0-2.1,1.2-2.1,2.6V44.8z"/>
	<path fill="#1D2554" d="M208,36.9v-1.1h0.8v1.1H208z M208,44.8v-6.4h0.7v6.4H208z"/>
	<path fill="#1D2554" d="M211.5,44.8h-0.7v-9h0.7v3.5c0.5-0.8,1.4-1.2,2.3-1.2c2,0,2.9,1.6,2.9,3.4c0,1.9-0.8,3.4-2.9,3.4
		c-0.8,0-1.8-0.5-2.2-1.3h0V44.8z M213.7,44.3c1.3,0,2.2-0.9,2.2-2.5c0.1-1.6-0.7-2.9-2.2-2.9c-1.4,0-2.2,1.2-2.2,2.7
		C211.5,43.1,212.3,44.3,213.7,44.3z"/>
	<path fill="#1D2554" d="M222.7,38.3h0.7v6.4h-0.7v-0.9c-0.4,0.4-0.9,1.1-2.1,1.1c-1.7,0-2.3-1-2.3-2.4v-4.2h0.7v4.2
		c0,1.1,0.5,1.7,1.7,1.7c1.2,0,2-1,2-2.4V38.3z"/>
	<path fill="#1D2554" d="M227.5,44.8c-0.2,0-0.5,0.1-0.9,0.1c-0.7,0-1.1-0.3-1.1-1.3v-4.7h-0.9v-0.6h0.9v-1.8h0.7v1.8h1.2v0.6h-1.2
		v4.4c0,0.6,0,0.9,0.6,0.9c0.2,0,0.4,0,0.6-0.1V44.8z"/>
	<path fill="#1D2554" d="M229.1,41.7c0,1.4,0.7,2.5,2.2,2.5c1,0,1.7-0.5,2-1.5h0.8c-0.4,1.2-1.1,2.2-2.8,2.2c-2.1,0-3-1.5-3-3.4
		c0-1.9,1.1-3.4,3-3.4c1.8,0,2.8,1.3,2.8,3.6H229.1z M233.3,41.1c0-1.3-0.7-2.3-2-2.3c-1.3,0-2,1.1-2.2,2.3H233.3z"/>
	<path fill="#1D2554" d="M241.3,44.8c-0.2,0-0.5,0.1-0.9,0.1c-0.7,0-1.1-0.3-1.1-1.3v-4.7h-0.9v-0.6h0.9v-1.8h0.7v1.8h1.2v0.6H240
		v4.4c0,0.6,0,0.9,0.6,0.9c0.2,0,0.4,0,0.6-0.1V44.8z"/>
	<path fill="#1D2554" d="M242.1,41.5c0-1.9,1-3.4,3-3.4c2,0,3,1.5,3,3.4c0,2-1.2,3.4-3,3.4C243.4,44.9,242.1,43.8,242.1,41.5z
		 M245,38.8c-1.6,0-2.2,1.3-2.2,2.7c0,1.6,0.8,2.7,2.2,2.7c1.6,0,2.2-1.3,2.2-2.7C247.2,40,246.6,38.8,245,38.8z"/>
	<path fill="#1D2554" d="M255.8,41c0.3,0,0.7-0.1,1-0.2c0.2-0.1,0.3-0.4,0.3-0.7c0-0.8-0.4-1.3-1.6-1.3c-1,0-1.7,0.3-1.9,1.5h-0.8
		c0.1-1.5,1.2-2.1,2.6-2.1c1.3,0,2.3,0.5,2.3,2v3.5c0,0.6,0.1,0.7,0.8,0.5v0.6c-0.1,0-0.4,0.1-0.6,0.1c-0.1,0-0.2,0-0.3,0
		c-0.5-0.1-0.6-0.5-0.6-1c-0.6,0.7-1.5,1.1-2.4,1.1c-1.1,0-2.2-0.6-2.2-1.9c0-1.1,0.7-1.7,2.3-1.9L255.8,41z M257.1,41.4
		c-0.6,0.3-1.3,0.3-1.9,0.4c-1.1,0.1-1.8,0.5-1.8,1.4c0,0.8,0.7,1.2,1.4,1.2c1.2,0,2.4-0.6,2.4-1.9V41.4z"/>
	<path fill="#1D2554" d="M260.6,47.3h-0.7v-9h0.7v1.1h0c0.4-0.8,1.4-1.3,2.2-1.3c2.1,0,2.9,1.5,2.9,3.4c0,1.8-0.9,3.4-2.9,3.4
		c-0.9,0-1.8-0.4-2.3-1.2V47.3z M262.8,44.3c1.5,0,2.3-1.3,2.2-2.9c0-1.6-0.9-2.5-2.2-2.5c-1.4,0-2.2,1.2-2.2,2.7
		C260.6,43,261.4,44.3,262.8,44.3z"/>
	<path fill="#1D2554" d="M268.2,47.3h-0.7v-9h0.7v1.1h0c0.4-0.8,1.4-1.3,2.2-1.3c2.1,0,2.9,1.5,2.9,3.4c0,1.8-0.9,3.4-2.9,3.4
		c-0.9,0-1.8-0.4-2.3-1.2V47.3z M270.4,44.3c1.5,0,2.3-1.3,2.2-2.9c0-1.6-0.9-2.5-2.2-2.5c-1.4,0-2.2,1.2-2.2,2.7
		C268.2,43,269,44.3,270.4,44.3z"/>
	<path fill="#1D2554" d="M275.8,44.8H275v-6.4h0.7v1.2h0c0.4-1,1-1.4,2.1-1.4V39c-1.7,0-2.1,1.2-2.1,2.6V44.8z"/>
	<path fill="#1D2554" d="M278.5,41.5c0-1.9,1-3.4,3-3.4c2,0,3,1.5,3,3.4c0,2-1.2,3.4-3,3.4C279.8,44.9,278.5,43.8,278.5,41.5z
		 M281.5,38.8c-1.6,0-2.2,1.3-2.2,2.7c0,1.6,0.8,2.7,2.2,2.7c1.6,0,2.2-1.3,2.2-2.7C283.6,40,283,38.8,281.5,38.8z"/>
	<path fill="#1D2554" d="M288,42l-2,2.8h-0.9l2.5-3.3l-2.3-3.1h0.9l1.8,2.6l1.8-2.6h0.9l-2.3,3.1l2.4,3.3H290L288,42z"/>
	<path fill="#1D2554" d="M295,41c0.3,0,0.7-0.1,1-0.2c0.2-0.1,0.3-0.4,0.3-0.7c0-0.8-0.4-1.3-1.6-1.3c-1,0-1.7,0.3-1.9,1.5H292
		c0.1-1.5,1.2-2.1,2.6-2.1c1.3,0,2.3,0.5,2.3,2v3.5c0,0.6,0.1,0.7,0.8,0.5v0.6c-0.1,0-0.4,0.1-0.6,0.1c-0.1,0-0.2,0-0.3,0
		c-0.5-0.1-0.6-0.5-0.6-1c-0.6,0.7-1.5,1.1-2.4,1.1c-1.1,0-2.2-0.6-2.2-1.9c0-1.1,0.7-1.7,2.3-1.9L295,41z M296.2,41.4
		c-0.6,0.3-1.3,0.3-1.9,0.4c-1.1,0.1-1.8,0.5-1.8,1.4c0,0.8,0.7,1.2,1.4,1.2c1.2,0,2.4-0.6,2.4-1.9V41.4z"/>
	<path fill="#1D2554" d="M299.6,44.8h-0.7v-6.4h0.7v1h0c0.4-0.7,1.2-1.1,2-1.1c1.2,0,1.6,0.6,1.9,1.2c0.4-0.8,1.2-1.2,2.1-1.2
		c1.8,0,2,1.3,2,2.5v4.1h-0.7v-4.5c0-0.9-0.3-1.5-1.4-1.5c-0.5,0-1.1,0.2-1.5,0.7c-0.3,0.4-0.4,1.2-0.4,1.7v3.5h-0.7v-4.5
		c0-0.9-0.3-1.5-1.4-1.5c-0.5,0-1.1,0.2-1.5,0.7c-0.3,0.4-0.4,1.2-0.4,1.7V44.8z"/>
	<path fill="#1D2554" d="M312.3,41c0.3,0,0.7-0.1,1-0.2c0.2-0.1,0.3-0.4,0.3-0.7c0-0.8-0.4-1.3-1.6-1.3c-1,0-1.7,0.3-1.9,1.5h-0.8
		c0.1-1.5,1.2-2.1,2.6-2.1c1.3,0,2.3,0.5,2.3,2v3.5c0,0.6,0.1,0.7,0.8,0.5v0.6c-0.1,0-0.4,0.1-0.6,0.1c-0.1,0-0.2,0-0.3,0
		c-0.5-0.1-0.6-0.5-0.6-1c-0.6,0.7-1.5,1.1-2.4,1.1c-1.1,0-2.2-0.6-2.2-1.9c0-1.1,0.7-1.7,2.3-1.9L312.3,41z M313.5,41.4
		c-0.6,0.3-1.3,0.3-1.9,0.4c-1.1,0.1-1.8,0.5-1.8,1.4c0,0.8,0.7,1.2,1.4,1.2c1.2,0,2.4-0.6,2.4-1.9V41.4z"/>
	<path fill="#1D2554" d="M318.5,44.8c-0.2,0-0.5,0.1-0.9,0.1c-0.7,0-1.1-0.3-1.1-1.3v-4.7h-0.9v-0.6h0.9v-1.8h0.7v1.8h1.2v0.6h-1.2
		v4.4c0,0.6,0,0.9,0.6,0.9c0.2,0,0.4,0,0.6-0.1V44.8z"/>
	<path fill="#1D2554" d="M320.1,41.7c0,1.4,0.7,2.5,2.2,2.5c1,0,1.7-0.5,2-1.5h0.8c-0.4,1.2-1.1,2.2-2.8,2.2c-2.1,0-3-1.5-3-3.4
		c0-1.9,1.1-3.4,3-3.4c1.8,0,2.8,1.3,2.8,3.6H320.1z M324.3,41.1c0-1.3-0.7-2.3-2-2.3c-1.3,0-2,1.1-2.2,2.3H324.3z"/>
	<path fill="#1D2554" d="M326.7,44.8v-9h0.7v9H326.7z"/>
	<path fill="#1D2554" d="M329.3,46.5c0.2,0,0.4,0.1,0.6,0.1c0.8,0,1-1.2,1.3-1.8l-2.5-6.5h0.8l2.1,5.5l2.1-5.5h0.8l-2.4,6.4
		c-0.6,1.6-1,2.6-2,2.6c-0.3,0-0.5,0-0.7-0.1V46.5z"/>
	<path fill="#1D2554" d="M139.9,53.8c0-1.7,1.1-2.9,2.8-2.9c1.8,0,2.7,1.1,2.7,2.4c0,2.3-2.5,2.9-3.8,3.9c-0.6,0.4-1.1,0.9-1.1,1.8
		h4.9v0.7h-5.7c0-0.8,0.1-1.5,0.7-2.1c1.8-2.1,4.3-2.1,4.3-4.2c0-1.1-0.8-1.8-1.9-1.8c-1.1,0-2,1-1.9,2.2H139.9z"/>
	<path fill="#1D2554" d="M149.7,53.2h-2.3v-0.5c1.3-0.1,2.2-0.2,2.4-1.7h0.6v8.8h-0.8V53.2z"/>
	<path fill="#1D2554" d="M155.8,55.1c-1.1,0-2.1-0.9-2.1-2.1c0-1.1,0.9-2.1,2.1-2.1c1.1,0,2.1,0.9,2.1,2.1
		C157.9,54.2,156.9,55.1,155.8,55.1z M157.1,53.1c0-0.7-0.6-1.4-1.4-1.4c-0.7,0-1.3,0.6-1.3,1.4c0,0.7,0.6,1.3,1.3,1.3
		C156.5,54.4,157.1,53.8,157.1,53.1z M156.3,59.9h-0.6l4.9-8.9h0.6L156.3,59.9z M163.1,57.6c0,1.1-0.9,2.1-2,2.1
		c-1.1,0-2.1-0.9-2.1-2.1c0-1.1,0.9-2.1,2.1-2.1C162.2,55.6,163.1,56.5,163.1,57.6z M159.7,57.6c0,0.7,0.6,1.3,1.3,1.3
		c0.7,0,1.3-0.6,1.3-1.4c0-0.7-0.6-1.3-1.3-1.3C160.3,56.3,159.7,56.9,159.7,57.6z"/>
	<path fill="#1D2554" d="M167.9,56.5c0-1.9,1-3.4,3-3.4c2,0,3,1.5,3,3.4c0,2-1.2,3.4-3,3.4C169.2,59.8,167.9,58.7,167.9,56.5z
		 M170.9,53.7c-1.6,0-2.2,1.3-2.2,2.7c0,1.6,0.8,2.7,2.2,2.7c1.6,0,2.2-1.3,2.2-2.7C173.1,54.9,172.5,53.7,170.9,53.7z"/>
	<path fill="#1D2554" d="M174.6,53.9v-0.6h1v-1c0-1,0.4-1.7,1.4-1.7c0.2,0,0.4,0,0.6,0v0.7c-0.1,0-0.3-0.1-0.4-0.1
		c-0.8,0-0.8,0.6-0.8,1.2v0.8h1.2v0.6h-1.2v5.8h-0.7v-5.8H174.6z"/>
	<path fill="#1D2554" d="M185.1,55.9c0.3,0,0.7-0.1,1-0.2c0.2-0.1,0.3-0.4,0.3-0.7c0-0.8-0.4-1.3-1.6-1.3c-1,0-1.7,0.3-1.9,1.5h-0.8
		c0.1-1.5,1.2-2.1,2.6-2.1c1.3,0,2.3,0.5,2.3,2v3.5c0,0.6,0.1,0.7,0.8,0.5v0.6c-0.1,0-0.4,0.1-0.6,0.1c-0.1,0-0.2,0-0.3,0
		c-0.5-0.1-0.6-0.5-0.6-1c-0.6,0.7-1.5,1.1-2.4,1.1c-1.1,0-2.2-0.6-2.2-1.9c0-1.1,0.7-1.7,2.3-1.9L185.1,55.9z M186.4,56.3
		c-0.6,0.3-1.3,0.3-1.9,0.4c-1.1,0.1-1.8,0.5-1.8,1.4c0,0.8,0.7,1.2,1.4,1.2c1.2,0,2.4-0.6,2.4-1.9V56.3z"/>
	<path fill="#1D2554" d="M189.2,59.7v-9h0.7v9H189.2z"/>
	<path fill="#1D2554" d="M191.9,59.7v-9h0.7v9H191.9z"/>
	<path fill="#1D2554" d="M200.3,59.7c-0.2,0-0.5,0.1-0.9,0.1c-0.7,0-1.1-0.3-1.1-1.3v-4.7h-0.9v-0.6h0.9v-1.8h0.7v1.8h1.2v0.6H199
		v4.4c0,0.6,0,0.9,0.6,0.9c0.2,0,0.4,0,0.6-0.1V59.7z"/>
	<path fill="#1D2554" d="M202.3,59.7h-0.7v-6.4h0.7v1.2h0c0.4-1,1-1.4,2.1-1.4v0.8c-1.7,0-2.1,1.2-2.1,2.6V59.7z"/>
	<path fill="#1D2554" d="M208.6,55.9c0.3,0,0.7-0.1,1-0.2c0.2-0.1,0.3-0.4,0.3-0.7c0-0.8-0.4-1.3-1.6-1.3c-1,0-1.7,0.3-1.9,1.5h-0.8
		c0.1-1.5,1.2-2.1,2.6-2.1c1.3,0,2.3,0.5,2.3,2v3.5c0,0.6,0.1,0.7,0.8,0.5v0.6c-0.1,0-0.4,0.1-0.6,0.1c-0.1,0-0.2,0-0.3,0
		c-0.5-0.1-0.6-0.5-0.6-1c-0.6,0.7-1.5,1.1-2.4,1.1c-1.1,0-2.2-0.6-2.2-1.9c0-1.1,0.7-1.7,2.3-1.9L208.6,55.9z M209.9,56.3
		c-0.6,0.3-1.3,0.3-1.9,0.4c-1.1,0.1-1.8,0.5-1.8,1.4c0,0.8,0.7,1.2,1.4,1.2c1.2,0,2.4-0.6,2.4-1.9V56.3z"/>
	<path fill="#1D2554" d="M216.9,53.2h0.7v6.4h-0.7v-0.9c-0.4,0.4-0.9,1.1-2.1,1.1c-1.7,0-2.3-1-2.3-2.4v-4.2h0.7v4.2
		c0,1.1,0.5,1.7,1.7,1.7c1.2,0,2-1,2-2.4V53.2z"/>
	<path fill="#1D2554" d="M220.1,59.7h-0.7v-6.4h0.7v1h0c0.4-0.7,1.2-1.1,2-1.1c1.2,0,1.6,0.6,1.9,1.2c0.4-0.8,1.2-1.2,2.1-1.2
		c1.8,0,2,1.3,2,2.5v4.1h-0.7v-4.5c0-0.9-0.3-1.5-1.4-1.5c-0.5,0-1.1,0.2-1.5,0.7c-0.3,0.4-0.4,1.2-0.4,1.7v3.5h-0.7v-4.5
		c0-0.9-0.3-1.5-1.4-1.5c-0.5,0-1.1,0.2-1.5,0.7c-0.3,0.4-0.4,1.2-0.4,1.7V59.7z"/>
	<path fill="#1D2554" d="M232.8,55.9c0.3,0,0.7-0.1,1-0.2c0.2-0.1,0.3-0.4,0.3-0.7c0-0.8-0.4-1.3-1.6-1.3c-1,0-1.7,0.3-1.9,1.5h-0.8
		c0.1-1.5,1.2-2.1,2.6-2.1c1.3,0,2.3,0.5,2.3,2v3.5c0,0.6,0.1,0.7,0.8,0.5v0.6c-0.1,0-0.4,0.1-0.6,0.1c-0.1,0-0.2,0-0.3,0
		c-0.5-0.1-0.6-0.5-0.6-1c-0.6,0.7-1.5,1.1-2.4,1.1c-1.1,0-2.2-0.6-2.2-1.9c0-1.1,0.7-1.7,2.3-1.9L232.8,55.9z M234,56.3
		c-0.6,0.3-1.3,0.3-1.9,0.4c-1.1,0.1-1.8,0.5-1.8,1.4c0,0.8,0.7,1.2,1.4,1.2c1.2,0,2.4-0.6,2.4-1.9V56.3z"/>
	<path fill="#1D2554" d="M239,59.7c-0.2,0-0.5,0.1-0.9,0.1c-0.7,0-1.1-0.3-1.1-1.3v-4.7h-0.9v-0.6h0.9v-1.8h0.7v1.8h1.2v0.6h-1.2
		v4.4c0,0.6,0,0.9,0.6,0.9c0.2,0,0.4,0,0.6-0.1V59.7z"/>
	<path fill="#1D2554" d="M240.3,51.8v-1.1h0.8v1.1H240.3z M240.3,59.7v-6.4h0.7v6.4H240.3z"/>
	<path fill="#1D2554" d="M247.5,55.3c-0.3-1-0.9-1.5-1.9-1.5c-1.5,0-2.2,1.4-2.2,2.7c0,1.4,0.6,2.7,2.2,2.7c1.1,0,1.8-0.7,2-1.7h0.8
		c-0.3,1.4-1.2,2.4-2.8,2.4c-2.1,0-3-1.5-3-3.4c0-1.8,1-3.4,3-3.4c1.5,0,2.5,0.7,2.7,2.2H247.5z"/>
	<path fill="#1D2554" d="M254.2,59.7h-0.7v-9h0.7v3.5c0.5-0.8,1.4-1.2,2.3-1.2c2,0,2.9,1.6,2.9,3.4c0,1.9-0.8,3.4-2.9,3.4
		c-0.8,0-1.8-0.5-2.2-1.3h0V59.7z M256.3,59.2c1.3,0,2.2-0.9,2.2-2.5c0.1-1.6-0.7-2.9-2.2-2.9c-1.4,0-2.2,1.2-2.2,2.7
		C254.2,58,254.9,59.2,256.3,59.2z"/>
	<path fill="#1D2554" d="M261.7,59.7H261v-6.4h0.7v1.2h0c0.4-1,1-1.4,2.1-1.4v0.8c-1.7,0-2.1,1.2-2.1,2.6V59.7z"/>
	<path fill="#1D2554" d="M268,55.9c0.3,0,0.7-0.1,1-0.2c0.2-0.1,0.3-0.4,0.3-0.7c0-0.8-0.4-1.3-1.6-1.3c-1,0-1.7,0.3-1.9,1.5H265
		c0.1-1.5,1.2-2.1,2.6-2.1c1.3,0,2.3,0.5,2.3,2v3.5c0,0.6,0.1,0.7,0.8,0.5v0.6c-0.1,0-0.4,0.1-0.6,0.1c-0.1,0-0.2,0-0.3,0
		c-0.5-0.1-0.6-0.5-0.6-1c-0.6,0.7-1.5,1.1-2.4,1.1c-1.1,0-2.2-0.6-2.2-1.9c0-1.1,0.7-1.7,2.3-1.9L268,55.9z M269.3,56.3
		c-0.6,0.3-1.3,0.3-1.9,0.4c-1.1,0.1-1.8,0.5-1.8,1.4c0,0.8,0.7,1.2,1.4,1.2c1.2,0,2.4-0.6,2.4-1.9V56.3z"/>
	<path fill="#1D2554" d="M272.1,51.8v-1.1h0.8v1.1H272.1z M272.1,59.7v-6.4h0.7v6.4H272.1z"/>
	<path fill="#1D2554" d="M275.5,59.7h-0.7v-6.4h0.7v0.9c0.6-0.6,1.2-1.1,2.1-1.1c0.8,0,1.5,0.2,2,0.9c0.3,0.5,0.3,0.9,0.3,1.5v4.2
		h-0.7v-4.2c0-1.2-0.5-1.7-1.7-1.7c-0.9,0-1.6,0.6-1.8,1.3c-0.1,0.4-0.2,0.8-0.2,1.2V59.7z"/>
	<path fill="#1D2554" d="M285.2,51.8v-1.1h0.8v1.1H285.2z M285.2,59.7v-6.4h0.7v6.4H285.2z"/>
	<path fill="#1D2554" d="M288.6,59.7h-0.7v-6.4h0.7v0.9c0.6-0.6,1.2-1.1,2.1-1.1c0.8,0,1.5,0.2,2,0.9c0.3,0.5,0.3,0.9,0.3,1.5v4.2
		h-0.7v-4.2c0-1.2-0.5-1.7-1.7-1.7c-0.9,0-1.6,0.6-1.8,1.3c-0.1,0.4-0.2,0.8-0.2,1.2V59.7z"/>
	<path fill="#1D2554" d="M295.7,53.2v7.3c0,1.1-0.1,1.7-1.3,1.7c-0.2,0-0.3,0-0.5,0v-0.7c0.9,0.1,1-0.2,1-0.9v-7.4H295.7z
		 M295.8,51.8H295v-1.1h0.8V51.8z"/>
	<path fill="#1D2554" d="M301.9,53.2h0.7v6.4h-0.7v-0.9c-0.4,0.4-0.9,1.1-2.1,1.1c-1.7,0-2.3-1-2.3-2.4v-4.2h0.7v4.2
		c0,1.1,0.5,1.7,1.7,1.7c1.2,0,2-1,2-2.4V53.2z"/>
	<path fill="#1D2554" d="M305.3,59.7h-0.7v-6.4h0.7v1.2h0c0.4-1,1-1.4,2.1-1.4v0.8c-1.7,0-2.1,1.2-2.1,2.6V59.7z"/>
	<path fill="#1D2554" d="M308.7,51.8v-1.1h0.8v1.1H308.7z M308.7,59.7v-6.4h0.7v6.4H308.7z"/>
	<path fill="#1D2554" d="M311.8,56.6c0,1.4,0.7,2.5,2.2,2.5c1,0,1.7-0.5,2-1.5h0.8c-0.4,1.2-1.1,2.2-2.8,2.2c-2.1,0-3-1.5-3-3.4
		c0-1.9,1.1-3.4,3-3.4c1.8,0,2.8,1.3,2.8,3.6H311.8z M316,56c0-1.3-0.7-2.3-2-2.3c-1.3,0-2,1.1-2.2,2.3H316z"/>
	<path fill="#1D2554" d="M318.7,57.7c0.2,1.1,0.8,1.5,1.9,1.5c1.1,0,1.6-0.6,1.6-1.2c0-1.9-4.1-0.5-4.1-3.1c0-1.1,0.8-1.8,2.3-1.8
		c1.4,0,2.3,0.6,2.5,2h-0.8c-0.1-1-0.8-1.4-1.7-1.4c-0.9,0-1.5,0.4-1.5,1.1c0,1.8,4.1,0.7,4.1,3.1c0,1.2-1.1,1.9-2.6,1.9
		c-1.5,0-2.4-1-2.4-2.2H318.7z"/>
	<path fill="#1D2554" d="M142.9,70.9c0.3,0,0.7-0.1,1-0.2c0.2-0.1,0.3-0.4,0.3-0.7c0-0.8-0.4-1.3-1.6-1.3c-1,0-1.7,0.3-1.9,1.5h-0.8
		c0.1-1.5,1.2-2.1,2.6-2.1c1.3,0,2.3,0.5,2.3,2v3.5c0,0.6,0.1,0.7,0.8,0.5v0.6c-0.1,0-0.4,0.1-0.6,0.1c-0.1,0-0.2,0-0.3,0
		c-0.5-0.1-0.6-0.5-0.6-1c-0.6,0.7-1.5,1.1-2.4,1.1c-1.1,0-2.2-0.6-2.2-1.9c0-1.1,0.7-1.7,2.3-1.9L142.9,70.9z M144.2,71.2
		c-0.6,0.3-1.3,0.3-1.9,0.4c-1.1,0.1-1.8,0.5-1.8,1.4c0,0.8,0.7,1.2,1.4,1.2c1.2,0,2.4-0.6,2.4-1.9V71.2z"/>
	<path fill="#1D2554" d="M147.5,74.6h-0.7v-6.4h0.7v1h0c0.4-0.7,1.2-1.1,2-1.1c1.2,0,1.6,0.6,1.9,1.2c0.4-0.8,1.2-1.2,2.1-1.2
		c1.8,0,2,1.3,2,2.5v4.1h-0.7v-4.5c0-0.9-0.3-1.5-1.4-1.5c-0.5,0-1.1,0.2-1.5,0.7c-0.3,0.4-0.4,1.2-0.4,1.7v3.5h-0.7v-4.5
		c0-0.9-0.3-1.5-1.4-1.5c-0.5,0-1.1,0.2-1.5,0.7c-0.3,0.4-0.4,1.2-0.4,1.7V74.6z"/>
	<path fill="#1D2554" d="M156.8,71.4c0-1.9,1-3.4,3-3.4c2,0,3,1.5,3,3.4c0,2-1.2,3.4-3,3.4C158.2,74.8,156.8,73.6,156.8,71.4z
		 M159.8,68.7c-1.6,0-2.2,1.3-2.2,2.7c0,1.6,0.8,2.7,2.2,2.7c1.6,0,2.2-1.3,2.2-2.7C162,69.9,161.4,68.7,159.8,68.7z"/>
	<path fill="#1D2554" d="M164.9,74.6h-0.7v-6.4h0.7v0.9c0.6-0.6,1.2-1.1,2.1-1.1c0.8,0,1.5,0.2,2,0.9c0.3,0.5,0.3,0.9,0.3,1.5v4.2
		h-0.7v-4.2c0-1.2-0.5-1.7-1.7-1.7c-0.9,0-1.6,0.6-1.8,1.3c-0.1,0.4-0.2,0.8-0.2,1.2V74.6z"/>
	<path fill="#1D2554" d="M176.1,68.2h0.7V74c0,1.7-0.6,3.3-3,3.3c-1.9,0-2.7-1.1-2.7-1.9h0.8c0.2,1,1,1.2,1.9,1.2c2,0,2.3-1.5,2.3-3
		c-0.5,0.8-1.4,1.2-2.3,1.2c-2,0-2.9-1.6-2.9-3.4c0-1.9,0.8-3.4,2.9-3.4c0.8,0,1.8,0.5,2.2,1.3h0V68.2z M173.9,68.7
		c-1.3,0-2.2,0.9-2.2,2.5c-0.1,1.6,0.7,2.9,2.2,2.9c1.4,0,2.2-1.2,2.2-2.7C176.1,69.9,175.3,68.7,173.9,68.7z"/>
	<path fill="#1D2554" d="M181.4,74.6l3.5-9h1l3.4,9h-0.9l-1-2.8h-4.1l-1.1,2.8H181.4z M183.6,71.1h3.5l-1.8-4.7L183.6,71.1z"/>
	<path fill="#1D2554" d="M191.1,74.6h-0.7v-6.4h0.7v1h0c0.4-0.7,1.2-1.1,2-1.1c1.2,0,1.6,0.6,1.9,1.2c0.4-0.8,1.2-1.2,2.1-1.2
		c1.8,0,2,1.3,2,2.5v4.1h-0.7v-4.5c0-0.9-0.3-1.5-1.4-1.5c-0.5,0-1.1,0.2-1.5,0.7c-0.3,0.4-0.4,1.2-0.4,1.7v3.5h-0.7v-4.5
		c0-0.9-0.3-1.5-1.4-1.5c-0.5,0-1.1,0.2-1.5,0.7c-0.3,0.4-0.4,1.2-0.4,1.7V74.6z"/>
	<path fill="#1D2554" d="M201.2,71.6c0,1.4,0.7,2.5,2.2,2.5c1,0,1.7-0.5,2-1.5h0.8c-0.4,1.2-1.1,2.2-2.8,2.2c-2.1,0-3-1.5-3-3.4
		c0-1.9,1.1-3.4,3-3.4c1.8,0,2.8,1.3,2.8,3.6H201.2z M205.5,70.9c0-1.3-0.7-2.3-2-2.3c-1.3,0-2,1.1-2.2,2.3H205.5z"/>
	<path fill="#1D2554" d="M208.5,74.6h-0.7v-6.4h0.7v1.2h0c0.4-1,1-1.4,2.1-1.4v0.8c-1.7,0-2.1,1.2-2.1,2.6V74.6z"/>
	<path fill="#1D2554" d="M211.9,66.8v-1.1h0.8v1.1H211.9z M212,74.6v-6.4h0.7v6.4H212z"/>
	<path fill="#1D2554" d="M219.2,70.2c-0.3-1-0.9-1.5-1.9-1.5c-1.5,0-2.2,1.4-2.2,2.7c0,1.4,0.6,2.7,2.2,2.7c1.1,0,1.8-0.7,2-1.7h0.8
		c-0.3,1.4-1.2,2.4-2.8,2.4c-2.1,0-3-1.5-3-3.4c0-1.8,1-3.4,3-3.4c1.5,0,2.5,0.7,2.7,2.2H219.2z"/>
	<path fill="#1D2554" d="M224.5,70.9c0.3,0,0.7-0.1,1-0.2c0.2-0.1,0.3-0.4,0.3-0.7c0-0.8-0.4-1.3-1.6-1.3c-1,0-1.7,0.3-1.9,1.5h-0.8
		c0.1-1.5,1.2-2.1,2.6-2.1c1.3,0,2.3,0.5,2.3,2v3.5c0,0.6,0.1,0.7,0.8,0.5v0.6c-0.1,0-0.4,0.1-0.6,0.1c-0.1,0-0.2,0-0.3,0
		c-0.5-0.1-0.6-0.5-0.6-1c-0.6,0.7-1.5,1.1-2.4,1.1c-1.1,0-2.2-0.6-2.2-1.9c0-1.1,0.7-1.7,2.3-1.9L224.5,70.9z M225.7,71.2
		c-0.6,0.3-1.3,0.3-1.9,0.4c-1.1,0.1-1.8,0.5-1.8,1.4c0,0.8,0.7,1.2,1.4,1.2c1.2,0,2.4-0.6,2.4-1.9V71.2z"/>
	<path fill="#1D2554" d="M229.2,74.6h-0.7v-6.4h0.7v0.9c0.6-0.6,1.2-1.1,2.1-1.1c0.8,0,1.5,0.2,2,0.9c0.3,0.5,0.3,0.9,0.3,1.5v4.2
		h-0.7v-4.2c0-1.2-0.5-1.7-1.7-1.7c-0.9,0-1.6,0.6-1.8,1.3c-0.1,0.4-0.2,0.8-0.2,1.2V74.6z"/>
	<path fill="#1D2554" d="M241.7,70l2.7-4.3h1l-3.2,5v3.9h-0.8v-3.8l-3.2-5.1h1L241.7,70z"/>
	<path fill="#1D2554" d="M244.8,71.4c0-1.9,1-3.4,3-3.4c2,0,3,1.5,3,3.4c0,2-1.2,3.4-3,3.4C246.2,74.8,244.8,73.6,244.8,71.4z
		 M247.8,68.7c-1.6,0-2.2,1.3-2.2,2.7c0,1.6,0.8,2.7,2.2,2.7c1.6,0,2.2-1.3,2.2-2.7C250,69.9,249.4,68.7,247.8,68.7z"/>
	<path fill="#1D2554" d="M256.5,68.2h0.7v6.4h-0.7v-0.9c-0.4,0.4-0.9,1.1-2.1,1.1c-1.7,0-2.3-1-2.3-2.4v-4.2h0.7v4.2
		c0,1.1,0.5,1.7,1.7,1.7c1.2,0,2-1,2-2.4V68.2z"/>
	<path fill="#1D2554" d="M261.4,74.6c-0.2,0-0.5,0.1-0.9,0.1c-0.7,0-1.1-0.3-1.1-1.3v-4.7h-0.9v-0.6h0.9v-1.8h0.7v1.8h1.2v0.6h-1.2
		v4.4c0,0.6,0,0.9,0.6,0.9c0.2,0,0.4,0,0.6-0.1V74.6z"/>
	<path fill="#1D2554" d="M262.5,74.6v-9h0.7v3.4c0.6-0.6,1.2-1.1,2.1-1.1c0.8,0,1.5,0.2,2,0.9c0.3,0.5,0.3,0.9,0.3,1.5v4.2h-0.7
		v-4.2c0-1.2-0.5-1.7-1.7-1.7c-0.9,0-1.6,0.6-1.8,1.3c-0.1,0.4-0.2,0.8-0.2,1.2v3.5H262.5z"/>
	<path fill="#1D2554" d="M269.8,74.6v-1.1h0.9v1.1H269.8z"/>
</g>
<g>
</g>
<g>
</g>
<g>
</g>
<g>
</g>
<g>
</g>
<g>
</g>
</svg>
