<?xml version="1.0" encoding="utf-8"?>
<!-- Generator: Adobe Illustrator 19.1.0, SVG Export Plug-In . SVG Version: 6.00 Build 0)  -->
<svg version="1.1" id="Layer_1" xmlns="http://www.w3.org/2000/svg" xmlns:xlink="http://www.w3.org/1999/xlink" x="0px" y="0px"
	 width="56.9px" height="84.5px" viewBox="0 0 56.9 84.5" style="enable-background:new 0 0 56.9 84.5;" xml:space="preserve">
<style type="text/css">
	.st0{clip-path:url(#SVGID_2_);fill:#ED2224;}
	.st1{clip-path:url(#SVGID_2_);}
	.st2{fill:#010101;}
</style>
<g>
	<g>
		<defs>
			<rect id="SVGID_1_" x="0" y="0.1" width="56.9" height="80.1"/>
		</defs>
		<clipPath id="SVGID_2_">
			<use xlink:href="#SVGID_1_"  style="overflow:visible;"/>
		</clipPath>
		<path class="st0" d="M55,53.2c0,15-12.4,27.1-27.6,27C12.2,80.2,0,68,0,53s12.4-27.1,27.6-27S55.1,38.2,55,53.2"/>
		<path class="st0" d="M1.3,45c0,0,3.4-5-0.3-19.2C-2.6,11.6,2.8,0.9,28.4,0c25.7-0.9,25.4,17.8,24.8,19.3s-5.1,18-0.6,25.4
			c0,0-5.9-13.2-14.8-14.5c0,0,7.2-1,5.6-10.4C42,10.4,31.7,9,27.2,9.1C22.7,9.3,8.5,9.9,10.1,20.1c1.6,10.1,7.3,9.2,7.3,9.2
			S3.1,35.3,1.3,45"/>
		<g class="st1">
			<path class="st2" d="M25.2,43.2h-5v-3.4c2.8-1.4,5.4-3,7.5-4.8h3.2v37.4h-5.7V43.2z"/>
		</g>
	</g>
</g>
<g>
</g>
<g>
</g>
<g>
</g>
<g>
</g>
<g>
</g>
<g>
</g>
</svg>
