<?xml version="1.0" encoding="utf-8"?>
<!-- Generator: Adobe Illustrator 19.1.0, SVG Export Plug-In . SVG Version: 6.00 Build 0)  -->
<svg version="1.1" id="Layer_1" xmlns="http://www.w3.org/2000/svg" xmlns:xlink="http://www.w3.org/1999/xlink" x="0px" y="0px"
	 width="310px" height="68.8px" viewBox="0 0 310 68.8" enable-background="new 0 0 310 68.8" xml:space="preserve">
<g>
	<path fill="#CC2036" stroke="#CC2036" stroke-miterlimit="10" d="M44,24.2v10.6L38.8,40H27v8.7h3.9v4.2H19.2v-4.2h3.5V23.1h-3.5
		v-4.2h19.5L44,24.2z M27,23.1v13.1h10l2.8-2.8v-7.6L37,23.1H27z"/>
	<path fill="#CC2036" stroke="#CC2036" stroke-miterlimit="10" d="M71.8,23.7v9.6l-4.6,4.6h-2.5l5.4,10.8h3.1v4.2H62.8v-4.2h2.9
		l-5.4-10.8h-4.9v10.8h3v4.2H47.6v-4.2h3.5V23.1h-3.5v-4.2h19.4L71.8,23.7z M55.3,23.1v11.6h9.9l2.4-2.4v-6.7l-2.4-2.4H55.3z"/>
	<path fill="#CC2036" stroke="#CC2036" stroke-miterlimit="10" d="M100.2,27.7h-3.5v-4.6H84.1v10.3h8.6v-2.3h3v7.7h-3v-2.3h-8.6
		v12.1h12.6v-4.6h3.5v8.7H76.4v-4.2h3.5V23.1h-3.5v-4.2h23.8V27.7z"/>
	<path fill="#CC2036" stroke="#CC2036" stroke-miterlimit="10" d="M132.4,23.1h-3.6l-8.3,29.7h-5.7l-8.1-29.7h-3.5v-4.2h11.2v4.2h-3
		l6.8,24.6l6.7-24.6H122v-4.2h10.4V23.1z"/>
	<path fill="#CC2036" stroke="#CC2036" stroke-miterlimit="10" d="M159.1,27.7h-3.5v-4.6H143v10.3h8.6v-2.3h3v7.7h-3v-2.3H143v12.1
		h12.6v-4.6h3.5v8.7h-23.9v-4.2h3.5V23.1h-3.5v-4.2h23.8V27.7z"/>
	<path fill="#CC2036" stroke="#CC2036" stroke-miterlimit="10" d="M192.6,23.1H189v29.7h-4.1l-14.2-28v23.9h3.1v4.2h-10.3v-4.2h3.5
		V23.1h-3.5v-4.2h9.1l12.8,25.9V23.1h-3.1v-4.2h10.3V23.1z"/>
	<path fill="#CC2036" stroke="#CC2036" stroke-miterlimit="10" d="M219.3,28.9h-3.6v-6h-6.6v25.8h4v4.2h-12.2v-4.2h4V22.9h-6.6v6
		h-3.6v-9.9h24.6V28.9z"/>
	<path fill="#CC2036" stroke="#CC2036" stroke-miterlimit="10" d="M234.7,23.1h-3.5v25.6h3.5v4.2h-11.3v-4.2h3.5V23.1h-3.5v-4.2
		h11.3V23.1z"/>
	<path fill="#CC2036" stroke="#CC2036" stroke-miterlimit="10" d="M262.2,47.4l-5.5,5.5h-11.2l-5.5-5.5V24.2l5.2-5.2h11.7l5.2,5.2
		V47.4z M247,23.1l-2.8,2.8v19.9l3,3h7.9l3-3V25.8l-2.8-2.8H247z"/>
	<path fill="#CC2036" stroke="#CC2036" stroke-miterlimit="10" d="M295.6,23.1h-3.6v29.7h-4.1l-14.2-28v23.9h3.1v4.2h-10.3v-4.2h3.5
		V23.1h-3.5v-4.2h9.1l12.8,25.9V23.1h-3.1v-4.2h10.3V23.1z"/>
</g>
<g>
</g>
<g>
</g>
<g>
</g>
<g>
</g>
<g>
</g>
<g>
</g>
</svg>
