<?xml version="1.0" encoding="utf-8"?>
<!-- Generator: Adobe Illustrator 19.1.0, SVG Export Plug-In . SVG Version: 6.00 Build 0)  -->
<svg version="1.1" id="Layer_1" xmlns="http://www.w3.org/2000/svg" xmlns:xlink="http://www.w3.org/1999/xlink" x="0px" y="0px"
	 width="94.7px" height="94.7px" viewBox="0 0 94.7 94.7" enable-background="new 0 0 94.7 94.7" xml:space="preserve">
<path fill="#FFFFFF" stroke="#4167B1" stroke-width="3" d="M47.3,1.5C22,1.5,1.5,22,1.5,47.3c0,25.3,20.5,45.8,45.8,45.8
	c25.3,0,45.8-20.5,45.8-45.8C93.2,22,72.6,1.5,47.3,1.5z"/>
<polygon fill="#FFFFFF" stroke="#4167B1" stroke-width="3" points="69.5,24.1 73.7,29.2 73.7,29.2 73.5,48.2 72.6,49 68.7,45.5 
	64.1,41.3 64.1,41.3 61.6,39.1 63.8,73.9 25.9,76.1 29,41.3 18.5,54.9 6.1,44.7 23.7,25.4 35.2,21.9 44.4,25.9 55.4,21.9 64.2,23.3 
	68.9,24 "/>
<polygon fill="#FFFFFF" stroke="#4167B1" stroke-width="3" points="82.7,40.4 78.2,44.2 78.3,34.9 "/>
<g>
	<polygon points="34.4,22 34,75.6 38.7,75.3 39,24 	"/>
	<polygon points="25.2,24.8 25,45.6 28.3,41.3 25.3,76.1 29.5,75.8 29.8,23.3 	"/>
	<polygon points="6.1,44.7 11.3,49.1 11.3,38.8 	"/>
	<polygon points="15.9,33.7 15.8,53 18.1,54.9 20.4,51.8 20.6,28.3 	"/>
	<polygon points="62.3,23.3 62.1,41.3 66.6,45.5 66.8,24 	"/>
	<polygon points="74.7,49.5 74.7,29.7 70.2,24 70.2,48.5 72.3,50.7 	"/>
	<polygon points="43.5,25.7 43.2,75 47.9,74.7 48.2,24 	"/>
	<polygon points="53.8,21.9 52.8,22.3 52.4,74.5 57.2,74.2 57.6,22.5 	"/>
</g>
<polygon stroke="#4167B1" stroke-width="2" points="43.5,25.7 34.3,21.8 31.2,28.8 "/>
<polygon stroke="#4167B1" stroke-width="2" points="43.5,25.7 54,21.8 57.1,28.8 "/>
<g>
</g>
<g>
</g>
<g>
</g>
<g>
</g>
<g>
</g>
<g>
</g>
</svg>
