<?xml version="1.0" encoding="utf-8"?>
<!-- Generator: Adobe Illustrator 19.1.0, SVG Export Plug-In . SVG Version: 6.00 Build 0)  -->
<svg version="1.1" xmlns="http://www.w3.org/2000/svg" xmlns:xlink="http://www.w3.org/1999/xlink" x="0px" y="0px" width="276px"
	 height="390px" viewBox="0 0 276 390" enable-background="new 0 0 276 390" xml:space="preserve">
<g id="sportsdude">
	<path fill="#EDB0A4" d="M177.5,68.6c0-2.2,0.1-4.4,0-6.4v0c0-2.6-0.1-5.1-0.3-7.4v0c0-0.4-0.1-0.9-0.1-1.3
		c-1.9-22.6-11-27.1-34.5-29c-0.4,0-0.8-0.1-1.2-0.1c-0.2,0-0.5,0-0.7-0.1c-13.9-1-29.6,2.5-42.7,9c-0.3,0.2-0.6,0.3-0.9,0.5
		c-11.5,5.9-21,14.2-25.2,24c-0.1,0.3-0.3,0.7-0.4,1c-0.8,2.1-1.4,4.2-1.8,6.3c-0.3,1.7,0,3.4-0.1,5c-1.3,0-2.6,0.2-3.7,0.4
		C54.8,73.1,52.1,84.7,70.1,87c0.7,8.6,2.5,13.5,5.9,16.8c0.3,0.3,0.5,0.5,0.8,0.8c5,4.1,13.1,5.5,26.2,9.2v6.6l0,0l-4.1,1.3
		l-4.4,1.5c0,0,5,9.2,17.6,12.2c0.3,0.1,0.7,0.2,1,0.2c9,1.8,21.6,0.5,38.7-8.9l-10.9-5.7l-3.6-1.9v-4.2
		c18.5-6.7,30.2-24.1,30.6-31.7C188.5,85.2,177.5,68.6,177.5,68.6z M157.4,42.7"/>
	<path fill="#EDB0A4" d="M69.7,173.1c0,0-7,8-15.2,18.1c-5.2,6.4-10.9,13.5-15.6,20c-0.2,0.3-0.4,0.6-0.7,0.9
		c-5.3,7.3-9.1,13.6-9.3,16.6c-0.7,9.8-0.7,16.5-7.6,16.5c-6.9,0,3.5-11.1,0-16.5c0,0-4,9-9.3,12c-8.1,4.7-6.6-3.9,3.1-12
		c5.8-4.9,0-5.6-7.6,0c-4.4,3.3-13.8-2.2,6.2-10.5c0,0-13.1,0-11.1-6.2c10.4,1.4,12.4-4.8,22.1,0l5.4-8.2l0.6-0.9l16-24.5l11.9-18.1
		L69.7,173.1z"/>
	<polygon fill="#EDB0A4" points="139.1,363.5 147.7,299.9 127.7,299.5 127.6,361.3 	"/>
	<polygon fill="#EDB0A4" points="93.2,305.2 91.9,312.2 81.5,365.9 69.7,365.9 72.2,324.4 72.3,323.4 73.5,302.7 73.6,301.8 
		88.2,304.3 89.3,304.5 	"/>
	<path fill="#EDB0A4" d="M168,165.5l11.1-12.8l33.9,51.7c9.7-4.8,11.7,1.4,22.1,0c2.1,6.2-11.1,6.2-11.1,6.2
		c20,8.3,10.6,13.8,6.2,10.5c-7.6-5.6-13.4-4.9-7.6,0c9.7,8.2,11.2,16.8,3.1,12c-5.3-3.1-9.3-12-9.3-12c-3.5,5.4,6.9,16.5,0,16.5
		c-6.9,0-6.9-6.7-7.6-16.5C208,211.3,168,165.5,168,165.5z"/>
	<path fill="#2CBCEE" d="M160,301.6c0,0-3.9,2.8-13.2,4.3c-4.9,0.7-11.2,1.1-19.2,0.4c-2.8-0.2-5.8-0.6-9-1.1l-3.1-41.5
		c0,0-6.4,1-12.8,44.6c0,0-1.2,5.8-11,3.9c-1-0.2-2.1-0.5-3.3-0.8c-0.3-0.1-0.7-0.2-1-0.3c-3.7-1.3-8.3-3.4-14.1-6.8
		c0,0,0-0.5,0-1.5c0-1.4,0-3.6,0.1-6.6c0.1-2,0.1-4.3,0.3-6.9c0-0.3,0-0.7,0.1-1c0.8-14.2,3.3-35.4,10.6-53.7v0
		c1.4-3.6,3-7.1,4.9-10.4l32.6,1.8l1.1,0.1l5.2,0.3l1.1,0.1l22.6,1.3c0,0,0,1.5,0,4.2c0.1,4.3,0.2,11.4,0.8,19.9c0,0,0,0.1,0,0.1
		c0,0.3,0,0.7,0.1,1c0,0,0,0,0,0C153.8,268,155.8,287.2,160,301.6z"/>
	<path fill="#FFFFFF" d="M193.4,156.9c0,0.1,0,0.2,0,0.3c-0.1,0.8-0.2,1.7-0.4,2.6c-0.4,2-1.3,4.3-2.8,6.6c-0.3,0.5-0.7,1-1.1,1.5
		c-2.5,3-6.3,5.9-12.2,7.9c-3.2,1.1-7.1,1.9-11.7,2.3l-13.8-12.5l4.1,7.6v57.4c0,0-1.2,0.4-3.4,1.1c-4.4,1.4-12.6,3.7-22.4,5.4
		c-0.3,0.1-0.7,0.1-1,0.2c-2.1,0.3-4.2,0.6-6.4,0.9c-0.3,0-0.7,0.1-1,0.1c-12.2,1.3-25.6,0.9-36.7-3.8v0c-2.5-1.1-4.9-2.3-7.1-3.9
		c0,0,2.8-40.8,7.6-60.1c-8.3,4.8-18,28.3-26.9,23.5c-1.4-0.8-2.5-1.7-3.5-2.7c-3.2-3.4-4.3-8.1-7.7-12.8c-1.9-2.7-4.6-5.5-8.9-8
		c0.5-0.6,1-1.3,1.5-1.9c0.1-0.1,0.2-0.2,0.2-0.3c8.9-11,16.3-19.7,22.6-26.5c0.3-0.3,0.5-0.6,0.8-0.9c22.3-24.3,28.9-24,36.4-23
		c0.4,1.9,1.7,4.6,3.6,7.4c2.4,3.6,5.9,7.3,10.2,9.5c0.3,0.2,0.7,0.3,1,0.5c7.1,3.3,16.2,2.5,26.2-8.7c0,0,0,0,0,0
		c0.2-0.2,0.4-0.5,0.6-0.7c0.5-0.6,1-1.2,1.5-1.9c0.8-1,1.6-2.2,2.5-3.3c0,0,9.7-2.1,20.7,4.1l27.6,29.7c0,0,0,0,0,0.1
		C193.4,154.9,193.5,155.7,193.4,156.9z"/>
	<path fill="#5E2E21" d="M190.6,57.8l-11-4.7l-1-0.4l-1.1-0.4c0.1,0.5,0.2,0.9,0.3,1.4c0.1,0.4,0.1,0.9,0.2,1.3v0
		c0.4,3,0.1,5.8-0.5,8.2v0c-3.4,12.4-17.6,17.4-18.1,17.6c5.5-7.2,7.9-13.8,8.5-19.7v0c0-0.4,0.1-0.7,0.1-1.1
		c1-13.4-7.2-22.2-7.2-22.2l-3.5,5.9c-6.4-0.2-13.3-3-18.6-5.9c-0.3-0.2-0.7-0.4-1-0.6c-5.1-2.9-8.5-5.6-8.5-5.6
		c0.4,8.1,4.1,10.7,6.5,11.6c-12.6-3-21.1-11.6-21.1-11.6c-6.2,10.4-11.8,17.1-16.6,21.3c-1,0.9-1.9,1.6-2.9,2.3
		c-8.1,6-13.1,4.7-13.1,4.7c7.6-9,0-10.4,0-10.4c-2.9,4.1-4.7,7.9-5.7,11.3c-0.1,0.3-0.2,0.7-0.3,1c-3.6,14.1,6,22.2,6,22.2
		c-10.4-0.8-14.9-6-16.1-12.5c-0.9-4.8-0.1-10.4,1.5-15.2l0.4-1.2c0.1-0.3,0.2-0.6,0.3-0.9c-0.4,0-0.7-0.1-1.1-0.1
		c-0.5,0-0.9,0-1.3,0c-7.1,0-8.5,4-8.6,6.5c0-5.3,2.5-9.5,5.9-12.8c0.3-0.3,0.6-0.5,0.9-0.8c7.6-6.7,18.9-9.3,18.9-9.3
		c-7.6-6.9-12.1-0.7-12.1-0.7C72.4,32.5,75,28.9,78,26c0.5-0.4,0.9-0.9,1.4-1.3C91.4,14.6,109,15,109,15l-9-4.8
		c11.7-1.4,18.7,6.2,18.7,6.2c-1.4-14.5,19.2-13.1,19.2-13.1C124.4,5.7,125.6,15,125.6,15c50.4-8.3,60.1,9.3,60.1,9.3
		c-2.2-0.3-4.1-0.4-5.5-0.4c-0.4,0-0.9,0-1.3,0.1c-5.8,0.5-5,3.4-5,3.4c4.2,3,7.4,5.9,9.8,8.8c0.4,0.5,0.7,0.9,1.1,1.4c0,0,0,0,0,0
		c0,0,0.1,0.1,0.1,0.1c0.3,0.4,0.5,0.7,0.8,1C193.3,49.4,190.6,57.8,190.6,57.8z"/>
	<path fill="#4167B1" d="M81.5,382.4c-14.7,6.2-49.4,0-49.4,0C25.8,356.5,51.2,356,59,360.1c7.8,4.1,22.5,0,22.5,0V382.4z"/>
	<polygon fill="#2CBCEE" points="61.6,361.2 50.1,385.2 57.6,385.2 69,361.2 	"/>
	<path fill="#4167B1" d="M126.7,381.4c14.7,6.2,49.4,0,49.4,0c6.2-25.9-19.2-26.4-26.9-22.3s-22.5,0-22.5,0V381.4z"/>
	<polygon fill="#2CBCEE" points="146.6,360.2 158.1,384.2 150.6,384.2 139.2,360.2 	"/>
	<ellipse cx="105" cy="77.4" rx="2.1" ry="5.7"/>
	<ellipse cx="137.6" cy="77.4" rx="2.1" ry="5.7"/>
	<g>
		<path fill="#FFFFFF" stroke="#2CBCEE" stroke-width="3" stroke-miterlimit="10" d="M127.9,173.2h-5v-5.3h-14.7v10.9h15.7l4.6,4.5
			v14.2l-6,6h-13.7l-6-6v-7.7h5v5.6l3.1,3.1h9.5l3.1-3.1v-9.8l-2.1-2.1h-18.2v-20.5h24.7V173.2z"/>
	</g>
	<path fill="#8A5143" d="M260.9,232.9c0,0.4,0,0.7,0,1c-0.1,1-0.2,1.9-0.4,2.8c-0.1,0.4-0.2,0.8-0.3,1.2
		c-2.6,8.5-11.2,14.3-11.2,14.3c-23.5,15.9-48.9,2.5-50-15.7c-0.1-0.9-0.1-1.7-0.1-2.5c0-0.4,0-0.7-0.1-1c-0.6-12.6,0-17.9,4.1-23.3
		c0.9-1.2,2-2.3,3.2-3.6c1.4-1.7,2.9-3.4,4.5-4.9c8.6-8,20.4-12.7,30.3-12.9c0.8,0,1.6,0,2.4,0c7.2,0.4,13.1,3.4,15.8,9.6
		c0.1,0.2,0.2,0.4,0.2,0.5c0.1,0.2,0.1,0.3,0.2,0.5c0.4,1.2,0.7,2.5,0.9,3.9c0.1,1,0.2,2.1,0.2,3.2c0,0.8-0.1,1.5-0.2,2.1
		c-0.5,2.1-1.9,3.4-3.6,4.2c-0.1,0-0.1,0-0.2,0.1c-0.3,0.1-0.7,0.2-1,0.3c-0.7,0.2-1.3,0.3-2,0.4c-3,0.3-6.2-0.2-8-0.6h0
		c-0.2,0-0.4-0.1-0.5-0.1c-0.2-0.1-0.4-0.1-0.5-0.1c-0.3-0.1-0.4-0.1-0.4-0.1c0.1,0.1,0.3,0.2,0.4,0.3c0.2,0.1,0.4,0.2,0.5,0.3
		c0.2,0.1,0.3,0.2,0.5,0.3c0,0,0,0,0.1,0c1.1,0.7,2.2,1.4,3.2,2.1c1.2,0.9,2.4,1.7,3.4,2.6c0.5,0.4,1,0.9,1.5,1.3
		c1.2,1.2,2.3,2.3,3.2,3.5c0,0.1,0.1,0.1,0.1,0.2c0.3,0.4,0.6,0.8,0.9,1.2c0.1,0.1,0.1,0.2,0.2,0.3c0.1,0.2,0.2,0.4,0.3,0.5
		c0,0,0,0,0,0c0.1,0.2,0.2,0.3,0.3,0.5c0.7,1.2,1.2,2.4,1.5,3.5C260.7,230.1,260.9,231.5,260.9,232.9z"/>
	<g>
		<path fill="#CC2036" stroke="#4167B1" stroke-miterlimit="10" d="M84.4,172.7c-0.2-0.5-0.5-0.9-0.7-1.3c-2-3.5-4.5-6.7-7.7-9.6
			c-0.4-0.4-0.8-0.7-1.3-1.1c-0.9-0.8-1.9-1.5-3-2.3c-5.2-3.6-11.1-5.9-17.3-7.5c-0.1,0-0.1,0-0.2,0c0,0,0,0,0,0
			c-2.2-0.6-4.5-1-6.8-1.3c-1.4-0.2-4.2-0.8-6.8-1c-2-0.1-3.8,0-4.7,0.7c-0.3,0.3-0.6,0.9-0.9,1.6c0,0,0,0,0,0
			c-0.9,2.8-1.2,7.8-1.3,9.2c-1.2,9.9-0.6,20,2.9,28.9c0.2,0.5,0.4,1,0.7,1.5c2.8,6.2,7.1,11.8,13.3,16.1
			c7.8,5.5,17.3,8.7,26.7,10.4c0.3,0.1,0.7,0.1,1.1,0.2c2.8,0.6,8.3,2,9.6,1c1.6-1.4,1.9-9.8,2.2-11.5c0-0.1,0-0.1,0-0.2
			c0,0,0,0,0,0C90.8,194.6,89.7,182.6,84.4,172.7z"/>
		<path fill="#1D2554" d="M44.3,149.1c0,0-0.1,0-0.1,0c-7.5-0.4-7.6-1.3-9.6,5.8c0.2-1.3,0.4-2.6,0.6-3.9c0,0,0,0,0,0
			c0.2-1,0.3-2.1,0.5-3.1c1.7,0.2,3.4,0.5,5.1,0.7c0.9,0.1,1.8,0.3,2.7,0.4c0.1,0,0.1,0,0.2,0c0.1,0,0.2,0,0.4,0.1
			C44,149,44.1,149,44.3,149.1z"/>
		<path fill="#FFFFFF" d="M55.8,176.4c-0.7,0.6-1.3,1.1-2,1.7c-2.3-1.7-2-2.8,0.7-3.5c-1.9-2.5-1.6-3.7-4.3-1.3
			c-2.3-1.7-2.1-2.9,0.6-3.6c-0.8-1-1.6-2-2.3-3c4.8-3.5,1.7,3.5,6.2-0.1c2.2,1.6,2,2.7-0.5,3.4c1.8,2.4,1.5,3.7,4.2,1.5
			c2.2,1.6,2.1,2.7-0.4,3.5c0.4,0.5,0.7,1,1.1,1.5c0.5,1.6,1.2,1.9,2,0.7c0.7-1.1,1.3-1,1.7,0.3c1.3,1.1,0.9,1.9-1.2,2.4
			c1.8,2.3,1.5,3.6,4.1,1.5c2.2,1.6,2.1,2.7-0.5,3.4c1.8,2.4,1.5,3.7,4.2,1.5c2.2,1.6,2.1,2.7-0.4,3.5c0.4,0.5,0.8,1,1.1,1.5
			c0.5,1.7,1.2,1.9,2,0.7c0.7-1.1,1.3-1,1.7,0.3c1.4,1.1,0.9,1.9-1.3,2.4c0.8,1,1.6,2,2.4,3c-4.9,3.4-1.5-3.9-6.3,0.3
			c-2.3-1.7-2.1-2.9,0.6-3.6c-1.9-2.5-1.5-3.7-4.3-1.3c-2.3-1.6-2.1-2.8,0.6-3.5c-1.9-2.5-1.6-3.8-4.3-1.4c-2.3-1.7-2.1-2.9,0.5-3.6
			c-0.8-1-1.5-2-2.3-3c-1.4,2.4-2.6,2.2-3.5-0.5C59,178.9,57.7,178.9,55.8,176.4C55.2,176.9,56.7,177.4,55.8,176.4z"/>
	</g>
	<path fill="#F15623" d="M163,129.2l27.6,29.7c0,0,0.7,5.6-2.9,11.4c6.8-6.8,5.7-14.8,5.7-14.8l-27.6-29.7
		c-11.1-6.2-20.7-4.1-20.7-4.1c-0.8,1.2-1.7,2.3-2.5,3.4C144,124.8,152.9,123.5,163,129.2z"/>
	<path fill="#F15623" d="M155.4,176.2v55.2c0,0-1,0.4-2.8,0.9v-54.8l-4.1-7.6L155.4,176.2z"/>
	<path fill="#F15623" d="M140.7,126.2c-0.1,0.2-0.2,0.3-0.3,0.5c0,0,0,0,0,0c-10.1,13.2-19.4,15.4-26.9,12.9c-0.3-0.1-0.7-0.2-1-0.4
		c-6.1-2.4-10.9-7.8-13.6-12.5c-1.2-2.1-2-4-2.3-5.4c-7.2-1-13.5-1.3-33.5,19.9c-0.3,0.3-0.5,0.6-0.8,0.8c-0.2,0.2-0.4,0.4-0.6,0.7
		c-0.2,0.3-0.5,0.5-0.7,0.8c-2.1,2.2-4.3,4.7-6.6,7.3c-4.4,5-9.2,10.7-14.7,17.4c-0.1,0.1-0.1,0.2-0.2,0.3c-0.5,0.6-1,1.2-1.5,1.8
		c0,0,0,0,0,0c6.1-7.5,11.4-14,16.2-19.5c2.3-2.7,4.5-5.2,6.5-7.4c0.2-0.3,0.5-0.5,0.7-0.8c0.3-0.3,0.5-0.6,0.8-0.8
		c0.3-0.3,0.5-0.6,0.8-0.9c22.3-24.3,28.9-24.1,36.4-23c0.4,1.9,1.7,4.7,3.6,7.5c2.4,3.6,5.9,7.2,10.2,9.5c0.3,0.2,0.7,0.3,1,0.5
		C121.4,138.6,130.7,137.8,140.7,126.2z"/>
	<path fill="#5E2E21" d="M251.9,222.9v-7h7.5c0-0.9,0-1.8-0.1-2.6h-7.4v-7h6c-0.6-1.8-1.2-3.1-1.6-4c-0.4-0.8-0.7-1.2-0.7-1.2
		c-4.4,0.3-8.3,0.5-11.6,0.7c-0.2,0-0.4,0-0.5,0c-0.2,0-0.5,0-0.7,0c0,0-0.1,0-0.1,0c-0.2,0-0.4,0-0.6,0
		c-14.1,0.8-17.3,0.9-17.3,0.9c0.3,1.8,0.7,3.5,1.1,5.2c0.4,1.9,0.9,3.6,1.5,5.3c0.7,2.1,1.4,4,2.1,5.8v-3.1h8v7h-6.3
		c0.7,1.4,1.4,2.8,2.1,4h4.2v6.4c0.1,0.1,0.1,0.2,0.2,0.3c0.5,0.6,0.9,1.1,1.4,1.7c5.1,6,9.4,8.3,9.4,8.3c1.9-2.4,3.5-4.7,4.8-7
		c0.2-0.4,0.5-0.8,0.7-1.2c0.3-0.5,0.5-1,0.8-1.4h-2.8v-7h5.7c0.4-1.4,0.8-2.7,1-4H251.9z M237.4,213.3h-8v-7h8V213.3z M248.6,206.3
		v7h-8v-7H248.6z M240.6,215.9h8v7h-8V215.9z M248.7,233.9h-8v-7h8V233.9z"/>
	<g>
		<circle fill="#FFFFFF" cx="258.3" cy="211.5" r="13.1"/>
		<path fill="#4167B1" d="M259.2,197.9c-0.3,0-0.7,0-1,0c-4.6,0-8.7,2.3-11.2,5.8c-1.6,2.2-2.5,4.9-2.5,7.9c0,0.2,0,0.5,0,0.7
			c0,0,0,0.1,0,0.1c0.1,1.9,0.6,3.7,1.5,5.3c1.6,3.1,4.3,5.5,7.6,6.7c1.4,0.5,2.9,0.8,4.5,0.8c0.1,0,0.3,0,0.4,0
			c1.1,0,2.1-0.2,3.1-0.5c5.8-1.6,10.1-6.9,10.1-13.2C271.9,204.3,266.3,198.4,259.2,197.9z M258.3,224.1c-0.1,0-0.1,0-0.2,0
			c-0.1,0-0.2,0-0.2,0c-0.3,0-0.6,0-0.9-0.1c0,0-0.1,0-0.1,0c-1.1-0.1-2.1-0.4-3.1-0.8c-2.8-1.1-5-3.1-6.5-5.6
			c-0.5-0.8-0.8-1.7-1.1-2.6c-0.2-0.7-0.3-1.4-0.4-2.1c0-0.2,0-0.4-0.1-0.6c0,0,0-0.1,0-0.1c0-0.3,0-0.5,0-0.8c0-0.3,0-0.5,0-0.8
			c0.1-0.9,0.2-1.8,0.4-2.6c0.4-1.4,1.1-2.8,1.9-4c0.1-0.2,0.3-0.4,0.4-0.6c0.1-0.1,0.1-0.2,0.2-0.3c2.3-2.7,5.8-4.4,9.6-4.4
			c0.5,0,0.9,0,1.4,0.1c0.7,0.1,1.3,0.2,1.9,0.4c0.3,0.1,0.7,0.2,1,0.3c4.8,1.8,8.3,6.4,8.3,11.9c0,2-0.5,4-1.3,5.7
			c-0.1,0.3-0.3,0.6-0.5,0.9C266.8,221.7,262.8,224.1,258.3,224.1z"/>
	</g>
	<g>
		<path fill="#CC2036" stroke="#CC2036" stroke-miterlimit="10" stroke-dasharray="1,1" d="M257.8,224.1l-0.9-0.1
			c1.9-8.7-0.7-14.4-8.9-19.9l0.6-0.8C257.2,209.1,259.9,214.9,257.8,224.1z"/>
	</g>
	<g>
		<path fill="#CC2036" stroke="#CC2036" stroke-miterlimit="10" stroke-dasharray="1,1" d="M269,218.1c-6.9-5.4-9.1-10.6-7.4-18.7
			l1,0.3c-1.6,7.9,0.3,12.4,6.9,17.5L269,218.1z"/>
	</g>
</g>
<g id="baseball">
	<g>
		<circle fill="#FFFFFF" cx="258.3" cy="211.5" r="13.1"/>
		<path fill="#4167B1" d="M259.2,197.9c-0.3,0-0.7,0-1,0c-4.6,0-8.7,2.3-11.2,5.8c-1.6,2.2-2.5,4.9-2.5,7.9c0,0.2,0,0.5,0,0.7
			c0,0,0,0.1,0,0.1c0.1,1.9,0.6,3.7,1.5,5.3c1.6,3.1,4.3,5.5,7.6,6.7c1.4,0.5,2.9,0.8,4.5,0.8c0.1,0,0.3,0,0.4,0
			c1.1,0,2.1-0.2,3.1-0.5c5.8-1.6,10.1-6.9,10.1-13.2C271.9,204.3,266.3,198.4,259.2,197.9z M258.3,224.1c-0.1,0-0.1,0-0.2,0
			c-0.1,0-0.2,0-0.2,0c-0.3,0-0.6,0-0.9-0.1c0,0-0.1,0-0.1,0c-1.1-0.1-2.1-0.4-3.1-0.8c-2.8-1.1-5-3.1-6.5-5.6
			c-0.5-0.8-0.8-1.7-1.1-2.6c-0.2-0.7-0.3-1.4-0.4-2.1c0-0.2,0-0.4-0.1-0.6c0,0,0-0.1,0-0.1c0-0.3,0-0.5,0-0.8c0-0.3,0-0.5,0-0.8
			c0.1-0.9,0.2-1.8,0.4-2.6c0.4-1.4,1.1-2.8,1.9-4c0.1-0.2,0.3-0.4,0.4-0.6c0.1-0.1,0.1-0.2,0.2-0.3c2.3-2.7,5.8-4.4,9.6-4.4
			c0.5,0,0.9,0,1.4,0.1c0.7,0.1,1.3,0.2,1.9,0.4c0.3,0.1,0.7,0.2,1,0.3c4.8,1.8,8.3,6.4,8.3,11.9c0,2-0.5,4-1.3,5.7
			c-0.1,0.3-0.3,0.6-0.5,0.9C266.8,221.7,262.8,224.1,258.3,224.1z"/>
	</g>
	<g>
		<path fill="#CC2036" stroke="#CC2036" stroke-miterlimit="10" stroke-dasharray="1,1" d="M257.8,224.1l-0.9-0.1
			c1.9-8.7-0.7-14.4-8.9-19.9l0.6-0.8C257.2,209.1,259.9,214.9,257.8,224.1z"/>
	</g>
	<g>
		<path fill="#CC2036" stroke="#CC2036" stroke-miterlimit="10" stroke-dasharray="1,1" d="M269,218.1c-6.9-5.4-9.1-10.6-7.4-18.7
			l1,0.3c-1.6,7.9,0.3,12.4,6.9,17.5L269,218.1z"/>
	</g>
	<g>
	</g>
	<g>
	</g>
	<g>
	</g>
	<g>
	</g>
	<g>
	</g>
	<g>
	</g>
</g>
</svg>
