<?xml version="1.0" encoding="utf-8"?>
<!-- Generator: Adobe Illustrator 19.1.0, SVG Export Plug-In . SVG Version: 6.00 Build 0)  -->
<svg version="1.1" id="Layer_1" xmlns="http://www.w3.org/2000/svg" xmlns:xlink="http://www.w3.org/1999/xlink" x="0px" y="0px"
	 width="352.5px" height="106.5px" viewBox="0 0 352.5 106.5" enable-background="new 0 0 352.5 106.5" xml:space="preserve">
<circle fill="#231F20" cx="170.7" cy="34.4" r="17.4"/>
<g>
	<path fill="#F15623" d="M157.4,45.7C157.3,45.7,157.3,45.7,157.4,45.7c-0.2-0.2-0.3-0.4-0.5-0.6c-0.2-0.2-0.3-0.4-0.5-0.6
		c-0.1-0.2-0.3-0.4-0.4-0.6c-0.1-0.2-0.3-0.5-0.4-0.7c-0.3-0.6-0.6-1.2-0.9-1.8c-0.2-0.4-0.3-0.8-0.5-1.3c-0.1-0.4-0.2-0.7-0.3-1.1
		c-0.1-0.5-0.3-1-0.3-1.6c-0.1-0.5-0.2-1-0.2-1.5c0-0.3,0-0.6-0.1-1c0-0.2,0-0.4,0-0.6c0-0.1,0-0.1,0.1-0.1c0.6-0.2,1.2-0.4,1.8-0.5
		c0.6-0.1,1.2-0.2,1.7-0.3c0.3,0,0.6,0,0.9,0c0.4,0,0.8,0,1.1,0c0.4,0,0.8,0.1,1.2,0.1c0.5,0.1,1.1,0.2,1.6,0.3
		c0.5,0.1,0.9,0.3,1.3,0.5c0.3,0.1,0.7,0.3,1,0.5c0.6,0.3,1.1,0.6,1.6,1c0.2,0.2,0.4,0.3,0.6,0.5c0.3,0.3,0.4,0.7,0.2,1.1
		c-0.1,0.2-0.3,0.4-0.5,0.6c-2.8,2.6-5.5,5.2-8.3,7.7c0,0-0.1,0.1-0.1,0.1C157.5,45.9,157.4,45.8,157.4,45.7z"/>
	<path fill="#F15623" d="M183.2,22c0,0-0.1,0.1-0.1,0.1c-2.8,2.6-5.5,5.2-8.3,7.8c-0.2,0.2-0.5,0.4-0.9,0.5c-0.3,0-0.5,0-0.7-0.2
		c-0.3-0.2-0.4-0.5-0.6-0.7c-0.3-0.4-0.5-0.9-0.8-1.3c-0.2-0.4-0.3-0.7-0.5-1.1c-0.2-0.4-0.3-0.8-0.4-1.2c-0.2-0.6-0.3-1.2-0.3-1.7
		c0-0.4-0.1-0.9-0.1-1.3c0-0.4,0-0.8,0-1.2c0-0.6,0.1-1.2,0.3-1.8c0.1-0.5,0.2-1,0.4-1.5c0.1-0.4,0.3-0.8,0.5-1.2
		c0-0.1,0.1-0.1,0.1-0.1c0.4,0,0.8,0.1,1.1,0.1c0.6,0.1,1.3,0.2,1.9,0.3c0.5,0.1,1,0.3,1.5,0.4c0.4,0.1,0.8,0.3,1.1,0.4
		c0.4,0.2,0.8,0.4,1.2,0.6c0.6,0.3,1.2,0.6,1.7,1c0.3,0.2,0.6,0.4,0.9,0.7c0.2,0.2,0.5,0.4,0.7,0.6c0.1,0.1,0.2,0.2,0.4,0.3
		c0.2,0.2,0.3,0.3,0.5,0.5c0,0,0,0,0,0C183,21.8,183.1,21.9,183.2,22z"/>
	<path fill="#F15623" d="M158.3,46.8c0,0,0.1-0.1,0.1-0.1c2.8-2.6,5.5-5.2,8.3-7.8c0.2-0.2,0.5-0.4,0.9-0.5c0.3,0,0.5,0,0.7,0.2
		c0.3,0.2,0.4,0.5,0.6,0.7c0.3,0.4,0.5,0.9,0.8,1.3c0.2,0.4,0.3,0.7,0.5,1.1c0.2,0.4,0.3,0.8,0.4,1.2c0.2,0.6,0.3,1.2,0.3,1.7
		c0,0.4,0.1,0.9,0.1,1.3c0,0.4,0,0.8,0,1.2c-0.1,0.5-0.1,1.1-0.2,1.6c-0.1,0.6-0.3,1.2-0.5,1.8c-0.1,0.4-0.3,0.8-0.5,1.1
		c0,0-0.1,0-0.1,0c-0.3,0-0.7-0.1-1-0.1c-0.4,0-0.7-0.1-1.1-0.2c-0.5-0.1-1-0.2-1.5-0.3c-0.6-0.1-1.2-0.4-1.8-0.6
		c-0.5-0.2-1-0.4-1.5-0.7c-0.6-0.3-1.2-0.6-1.7-1c-0.3-0.2-0.6-0.4-0.9-0.7c-0.2-0.2-0.5-0.4-0.7-0.6c-0.1-0.1-0.2-0.2-0.4-0.3
		c-0.2-0.2-0.3-0.3-0.5-0.5c0,0,0,0,0,0C158.4,46.9,158.4,46.8,158.3,46.8z"/>
	<path fill="#F15623" d="M184.1,23C184.1,23,184.1,23,184.1,23c0.1,0.2,0.2,0.3,0.3,0.4c0.2,0.2,0.3,0.4,0.4,0.6
		c0.2,0.2,0.3,0.4,0.5,0.6c0.2,0.2,0.3,0.5,0.5,0.7c0.4,0.6,0.7,1.3,1,2c0.2,0.4,0.3,0.8,0.5,1.3c0.1,0.4,0.2,0.7,0.3,1.1
		c0.1,0.5,0.3,1.1,0.4,1.6c0.1,0.5,0.1,1,0.2,1.5c0,0.3,0,0.6,0.1,1c0,0.2,0,0.4,0,0.6c0,0.1,0,0.1-0.1,0.1c-0.3,0.1-0.7,0.2-1,0.3
		c-0.8,0.2-1.6,0.4-2.4,0.5c-0.4,0-0.7,0.1-1.1,0.1c-0.4,0-0.8,0-1.2,0c-0.6,0-1.2-0.1-1.8-0.2c-0.7-0.1-1.4-0.4-2-0.6
		c-0.4-0.1-0.7-0.3-1.1-0.5c-0.4-0.2-0.8-0.5-1.2-0.7c-0.3-0.2-0.7-0.5-1-0.7c-0.3-0.2-0.5-0.5-0.5-0.9c0-0.2,0.1-0.4,0.2-0.6
		c0.1-0.2,0.3-0.4,0.4-0.5c2.7-2.6,5.5-5.1,8.2-7.7c0,0,0.1-0.1,0.1-0.1C184,22.8,184,22.9,184.1,23z"/>
	<path fill="#F15623" d="M158.3,21.9c0,0,0.1,0.1,0.1,0.1c3.5,3.8,7,7.5,10.6,11.3c0.3,0.3,0.4,0.6,0.5,1c0,0.2,0,0.4-0.2,0.6
		c-0.2,0.3-0.5,0.6-0.8,0.7c-0.3,0.1-0.6,0.1-0.9,0.1c-0.3-0.1-0.6-0.3-0.9-0.5c-0.4-0.3-0.9-0.6-1.3-0.9c-0.5-0.3-1.1-0.6-1.7-0.9
		c-0.5-0.2-1-0.4-1.5-0.6c-0.4-0.1-0.8-0.2-1.2-0.3c-0.4-0.1-0.9-0.2-1.4-0.2c-0.4-0.1-0.9-0.1-1.3-0.1c-0.6,0-1.1,0-1.7,0.1
		c-0.6,0.1-1.2,0.2-1.8,0.3c-0.5,0.1-1,0.3-1.5,0.4c0,0-0.1,0-0.1,0c0-0.2,0-0.4,0-0.5c0-0.3,0.1-0.5,0.1-0.8c0-0.3,0.1-0.6,0.2-0.9
		c0.1-0.4,0.2-0.9,0.3-1.3c0.2-0.6,0.4-1.2,0.6-1.8c0.3-0.7,0.6-1.4,1-2c0.3-0.5,0.6-1,1-1.5c0.2-0.3,0.4-0.5,0.6-0.8
		c0.1-0.2,0.3-0.4,0.4-0.5c0.2-0.3,0.5-0.5,0.7-0.8c0,0,0,0,0,0C158.2,22.1,158.3,22,158.3,21.9z"/>
	<path fill="#F15623" d="M182.1,47.7C182.1,47.7,182.1,47.7,182.1,47.7c-0.2,0.1-0.3,0.2-0.4,0.3c-0.2,0.1-0.4,0.3-0.6,0.4
		c-0.2,0.1-0.4,0.3-0.6,0.4c-0.3,0.2-0.6,0.4-0.9,0.6c-0.6,0.4-1.3,0.7-1.9,1c-0.4,0.2-0.8,0.3-1.3,0.5c-0.4,0.1-0.7,0.2-1.1,0.3
		c-0.7,0.2-1.5,0.4-2.3,0.5c-0.4,0.1-0.8,0.1-1.3,0.1c-0.3,0-0.6,0-0.8,0c0,0,0,0-0.1,0c0.1-0.2,0.1-0.4,0.2-0.6
		c0.1-0.3,0.2-0.5,0.3-0.8c0.1-0.5,0.3-0.9,0.4-1.4c0.1-0.4,0.2-0.9,0.2-1.3c0.1-0.4,0.1-0.8,0.1-1.3c0-0.7,0-1.4-0.1-2.1
		c-0.1-0.6-0.2-1.2-0.4-1.8c-0.2-0.7-0.4-1.3-0.7-1.9c-0.3-0.6-0.5-1.2-0.9-1.7c-0.2-0.3-0.4-0.6-0.6-1c-0.3-0.4-0.4-0.9-0.2-1.4
		c0.1-0.1,0.1-0.3,0.2-0.4c0.2-0.2,0.4-0.4,0.6-0.5c0.3-0.2,0.6-0.2,0.9,0c0.2,0.1,0.4,0.3,0.6,0.5c3.5,3.7,7,7.5,10.5,11.2
		c0,0,0.1,0.1,0.1,0.1C182.3,47.6,182.2,47.7,182.1,47.7z"/>
	<path fill="#F15623" d="M183.1,46.8c0,0-0.1-0.1-0.1-0.1c-3.5-3.8-7-7.5-10.6-11.3c-0.3-0.3-0.4-0.6-0.5-1c0-0.2,0-0.4,0.2-0.6
		c0.2-0.3,0.5-0.6,0.8-0.7c0.3-0.1,0.6-0.1,0.9-0.1c0.3,0.1,0.6,0.3,0.9,0.5c0.4,0.3,0.9,0.6,1.3,0.9c0.5,0.3,1.1,0.6,1.7,0.9
		c0.5,0.2,1,0.4,1.5,0.6c0.4,0.1,0.8,0.2,1.2,0.3c0.4,0.1,0.9,0.2,1.4,0.2c0.4,0.1,0.9,0.1,1.3,0.1c0.7,0,1.3,0,2-0.1
		c0.6-0.1,1.2-0.2,1.8-0.4c0.4-0.1,0.8-0.2,1.2-0.3c0,0,0.1,0,0.1,0c0,0.2,0,0.4,0,0.5c0,0.3-0.1,0.5-0.1,0.8c0,0.3-0.1,0.6-0.2,0.9
		c-0.1,0.4-0.2,0.9-0.3,1.3c-0.2,0.6-0.4,1.1-0.6,1.7c-0.3,0.7-0.6,1.4-1,2.1c-0.3,0.5-0.6,1-1,1.5c-0.2,0.3-0.4,0.5-0.6,0.8
		c-0.1,0.2-0.3,0.4-0.5,0.5c-0.2,0.2-0.3,0.4-0.5,0.6c-0.1,0.1-0.1,0.1-0.2,0.2c0,0,0,0,0,0.1C183.3,46.7,183.2,46.7,183.1,46.8z"/>
	<path fill="#F15623" d="M159.4,21C159.4,21,159.4,21,159.4,21c0.2-0.2,0.4-0.3,0.6-0.5c0.2-0.2,0.4-0.3,0.6-0.5
		c0.2-0.1,0.4-0.3,0.6-0.4c0.2-0.2,0.5-0.3,0.7-0.4c0.6-0.3,1.2-0.6,1.8-0.9c0.4-0.2,0.8-0.3,1.3-0.5c0.4-0.1,0.7-0.2,1.1-0.3
		c0.5-0.1,1.1-0.3,1.6-0.4c0.5-0.1,1-0.1,1.5-0.2c0.3,0,0.6,0,1-0.1c0.1,0,0.3,0,0.4,0c-0.1,0.2-0.1,0.3-0.2,0.5
		c-0.1,0.3-0.2,0.6-0.3,0.8c-0.1,0.5-0.3,0.9-0.4,1.4c-0.1,0.4-0.2,0.9-0.2,1.3c-0.1,0.4-0.1,0.9-0.1,1.3c0,0.5,0,1.1,0.1,1.6
		c0,0.6,0.1,1.2,0.3,1.7c0.1,0.6,0.3,1.2,0.5,1.7c0.2,0.5,0.4,1,0.6,1.4c0.3,0.6,0.6,1.1,0.9,1.7c0.1,0.2,0.3,0.4,0.3,0.6
		c0.2,0.4,0.2,0.8,0,1.2c-0.1,0.1-0.1,0.3-0.2,0.4c-0.2,0.2-0.4,0.4-0.6,0.5c-0.3,0.2-0.6,0.2-0.9,0c-0.2-0.1-0.4-0.3-0.6-0.5
		c-3.5-3.7-7-7.5-10.5-11.2c0,0-0.1-0.1-0.1-0.1C159.2,21.1,159.3,21,159.4,21z"/>
</g>
<g>
	<path fill="#4167B1" stroke="#4167B1" stroke-width="0.8393" stroke-miterlimit="10" d="M38.4,22v4.7h-4.1v-2.9l-2.4-2.4h-7.7
		l-2.4,2.4v5.9l1.8,1.7h11.3l3.8,3.7v10.4l-4.9,4.9H22.7l-4.9-4.9v-6h4.1v4.3l2.6,2.6h7.8l2.5-2.6v-6.9l-1.7-1.7H21.6l-3.8-3.8V22
		l4.7-4.7h11.3L38.4,22z"/>
	<path fill="#4167B1" stroke="#4167B1" stroke-width="0.8393" stroke-miterlimit="10" d="M66.9,22.4v10.3l-5.1,5.1H50.4v8.5h3.8v4.1
		H42.8v-4.1h3.4v-25h-3.4v-4.1h19L66.9,22.4z M50.4,21.4v12.8h9.8l2.7-2.7v-7.4l-2.7-2.7H50.4z"/>
	<path fill="#4167B1" stroke="#4167B1" stroke-width="0.8393" stroke-miterlimit="10" d="M92.1,45.1l-5.3,5.3H75.9l-5.3-5.3V22.4
		l5.1-5.1H87l5.1,5.1V45.1z M77.3,21.4l-2.7,2.7v19.4l2.9,2.9h7.7l2.9-2.9V24.1l-2.7-2.7H77.3z"/>
	<path fill="#4167B1" stroke="#4167B1" stroke-width="0.8393" stroke-miterlimit="10" d="M120,22v9.4l-4.5,4.5H113l5.3,10.5h3v4.1
		h-10.2v-4.1h2.8l-5.3-10.5h-4.8v10.5h2.9v4.1H96.4v-4.1h3.4V21.4h-3.4v-4.1h19L120,22z M103.9,21.4v11.3h9.6l2.4-2.4v-6.6l-2.4-2.4
		H103.9z"/>
	<path fill="#4167B1" stroke="#4167B1" stroke-width="0.8393" stroke-miterlimit="10" d="M147.3,27h-3.5v-5.8h-6.5v25.1h3.9v4.1
		h-11.9v-4.1h3.9V21.2h-6.5V27h-3.5v-9.7h24V27z"/>
</g>
<g>
	<path fill="#CC2036" d="M76.9,60.8v4.8h-4.2v-3l-2.5-2.5h-8l-2.5,2.5v6.1l1.9,1.8h11.7l3.9,3.8v10.8l-5.1,5.1H60.6l-5.1-5.1v-6.3
		h4.2v4.5l2.6,2.6h8l2.6-2.6v-7.1l-1.8-1.8H59.5l-4-3.9v-9.7l4.8-4.8h11.7L76.9,60.8z"/>
	<path fill="#CC2036" d="M106.5,61.3V72l-5.2,5.3H89.4V86h3.9v4.2H81.5V86h3.6V60.2h-3.6V56h19.7L106.5,61.3z M89.4,60.2v13.2h10.1
		l2.8-2.8V63l-2.8-2.8H89.4z"/>
	<path fill="#CC2036" d="M132.6,84.7l-5.5,5.5h-11.3l-5.5-5.5V61.3l5.3-5.3h11.8l5.3,5.3V84.7z M117.2,60.2l-2.8,2.8v20.1l3,3h8l3-3
		V63l-2.8-2.8H117.2z"/>
	<path fill="#CC2036" d="M161.4,60.8v9.7l-4.6,4.6h-2.5l5.5,10.9h3.1v4.2h-10.5V86h2.9l-5.5-10.9h-5V86h3v4.2H137V86h3.6V60.2H137
		V56h19.6L161.4,60.8z M144.8,60.2v11.7h10l2.4-2.4v-6.8l-2.4-2.4H144.8z"/>
	<path fill="#CC2036" d="M189.8,66h-3.6v-6h-6.7v26h4.1v4.2h-12.3V86h4.1V60h-6.7v6h-3.6V56h24.9V66z"/>
</g>
<path fill="#CC2036" d="M42.9,56.2c1,0,5.8-0.5,6.7,0.3c0.8,0.7,0.3,5,0.2,6.2c-0.2,5.4-1.3,11.1-3.7,16
	c-4.8,9.6-14.8,13.1-24.9,13.3c-1,0-5.5,0.4-6.3-0.4c-1.1-1-0.8-5.1-0.8-6.5c0-4.9,0.8-10,3-14.4C22.1,60.5,32.4,57,42.9,56.2
	C44.2,56.2,42.3,56.2,42.9,56.2z"/>
<g>
	<g>
		<path fill="#1D2554" d="M207.9,28.7L207.9,28.7l2-7.8h0.9l-2.4,9h-0.9l-2.1-7.9h0l-2.1,7.9h-0.9l-2.3-9h0.8l1.9,7.8h0l2.1-7.8h0.9
			L207.9,28.7z"/>
		<path fill="#1D2554" d="M211.8,29.9v-9h0.7v3.4c0.6-0.6,1.2-1.1,2.1-1.1c0.8,0,1.5,0.2,2,0.9c0.3,0.5,0.3,0.9,0.3,1.5v4.2h-0.7
			v-4.2c0-1.2-0.5-1.7-1.7-1.7c-0.9,0-1.6,0.6-1.8,1.3c-0.1,0.4-0.2,0.8-0.2,1.2v3.5H211.8z"/>
		<path fill="#1D2554" d="M218.8,22v-1.1h0.8V22H218.8z M218.9,29.9v-6.4h0.7v6.4H218.9z"/>
		<path fill="#1D2554" d="M221.6,29.9v-9h0.7v9H221.6z"/>
		<path fill="#1D2554" d="M224.7,26.8c0,1.4,0.7,2.5,2.2,2.5c1,0,1.7-0.5,2-1.5h0.8c-0.4,1.2-1.1,2.2-2.8,2.2c-2.1,0-3-1.5-3-3.4
			c0-1.9,1.1-3.4,3-3.4c1.8,0,2.8,1.3,2.8,3.6H224.7z M228.9,26.2c0-1.3-0.7-2.3-2-2.3c-1.3,0-2,1.1-2.2,2.3H228.9z"/>
		<path fill="#1D2554" d="M234.7,22v-1.1h0.8V22H234.7z M234.7,29.9v-6.4h0.7v6.4H234.7z"/>
		<path fill="#1D2554" d="M238.1,29.9h-0.7v-6.4h0.7v0.9c0.6-0.6,1.2-1.1,2.1-1.1c0.8,0,1.5,0.2,2,0.9c0.3,0.5,0.3,0.9,0.3,1.5v4.2
			h-0.7v-4.2c0-1.2-0.5-1.7-1.7-1.7c-0.9,0-1.6,0.6-1.8,1.3c-0.1,0.4-0.2,0.8-0.2,1.2V29.9z"/>
		<path fill="#1D2554" d="M245.3,23.4v7.3c0,1.1-0.1,1.7-1.3,1.7c-0.2,0-0.3,0-0.5,0v-0.7c0.9,0.1,1-0.2,1-0.9v-7.4H245.3z
			 M245.3,22h-0.8v-1.1h0.8V22z"/>
		<path fill="#1D2554" d="M251.4,23.4h0.7v6.4h-0.7V29c-0.4,0.4-0.9,1.1-2.1,1.1c-1.7,0-2.3-1-2.3-2.4v-4.2h0.7v4.2
			c0,1.1,0.5,1.7,1.7,1.7c1.2,0,2-1,2-2.4V23.4z"/>
		<path fill="#1D2554" d="M254.8,29.9H254v-6.4h0.7v1.2h0c0.4-1,1-1.4,2.1-1.4v0.8c-1.7,0-2.1,1.2-2.1,2.6V29.9z"/>
		<path fill="#1D2554" d="M258.2,22v-1.1h0.8V22H258.2z M258.2,29.9v-6.4h0.7v6.4H258.2z"/>
		<path fill="#1D2554" d="M261.3,26.8c0,1.4,0.7,2.5,2.2,2.5c1,0,1.7-0.5,2-1.5h0.8c-0.4,1.2-1.1,2.2-2.8,2.2c-2.1,0-3-1.5-3-3.4
			c0-1.9,1.1-3.4,3-3.4c1.8,0,2.8,1.3,2.8,3.6H261.3z M265.6,26.2c0-1.3-0.7-2.3-2-2.3c-1.3,0-2,1.1-2.2,2.3H265.6z"/>
		<path fill="#1D2554" d="M268.2,27.9c0.2,1.1,0.8,1.5,1.9,1.5c1.1,0,1.6-0.6,1.6-1.2c0-1.9-4.1-0.5-4.1-3.1c0-1.1,0.8-1.8,2.3-1.8
			c1.4,0,2.3,0.6,2.5,2h-0.8c-0.1-1-0.8-1.4-1.7-1.4c-0.9,0-1.5,0.4-1.5,1.1c0,1.8,4.1,0.7,4.1,3.1c0,1.2-1.1,1.9-2.6,1.9
			c-1.5,0-2.4-1-2.4-2.2H268.2z"/>
		<path fill="#1D2554" d="M282,25.5c-0.3-1-0.9-1.5-1.9-1.5c-1.5,0-2.2,1.4-2.2,2.7c0,1.4,0.6,2.7,2.2,2.7c1.1,0,1.8-0.7,2-1.7h0.8
			c-0.3,1.4-1.2,2.4-2.8,2.4c-2.1,0-3-1.5-3-3.4c0-1.8,1-3.4,3-3.4c1.5,0,2.5,0.7,2.7,2.2H282z"/>
		<path fill="#1D2554" d="M287.4,26.1c0.3,0,0.7-0.1,1-0.2c0.2-0.1,0.3-0.4,0.3-0.7c0-0.8-0.4-1.3-1.6-1.3c-1,0-1.7,0.3-1.9,1.5
			h-0.8c0.1-1.5,1.2-2.1,2.6-2.1c1.3,0,2.3,0.5,2.3,2v3.5c0,0.6,0.1,0.7,0.8,0.5v0.6c-0.1,0-0.4,0.1-0.6,0.1c-0.1,0-0.2,0-0.3,0
			c-0.5-0.1-0.6-0.5-0.6-1c-0.6,0.7-1.5,1.1-2.4,1.1c-1.1,0-2.2-0.6-2.2-1.9c0-1.1,0.7-1.7,2.3-1.9L287.4,26.1z M288.6,26.5
			c-0.6,0.3-1.3,0.3-1.9,0.4c-1.1,0.1-1.8,0.5-1.8,1.4c0,0.8,0.7,1.2,1.4,1.2c1.2,0,2.4-0.6,2.4-1.9V26.5z"/>
		<path fill="#1D2554" d="M292.1,29.9h-0.7v-6.4h0.7v0.9c0.6-0.6,1.2-1.1,2.1-1.1c0.8,0,1.5,0.2,2,0.9c0.3,0.5,0.3,0.9,0.3,1.5v4.2
			h-0.7v-4.2c0-1.2-0.5-1.7-1.7-1.7c-0.9,0-1.6,0.6-1.8,1.3c-0.1,0.4-0.2,0.8-0.2,1.2V29.9z"/>
		<path fill="#1D2554" d="M302.5,29.9h-0.7v-6.4h0.7v1.2h0c0.4-1,1-1.4,2.1-1.4v0.8c-1.7,0-2.1,1.2-2.1,2.6V29.9z"/>
		<path fill="#1D2554" d="M308.8,26.1c0.3,0,0.7-0.1,1-0.2c0.2-0.1,0.3-0.4,0.3-0.7c0-0.8-0.4-1.3-1.6-1.3c-1,0-1.7,0.3-1.9,1.5
			h-0.8c0.1-1.5,1.2-2.1,2.6-2.1c1.3,0,2.3,0.5,2.3,2v3.5c0,0.6,0.1,0.7,0.8,0.5v0.6c-0.1,0-0.4,0.1-0.6,0.1c-0.1,0-0.2,0-0.3,0
			c-0.5-0.1-0.6-0.5-0.6-1c-0.6,0.7-1.5,1.1-2.4,1.1c-1.1,0-2.2-0.6-2.2-1.9c0-1.1,0.7-1.7,2.3-1.9L308.8,26.1z M310,26.5
			c-0.6,0.3-1.3,0.3-1.9,0.4c-1.1,0.1-1.8,0.5-1.8,1.4c0,0.8,0.7,1.2,1.4,1.2c1.2,0,2.4-0.6,2.4-1.9V26.5z"/>
		<path fill="#1D2554" d="M313.5,29.9h-0.7v-6.4h0.7v0.9c0.6-0.6,1.2-1.1,2.1-1.1c0.8,0,1.5,0.2,2,0.9c0.3,0.5,0.3,0.9,0.3,1.5v4.2
			h-0.7v-4.2c0-1.2-0.5-1.7-1.7-1.7c-0.9,0-1.6,0.6-1.8,1.3c-0.1,0.4-0.2,0.8-0.2,1.2V29.9z"/>
		<path fill="#1D2554" d="M324.6,23.4h0.7v5.8c0,1.7-0.6,3.3-3,3.3c-1.9,0-2.7-1.1-2.7-1.9h0.8c0.2,1,1,1.2,1.9,1.2
			c2,0,2.3-1.5,2.3-3c-0.5,0.8-1.4,1.2-2.3,1.2c-2,0-2.9-1.6-2.9-3.4c0-1.9,0.8-3.4,2.9-3.4c0.8,0,1.8,0.5,2.2,1.3h0V23.4z
			 M322.4,23.9c-1.3,0-2.2,0.9-2.2,2.5c-0.1,1.6,0.7,2.9,2.2,2.9c1.4,0,2.2-1.2,2.2-2.7C324.6,25.1,323.9,23.9,322.4,23.9z"/>
		<path fill="#1D2554" d="M327.7,26.8c0,1.4,0.7,2.5,2.2,2.5c1,0,1.7-0.5,2-1.5h0.8c-0.4,1.2-1.1,2.2-2.8,2.2c-2.1,0-3-1.5-3-3.4
			c0-1.9,1.1-3.4,3-3.4c1.8,0,2.8,1.3,2.8,3.6H327.7z M331.9,26.2c0-1.3-0.7-2.3-2-2.3c-1.3,0-2,1.1-2.2,2.3H331.9z"/>
		<path fill="#1D2554" d="M200.1,39v-0.6h1v-1c0-1,0.4-1.7,1.4-1.7c0.2,0,0.4,0,0.6,0v0.7c-0.1,0-0.3-0.1-0.4-0.1
			c-0.8,0-0.8,0.6-0.8,1.2v0.8h1.2V39h-1.2v5.8h-0.7V39H200.1z"/>
		<path fill="#1D2554" d="M205,44.8h-0.7v-6.4h0.7v1.2h0c0.4-1,1-1.4,2.1-1.4V39c-1.7,0-2.1,1.2-2.1,2.6V44.8z"/>
		<path fill="#1D2554" d="M207.7,41.6c0-1.9,1-3.4,3-3.4c2,0,3,1.5,3,3.4c0,2-1.2,3.4-3,3.4C209.1,44.9,207.7,43.8,207.7,41.6z
			 M210.7,38.8c-1.6,0-2.2,1.3-2.2,2.7c0,1.6,0.8,2.7,2.2,2.7c1.6,0,2.2-1.3,2.2-2.7C212.9,40.1,212.3,38.8,210.7,38.8z"/>
		<path fill="#1D2554" d="M215.7,44.8H215v-6.4h0.7v1h0c0.4-0.7,1.2-1.1,2-1.1c1.2,0,1.6,0.6,1.9,1.2c0.4-0.8,1.2-1.2,2.1-1.2
			c1.8,0,2,1.3,2,2.5v4.1H223v-4.5c0-0.9-0.3-1.5-1.4-1.5c-0.5,0-1.1,0.2-1.5,0.7c-0.3,0.4-0.4,1.2-0.4,1.7v3.5H219v-4.5
			c0-0.9-0.3-1.5-1.4-1.5c-0.5,0-1.1,0.2-1.5,0.7c-0.3,0.4-0.4,1.2-0.4,1.7V44.8z"/>
		<path fill="#1D2554" d="M229.3,42.8c0.2,1.1,0.8,1.5,1.9,1.5c1.1,0,1.6-0.6,1.6-1.2c0-1.9-4.1-0.5-4.1-3.1c0-1.1,0.8-1.8,2.3-1.8
			c1.4,0,2.3,0.6,2.5,2h-0.8c-0.1-1-0.8-1.4-1.7-1.4c-0.9,0-1.5,0.4-1.5,1.1c0,1.8,4.1,0.7,4.1,3.1c0,1.2-1.1,1.9-2.6,1.9
			c-1.5,0-2.4-1-2.5-2.2H229.3z"/>
		<path fill="#1D2554" d="M239.7,40.4c-0.3-1-0.9-1.5-1.9-1.5c-1.5,0-2.2,1.4-2.2,2.7c0,1.4,0.6,2.7,2.2,2.7c1.1,0,1.8-0.7,2-1.7
			h0.8c-0.3,1.4-1.2,2.4-2.8,2.4c-2.1,0-3-1.5-3-3.4c0-1.8,1-3.4,3-3.4c1.5,0,2.5,0.7,2.7,2.2H239.7z"/>
		<path fill="#1D2554" d="M242.8,44.8H242v-6.4h0.7v1.2h0c0.4-1,1-1.4,2.1-1.4V39c-1.7,0-2.1,1.2-2.1,2.6V44.8z"/>
		<path fill="#1D2554" d="M249.1,41c0.3,0,0.7-0.1,1-0.2c0.2-0.1,0.3-0.4,0.3-0.7c0-0.8-0.4-1.3-1.6-1.3c-1,0-1.7,0.3-1.9,1.5h-0.8
			c0.1-1.5,1.2-2.1,2.6-2.1c1.3,0,2.3,0.5,2.3,2v3.5c0,0.6,0.1,0.7,0.8,0.5v0.6c-0.1,0-0.4,0.1-0.6,0.1c-0.1,0-0.2,0-0.3,0
			c-0.5-0.1-0.6-0.5-0.6-1c-0.6,0.7-1.5,1.1-2.4,1.1c-1.1,0-2.2-0.6-2.2-1.9c0-1.1,0.7-1.7,2.2-1.9L249.1,41z M250.4,41.4
			c-0.6,0.3-1.3,0.3-1.9,0.4c-1.1,0.1-1.8,0.5-1.8,1.4c0,0.8,0.7,1.2,1.4,1.2c1.2,0,2.4-0.6,2.4-1.9V41.4z"/>
		<path fill="#1D2554" d="M253.9,47.3h-0.7v-9h0.7v1.1h0c0.4-0.8,1.4-1.3,2.2-1.3c2.1,0,2.9,1.5,2.9,3.4c0,1.8-0.9,3.4-2.9,3.4
			c-0.9,0-1.8-0.4-2.3-1.2V47.3z M256.1,44.3c1.5,0,2.3-1.3,2.2-2.9c0-1.6-0.9-2.5-2.2-2.5c-1.4,0-2.2,1.2-2.2,2.7
			C253.9,43.1,254.7,44.3,256.1,44.3z"/>
		<path fill="#1D2554" d="M261.1,41.7c0,1.4,0.7,2.5,2.2,2.5c1,0,1.7-0.5,2-1.5h0.8c-0.4,1.2-1.1,2.2-2.8,2.2c-2.1,0-3-1.5-3-3.4
			c0-1.9,1.1-3.4,3-3.4c1.8,0,2.8,1.3,2.8,3.6H261.1z M265.3,41.1c0-1.3-0.7-2.3-2-2.3c-1.3,0-2,1.1-2.2,2.3H265.3z"/>
		<path fill="#1D2554" d="M268,42.8c0.2,1.1,0.8,1.5,1.9,1.5c1.1,0,1.6-0.6,1.6-1.2c0-1.9-4.1-0.5-4.1-3.1c0-1.1,0.8-1.8,2.3-1.8
			c1.4,0,2.3,0.6,2.5,2h-0.8c-0.1-1-0.8-1.4-1.7-1.4c-0.9,0-1.5,0.4-1.5,1.1c0,1.8,4.1,0.7,4.1,3.1c0,1.2-1.1,1.9-2.6,1.9
			c-1.5,0-2.4-1-2.4-2.2H268z"/>
		<path fill="#1D2554" d="M280.2,41c0.3,0,0.7-0.1,1-0.2c0.2-0.1,0.3-0.4,0.3-0.7c0-0.8-0.4-1.3-1.6-1.3c-1,0-1.7,0.3-1.9,1.5h-0.8
			c0.1-1.5,1.2-2.1,2.6-2.1c1.3,0,2.3,0.5,2.3,2v3.5c0,0.6,0.1,0.7,0.8,0.5v0.6c-0.1,0-0.4,0.1-0.6,0.1c-0.1,0-0.2,0-0.3,0
			c-0.5-0.1-0.6-0.5-0.6-1c-0.6,0.7-1.5,1.1-2.4,1.1c-1.1,0-2.2-0.6-2.2-1.9c0-1.1,0.7-1.7,2.2-1.9L280.2,41z M281.5,41.4
			c-0.6,0.3-1.3,0.3-1.9,0.4c-1.1,0.1-1.8,0.5-1.8,1.4c0,0.8,0.7,1.2,1.4,1.2c1.2,0,2.4-0.6,2.4-1.9V41.4z"/>
		<path fill="#1D2554" d="M284.9,44.8h-0.7v-6.4h0.7v0.9c0.6-0.6,1.2-1.1,2.1-1.1c0.8,0,1.5,0.2,2,0.9c0.3,0.5,0.3,0.9,0.3,1.5v4.2
			h-0.7v-4.2c0-1.2-0.5-1.7-1.7-1.7c-0.9,0-1.6,0.6-1.8,1.3c-0.1,0.4-0.2,0.8-0.2,1.2V44.8z"/>
		<path fill="#1D2554" d="M296.1,35.8h0.7v9h-0.7v-1.1h0c-0.4,0.8-1.4,1.3-2.2,1.3c-2.1,0-2.9-1.5-2.9-3.4c0-1.8,0.9-3.4,2.9-3.4
			c0.9,0,1.8,0.4,2.3,1.2V35.8z M293.9,38.8c-1.5,0-2.3,1.3-2.2,2.9c0,1.6,0.9,2.5,2.2,2.5c1.4,0,2.2-1.2,2.2-2.7
			C296.1,40.1,295.2,38.8,293.9,38.8z"/>
		<path fill="#1D2554" d="M303,44.8h-0.7v-9h0.7v3.5c0.5-0.8,1.4-1.2,2.3-1.2c2,0,2.9,1.6,2.9,3.4c0,1.9-0.8,3.4-2.9,3.4
			c-0.8,0-1.8-0.5-2.2-1.3h0V44.8z M305.2,44.3c1.3,0,2.2-0.9,2.2-2.5c0.1-1.6-0.7-2.9-2.2-2.9c-1.4,0-2.2,1.2-2.2,2.7
			C303,43.1,303.7,44.3,305.2,44.3z"/>
		<path fill="#1D2554" d="M310.5,44.8h-0.7v-6.4h0.7v1.2h0c0.4-1,1-1.4,2.1-1.4V39c-1.7,0-2.1,1.2-2.1,2.6V44.8z"/>
		<path fill="#1D2554" d="M318.2,38.4h0.7v6.4h-0.7v-0.9c-0.4,0.4-0.9,1.1-2.1,1.1c-1.7,0-2.3-1-2.3-2.4v-4.2h0.7v4.2
			c0,1.1,0.5,1.7,1.7,1.7c1.2,0,2-1,2-2.4V38.4z"/>
		<path fill="#1D2554" d="M320.9,36.9v-1.1h0.8v1.1H320.9z M320.9,44.8v-6.4h0.7v6.4H320.9z"/>
		<path fill="#1D2554" d="M324,42.8c0.2,1.1,0.8,1.5,1.9,1.5c1.1,0,1.6-0.6,1.6-1.2c0-1.9-4.1-0.5-4.1-3.1c0-1.1,0.8-1.8,2.3-1.8
			c1.4,0,2.3,0.6,2.5,2h-0.8c-0.1-1-0.8-1.4-1.7-1.4c-0.9,0-1.5,0.4-1.5,1.1c0,1.8,4.1,0.7,4.1,3.1c0,1.2-1.1,1.9-2.6,1.9
			c-1.5,0-2.4-1-2.5-2.2H324z"/>
		<path fill="#1D2554" d="M330.2,41.7c0,1.4,0.7,2.5,2.2,2.5c1,0,1.7-0.5,2-1.5h0.8c-0.4,1.2-1.1,2.2-2.8,2.2c-2.1,0-3-1.5-3-3.4
			c0-1.9,1.1-3.4,3-3.4c1.8,0,2.8,1.3,2.8,3.6H330.2z M334.4,41.1c0-1.3-0.7-2.3-2-2.3c-1.3,0-2,1.1-2.2,2.3H334.4z"/>
		<path fill="#1D2554" d="M337.1,42.8c0.2,1.1,0.8,1.5,1.9,1.5c1.1,0,1.6-0.6,1.6-1.2c0-1.9-4.1-0.5-4.1-3.1c0-1.1,0.8-1.8,2.3-1.8
			c1.4,0,2.3,0.6,2.5,2h-0.8c-0.1-1-0.8-1.4-1.7-1.4c-0.9,0-1.5,0.4-1.5,1.1c0,1.8,4.1,0.7,4.1,3.1c0,1.2-1.1,1.9-2.6,1.9
			c-1.5,0-2.4-1-2.4-2.2H337.1z"/>
		<path fill="#1D2554" d="M203,59.7c-0.2,0-0.5,0.1-0.9,0.1c-0.7,0-1.1-0.3-1.1-1.3v-4.7h-0.9v-0.6h0.9v-1.8h0.7v1.8h1.2v0.6h-1.2
			v4.4c0,0.6,0,0.9,0.6,0.9c0.2,0,0.4,0,0.6-0.1V59.7z"/>
		<path fill="#1D2554" d="M203.8,56.5c0-1.9,1-3.4,3-3.4c2,0,3,1.5,3,3.4c0,2-1.2,3.4-3,3.4C205.1,59.9,203.8,58.7,203.8,56.5z
			 M206.8,53.8c-1.6,0-2.2,1.3-2.2,2.7c0,1.6,0.8,2.7,2.2,2.7c1.6,0,2.2-1.3,2.2-2.7C209,55,208.4,53.8,206.8,53.8z"/>
		<path fill="#1D2554" d="M215.4,59.7h-0.7v-9h0.7v3.5c0.5-0.8,1.4-1.2,2.3-1.2c2,0,2.9,1.6,2.9,3.4c0,1.9-0.8,3.4-2.9,3.4
			c-0.8,0-1.8-0.5-2.2-1.3h0V59.7z M217.6,59.2c1.3,0,2.2-0.9,2.2-2.5c0.1-1.6-0.7-2.9-2.2-2.9c-1.4,0-2.2,1.2-2.2,2.7
			C215.4,58,216.2,59.2,217.6,59.2z"/>
		<path fill="#1D2554" d="M223,59.7h-0.7v-6.4h0.7v1.2h0c0.4-1,1-1.4,2.1-1.4v0.8c-1.7,0-2.1,1.2-2.1,2.6V59.7z"/>
		<path fill="#1D2554" d="M229.3,56c0.3,0,0.7-0.1,1-0.2c0.2-0.1,0.3-0.4,0.3-0.7c0-0.8-0.4-1.3-1.6-1.3c-1,0-1.7,0.3-1.9,1.5h-0.8
			c0.1-1.5,1.2-2.1,2.6-2.1c1.3,0,2.3,0.5,2.3,2v3.5c0,0.6,0.1,0.7,0.8,0.5v0.6c-0.1,0-0.4,0.1-0.6,0.1c-0.1,0-0.2,0-0.3,0
			c-0.5-0.1-0.6-0.5-0.6-1c-0.6,0.7-1.5,1.1-2.4,1.1c-1.1,0-2.2-0.6-2.2-1.9c0-1.1,0.7-1.7,2.3-1.9L229.3,56z M230.6,56.3
			c-0.6,0.3-1.3,0.3-1.9,0.4c-1.1,0.1-1.8,0.5-1.8,1.4c0,0.8,0.7,1.2,1.4,1.2c1.2,0,2.4-0.6,2.4-1.9V56.3z"/>
		<path fill="#1D2554" d="M233.3,51.9v-1.1h0.8v1.1H233.3z M233.4,59.7v-6.4h0.7v6.4H233.4z"/>
		<path fill="#1D2554" d="M236.8,59.7H236v-6.4h0.7v0.9c0.6-0.6,1.2-1.1,2.1-1.1c0.8,0,1.5,0.2,2,0.9c0.3,0.5,0.3,0.9,0.3,1.5v4.2
			h-0.7v-4.2c0-1.2-0.5-1.7-1.7-1.7c-0.9,0-1.6,0.6-1.8,1.3c-0.1,0.4-0.2,0.8-0.2,1.2V59.7z"/>
		<path fill="#1D2554" d="M249.3,56c0.3,0,0.7-0.1,1-0.2c0.2-0.1,0.3-0.4,0.3-0.7c0-0.8-0.4-1.3-1.6-1.3c-1,0-1.7,0.3-1.9,1.5h-0.8
			c0.1-1.5,1.2-2.1,2.6-2.1c1.3,0,2.3,0.5,2.3,2v3.5c0,0.6,0.1,0.7,0.8,0.5v0.6c-0.1,0-0.4,0.1-0.6,0.1c-0.1,0-0.2,0-0.3,0
			c-0.5-0.1-0.6-0.5-0.6-1c-0.6,0.7-1.5,1.1-2.4,1.1c-1.1,0-2.2-0.6-2.2-1.9c0-1.1,0.7-1.7,2.2-1.9L249.3,56z M250.6,56.3
			c-0.6,0.3-1.3,0.3-1.9,0.4c-1.1,0.1-1.8,0.5-1.8,1.4c0,0.8,0.7,1.2,1.4,1.2c1.2,0,2.4-0.6,2.4-1.9V56.3z"/>
		<path fill="#1D2554" d="M254,59.7h-0.7v-6.4h0.7v0.9c0.6-0.6,1.2-1.1,2.1-1.1c0.8,0,1.5,0.2,2,0.9c0.3,0.5,0.3,0.9,0.3,1.5v4.2
			h-0.7v-4.2c0-1.2-0.5-1.7-1.7-1.7c-0.9,0-1.6,0.6-1.8,1.3c-0.1,0.4-0.2,0.8-0.2,1.2V59.7z"/>
		<path fill="#1D2554" d="M265.2,50.8h0.7v9h-0.7v-1.1h0c-0.4,0.8-1.4,1.3-2.2,1.3c-2.1,0-2.9-1.5-2.9-3.4c0-1.8,0.9-3.4,2.9-3.4
			c0.9,0,1.8,0.4,2.3,1.2V50.8z M263,53.8c-1.5,0-2.3,1.3-2.2,2.9c0,1.6,0.9,2.5,2.2,2.5c1.4,0,2.2-1.2,2.2-2.7
			C265.2,55,264.4,53.8,263,53.8z"/>
		<path fill="#1D2554" d="M271.7,57.7c0.2,1.1,0.8,1.5,1.9,1.5c1.1,0,1.6-0.6,1.6-1.2c0-1.9-4.1-0.5-4.1-3.1c0-1.1,0.8-1.8,2.3-1.8
			c1.4,0,2.3,0.6,2.5,2h-0.8c-0.1-1-0.8-1.4-1.7-1.4c-0.9,0-1.5,0.4-1.5,1.1c0,1.8,4.1,0.7,4.1,3.1c0,1.2-1.1,1.9-2.6,1.9
			c-1.5,0-2.4-1-2.5-2.2H271.7z"/>
		<path fill="#1D2554" d="M278.3,62.3h-0.7v-9h0.7v1.1h0c0.4-0.8,1.4-1.3,2.2-1.3c2.1,0,2.9,1.5,2.9,3.4c0,1.8-0.9,3.4-2.9,3.4
			c-0.9,0-1.8-0.4-2.3-1.2V62.3z M280.5,59.2c1.5,0,2.3-1.3,2.2-2.9c0-1.6-0.9-2.5-2.2-2.5c-1.4,0-2.2,1.2-2.2,2.7
			C278.3,58,279.1,59.2,280.5,59.2z"/>
		<path fill="#1D2554" d="M285.2,51.9v-1.1h0.8v1.1H285.2z M285.2,59.7v-6.4h0.7v6.4H285.2z"/>
		<path fill="#1D2554" d="M288.6,59.7h-0.7v-6.4h0.7v0.9c0.6-0.6,1.2-1.1,2.1-1.1c0.8,0,1.5,0.2,2,0.9c0.3,0.5,0.3,0.9,0.3,1.5v4.2
			h-0.7v-4.2c0-1.2-0.5-1.7-1.7-1.7c-0.9,0-1.6,0.6-1.8,1.3c-0.1,0.4-0.2,0.8-0.2,1.2V59.7z"/>
		<path fill="#1D2554" d="M297.7,56c0.3,0,0.7-0.1,1-0.2c0.2-0.1,0.3-0.4,0.3-0.7c0-0.8-0.4-1.3-1.6-1.3c-1,0-1.7,0.3-1.9,1.5h-0.8
			c0.1-1.5,1.2-2.1,2.6-2.1c1.3,0,2.3,0.5,2.3,2v3.5c0,0.6,0.1,0.7,0.8,0.5v0.6c-0.1,0-0.4,0.1-0.6,0.1c-0.1,0-0.2,0-0.3,0
			c-0.5-0.1-0.6-0.5-0.6-1c-0.6,0.7-1.5,1.1-2.4,1.1c-1.1,0-2.2-0.6-2.2-1.9c0-1.1,0.7-1.7,2.3-1.9L297.7,56z M299,56.3
			c-0.6,0.3-1.3,0.3-1.9,0.4c-1.1,0.1-1.8,0.5-1.8,1.4c0,0.8,0.7,1.2,1.4,1.2c1.2,0,2.4-0.6,2.4-1.9V56.3z"/>
		<path fill="#1D2554" d="M301.8,59.7v-9h0.7v9H301.8z"/>
		<path fill="#1D2554" d="M312.5,55.3c-0.3-1-0.9-1.5-1.9-1.5c-1.5,0-2.2,1.4-2.2,2.7c0,1.4,0.6,2.7,2.2,2.7c1.1,0,1.8-0.7,2-1.7
			h0.8c-0.3,1.4-1.2,2.4-2.8,2.4c-2.1,0-3-1.5-3-3.4c0-1.8,1-3.4,3-3.4c1.5,0,2.4,0.7,2.7,2.2H312.5z"/>
		<path fill="#1D2554" d="M314.4,56.5c0-1.9,1-3.4,3-3.4c2,0,3,1.5,3,3.4c0,2-1.2,3.4-3,3.4C315.7,59.9,314.4,58.7,314.4,56.5z
			 M317.4,53.8c-1.6,0-2.2,1.3-2.2,2.7c0,1.6,0.8,2.7,2.2,2.7c1.6,0,2.2-1.3,2.2-2.7C319.6,55,319,53.8,317.4,53.8z"/>
		<path fill="#1D2554" d="M322.5,59.7h-0.7v-6.4h0.7v1.2h0c0.4-1,1-1.4,2.1-1.4v0.8c-1.7,0-2.1,1.2-2.1,2.6V59.7z"/>
		<path fill="#1D2554" d="M330.6,50.8h0.7v9h-0.7v-1.1h0c-0.4,0.8-1.4,1.3-2.2,1.3c-2.1,0-2.9-1.5-2.9-3.4c0-1.8,0.9-3.4,2.9-3.4
			c0.9,0,1.8,0.4,2.3,1.2V50.8z M328.4,53.8c-1.5,0-2.3,1.3-2.2,2.9c0,1.6,0.9,2.5,2.2,2.5c1.4,0,2.2-1.2,2.2-2.7
			C330.6,55,329.8,53.8,328.4,53.8z"/>
		<path fill="#1D2554" d="M200.8,66.8v-1.1h0.8v1.1H200.8z M200.9,74.6v-6.4h0.7v6.4H200.9z"/>
		<path fill="#1D2554" d="M204.3,74.6h-0.7v-6.4h0.7v0.9c0.6-0.6,1.2-1.1,2.1-1.1c0.8,0,1.5,0.2,2,0.9c0.3,0.5,0.3,0.9,0.3,1.5v4.2
			h-0.7v-4.2c0-1.2-0.5-1.7-1.7-1.7c-0.9,0-1.6,0.6-1.8,1.3c-0.1,0.4-0.2,0.8-0.2,1.2V74.6z"/>
		<path fill="#1D2554" d="M211.4,68.2v7.3c0,1.1-0.1,1.7-1.3,1.7c-0.2,0-0.3,0-0.5,0v-0.7c0.9,0.1,1-0.2,1-0.9v-7.4H211.4z
			 M211.4,66.8h-0.8v-1.1h0.8V66.8z"/>
		<path fill="#1D2554" d="M217.6,68.2h0.7v6.4h-0.7v-0.9c-0.4,0.4-0.9,1.1-2.1,1.1c-1.7,0-2.3-1-2.3-2.4v-4.2h0.7v4.2
			c0,1.1,0.5,1.7,1.7,1.7c1.2,0,2-1,2-2.4V68.2z"/>
		<path fill="#1D2554" d="M220.9,74.6h-0.7v-6.4h0.7v1.2h0c0.4-1,1-1.4,2.1-1.4v0.8c-1.7,0-2.1,1.2-2.1,2.6V74.6z"/>
		<path fill="#1D2554" d="M224.3,66.8v-1.1h0.8v1.1H224.3z M224.4,74.6v-6.4h0.7v6.4H224.4z"/>
		<path fill="#1D2554" d="M227.5,71.6c0,1.4,0.7,2.5,2.2,2.5c1,0,1.7-0.5,2-1.5h0.8c-0.4,1.2-1.1,2.2-2.8,2.2c-2.1,0-3-1.5-3-3.4
			c0-1.9,1.1-3.4,3-3.4c1.8,0,2.8,1.3,2.8,3.6H227.5z M231.7,71c0-1.3-0.7-2.3-2-2.3c-1.3,0-2,1.1-2.2,2.3H231.7z"/>
		<path fill="#1D2554" d="M234.4,72.6c0.2,1.1,0.8,1.5,1.9,1.5c1.1,0,1.6-0.6,1.6-1.2c0-1.9-4.1-0.5-4.1-3.1c0-1.1,0.8-1.8,2.3-1.8
			c1.4,0,2.3,0.6,2.5,2h-0.8c-0.1-1-0.8-1.4-1.7-1.4c-0.9,0-1.5,0.4-1.5,1.1c0,1.8,4.1,0.7,4.1,3.1c0,1.2-1.1,1.9-2.6,1.9
			c-1.5,0-2.4-1-2.5-2.2H234.4z"/>
		<path fill="#1D2554" d="M241.4,75c0,0.7-0.4,1.2-0.9,1.3v-0.5c0.2-0.1,0.4-0.3,0.4-0.8v-0.4h-0.4v-1.1h0.9V75z"/>
		<path fill="#1D2554" d="M247.7,74.6H247v-6.4h0.7v1h0c0.4-0.7,1.2-1.1,2-1.1c1.2,0,1.6,0.6,1.9,1.2c0.4-0.8,1.2-1.2,2.1-1.2
			c1.8,0,2,1.3,2,2.5v4.1H255v-4.5c0-0.9-0.3-1.5-1.4-1.5c-0.5,0-1.1,0.2-1.5,0.7c-0.3,0.4-0.4,1.2-0.4,1.7v3.5H251v-4.5
			c0-0.9-0.3-1.5-1.4-1.5c-0.5,0-1.1,0.2-1.5,0.7c-0.3,0.4-0.4,1.2-0.4,1.7V74.6z"/>
		<path fill="#1D2554" d="M257,71.4c0-1.9,1-3.4,3-3.4c2,0,3,1.5,3,3.4c0,2-1.2,3.4-3,3.4C258.4,74.8,257,73.7,257,71.4z M260,68.7
			c-1.6,0-2.2,1.3-2.2,2.7c0,1.6,0.8,2.7,2.2,2.7c1.6,0,2.2-1.3,2.2-2.7C262.2,69.9,261.6,68.7,260,68.7z"/>
		<path fill="#1D2554" d="M264.8,72.6c0.2,1.1,0.8,1.5,1.9,1.5c1.1,0,1.6-0.6,1.6-1.2c0-1.9-4.1-0.5-4.1-3.1c0-1.1,0.8-1.8,2.3-1.8
			c1.4,0,2.3,0.6,2.5,2h-0.8c-0.1-1-0.8-1.4-1.7-1.4c-0.9,0-1.5,0.4-1.5,1.1c0,1.8,4.1,0.7,4.1,3.1c0,1.2-1.1,1.9-2.6,1.9
			c-1.5,0-2.4-1-2.5-2.2H264.8z"/>
		<path fill="#1D2554" d="M272.8,74.7c-0.2,0-0.5,0.1-0.9,0.1c-0.7,0-1.1-0.3-1.1-1.3v-4.7h-0.9v-0.6h0.9v-1.8h0.7v1.8h1.2v0.6h-1.2
			v4.4c0,0.6,0,0.9,0.6,0.9c0.2,0,0.4,0,0.6-0.1V74.7z"/>
		<path fill="#1D2554" d="M276.8,68.8v-0.6h1v-1c0-1,0.4-1.7,1.4-1.7c0.2,0,0.4,0,0.6,0v0.7c-0.1,0-0.3-0.1-0.4-0.1
			c-0.8,0-0.8,0.6-0.8,1.2v0.8h1.2v0.6h-1.2v5.8h-0.7v-5.8H276.8z"/>
		<path fill="#1D2554" d="M283.9,70.9c0.3,0,0.7-0.1,1-0.2c0.2-0.1,0.3-0.4,0.3-0.7c0-0.8-0.4-1.3-1.6-1.3c-1,0-1.7,0.3-1.9,1.5
			h-0.8c0.1-1.5,1.2-2.1,2.6-2.1c1.3,0,2.3,0.5,2.3,2v3.5c0,0.6,0.1,0.7,0.8,0.5v0.6c-0.1,0-0.4,0.1-0.6,0.1c-0.1,0-0.2,0-0.3,0
			c-0.5-0.1-0.6-0.5-0.6-1c-0.6,0.7-1.5,1.1-2.4,1.1c-1.1,0-2.2-0.6-2.2-1.9c0-1.1,0.7-1.7,2.3-1.9L283.9,70.9z M285.2,71.3
			c-0.6,0.3-1.3,0.3-1.9,0.4c-1.1,0.1-1.8,0.5-1.8,1.4c0,0.8,0.7,1.2,1.4,1.2c1.2,0,2.4-0.6,2.4-1.9V71.3z"/>
		<path fill="#1D2554" d="M288,74.6v-9h0.7v9H288z"/>
		<path fill="#1D2554" d="M290.7,74.6v-9h0.7v9H290.7z"/>
		<path fill="#1D2554" d="M297.3,72.6c0.2,1.1,0.8,1.5,1.9,1.5c1.1,0,1.6-0.6,1.6-1.2c0-1.9-4.1-0.5-4.1-3.1c0-1.1,0.8-1.8,2.3-1.8
			c1.4,0,2.3,0.6,2.5,2h-0.8c-0.1-1-0.8-1.4-1.7-1.4c-0.9,0-1.5,0.4-1.5,1.1c0,1.8,4.1,0.7,4.1,3.1c0,1.2-1.1,1.9-2.6,1.9
			c-1.5,0-2.4-1-2.5-2.2H297.3z"/>
		<path fill="#1D2554" d="M302.6,71.4c0-1.9,1-3.4,3-3.4c2,0,3,1.5,3,3.4c0,2-1.2,3.4-3,3.4C304,74.8,302.6,73.7,302.6,71.4z
			 M305.6,68.7c-1.6,0-2.2,1.3-2.2,2.7c0,1.6,0.8,2.7,2.2,2.7c1.6,0,2.2-1.3,2.2-2.7C307.8,69.9,307.2,68.7,305.6,68.7z"/>
		<path fill="#1D2554" d="M310.6,74.6h-0.7v-6.4h0.7v1h0c0.4-0.7,1.2-1.1,2-1.1c1.2,0,1.6,0.6,1.9,1.2c0.4-0.8,1.2-1.2,2.1-1.2
			c1.8,0,2,1.3,2,2.5v4.1h-0.7v-4.5c0-0.9-0.3-1.5-1.4-1.5c-0.5,0-1.1,0.2-1.5,0.7c-0.3,0.4-0.4,1.2-0.4,1.7v3.5h-0.7v-4.5
			c0-0.9-0.3-1.5-1.4-1.5c-0.5,0-1.1,0.2-1.5,0.7c-0.3,0.4-0.4,1.2-0.4,1.7V74.6z"/>
		<path fill="#1D2554" d="M320.8,71.6c0,1.4,0.7,2.5,2.2,2.5c1,0,1.7-0.5,2-1.5h0.8c-0.4,1.2-1.1,2.2-2.8,2.2c-2.1,0-3-1.5-3-3.4
			c0-1.9,1.1-3.4,3-3.4c1.8,0,2.8,1.3,2.8,3.6H320.8z M325,71c0-1.3-0.7-2.3-2-2.3c-1.3,0-2,1.1-2.2,2.3H325z"/>
		<path fill="#1D2554" d="M330,71v0.8h-3.1V71H330z"/>
		<path fill="#1D2554" d="M206.2,88.6l1.7-5.4h0.8l-2.1,6.4h-0.8l-1.4-5.4h0l-1.4,5.4H202l-2-6.4h0.7l1.7,5.5l1.5-5.5h0.8
			L206.2,88.6z"/>
		<path fill="#1D2554" d="M209.8,89.6v-9h0.7V84c0.6-0.6,1.2-1.1,2.1-1.1c0.8,0,1.5,0.2,2,0.9c0.3,0.5,0.3,0.9,0.3,1.5v4.2h-0.7
			v-4.2c0-1.2-0.5-1.7-1.7-1.7c-0.9,0-1.6,0.6-1.8,1.3c-0.1,0.4-0.2,0.8-0.2,1.2v3.5H209.8z"/>
		<path fill="#1D2554" d="M217.1,86.5c0,1.4,0.7,2.5,2.2,2.5c1,0,1.7-0.5,2-1.5h0.8c-0.4,1.2-1.1,2.2-2.8,2.2c-2.1,0-3-1.5-3-3.4
			c0-1.9,1.1-3.4,3-3.4c1.8,0,2.8,1.3,2.8,3.6H217.1z M221.3,85.9c0-1.3-0.7-2.3-2-2.3c-1.3,0-2,1.1-2.2,2.3H221.3z"/>
		<path fill="#1D2554" d="M224.4,89.6h-0.7v-6.4h0.7v1.2h0c0.4-1,1-1.4,2.1-1.4v0.8c-1.7,0-2.1,1.2-2.1,2.6V89.6z"/>
		<path fill="#1D2554" d="M228,86.5c0,1.4,0.7,2.5,2.2,2.5c1,0,1.7-0.5,2-1.5h0.8c-0.4,1.2-1.1,2.2-2.8,2.2c-2.1,0-3-1.5-3-3.4
			c0-1.9,1.1-3.4,3-3.4c1.8,0,2.8,1.3,2.8,3.6H228z M232.2,85.9c0-1.3-0.7-2.3-2-2.3c-1.3,0-2,1.1-2.2,2.3H232.2z"/>
		<path fill="#1D2554" d="M237.9,81.7v-1.1h0.8v1.1H237.9z M238,89.6v-6.4h0.7v6.4H238z"/>
		<path fill="#1D2554" d="M241.4,89.6h-0.7v-6.4h0.7V84c0.6-0.6,1.2-1.1,2.1-1.1c0.8,0,1.5,0.2,2,0.9c0.3,0.5,0.3,0.9,0.3,1.5v4.2
			H245v-4.2c0-1.2-0.5-1.7-1.7-1.7c-0.9,0-1.6,0.6-1.8,1.3c-0.1,0.4-0.2,0.8-0.2,1.2V89.6z"/>
		<path fill="#1D2554" d="M251.8,89.6h-0.7v-9h0.7v3.5c0.5-0.8,1.4-1.2,2.3-1.2c2,0,2.9,1.6,2.9,3.4c0,1.9-0.8,3.4-2.9,3.4
			c-0.8,0-1.8-0.5-2.2-1.3h0V89.6z M254,89.1c1.3,0,2.2-0.9,2.2-2.5c0.1-1.6-0.7-2.9-2.2-2.9c-1.4,0-2.2,1.2-2.2,2.7
			C251.8,87.9,252.6,89.1,254,89.1z"/>
		<path fill="#1D2554" d="M259.1,86.5c0,1.4,0.7,2.5,2.2,2.5c1,0,1.7-0.5,2-1.5h0.8c-0.4,1.2-1.1,2.2-2.8,2.2c-2.1,0-3-1.5-3-3.4
			c0-1.9,1.1-3.4,3-3.4c1.8,0,2.8,1.3,2.8,3.6H259.1z M263.3,85.9c0-1.3-0.7-2.3-2-2.3c-1.3,0-2,1.1-2.2,2.3H263.3z"/>
		<path fill="#1D2554" d="M267.8,89.6c-0.2,0-0.5,0.1-0.9,0.1c-0.7,0-1.1-0.3-1.1-1.3v-4.7h-0.9v-0.6h0.9v-1.8h0.7v1.8h1.2v0.6h-1.2
			v4.4c0,0.6,0,0.9,0.6,0.9c0.2,0,0.4,0,0.6-0.1V89.6z"/>
		<path fill="#1D2554" d="M274.4,88.6l1.7-5.4h0.8l-2.1,6.4H274l-1.4-5.4h0l-1.4,5.4h-0.9l-2-6.4h0.7l1.7,5.5l1.5-5.5h0.8
			L274.4,88.6z"/>
		<path fill="#1D2554" d="M278.4,86.5c0,1.4,0.7,2.5,2.2,2.5c1,0,1.7-0.5,2-1.5h0.8c-0.4,1.2-1.1,2.2-2.8,2.2c-2.1,0-3-1.5-3-3.4
			c0-1.9,1.1-3.4,3-3.4c1.8,0,2.8,1.3,2.8,3.6H278.4z M282.6,85.9c0-1.3-0.7-2.3-2-2.3c-1.3,0-2,1.1-2.2,2.3H282.6z"/>
		<path fill="#1D2554" d="M285.3,86.5c0,1.4,0.7,2.5,2.2,2.5c1,0,1.7-0.5,2-1.5h0.8c-0.4,1.2-1.1,2.2-2.8,2.2c-2.1,0-3-1.5-3-3.4
			c0-1.9,1.1-3.4,3-3.4c1.8,0,2.8,1.3,2.8,3.6H285.3z M289.5,85.9c0-1.3-0.7-2.3-2-2.3c-1.3,0-2,1.1-2.2,2.3H289.5z"/>
		<path fill="#1D2554" d="M292.5,89.6h-0.7v-6.4h0.7V84c0.6-0.6,1.2-1.1,2.1-1.1c0.8,0,1.5,0.2,2,0.9c0.3,0.5,0.3,0.9,0.3,1.5v4.2
			h-0.7v-4.2c0-1.2-0.5-1.7-1.7-1.7c-0.9,0-1.6,0.6-1.8,1.3c-0.1,0.4-0.2,0.8-0.2,1.2V89.6z"/>
	</g>
</g>
<g>
	<path fill="#FFFFFF" d="M30.1,73.1L30,74.9l2,0.1l2.7,3l-0.1,3l-5.8,5.3L27.5,85l1.1-1l-7.2-7.9l-1.1,1l-1.2-1.3l5.8-5.3l2.8,0.1
		L30.1,73.1z M22.7,74.9l2.9,3.1l2.9-2.7l0.1-1.4l-1.5-1.6l-1.4-0.1L22.7,74.9z M26.6,79.2l3.3,3.7l2.9-2.7l0.1-1.5L31,76.5
		l-1.4-0.1L26.6,79.2z"/>
	<path fill="#FFFFFF" d="M35.9,62.9l-1,0.9L37,71l2.7,3l1.1-1l1.2,1.3l-3.6,3.3l-1.2-1.3l1.1-1l-2.7-3l-6.9-2.8l-1,0.9L26.6,69
		l3.2-2.9l1.2,1.3l-0.8,0.8l5.4,2.3l-1.8-5.6l-0.8,0.8l-1.2-1.3l3-2.7L35.9,62.9z"/>
</g>
<g>
</g>
<g>
</g>
<g>
</g>
<g>
</g>
<g>
</g>
<g>
</g>
</svg>
