<?xml version="1.0" encoding="utf-8"?>
<!-- Generator: Adobe Illustrator 19.1.0, SVG Export Plug-In . SVG Version: 6.00 Build 0)  -->
<svg version="1.1" id="Layer_1" xmlns="http://www.w3.org/2000/svg" xmlns:xlink="http://www.w3.org/1999/xlink" x="0px" y="0px"
	 width="123.8px" height="125px" viewBox="0 0 123.8 125" enable-background="new 0 0 123.8 125" xml:space="preserve">
<circle fill="#FFFFFF" stroke="#4167B1" stroke-width="3" cx="62.3" cy="63.8" r="45.8"/>
<path fill="#2CBCEE" stroke="#4167B1" stroke-width="2" d="M71.8,91.9l-20.4-0.1c-7-24-0.3-42.2-0.3-42.2l4-0.1l4.5-0.1l4-0.1
	l4.5-0.1l5.7-0.1C78.8,72.8,71.8,91.9,71.8,91.9z"/>
<polygon fill="#F15623" stroke="#4167B1" stroke-width="2" points="69.4,45.4 69.4,49.6 64.9,49.5 60.9,49.4 56.4,49.3 56.4,45.4 
	"/>
<polygon fill="#CC2036" stroke="#4167B1" stroke-width="2" points="73.5,36.7 73.5,45.4 52.3,45.4 52.3,36.7 60.9,36.7 60.9,29.6 
	64.9,29.6 64.9,36.7 "/>
<g>
</g>
<g>
</g>
<g>
</g>
<g>
</g>
<g>
</g>
<g>
</g>
</svg>
