<?xml version="1.0" encoding="utf-8"?>
<!-- Generator: Adobe Illustrator 19.1.0, SVG Export Plug-In . SVG Version: 6.00 Build 0)  -->
<svg version="1.1" id="Layer_1" xmlns="http://www.w3.org/2000/svg" xmlns:xlink="http://www.w3.org/1999/xlink" x="0px" y="0px"
	 width="756px" height="148px" viewBox="0 0 756 148" style="enable-background:new 0 0 756 148;" xml:space="preserve">
<style type="text/css">
	.st0{fill:none;}
	.st1{fill:#FFFFFF;stroke:#F05623;stroke-width:2;stroke-miterlimit:10;}
	.st2{fill:#2BBCED;stroke:#2BBCED;stroke-miterlimit:10;}
</style>
<g>
	<rect x="18.7" y="36.1" class="st0" width="708.9" height="92.5"/>
	<path class="st1" d="M55.6,41.5h-4.3l-10,20.9v12.5h4.8v5.4H31v-5.4h4.8V62.5L25.8,41.5h-4.2v-5.4h13.6v5.4h-3.5l7.4,16.6l7.5-16.6
		H43v-5.4h12.6V41.5z"/>
	<path class="st1" d="M86.3,73.2l-7.1,7.1H64.6l-7.1-7.1V42.9l6.8-6.8h15.2l6.8,6.8V73.2z M66.5,41.5l-3.6,3.6v25.9l3.9,3.9h10.3
		l3.9-3.9V45.1l-3.6-3.6H66.5z"/>
	<path class="st1" d="M127.2,41.5h-4.7v32.1l-6.7,6.8h-14.2l-6.8-6.8V41.5h-4.6v-5.4h14.1v5.4h-4v29.5l3.8,3.9h9.2l3.8-3.9V41.5h-4
		v-5.4h14V41.5z"/>
	<path class="st1" d="M162,49.1h-4.7v-7.8h-8.7v33.6h5.2v5.4h-15.9v-5.4h5.2V41.3h-8.7v7.8h-4.7v-13H162V49.1z"/>
	<path class="st1" d="M203.1,41.5h-4.7v33.4h4.7v5.4H189v-5.4h4V59.2h-16.8v15.7h4v5.4h-14.1v-5.4h4.6V41.5h-4.6v-5.4h14.1v5.4h-4
		v13.3H193V41.5h-4v-5.4h14.1V41.5z"/>
	<path class="st1" d="M256.4,42.4v6.3H251v-3.9l-3.2-3.2h-10.3l-3.2,3.2v7.8l2.4,2.3h15.2l5.1,4.9v14l-6.6,6.6h-14.9l-6.6-6.6v-8.1
		h5.4v5.8l3.4,3.4H248l3.4-3.4v-9.2l-2.3-2.3h-15.2l-5.1-5.1V42.4l6.3-6.3h15.2L256.4,42.4z"/>
	<path class="st1" d="M294.6,42.9v13.8l-6.8,6.8h-15.4v11.3h5.1v5.4h-15.2v-5.4h4.6V41.5h-4.6v-5.4h25.5L294.6,42.9z M272.5,41.5
		v17.1h13.1l3.6-3.6v-9.9l-3.6-3.6H272.5z"/>
	<path class="st1" d="M328.3,73.2l-7.1,7.1h-14.6l-7.1-7.1V42.9l6.8-6.8h15.2l6.8,6.8V73.2z M308.4,41.5l-3.6,3.6v25.9l3.9,3.9H319
		l3.9-3.9V45.1l-3.6-3.6H308.4z"/>
	<path class="st1" d="M365.5,42.4v12.5l-6,6h-3.3l7.1,14h4v5.4h-13.6v-5.4h3.8l-7.1-14H344v14h3.9v5.4H334v-5.4h4.6V41.6H334v-5.5
		h25.4L365.5,42.4z M344,41.6v15.1h12.9l3.2-3.2v-8.8l-3.2-3.2H344z"/>
	<path class="st1" d="M402.1,49.1h-4.7v-7.8h-8.7v33.6h5.2v5.4h-15.9v-5.4h5.2V41.3h-8.7v7.8H370v-13h32.1V49.1z"/>
	<path class="st1" d="M433.6,42.4v6.3h-5.4v-3.9l-3.2-3.2h-10.3l-3.2,3.2v7.8l2.4,2.3H429l5.1,4.9v14l-6.6,6.6h-14.9l-6.6-6.6v-8.1
		h5.4v5.8l3.4,3.4h10.4l3.4-3.4v-9.2l-2.3-2.3h-15.2l-5.1-5.1V42.4l6.3-6.3h15.2L433.6,42.4z"/>
	<path class="st1" d="M475.8,41.5h-4.6v33.4h4.6v5.4H461v-5.4h4.6V41.5H461v-5.4h14.7V41.5z"/>
	<path class="st1" d="M520.7,41.6H516v38.8h-5.4l-18.5-36.6v31.2h4v5.4h-13.4v-5.4h4.6V41.6h-4.6v-5.5h11.8l16.7,33.8V41.6h-4v-5.5
		h13.5V41.6z"/>
	<path class="st1" d="M555.4,41.5h-4.6v31l-7.8,7.8h-11.6l-6.6-6.6V63.7h5.4v7.8l3.4,3.4h7.3l4.2-4.2V41.5h-6.4v-5.4h16.5V41.5z"/>
	<path class="st1" d="M593.9,41.5h-4.7v32.1l-6.7,6.8h-14.2l-6.8-6.8V41.5h-4.6v-5.4H571v5.4h-4v29.5l3.8,3.9h9.2l3.8-3.9V41.5h-4
		v-5.4h14V41.5z"/>
	<path class="st1" d="M629.5,42.4v12.5l-6,6h-3.3l7.1,14h4v5.4h-13.6v-5.4h3.8l-7.1-14H608v14h3.9v5.4H598v-5.4h4.6V41.6H598v-5.5
		h25.4L629.5,42.4z M608,41.6v15.1h12.9l3.2-3.2v-8.8l-3.2-3.2H608z"/>
	<path class="st1" d="M651.4,41.5h-4.6v33.4h4.6v5.4h-14.7v-5.4h4.6V41.5h-4.6v-5.4h14.7V41.5z"/>
	<path class="st1" d="M689.5,47.5h-4.6v-5.9h-16.4v13.5h11.2v-3h3.9v10.1h-3.9v-3h-11.2v15.7H685V69h4.6v11.4h-31.2v-5.4h4.6V41.6
		h-4.6v-5.5h31.1V47.5z"/>
	<path class="st1" d="M722.6,42.4v6.3h-5.4v-3.9l-3.2-3.2h-10.3l-3.2,3.2v7.8l2.4,2.3H718l5.1,4.9v14l-6.6,6.6h-14.9l-6.6-6.6v-8.1
		h5.4v5.8l3.4,3.4h10.4l3.4-3.4v-9.2l-2.3-2.3h-15.2l-5.1-5.1V42.4l6.3-6.3h15.2L722.6,42.4z"/>
	<path class="st2" d="M42.1,90.7h-1.3v9.3h1.3v1.5h-4.2V100h1.4v-8.7L36.8,96H36l-2.6-4.7v8.7h1.4v1.5h-4.2V100h1.3v-9.3h-1.3v-1.5
		h3.1l2.7,4.9l2.7-4.9h3V90.7z"/>
	<path class="st2" d="M51.7,99.5l-2,2h-4.1l-2-2v-8.4l1.9-1.9h4.2l1.9,1.9V99.5z M46.2,90.7l-1,1v7.2l1.1,1.1h2.9l1.1-1.1v-7.2l-1-1
		H46.2z"/>
	<path class="st2" d="M62.1,90.9v3.5l-1.7,1.7h-0.9l2,3.9h1.1v1.5h-3.8V100h1.1l-2-3.9h-1.8v3.9h1.1v1.5h-3.9V100h1.3v-9.3h-1.3
		v-1.5h7.1L62.1,90.9z M56.1,90.7v4.2h3.6l0.9-0.9v-2.4l-0.9-0.9H56.1z"/>
	<path class="st2" d="M72.4,92.4h-1.3v-1.7h-4.6v3.8h3.1v-0.8h1.1v2.8h-1.1v-0.8h-3.1v4.4h4.6v-1.7h1.3v3.2h-8.7V100H65v-9.3h-1.3
		v-1.5h8.7V92.4z"/>
	<path class="st2" d="M88.2,92.8h-1.3v-2.2h-2.4v9.4h1.5v1.5h-4.4V100H83v-9.4h-2.4v2.2h-1.3v-3.6h9V92.8z"/>
	<path class="st2" d="M99.7,90.7h-1.3v9.3h1.3v1.5h-3.9V100h1.1v-4.4h-4.7v4.4h1.1v1.5h-3.9V100h1.3v-9.3h-1.3v-1.5h3.9v1.5h-1.1
		v3.7h4.7v-3.7h-1.1v-1.5h3.9V90.7z"/>
	<path class="st2" d="M110,100h1.4v1.5h-4.1V100h1.1l-0.6-2.2H104l-0.6,2.2h1.1v1.5h-3.8V100h1.4l2.5-9.3h-1.4v-1.5h3.9L110,100z
		 M104.3,96.8h3.2l-1.6-6L104.3,96.8z"/>
	<path class="st2" d="M123,90.7h-1.3v10.8h-1.5l-5.2-10.2v8.7h1.1v1.5h-3.7V100h1.3v-9.3h-1.3v-1.5h3.3l4.7,9.4v-7.9h-1.1v-1.5h3.8
		V90.7z"/>
	<path class="st2" d="M140.1,90.7h-1.3v9.3h1.3v1.5h-3.9V100h1.1v-4.4h-4.7v4.4h1.1v1.5h-3.9V100h1.3v-9.3h-1.3v-1.5h3.9v1.5h-1.1
		v3.7h4.7v-3.7h-1.1v-1.5h3.9V90.7z"/>
	<path class="st2" d="M150.5,100h1.4v1.5h-4.1V100h1.1l-0.6-2.2h-3.7l-0.6,2.2h1.1v1.5h-3.8V100h1.4l2.5-9.3h-1.4v-1.5h3.9
		L150.5,100z M144.7,96.8h3.2l-1.6-6L144.7,96.8z"/>
	<path class="st2" d="M157.1,90.7h-1.3v9.3h4.5v-2h1.3v3.5h-8.6V100h1.3v-9.3h-1.3v-1.5h4.2V90.7z"/>
	<path class="st2" d="M171.3,92.4h-1.3v-1.7h-4.6v4h3.6v-0.8h1.1v2.8h-1.1v-0.8h-3.6v4.1h1.4v1.5h-4.2V100h1.3v-9.3h-1.3v-1.5h8.7
		V92.4z"/>
	<path class="st2" d="M186.3,99.5l-2,2h-4.1l-2-2v-8.4l1.9-1.9h4.2l1.9,1.9V99.5z M180.8,90.7l-1,1v7.2l1.1,1.1h2.9l1.1-1.1v-7.2
		l-1-1H180.8z"/>
	<path class="st2" d="M196.6,92.4h-1.3v-1.7h-4.6v4h3.6v-0.8h1.1v2.8h-1.1v-0.8h-3.6v4.1h1.4v1.5h-4.2V100h1.3v-9.3h-1.3v-1.5h8.7
		V92.4z"/>
	<path class="st2" d="M212.3,100h1.4v1.5h-4.1V100h1.1l-0.6-2.2h-3.7l-0.6,2.2h1.1v1.5H203V100h1.4l2.5-9.3h-1.4v-1.5h3.9L212.3,100
		z M206.5,96.8h3.2l-1.6-6L206.5,96.8z"/>
	<path class="st2" d="M218.9,90.7h-1.3v9.3h4.5v-2h1.3v3.5h-8.6V100h1.3v-9.3h-1.3v-1.5h4.2V90.7z"/>
	<path class="st2" d="M228.6,90.7h-1.3v9.3h4.5v-2h1.3v3.5h-8.6V100h1.3v-9.3h-1.3v-1.5h4.2V90.7z"/>
	<path class="st2" d="M247.5,90.9v1.7H246v-1.1l-0.9-0.9h-2.9l-0.9,0.9v2.2l0.7,0.6h4.2l1.4,1.4v3.9l-1.8,1.8h-4.2l-1.8-1.8v-2.3
		h1.5V99l1,1h2.9l0.9-1v-2.6l-0.6-0.7h-4.2l-1.4-1.4v-3.5l1.7-1.7h4.2L247.5,90.9z"/>
	<path class="st2" d="M258.2,91.1v3.9l-1.9,1.9H252v3.2h1.4v1.5h-4.2V100h1.3v-9.3h-1.3v-1.5h7.1L258.2,91.1z M252,90.7v4.8h3.6l1-1
		v-2.7l-1-1H252z"/>
	<path class="st2" d="M267.5,99.5l-2,2h-4.1l-2-2v-8.4l1.9-1.9h4.2l1.9,1.9V99.5z M262,90.7l-1,1v7.2l1.1,1.1h2.9l1.1-1.1v-7.2l-1-1
		H262z"/>
	<path class="st2" d="M277.9,90.9v3.5l-1.7,1.7h-0.9l2,3.9h1.1v1.5h-3.8V100h1.1l-2-3.9h-1.8v3.9h1.1v1.5h-3.9V100h1.3v-9.3h-1.3
		v-1.5h7.1L277.9,90.9z M271.9,90.7v4.2h3.6l0.9-0.9v-2.4l-0.9-0.9H271.9z"/>
	<path class="st2" d="M288.1,92.8h-1.3v-2.2h-2.4v9.4h1.5v1.5h-4.4V100h1.5v-9.4h-2.4v2.2h-1.3v-3.6h9V92.8z"/>
	<path class="st2" d="M296.9,90.9v1.7h-1.5v-1.1l-0.9-0.9h-2.9l-0.9,0.9v2.2l0.7,0.6h4.2l1.4,1.4v3.9l-1.8,1.8H291l-1.8-1.8v-2.3
		h1.5V99l1,1h2.9l0.9-1v-2.6l-0.6-0.7h-4.2l-1.4-1.4v-3.5l1.7-1.7h4.2L296.9,90.9z"/>
	<path class="st2" d="M308.6,90.7h-1.3v9.3h1.3v1.5h-4.1V100h1.3v-9.3h-1.3v-1.5h4.1V90.7z"/>
	<path class="st2" d="M321.2,90.7h-1.3v10.8h-1.5l-5.2-10.2v8.7h1.1v1.5h-3.7V100h1.3v-9.3h-1.3v-1.5h3.3l4.7,9.4v-7.9h-1.1v-1.5
		h3.8V90.7z"/>
	<path class="st2" d="M330.8,90.7h-1.3v8.7l-2.2,2.2h-3.2l-1.8-1.8v-2.8h1.5V99l1,1h2l1.2-1.2v-8.1h-1.8v-1.5h4.6V90.7z"/>
	<path class="st2" d="M341.6,90.7h-1.3v8.9l-1.9,1.9h-3.9l-1.9-1.9v-8.9h-1.3v-1.5h3.9v1.5h-1.1v8.2l1.1,1.1h2.6l1.1-1.1v-8.2h-1.1
		v-1.5h3.9V90.7z"/>
	<path class="st2" d="M351.5,90.9v3.5l-1.7,1.7h-0.9l2,3.9h1.1v1.5h-3.8V100h1.1l-2-3.9h-1.8v3.9h1.1v1.5h-3.9V100h1.3v-9.3h-1.3
		v-1.5h7.1L351.5,90.9z M345.5,90.7v4.2h3.6L350,94v-2.4l-0.9-0.9H345.5z"/>
	<path class="st2" d="M357.6,90.7h-1.3v9.3h1.3v1.5h-4.1V100h1.3v-9.3h-1.3v-1.5h4.1V90.7z"/>
	<path class="st2" d="M368.2,92.4h-1.3v-1.7h-4.6v3.8h3.1v-0.8h1.1v2.8h-1.1v-0.8h-3.1v4.4h4.6v-1.7h1.3v3.2h-8.7V100h1.3v-9.3h-1.3
		v-1.5h8.7V92.4z"/>
	<path class="st2" d="M377.4,90.9v1.7h-1.5v-1.1l-0.9-0.9h-2.9l-0.9,0.9v2.2l0.7,0.6h4.2l1.4,1.4v3.9l-1.8,1.8h-4.2l-1.8-1.8v-2.3
		h1.5V99l1,1h2.9l0.9-1v-2.6l-0.6-0.7h-4.2l-1.4-1.4v-3.5l1.7-1.7h4.2L377.4,90.9z"/>
	<path class="st2" d="M389.2,90.7h-1.3v9.3h1.3v1.5h-4.1V100h1.3v-9.3h-1.3v-1.5h4.1V90.7z"/>
	<path class="st2" d="M401.7,90.7h-1.3v10.8h-1.5l-5.2-10.2v8.7h1.1v1.5h-3.7V100h1.3v-9.3h-1.3v-1.5h3.3l4.7,9.4v-7.9H398v-1.5h3.8
		V90.7z"/>
	<path class="st2" d="M416.4,93.3h-1.5v-1.7l-0.9-0.9h-2.8l-1.1,1.1v7l1.2,1.2h2.7l0.9-0.9v-2h1.5v2.6l-1.8,1.8h-3.9l-2.1-2.1v-8.1
		l2-2.1h4.1l1.7,1.7V93.3z"/>
	<path class="st2" d="M428.3,90.7H427v9.3h1.3v1.5h-3.9V100h1.1v-4.4h-4.7v4.4h1.1v1.5H418V100h1.3v-9.3H418v-1.5h3.9v1.5h-1.1v3.7
		h4.7v-3.7h-1.1v-1.5h3.9V90.7z"/>
	<path class="st2" d="M434.3,90.7h-1.3v9.3h1.3v1.5h-4.1V100h1.3v-9.3h-1.3v-1.5h4.1V90.7z"/>
	<path class="st2" d="M440.4,90.7h-1.3v9.3h4.5v-2h1.3v3.5h-8.6V100h1.3v-9.3h-1.3v-1.5h4.2V90.7z"/>
	<path class="st2" d="M455.1,99l-2.5,2.5H446V100h1.3v-9.3H446v-1.5h6.7l2.4,2.4V99z M448.9,90.7v9.3h3.3l1.5-1.5v-6.4l-1.4-1.4
		H448.9z"/>
	<path class="st2" d="M465.5,90.9v3.5l-1.7,1.7h-0.9l2,3.9h1.1v1.5h-3.8V100h1.1l-2-3.9h-1.8v3.9h1.1v1.5h-3.9V100h1.3v-9.3h-1.3
		v-1.5h7.1L465.5,90.9z M459.5,90.7v4.2h3.6L464,94v-2.4l-0.9-0.9H459.5z"/>
	<path class="st2" d="M475.9,92.4h-1.3v-1.7H470v3.8h3.1v-0.8h1.1v2.8h-1.1v-0.8H470v4.4h4.6v-1.7h1.3v3.2h-8.7V100h1.3v-9.3h-1.3
		v-1.5h8.7V92.4z"/>
	<path class="st2" d="M488,90.7h-1.3v10.8h-1.5l-5.2-10.2v8.7h1.1v1.5h-3.7V100h1.3v-9.3h-1.3v-1.5h3.3l4.7,9.4v-7.9h-1.1v-1.5h3.8
		V90.7z"/>
	<path class="st2" d="M503.6,100h1.4v1.5h-4.1V100h1.1l-0.6-2.2h-3.7L497,100h1.1v1.5h-3.8V100h1.4l2.5-9.3h-1.4v-1.5h3.9L503.6,100
		z M497.8,96.8h3.2l-1.6-6L497.8,96.8z"/>
	<path class="st2" d="M514.8,90.9v3.5l-1.7,1.7h-0.9l2,3.9h1.1v1.5h-3.8V100h1.1l-2-3.9h-1.8v3.9h1.1v1.5H506V100h1.3v-9.3H506v-1.5
		h7.1L514.8,90.9z M508.8,90.7v4.2h3.6l0.9-0.9v-2.4l-0.9-0.9H508.8z"/>
	<path class="st2" d="M525.1,92.4h-1.3v-1.7h-4.6v3.8h3.1v-0.8h1.1v2.8h-1.1v-0.8h-3.1v4.4h4.6v-1.7h1.3v3.2h-8.7V100h1.3v-9.3h-1.3
		v-1.5h8.7V92.4z"/>
	<path class="st2" d="M536.8,90.7h-1.3v9.3h1.3v1.5h-4.1V100h1.3v-9.3h-1.3v-1.5h4.1V90.7z"/>
	<path class="st2" d="M549.3,90.7H548v10.8h-1.5l-5.2-10.2v8.7h1.1v1.5h-3.7V100h1.3v-9.3h-1.3v-1.5h3.3l4.7,9.4v-7.9h-1.1v-1.5h3.8
		V90.7z"/>
	<path class="st2" d="M564.8,92.4h-1.3v-1.7h-4.6v4h3.6v-0.8h1.1v2.8h-1.1v-0.8h-3.6v4.1h1.4v1.5h-4.2V100h1.3v-9.3h-1.3v-1.5h8.7
		V92.4z"/>
	<path class="st2" d="M573.2,100h1.4v1.5h-4.1V100h1.1l-0.6-2.2h-3.7l-0.6,2.2h1.1v1.5H564V100h1.4l2.5-9.3h-1.4v-1.5h3.9L573.2,100
		z M567.5,96.8h3.2l-1.6-6L567.5,96.8z"/>
	<path class="st2" d="M583.1,93.3h-1.5v-1.7l-0.9-0.9h-2.8l-1.1,1.1v7l1.2,1.2h2.7l0.9-0.9v-2h1.5v2.6l-1.8,1.8h-3.9l-2.1-2.1v-8.1
		l2-2.1h4.1l1.7,1.7V93.3z"/>
	<path class="st2" d="M593.3,92.8H592v-2.2h-2.4v9.4h1.5v1.5h-4.4V100h1.5v-9.4h-2.4v2.2h-1.3v-3.6h9V92.8z"/>
	<path class="st2" d="M609,91.1v3.9l-1.9,1.9h-4.3v3.2h1.4v1.5H600V100h1.3v-9.3H600v-1.5h7.1L609,91.1z M602.9,90.7v4.8h3.6l1-1
		v-2.7l-1-1H602.9z"/>
	<path class="st2" d="M619.2,90.9v3.5l-1.7,1.7h-0.9l2,3.9h1.1v1.5h-3.8V100h1.1l-2-3.9h-1.8v3.9h1.1v1.5h-3.9V100h1.3v-9.3h-1.3
		v-1.5h7.1L619.2,90.9z M613.2,90.7v4.2h3.6l0.9-0.9v-2.4l-0.9-0.9H613.2z"/>
	<path class="st2" d="M629.5,92.4h-1.3v-1.7h-4.6v3.8h3.1v-0.8h1.1v2.8h-1.1v-0.8h-3.1v4.4h4.6v-1.7h1.3v3.2h-8.7V100h1.3v-9.3h-1.3
		v-1.5h8.7V92.4z"/>
	<path class="st2" d="M641.2,90.7h-1.3l-3,10.8h-2.1l-3-10.8h-1.3v-1.5h4.1v1.5h-1.1l2.5,9l2.4-9h-1v-1.5h3.8V90.7z"/>
	<path class="st2" d="M650.9,92.4h-1.3v-1.7h-4.6v3.8h3.1v-0.8h1.1v2.8h-1.1v-0.8h-3.1v4.4h4.6v-1.7h1.3v3.2h-8.7V100h1.3v-9.3h-1.3
		v-1.5h8.7V92.4z"/>
	<path class="st2" d="M663.1,90.7h-1.3v10.8h-1.5l-5.2-10.2v8.7h1.1v1.5h-3.7V100h1.3v-9.3h-1.3v-1.5h3.3l4.7,9.4v-7.9h-1.1v-1.5
		h3.8V90.7z"/>
	<path class="st2" d="M672.8,92.8h-1.3v-2.2h-2.4v9.4h1.5v1.5h-4.4V100h1.5v-9.4h-2.4v2.2h-1.3v-3.6h9V92.8z"/>
	<path class="st2" d="M681.5,100h1.4v1.5h-4.1V100h1.1l-0.6-2.2h-3.7l-0.6,2.2h1.1v1.5h-3.8V100h1.4l2.5-9.3h-1.4v-1.5h3.9
		L681.5,100z M675.7,96.8h3.2l-1.6-6L675.7,96.8z"/>
	<path class="st2" d="M692.5,93.8l-1.1,1.1l1.2,1.2v3.5l-1.8,1.8h-6.9V100h1.3v-9.3h-1.3v-1.5h6.9l1.7,1.7V93.8z M686.7,90.7v3.7
		h3.4l0.9-0.9v-1.9l-0.9-0.9H686.7z M686.7,95.7v4.3h3.4l0.9-1v-2.5l-0.9-0.9H686.7z"/>
	<path class="st2" d="M698.4,90.7H697v9.3h4.5v-2h1.3v3.5h-8.6V100h1.3v-9.3h-1.3v-1.5h4.2V90.7z"/>
	<path class="st2" d="M712.6,92.4h-1.3v-1.7h-4.6v3.8h3.1v-0.8h1.1v2.8h-1.1v-0.8h-3.1v4.4h4.6v-1.7h1.3v3.2H704V100h1.3v-9.3H704
		v-1.5h8.7V92.4z"/>
	<path class="st2" d="M715.7,101.5h-1.5v-1.8h1.5V101.5z"/>
	<path class="st2" d="M201.4,111.8h-1.3v9.3h1.3v1.5h-3.9v-1.5h1.1v-4.4h-4.7v4.4h1.1v1.5h-3.9v-1.5h1.3v-9.3h-1.3v-1.5h3.9v1.5
		h-1.1v3.7h4.7v-3.7h-1.1v-1.5h3.9V111.8z"/>
	<path class="st2" d="M211.7,113.5h-1.3v-1.7h-4.6v3.8h3.1v-0.8h1.1v2.8h-1.1v-0.8h-3.1v4.4h4.6v-1.7h1.3v3.2H203v-1.5h1.3v-9.3H203
		v-1.5h8.7V113.5z"/>
	<path class="st2" d="M222,112v3.5l-1.7,1.7h-0.9l2,3.9h1.1v1.5h-3.8v-1.5h1.1l-2-3.9h-1.8v3.9h1.1v1.5h-3.9v-1.5h1.3v-9.3h-1.3
		v-1.5h7.1L222,112z M216.1,111.8v4.2h3.6l0.9-0.9v-2.4l-0.9-0.9H216.1z"/>
	<path class="st2" d="M232.4,113.5h-1.3v-1.7h-4.6v3.8h3.1v-0.8h1.1v2.8h-1.1v-0.8h-3.1v4.4h4.6v-1.7h1.3v3.2h-8.7v-1.5h1.3v-9.3
		h-1.3v-1.5h8.7V113.5z"/>
	<path class="st2" d="M248.3,121.1h1.4v1.5h-4.1v-1.5h1.1l-0.6-2.2h-3.7l-0.6,2.2h1.1v1.5h-3.8v-1.5h1.4l2.5-9.3h-1.4v-1.5h3.9
		L248.3,121.1z M242.6,117.9h3.2l-1.6-6L242.6,117.9z"/>
	<path class="st2" d="M259.6,112v3.5l-1.7,1.7H257l2,3.9h1.1v1.5h-3.8v-1.5h1.1l-2-3.9h-1.8v3.9h1.1v1.5h-3.9v-1.5h1.3v-9.3h-1.3
		v-1.5h7.1L259.6,112z M253.6,111.8v4.2h3.6l0.9-0.9v-2.4l-0.9-0.9H253.6z"/>
	<path class="st2" d="M269.9,113.5h-1.3v-1.7H264v3.8h3.1v-0.8h1.1v2.8h-1.1v-0.8H264v4.4h4.6v-1.7h1.3v3.2h-8.7v-1.5h1.3v-9.3h-1.3
		v-1.5h8.7V113.5z"/>
	<path class="st2" d="M284.7,112v1.7h-1.5v-1.1l-0.9-0.9h-2.9l-0.9,0.9v2.2l0.7,0.6h4.2l1.4,1.4v3.9l-1.8,1.8h-4.2l-1.8-1.8v-2.3
		h1.5v1.6l1,1h2.9l0.9-1v-2.6l-0.6-0.7h-4.2l-1.4-1.4V112l1.7-1.7h4.2L284.7,112z"/>
	<path class="st2" d="M294.5,120.6l-2,2h-4.1l-2-2v-8.4l1.9-1.9h4.2l1.9,1.9V120.6z M288.9,111.8l-1,1v7.2l1.1,1.1h2.9l1.1-1.1v-7.2
		l-1-1H288.9z"/>
	<path class="st2" d="M307.5,111.8h-1.3v9.3h1.3v1.5h-4.2v-1.5h1.4v-8.7l-2.6,4.7h-0.8l-2.6-4.7v8.7h1.4v1.5H296v-1.5h1.3v-9.3H296
		v-1.5h3.1l2.7,4.9l2.7-4.9h3V111.8z"/>
	<path class="st2" d="M317.7,113.5h-1.3v-1.7h-4.6v3.8h3.1v-0.8h1.1v2.8H315v-0.8h-3.1v4.4h4.6v-1.7h1.3v3.2h-8.7v-1.5h1.3v-9.3
		h-1.3v-1.5h8.7V113.5z"/>
	<path class="st2" d="M333.6,115l-1.1,1.1l1.2,1.2v3.5l-1.8,1.8h-6.9v-1.5h1.3v-9.3h-1.3v-1.5h6.9l1.7,1.7V115z M327.8,111.8v3.7
		h3.4l0.9-0.9v-1.9l-0.9-0.9H327.8z M327.8,116.8v4.3h3.4l0.9-1v-2.5l-0.9-0.9H327.8z"/>
	<path class="st2" d="M344,112v3.5l-1.7,1.7h-0.9l2,3.9h1.1v1.5h-3.8v-1.5h1.1l-2-3.9H338v3.9h1.1v1.5h-3.9v-1.5h1.3v-9.3h-1.3v-1.5
		h7.1L344,112z M338,111.8v4.2h3.6l0.9-0.9v-2.4l-0.9-0.9H338z"/>
	<path class="st2" d="M350.1,111.8h-1.3v9.3h1.3v1.5H346v-1.5h1.3v-9.3H346v-1.5h4.1V111.8z"/>
	<path class="st2" d="M360.7,113.5h-1.3v-1.7h-4.6v3.8h3.1v-0.8h1.1v2.8H358v-0.8h-3.1v4.4h4.6v-1.7h1.3v3.2h-8.7v-1.5h1.3v-9.3
		h-1.3v-1.5h8.7V113.5z"/>
	<path class="st2" d="M371,113.5h-1.3v-1.7h-4.6v4h3.6V115h1.1v2.8h-1.1V117h-3.6v4.1h1.4v1.5h-4.2v-1.5h1.3v-9.3h-1.3v-1.5h8.7
		V113.5z"/>
	<path class="st2" d="M385.6,112v1.7h-1.5v-1.1l-0.9-0.9h-2.9l-0.9,0.9v2.2l0.7,0.6h4.2l1.4,1.4v3.9l-1.8,1.8h-4.2l-1.8-1.8v-2.3
		h1.5v1.6l1,1h2.9l0.9-1v-2.6l-0.6-0.7h-4.2l-1.4-1.4V112l1.7-1.7h4.2L385.6,112z"/>
	<path class="st2" d="M396.2,112.2v3.9l-1.9,1.9H390v3.2h1.4v1.5h-4.2v-1.5h1.3v-9.3h-1.3v-1.5h7.1L396.2,112.2z M390,111.8v4.8h3.6
		l1-1v-2.7l-1-1H390z"/>
	<path class="st2" d="M405.6,120.6l-2,2h-4.1l-2-2v-8.4l1.9-1.9h4.2l1.9,1.9V120.6z M400.1,111.8l-1,1v7.2l1.1,1.1h2.9l1.1-1.1v-7.2
		l-1-1H400.1z"/>
	<path class="st2" d="M416,112v3.5l-1.7,1.7h-0.9l2,3.9h1.1v1.5h-3.8v-1.5h1.1l-2-3.9H410v3.9h1.1v1.5h-3.9v-1.5h1.3v-9.3h-1.3v-1.5
		h7.1L416,112z M410,111.8v4.2h3.6l0.9-0.9v-2.4l-0.9-0.9H410z"/>
	<path class="st2" d="M426.2,113.9h-1.3v-2.2h-2.4v9.4h1.5v1.5h-4.4v-1.5h1.5v-9.4h-2.4v2.2h-1.3v-3.6h9V113.9z"/>
	<path class="st2" d="M435,112v1.7h-1.5v-1.1l-0.9-0.9h-2.9l-0.9,0.9v2.2l0.7,0.6h4.2l1.4,1.4v3.9l-1.8,1.8h-4.2l-1.8-1.8v-2.3h1.5
		v1.6l1,1h2.9l0.9-1v-2.6l-0.6-0.7h-4.2l-1.4-1.4V112l1.7-1.7h4.2L435,112z"/>
	<path class="st2" d="M446.7,111.8h-1.3v9.3h1.3v1.5h-4.1v-1.5h1.3v-9.3h-1.3v-1.5h4.1V111.8z"/>
	<path class="st2" d="M459.2,111.8h-1.3v10.8h-1.5l-5.2-10.2v8.7h1.1v1.5h-3.7v-1.5h1.3v-9.3h-1.3v-1.5h3.3l4.7,9.4v-7.9h-1.1v-1.5
		h3.8V111.8z"/>
	<path class="st2" d="M468.9,111.8h-1.3v8.7l-2.2,2.2h-3.2l-1.8-1.8V118h1.5v2.2l1,1h2l1.2-1.2v-8.1h-1.8v-1.5h4.6V111.8z"/>
	<path class="st2" d="M479.6,111.8h-1.3v8.9l-1.9,1.9h-3.9l-1.9-1.9v-8.9h-1.3v-1.5h3.9v1.5h-1.1v8.2l1.1,1.1h2.6l1.1-1.1v-8.2h-1.1
		v-1.5h3.9V111.8z"/>
	<path class="st2" d="M489.6,112v3.5l-1.7,1.7H487l2,3.9h1.1v1.5h-3.8v-1.5h1.1l-2-3.9h-1.8v3.9h1.1v1.5h-3.9v-1.5h1.3v-9.3h-1.3
		v-1.5h7.1L489.6,112z M483.6,111.8v4.2h3.6l0.9-0.9v-2.4l-0.9-0.9H483.6z"/>
	<path class="st2" d="M500.2,111.8H499l-2.8,5.8v3.5h1.3v1.5h-4.2v-1.5h1.3v-3.5l-2.8-5.8h-1.2v-1.5h3.8v1.5h-1l2.1,4.6l2.1-4.6h-1
		v-1.5h3.5V111.8z"/>
	<path class="st2" d="M515.5,113.5h-1.3v-1.7h-4.6v4h3.6V115h1.1v2.8h-1.1V117h-3.6v4.1h1.4v1.5h-4.2v-1.5h1.3v-9.3h-1.3v-1.5h8.7
		V113.5z"/>
	<path class="st2" d="M524,121.1h1.4v1.5h-4.1v-1.5h1.1l-0.6-2.2H518l-0.6,2.2h1.1v1.5h-3.8v-1.5h1.4l2.5-9.3h-1.4v-1.5h3.9
		L524,121.1z M518.2,117.9h3.2l-1.6-6L518.2,117.9z"/>
	<path class="st2" d="M533.8,114.4h-1.5v-1.7l-0.9-0.9h-2.8l-1.1,1.1v7l1.2,1.2h2.7l0.9-0.9v-2h1.5v2.6l-1.8,1.8h-3.9l-2.1-2.1v-8.1
		l2-2.1h4.1l1.7,1.7V114.4z"/>
	<path class="st2" d="M544,113.9h-1.3v-2.2h-2.4v9.4h1.5v1.5h-4.4v-1.5h1.5v-9.4h-2.4v2.2H535v-3.6h9V113.9z"/>
	<path class="st2" d="M552.8,112v1.7h-1.5v-1.1l-0.9-0.9h-2.9l-0.9,0.9v2.2l0.7,0.6h4.2l1.4,1.4v3.9l-1.8,1.8h-4.2l-1.8-1.8v-2.3
		h1.5v1.6l1,1h2.9l0.9-1v-2.6l-0.6-0.7h-4.2l-1.4-1.4V112l1.7-1.7h4.2L552.8,112z"/>
	<path class="st2" d="M555.2,122.6h-1.5v-1.8h1.5V122.6z"/>
</g>
<g>
</g>
<g>
</g>
<g>
</g>
<g>
</g>
<g>
</g>
<g>
</g>
<g>
</g>
<g>
</g>
<g>
</g>
<g>
</g>
<g>
</g>
<g>
</g>
<g>
</g>
<g>
</g>
<g>
</g>
</svg>
